<?xml version="1.0" encoding="utf-8"?>
<!-- Generator: Adobe Illustrator 21.1.0, SVG Export Plug-In . SVG Version: 6.00 Build 0)  -->
<svg version="1.1" id="Layer_1" xmlns="http://www.w3.org/2000/svg" xmlns:xlink="http://www.w3.org/1999/xlink" x="0px" y="0px"
	 viewBox="0 0 24 18" style="enable-background:new 0 0 24 18;" xml:space="preserve">
<style type="text/css">
	.st0{fill:#A9AFBB;}
	.st1{fill:#A9AFBB;stroke:#A9AFBB;stroke-width:0.5;stroke-miterlimit:10;}
</style>
<title>contact</title>
<path class="st0" d="M22,0H2C0.9,0,0,0.9,0,2v14c0,1.1,0.9,2,2,2h20c1.1,0,2-0.9,2-2V2C24,0.9,23.1,0,22,0z M6.5,6
	c1.2,0,2.2,1,2.2,2.2s-1,2.2-2.2,2.2s-2.2-1-2.2-2.2S5.3,6,6.5,6z M11,15H2v-0.8c0-1.5,3-2.3,4.5-2.3s4.5,0.8,4.5,2.3V15z M22,10.5
	H12V3h10V10.5z"/>
<path class="st1" d="M16.3,7.9l-1.6-1.6l-0.5,0.5L16.3,9l4.5-4.5L20.3,4L16.3,7.9z"/>
</svg>
