<svg id="Layer_1" data-name="Layer 1" xmlns="http://www.w3.org/2000/svg" width="24" height="18" viewBox="0 0 24 18"><defs><style>.cls-1,.cls-2{fill:#fff;}.cls-2{stroke:#fff;stroke-miterlimit:10;stroke-width:0.5px;}</style></defs><title>contact</title><path class="cls-1" d="M22,0H2A2,2,0,0,0,0,2V16a2,2,0,0,0,2,2H22a2,2,0,0,0,2-2V2A2,2,0,0,0,22,0ZM6.5,6A2.25,2.25,0,1,1,4.25,8.25,2.25,2.25,0,0,1,6.5,6ZM11,15H2v-.75c0-1.5,3-2.33,4.5-2.33s4.5.83,4.5,2.33Zm11-4.5H12V3H22Z"/><path class="cls-2" d="M16.32,7.94,14.76,6.37l-.52.52L16.32,9,20.8,4.5,20.28,4Z"/></svg>