<svg id="Layer_1" data-name="Layer 1" xmlns="http://www.w3.org/2000/svg" width="24" height="18" viewBox="0 0 24 18"><defs><style>.cls-1{fill:#fff;}</style></defs><title>contact</title><path class="cls-1" d="M22,0H2A2,2,0,0,0,0,2V16a2,2,0,0,0,2,2H22a2,2,0,0,0,2-2V2A2,2,0,0,0,22,0ZM6.5,6A2.25,2.25,0,1,1,4.25,8.25,2.25,2.25,0,0,1,6.5,6ZM11,15H2v-.75c0-1.5,3-2.33,4.5-2.33s4.5.83,4.5,2.33Zm11-4.5H12V3H22Z"/><polygon class="cls-1" points="20.02 6.34 20.02 5.34 17.02 7.34 14.02 5.34 14.02 6.34 17.02 8.34 20.02 6.34"/><polyline class="cls-1" points="14.64 5.77 12.94 4.63 12.94 5.63 14.47 6.66"/><polyline class="cls-1" points="19.81 6.48 21.34 5.46 21.34 4.46 19.64 5.59"/></svg>