<svg id="Capa_1" data-name="Capa 1" xmlns="http://www.w3.org/2000/svg" xmlns:xlink="http://www.w3.org/1999/xlink" viewBox="0 0 300 121.75"><defs><style>.cls-1,.cls-2{fill:none;}.cls-2,.cls-4{clip-path:url(#clip-path);}.cls-3{clip-path:url(#clip-path-5);}.cls-5{fill:#b3b3b3;}</style><clipPath id="clip-path"><polyline class="cls-1" points="12.24 -32.44 263.02 -32.44 263.02 136.72 12.24 136.72 12.24 -32.44"/></clipPath><clipPath id="clip-path-5"><rect class="cls-1" x="9.29" y="-2.15" width="280.29" height="124.9"/></clipPath></defs><title>Mesa de trabajo 1 copia</title><g class="cls-3"><g class="cls-4"><path class="cls-5" d="M34.86,58,44.2,31.78,53.35,58H34.86M49.61,17.72H39.09L13.42,82.62H27.29l5.8-15.74H55.32l5.8,15.74H75L49.42,17.72"/><path class="cls-5" d="M103.8,73.18a11.39,11.39,0,0,1-7.08-2.56A15.34,15.34,0,0,1,91.9,64V53.22a9.52,9.52,0,0,1,1.77-3,12.53,12.53,0,0,1,2.66-2.46A12.67,12.67,0,0,1,99.57,46a11,11,0,0,1,3.44-.59,12.89,12.89,0,0,1,5.11,1.08,12,12,0,0,1,4,2.85,12.26,12.26,0,0,1,2.66,4.33,13.93,13.93,0,0,1,1,5.41,16.71,16.71,0,0,1-.89,5.31A15.53,15.53,0,0,1,112.46,69a11.45,11.45,0,0,1-3.84,3,10,10,0,0,1-4.82,1.18m3-37.77a18.07,18.07,0,0,0-9.34,2.36,17.85,17.85,0,0,0-6.59,6.39V36.4H80.1v65.89H91.9V74.17a17.85,17.85,0,0,0,6.39,6.59,18.22,18.22,0,0,0,9.44,2.46,17.49,17.49,0,0,0,8.16-1.87,20.13,20.13,0,0,0,6.39-5.11,26.19,26.19,0,0,0,4.23-7.67A29.67,29.67,0,0,0,128,59.12,25.6,25.6,0,0,0,126.32,50a23.51,23.51,0,0,0-4.52-7.57,21,21,0,0,0-6.88-5.11,19.55,19.55,0,0,0-8.65-1.87"/><path class="cls-5" d="M157.6,73.18a11,11,0,0,1-4.72-1A12.22,12.22,0,0,1,149,69.35,13.62,13.62,0,0,1,146.48,65a16.76,16.76,0,0,1-.89-5.61,16.58,16.58,0,0,1,.89-5.51A14.1,14.1,0,0,1,149,49.48a10.88,10.88,0,0,1,3.84-2.85,11.31,11.31,0,0,1,9.44-.1,12.22,12.22,0,0,1,6.39,7.28,16.58,16.58,0,0,1,.89,5.51,16.76,16.76,0,0,1-.89,5.61,14.1,14.1,0,0,1-2.56,4.43,10.88,10.88,0,0,1-3.84,2.85,11.88,11.88,0,0,1-4.72,1m0-37.77a25.49,25.49,0,0,0-10.13,2,24.63,24.63,0,0,0-7.67,5.21A22.62,22.62,0,0,0,135,50.17a25.58,25.58,0,0,0,0,18.19,22.56,22.56,0,0,0,12.49,12.79,27.07,27.07,0,0,0,20.26,0,23.11,23.11,0,0,0,7.57-5.21A22.37,22.37,0,0,0,180,68.36a25.58,25.58,0,0,0,0-18.19,22.62,22.62,0,0,0-4.82-7.57,23.11,23.11,0,0,0-7.57-5.21,24.33,24.33,0,0,0-10-2"/><path class="cls-5" d="M201.07,17.72h-11.8v53.6c0,3.64,1,6.39,3,8.36s4.92,3,8.56,3a31.21,31.21,0,0,0,5.7-.59,21.3,21.3,0,0,0,5.51-1.77l-1.57-9.44a18,18,0,0,1-2.46.79,11,11,0,0,1-2.26.39c-3.25,0-4.82-1.77-4.82-5.41V17.72"/><path class="cls-5" d="M238.64,73.18a10.69,10.69,0,0,1-4.72-1,12.22,12.22,0,0,1-3.84-2.85A13.62,13.62,0,0,1,227.52,65a16.76,16.76,0,0,1-.89-5.61,16.58,16.58,0,0,1,.89-5.51,14.1,14.1,0,0,1,2.56-4.43,10.88,10.88,0,0,1,3.84-2.85,11.31,11.31,0,0,1,9.44-.1,12.22,12.22,0,0,1,6.39,7.28,16.58,16.58,0,0,1,.89,5.51,16.76,16.76,0,0,1-.89,5.61,14.1,14.1,0,0,1-2.56,4.43,10.88,10.88,0,0,1-3.84,2.85,12.66,12.66,0,0,1-4.72,1m.3-37.77a25.49,25.49,0,0,0-10.13,2,24.63,24.63,0,0,0-7.67,5.21,22.62,22.62,0,0,0-4.82,7.57,25.58,25.58,0,0,0,0,18.19A22.56,22.56,0,0,0,228.8,81.15a25.84,25.84,0,0,0,10.13,2,25.49,25.49,0,0,0,10.13-2,22.12,22.12,0,0,0,7.57-5.21,22.37,22.37,0,0,0,4.72-7.57,22.75,22.75,0,0,0,1.57-6.79V57.05a24.12,24.12,0,0,0-1.57-6.88,22.62,22.62,0,0,0-4.82-7.57A23.11,23.11,0,0,0,249,37.39a25,25,0,0,0-10-2"/></g><path class="cls-5" d="M281.42,42.7a1.87,1.87,0,0,0,0-3.74,1.87,1.87,0,0,0,0,3.74Z"/><path class="cls-5" d="M281.42,43.19a2.36,2.36,0,1,1,2.26-2.36A2.24,2.24,0,0,1,281.42,43.19Zm0-3.74a1.38,1.38,0,1,0,1.38,1.38A1.34,1.34,0,0,0,281.42,39.45Z"/><path class="cls-5" d="M285.45,30c2.36,0,2.36-3.74,0-3.74s-2.36,3.74,0,3.74Z"/><path class="cls-5" d="M285.45,30.5a2.36,2.36,0,1,1,2.26-2.36A2.19,2.19,0,0,1,285.45,30.5Zm0-3.74a1.38,1.38,0,1,0,1.38,1.38A1.29,1.29,0,0,0,285.45,26.76Z"/><path class="cls-5" d="M274.73,22.14a1.87,1.87,0,0,0,0-3.74c-2.36,0-2.36,3.74,0,3.74Z"/><path class="cls-5" d="M274.73,22.53a2.22,2.22,0,0,1-2.26-2.26A2.17,2.17,0,0,1,274.73,18a2.26,2.26,0,0,1,0,4.52Zm0-3.74a1.38,1.38,0,1,0,1.38,1.38A1.34,1.34,0,0,0,274.73,18.8Z"/><path class="cls-5" d="M263.91,30c2.36,0,2.36-3.74,0-3.74s-2.36,3.74,0,3.74Z"/><path class="cls-5" d="M263.91,30.5a2.36,2.36,0,1,1,2.26-2.36A2.19,2.19,0,0,1,263.91,30.5Zm0-3.74a1.38,1.38,0,1,0,1.38,1.38A1.29,1.29,0,0,0,263.91,26.76Z"/><path class="cls-5" d="M268,42.7c2.36,0,2.36-3.74,0-3.74s-2.36,3.74,0,3.74Z"/><path class="cls-5" d="M268,43.19a2.36,2.36,0,1,1,2.26-2.36A2.24,2.24,0,0,1,268,43.19Zm0-3.74a1.38,1.38,0,0,0,0,2.75,1.34,1.34,0,0,0,1.38-1.38A1.29,1.29,0,0,0,268,39.45Z"/><path class="cls-5" d="M268,23.42a.94.94,0,0,0,0-1.87c-1.18-.1-1.18,1.87,0,1.87Z"/><path class="cls-5" d="M268,23.81a1.38,1.38,0,1,1,1.38-1.38A1.34,1.34,0,0,1,268,23.81Zm0-1.87a.49.49,0,0,0,0,1,.51.51,0,0,0,.49-.49A.44.44,0,0,0,268,21.94Z"/><path class="cls-5" d="M264.3,35.91a.94.94,0,0,0,0-1.87c-1.18-.1-1.18,1.87,0,1.87Z"/><path class="cls-5" d="M264.3,36.3a1.38,1.38,0,1,1,1.38-1.38A1.34,1.34,0,0,1,264.3,36.3Zm0-1.87a.51.51,0,0,0-.49.49.44.44,0,0,0,.49.49.49.49,0,1,0,0-1Z"/><path class="cls-5" d="M274.53,43.88a.94.94,0,0,0,0-1.87.94.94,0,0,0,0,1.87Z"/><path class="cls-5" d="M274.53,44.27a1.38,1.38,0,1,1,1.38-1.38A1.34,1.34,0,0,1,274.53,44.27Zm0-1.87a.51.51,0,0,0-.49.49.44.44,0,0,0,.49.49.51.51,0,0,0,.49-.49A.44.44,0,0,0,274.53,42.4Z"/><path class="cls-5" d="M285.15,35.91a.94.94,0,0,0,0-1.87c-1.18-.1-1.18,1.87,0,1.87Z"/><path class="cls-5" d="M285.15,36.3a1.38,1.38,0,1,1,1.38-1.38A1.34,1.34,0,0,1,285.15,36.3Zm0-1.87a.49.49,0,1,0,0,1,.49.49,0,1,0,0-1Z"/><path class="cls-5" d="M281.42,23.42a.94.94,0,0,0,0-1.87c-1.28-.1-1.28,1.87,0,1.87Z"/><path class="cls-5" d="M281.42,23.81a1.38,1.38,0,1,1,1.38-1.38A1.41,1.41,0,0,1,281.42,23.81Zm0-1.87a.51.51,0,0,0-.49.49.44.44,0,0,0,.49.49.51.51,0,0,0,.49-.49C281.81,22.34,281.81,21.94,281.42,21.94Z"/><path class="cls-5" d="M126.82,96.1c-.1-.1-.2-.2-.3-.2a.75.75,0,0,0-.39-.2c-.2-.1-.39-.1-.59-.2s-.39-.1-.69-.1a1.47,1.47,0,0,0-1,.3.89.89,0,0,0-.3.69c0,.2,0,.3.1.39l.3.3a.83.83,0,0,0,.59.2c.2.1.49.1.79.2s.69.2,1,.3a1.59,1.59,0,0,1,.69.39c.2.2.39.3.49.59a1.85,1.85,0,0,1,.2.79,2.91,2.91,0,0,1-.2,1,.89.89,0,0,1-.59.59,2,2,0,0,1-.79.39,3.35,3.35,0,0,1-1,.1,8.61,8.61,0,0,1-1.57-.2,6,6,0,0,1-1.38-.69l.49-1a1.36,1.36,0,0,0,.39.3l.59.3a1.82,1.82,0,0,0,.69.2,2.17,2.17,0,0,0,.79.1,2.47,2.47,0,0,0,1-.2,1,1,0,0,0,.39-.69.89.89,0,0,0-.1-.49A1.36,1.36,0,0,0,126,99a1.4,1.4,0,0,0-.59-.2,1.85,1.85,0,0,0-.79-.2,4.57,4.57,0,0,1-.89-.3,1.59,1.59,0,0,1-.69-.39,1,1,0,0,1-.39-.49,1.46,1.46,0,0,1-.1-.69,2.35,2.35,0,0,1,.2-.89,1.76,1.76,0,0,1,.49-.69,2,2,0,0,1,.79-.39,3.35,3.35,0,0,1,1-.1,5.8,5.8,0,0,1,1.38.2,3.82,3.82,0,0,1,1.08.59Z"/><path class="cls-5" d="M144.42,100.52v1H139.6V94.43h4.72v1h-3.64v2h3.15v.89h-3.15v2.16h3.74Z"/><path class="cls-5" d="M156.52,101.51V94.43h3a2.87,2.87,0,0,1,.89.2,1.76,1.76,0,0,1,.69.49c.2.2.3.49.49.69a2.87,2.87,0,0,1,.2.89,1.67,1.67,0,0,1-.1.69l-.3.59a2.15,2.15,0,0,1-.39.49l-.59.3,1.67,2.66h-1.28L159.27,99H157.6v2.46h-1.08Zm1.18-3.44h2c.2,0,.3,0,.39-.1l.3-.3a.75.75,0,0,0,.2-.39.89.89,0,0,0,.1-.49.74.74,0,0,0-.1-.49c-.1-.2-.1-.3-.3-.39a1.36,1.36,0,0,0-.39-.3.59.59,0,0,0-.39-.1H157.6v2.56Z"/><path class="cls-5" d="M174.32,94.43l2.16,5.61,2.07-5.61h1.18l-2.85,7.08h-1L173,94.43Z"/><path class="cls-5" d="M191.43,101.51V94.43h1.08v7h-1.08Z"/><path class="cls-5" d="M204.61,98a5.76,5.76,0,0,1,.2-1.28,4.06,4.06,0,0,1,.69-1.08,3.08,3.08,0,0,1,1.08-.79,3.14,3.14,0,0,1,1.38-.3,2.68,2.68,0,0,1,1.57.39,2.55,2.55,0,0,1,1,1.08l-.89.59a1,1,0,0,0-.39-.49.84.84,0,0,0-.49-.3c-.2-.1-.3-.1-.49-.2s-.3-.1-.49-.1a2.91,2.91,0,0,0-1,.2,4.28,4.28,0,0,0-.69.59,2,2,0,0,0-.39.79,2.72,2.72,0,0,0-.1.89,2.91,2.91,0,0,0,.2,1,2.14,2.14,0,0,0,.49.79,4.28,4.28,0,0,0,.69.59,2.87,2.87,0,0,0,.89.2.89.89,0,0,0,.49-.1.75.75,0,0,0,.49-.2,1.73,1.73,0,0,0,.49-.39,2.14,2.14,0,0,0,.39-.49l.89.49a2.57,2.57,0,0,1-1.18,1.18c-.3.1-.49.3-.79.3a2.72,2.72,0,0,1-.89.1,3.14,3.14,0,0,1-1.38-.3,4.37,4.37,0,0,1-1.08-.79,3.4,3.4,0,0,1-.69-1.18A4.72,4.72,0,0,0,204.61,98Z"/><path class="cls-5" d="M227.52,100.52v1H222.7V94.43h4.72v1h-3.64v2h3.15v.89h-3.15v2.16h3.74Z"/></g></svg>