<svg id="Capa_1" data-name="Capa 1" xmlns="http://www.w3.org/2000/svg" xmlns:xlink="http://www.w3.org/1999/xlink" viewBox="0 0 263.99 112.49"><defs><style>.cls-1,.cls-2{fill:none;}.cls-2,.cls-4{clip-path:url(#clip-path);}.cls-3{clip-path:url(#clip-path-5);}.cls-5{fill:#b3b3b3;}</style><clipPath id="clip-path"><polyline class="cls-1" points="35 -7.96 215.8 -7.96 215.8 113.99 35 113.99 35 -7.96"/></clipPath><clipPath id="clip-path-5"><rect class="cls-1" x="32.87" y="13.88" width="202.07" height="90.05"/></clipPath></defs><title>Mesa de trabajo 19</title><g class="cls-3"><g class="cls-4"><path class="cls-5" d="M51.31,57.27,58,38.34l6.59,18.93H51.31M61.94,28.2H54.36L35.85,75h10L50,63.65h16L70.24,75h10L61.8,28.2"/><path class="cls-5" d="M101,68.19a8.21,8.21,0,0,1-5.11-1.84,11.06,11.06,0,0,1-3.47-4.75V53.8a6.86,6.86,0,0,1,1.28-2.2,9,9,0,0,1,1.91-1.77A9.14,9.14,0,0,1,98,48.62a7.94,7.94,0,0,1,2.48-.43,9.29,9.29,0,0,1,3.69.78A8.64,8.64,0,0,1,107,51,8.84,8.84,0,0,1,109,54.15a10,10,0,0,1,.71,3.9,12,12,0,0,1-.64,3.83,11.2,11.2,0,0,1-1.77,3.26,8.26,8.26,0,0,1-2.77,2.2,7.2,7.2,0,0,1-3.47.85M103.21,41a13,13,0,0,0-6.74,1.7,12.87,12.87,0,0,0-4.75,4.61v-5.6h-7.8V89.18h8.51V68.9A12.87,12.87,0,0,0,97,73.65a13.14,13.14,0,0,0,6.81,1.77,12.61,12.61,0,0,0,5.88-1.35,14.52,14.52,0,0,0,4.61-3.69,18.88,18.88,0,0,0,3-5.53,21.39,21.39,0,0,0,1.06-6.81,18.45,18.45,0,0,0-1.21-6.59A17,17,0,0,0,114,46a15.14,15.14,0,0,0-5-3.69A14.1,14.1,0,0,0,102.78,41"/><path class="cls-5" d="M139.79,68.19a7.92,7.92,0,0,1-3.4-.71,8.81,8.81,0,0,1-2.77-2.06,9.82,9.82,0,0,1-1.84-3.12,12.08,12.08,0,0,1-.64-4,12,12,0,0,1,.64-4,10.17,10.17,0,0,1,1.84-3.19A7.85,7.85,0,0,1,136.39,49,8.15,8.15,0,0,1,143.2,49a8.81,8.81,0,0,1,4.61,5.25,12,12,0,0,1,.64,4,12.08,12.08,0,0,1-.64,4A10.17,10.17,0,0,1,146,65.42a7.85,7.85,0,0,1-2.77,2.06,8.57,8.57,0,0,1-3.4.71m0-27.23a18.38,18.38,0,0,0-7.3,1.42A17.76,17.76,0,0,0,127,46.14a16.31,16.31,0,0,0-3.47,5.46,18.45,18.45,0,0,0,0,13.12,16.27,16.27,0,0,0,9,9.22,19.51,19.51,0,0,0,14.61,0,16.66,16.66,0,0,0,5.46-3.76,16.13,16.13,0,0,0,3.4-5.46,18.45,18.45,0,0,0,0-13.12,16.31,16.31,0,0,0-3.47-5.46A16.66,16.66,0,0,0,147,42.38,17.54,17.54,0,0,0,139.79,41"/><path class="cls-5" d="M171.13,28.2h-8.51V66.84a7.87,7.87,0,0,0,2.2,6A8.58,8.58,0,0,0,171,75a22.5,22.5,0,0,0,4.11-.43,15.36,15.36,0,0,0,4-1.28l-1.13-6.81a13,13,0,0,1-1.77.57,7.89,7.89,0,0,1-1.63.28c-2.34,0-3.47-1.28-3.47-3.9V28.2"/><path class="cls-5" d="M198.22,68.19a7.71,7.71,0,0,1-3.4-.71A8.81,8.81,0,0,1,192,65.42a9.82,9.82,0,0,1-1.84-3.12,12.08,12.08,0,0,1-.64-4,12,12,0,0,1,.64-4A10.17,10.17,0,0,1,192,51.1,7.85,7.85,0,0,1,194.81,49a8.15,8.15,0,0,1,6.81-.07,8.81,8.81,0,0,1,4.61,5.25,12,12,0,0,1,.64,4,12.08,12.08,0,0,1-.64,4,10.17,10.17,0,0,1-1.84,3.19,7.85,7.85,0,0,1-2.77,2.06,9.13,9.13,0,0,1-3.4.71M198.43,41a18.38,18.38,0,0,0-7.3,1.42,17.76,17.76,0,0,0-5.53,3.76,16.31,16.31,0,0,0-3.47,5.46,18.45,18.45,0,0,0,0,13.12,16.27,16.27,0,0,0,9,9.22,18.63,18.63,0,0,0,7.3,1.42,18.38,18.38,0,0,0,7.3-1.42,16,16,0,0,0,5.46-3.76,16.12,16.12,0,0,0,3.4-5.46,16.4,16.4,0,0,0,1.13-4.89V56.56a17.39,17.39,0,0,0-1.13-5,16.31,16.31,0,0,0-3.47-5.46,16.66,16.66,0,0,0-5.46-3.76A18,18,0,0,0,198.43,41"/></g><path class="cls-5" d="M229.06,46.21a1.35,1.35,0,0,0,0-2.69,1.35,1.35,0,0,0,0,2.69Z"/><path class="cls-5" d="M229.06,46.56a1.7,1.7,0,1,1,1.63-1.7A1.62,1.62,0,0,1,229.06,46.56Zm0-2.69a1,1,0,1,0,1,1A1,1,0,0,0,229.06,43.87Z"/><path class="cls-5" d="M232,37.06a1.35,1.35,0,0,0,0-2.69,1.35,1.35,0,0,0,0,2.69Z"/><path class="cls-5" d="M232,37.42a1.7,1.7,0,1,1,1.63-1.7A1.58,1.58,0,0,1,232,37.42Zm0-2.69a1,1,0,1,0,1,1A.93.93,0,0,0,232,34.72Z"/><path class="cls-5" d="M224.24,31.39a1.35,1.35,0,0,0,0-2.69,1.35,1.35,0,0,0,0,2.69Z"/><path class="cls-5" d="M224.24,31.67A1.6,1.6,0,0,1,222.61,30a1.56,1.56,0,0,1,1.63-1.63,1.63,1.63,0,0,1,0,3.26Zm0-2.69a1,1,0,1,0,1,1A1,1,0,0,0,224.24,29Z"/><path class="cls-5" d="M216.44,37.06a1.35,1.35,0,0,0,0-2.69,1.35,1.35,0,0,0,0,2.69Z"/><path class="cls-5" d="M216.44,37.42a1.7,1.7,0,1,1,1.63-1.7A1.58,1.58,0,0,1,216.44,37.42Zm0-2.69a1,1,0,1,0,1,1A.93.93,0,0,0,216.44,34.72Z"/><path class="cls-5" d="M219.42,46.21a1.35,1.35,0,0,0,0-2.69,1.35,1.35,0,0,0,0,2.69Z"/><path class="cls-5" d="M219.42,46.56a1.7,1.7,0,1,1,1.63-1.7A1.62,1.62,0,0,1,219.42,46.56Zm0-2.69a1,1,0,0,0,0,2,1,1,0,0,0,1-1A.93.93,0,0,0,219.42,43.87Z"/><path class="cls-5" d="M219.42,32.31a.67.67,0,0,0,0-1.35c-.85-.07-.85,1.35,0,1.35Z"/><path class="cls-5" d="M219.42,32.6a1,1,0,1,1,1-1A1,1,0,0,1,219.42,32.6Zm0-1.35a.35.35,0,0,0,0,.71.37.37,0,0,0,.35-.35A.32.32,0,0,0,219.42,31.25Z"/><path class="cls-5" d="M216.72,41.32a.67.67,0,0,0,0-1.35c-.85-.07-.85,1.35,0,1.35Z"/><path class="cls-5" d="M216.72,41.6a1,1,0,1,1,1-1A1,1,0,0,1,216.72,41.6Zm0-1.35a.37.37,0,0,0-.35.35.32.32,0,0,0,.35.35.35.35,0,0,0,0-.71Z"/><path class="cls-5" d="M224.1,47.06a.67.67,0,0,0,0-1.35.67.67,0,0,0,0,1.35Z"/><path class="cls-5" d="M224.1,47.34a1,1,0,1,1,1-1A1,1,0,0,1,224.1,47.34Zm0-1.35a.37.37,0,0,0-.35.35.32.32,0,0,0,.35.35.37.37,0,0,0,.35-.35A.32.32,0,0,0,224.1,46Z"/><path class="cls-5" d="M231.76,41.32a.67.67,0,0,0,0-1.35c-.85-.07-.85,1.35,0,1.35Z"/><path class="cls-5" d="M231.76,41.6a1,1,0,1,1,1-1A1,1,0,0,1,231.76,41.6Zm0-1.35a.35.35,0,1,0,0,.71.35.35,0,0,0,0-.71Z"/><path class="cls-5" d="M229.06,32.31a.67.67,0,0,0,0-1.35c-.92-.07-.92,1.35,0,1.35Z"/><path class="cls-5" d="M229.06,32.6a1,1,0,1,1,1-1A1,1,0,0,1,229.06,32.6Zm0-1.35a.37.37,0,0,0-.35.35.32.32,0,0,0,.35.35.37.37,0,0,0,.35-.35C229.34,31.53,229.34,31.25,229.06,31.25Z"/><path class="cls-5" d="M117.6,84.71c-.07-.07-.14-.14-.21-.14a.54.54,0,0,0-.28-.14c-.14-.07-.28-.07-.43-.14s-.28-.07-.5-.07a1.06,1.06,0,0,0-.71.21.64.64,0,0,0-.21.5c0,.14,0,.21.07.28l.21.21a.6.6,0,0,0,.43.14c.14.07.35.07.57.14s.5.14.71.21a1.14,1.14,0,0,1,.5.28c.14.14.28.21.35.43a1.34,1.34,0,0,1,.14.57,2.1,2.1,0,0,1-.14.71.64.64,0,0,1-.43.43,1.43,1.43,0,0,1-.57.28,2.41,2.41,0,0,1-.71.07,6.21,6.21,0,0,1-1.13-.14,4.33,4.33,0,0,1-1-.5l.35-.71a1,1,0,0,0,.28.21l.43.21a1.31,1.31,0,0,0,.5.14,1.56,1.56,0,0,0,.57.07,1.78,1.78,0,0,0,.71-.14.72.72,0,0,0,.28-.5.64.64,0,0,0-.07-.35,1,1,0,0,0-.28-.21,1,1,0,0,0-.43-.14,1.34,1.34,0,0,0-.57-.14,3.3,3.3,0,0,1-.64-.21,1.14,1.14,0,0,1-.5-.28.71.71,0,0,1-.28-.35,1.05,1.05,0,0,1-.07-.5,1.69,1.69,0,0,1,.14-.64A1.27,1.27,0,0,1,115,84a1.43,1.43,0,0,1,.57-.28,2.41,2.41,0,0,1,.71-.07,4.18,4.18,0,0,1,1,.14,2.75,2.75,0,0,1,.78.43Z"/><path class="cls-5" d="M130.29,87.9v.71h-3.47V83.5h3.4v.71H127.6v1.42h2.27v.64H127.6v1.56h2.69Z"/><path class="cls-5" d="M139,88.61V83.5h2.2a2.07,2.07,0,0,1,.64.14,1.27,1.27,0,0,1,.5.35c.14.14.21.35.35.5a2.07,2.07,0,0,1,.14.64,1.21,1.21,0,0,1-.07.5l-.21.43a1.55,1.55,0,0,1-.28.35l-.43.21,1.21,1.91h-.92L141,86.77h-1.21v1.77H139Zm.85-2.48h1.42c.14,0,.21,0,.28-.07l.21-.21a.54.54,0,0,0,.14-.28.64.64,0,0,0,.07-.35.53.53,0,0,0-.07-.35c-.07-.14-.07-.21-.21-.28a1,1,0,0,0-.28-.21.43.43,0,0,0-.28-.07h-1.35v1.84Z"/><path class="cls-5" d="M151.85,83.5l1.56,4,1.49-4h.85l-2.06,5.11H153l-2.06-5.11Z"/><path class="cls-5" d="M164.18,88.61V83.5H165v5h-.78Z"/><path class="cls-5" d="M173.69,86.06a4.15,4.15,0,0,1,.14-.92,2.93,2.93,0,0,1,.5-.78,2.22,2.22,0,0,1,.78-.57,2.26,2.26,0,0,1,1-.21,1.93,1.93,0,0,1,1.13.28,1.84,1.84,0,0,1,.71.78l-.64.43a.71.71,0,0,0-.28-.35.6.6,0,0,0-.35-.21c-.14-.07-.21-.07-.35-.14s-.21-.07-.35-.07a2.1,2.1,0,0,0-.71.14,3.08,3.08,0,0,0-.5.43,1.43,1.43,0,0,0-.28.57,2,2,0,0,0-.07.64,2.1,2.1,0,0,0,.14.71,1.54,1.54,0,0,0,.35.57,3.08,3.08,0,0,0,.5.43,2.07,2.07,0,0,0,.64.14.64.64,0,0,0,.35-.07.54.54,0,0,0,.35-.14,1.24,1.24,0,0,0,.35-.28,1.55,1.55,0,0,0,.28-.35l.64.35a1.86,1.86,0,0,1-.85.85c-.21.07-.35.21-.57.21a2,2,0,0,1-.64.07,2.26,2.26,0,0,1-1-.21,3.15,3.15,0,0,1-.78-.57,2.45,2.45,0,0,1-.5-.85A3.4,3.4,0,0,0,173.69,86.06Z"/><path class="cls-5" d="M190.21,87.9v.71h-3.47V83.5h3.4v.71h-2.62v1.42h2.27v.64h-2.27v1.56h2.69Z"/></g></svg>