<svg xmlns="http://www.w3.org/2000/svg" viewBox="0 0 81.8 34.7"><defs><style>.cls-1{fill:#b5b5b5;fill-rule:evenodd;}</style></defs><title>autoEfectivo</title><g id="Layer_2" data-name="Layer 2"><g id="Capa_1" data-name="Capa 1"><path class="cls-1" d="M81.8,15.14l-1.53.62.44.54a2.41,2.41,0,0,1,.61,1.62c0,2.29,0,4.59,0,6.88,0,.46-.22.66-.66.65H77.22c-.51,0-.67-.17-.69-.67,0-.13,0-.26,0-.39s0-.23,0-.43h-.57c-2.1,0-4.2,0-6.29,0a1.56,1.56,0,0,1-1.24-.51A1.31,1.31,0,0,1,68,22a7.05,7.05,0,0,0-1.27-6.35l-.27-.35a.76.76,0,0,1,0-.11c3.93-.11,7.85,0,11.9.22-.16-.24-.25-.38-.35-.51-.73-.9-1.46-1.81-2.22-2.69a1.08,1.08,0,0,0-.64-.37,51.31,51.31,0,0,0-8.78,0,1.35,1.35,0,0,0-1.07.55c-.62.82-.64.8-1.85.43.49-.59,1-1.18,1.47-1.72a1.26,1.26,0,0,1,.74-.31,54.39,54.39,0,0,1,9.91,0,1.64,1.64,0,0,1,.94.53c.63.68,1.19,1.43,1.81,2.13a.91.91,0,0,0,.57.27c.55,0,1.11,0,1.67,0,.82,0,.91.07,1.15.84a1.74,1.74,0,0,0,.12.25Zm-4.26,4.22v-.12c.56,0,1.11,0,1.67,0a1,1,0,0,0,1-1.07c0-.16,0-.33,0-.49,0-.43-.14-.59-.59-.53-1,.14-1.95.24-2.92.35S75.43,18,75.52,19c0,.27.14.37.4.37.54,0,1.08,0,1.62,0"/><path class="cls-1" d="M64.79,0a9.53,9.53,0,0,1,1.38.8,2.15,2.15,0,0,1,.77,1.7c0,2.13,0,4.26,0,6.39a.93.93,0,0,1,0,.17l-1.31.08V8.58q0-2.87,0-5.75a1.34,1.34,0,0,0-1.51-1.52H58.93c0,.54,0,1,0,1.53a1.62,1.62,0,0,1-1.69,1.72c-.37,0-.75,0-1.13,0H55v8.56H53.59V12.6c0-2.51,0-5,0-7.52a2.73,2.73,0,0,1,.65-1.85A10.46,10.46,0,0,1,58.59,0Z"/><path class="cls-1" d="M0,15.73a1.14,1.14,0,0,1,1.13-.61c1.61,0,3.21,0,4.81,0,.71,0,1.06.27,1,.81s-.36.79-1.07.79H1.81V19H3.63a5,5,0,0,1,.59,0,.82.82,0,0,1,.79.84.8.8,0,0,1-.84.78c-.62,0-1.24,0-1.87,0l-.5,0V23H6.24c.61,0,1,.31,1,.81s-.34.82-.95.82H1a1.18,1.18,0,0,1-1-.58Z"/><path class="cls-1" d="M42.77,34.7a13.69,13.69,0,0,1,.06-2,12.51,12.51,0,0,1,.63-2.21c.26-.72.62-1.4,1-2.21l-2.21.81L42.17,29a1.47,1.47,0,0,1,.29-.21c.55-.21,1.1-.43,1.66-.59a1.35,1.35,0,0,0,.82-.62c.38-.61.82-1.18,1.25-1.76a3.17,3.17,0,0,1,.4-.39l.1.08L44.91,28a14.92,14.92,0,0,1,4.1-.5l.06.18c-.15.06-.31.19-.44.17a8.79,8.79,0,0,0-3.49.33.68.68,0,0,0-.42.29,10.31,10.31,0,0,0-1.41,4.8,1,1,0,0,0,0,.29A1,1,0,0,1,43,34.7Z"/><path class="cls-1" d="M56.24,19.87a5,5,0,1,1,5,5,4.88,4.88,0,0,1-5-5m8.17,0a3.16,3.16,0,0,0-3.19-3.36A3.19,3.19,0,0,0,58,19.92a3.19,3.19,0,1,0,6.38,0"/><path class="cls-1" d="M47.25,13.4a4.85,4.85,0,0,1-5-5,5,5,0,0,1,10,.05,4.85,4.85,0,0,1-5,4.91m0-1.59a3.14,3.14,0,0,0,3.2-3.35,3.19,3.19,0,1,0-6.38,0,3.16,3.16,0,0,0,3.18,3.37"/><path class="cls-1" d="M18.69,16.74V19h1.66c.23,0,.46,0,.69,0a.84.84,0,0,1,.86.83.83.83,0,0,1-.89.8c-.61,0-1.21,0-1.82,0h-.5V23h.55c1.31,0,2.62,0,3.93,0a.82.82,0,0,1,.92.81.81.81,0,0,1-.91.81H17.87a.89.89,0,0,1-1-1q0-3.76,0-7.52a.87.87,0,0,1,1-1h5.06c.58,0,.93.3.94.78s-.35.82-1,.82H18.69Z"/><path class="cls-1" d="M32.36,7.23c0,.87,0,1.74,0,2.6a3.59,3.59,0,0,1-3.43,3.52,6.93,6.93,0,0,1-1.8-.08,3.53,3.53,0,0,1-3-3.57c0-1.72,0-3.44,0-5.16a.88.88,0,0,1,.88-1,.89.89,0,0,1,.89,1c0,1.61,0,3.21,0,4.81a2.38,2.38,0,0,0,3.62,2.2,2,2,0,0,0,1.11-1.88c0-1.57,0-3.14,0-4.72,0-.15,0-.3,0-.44a.91.91,0,0,1,.93-.93.87.87,0,0,1,.85.95c0,.9,0,1.8,0,2.7Z"/><path class="cls-1" d="M18.55,11.12c-.59,0-1.18,0-1.77,0a.5.5,0,0,0-.55.36c-.19.45-.4.89-.63,1.33a.84.84,0,0,1-1.18.45.83.83,0,0,1-.31-1.18q1.8-3.95,3.61-7.9a.88.88,0,0,1,1.67,0C20.58,6.81,21.79,9.42,23,12c.26.56.13,1-.31,1.22s-.91,0-1.19-.51l-.82-1.61H18.55Zm1.51-1.55L18.55,6l-1.5,3.6Z"/><path class="cls-1" d="M29.34,14.94a5,5,0,0,1,3.12,1c.54.44.66.9.37,1.31s-.82.41-1.35,0a3.27,3.27,0,0,0-3.16-.49,3.4,3.4,0,0,0-1.73,4.6,3.13,3.13,0,0,0,4.35,1.47c.25-.13.47-.3.71-.44a.85.85,0,0,1,1.19.14.82.82,0,0,1-.19,1.14,4.51,4.51,0,0,1-3.45,1.14c-4.59-.24-5.55-4.81-4.08-7.48a4.68,4.68,0,0,1,4.23-2.4"/><path class="cls-1" d="M10.49,16.78V19h2.12a2.17,2.17,0,0,1,.53,0,.8.8,0,0,1,.61.89.77.77,0,0,1-.8.72c-.8,0-1.6,0-2.46,0,0,.2,0,.37,0,.54,0,.87,0,1.74,0,2.6a.89.89,0,1,1-1.78,0q0-3.88,0-7.76c0-.63.35-.94,1-.94h5.11c.59,0,.92.28.94.77a.83.83,0,0,1-.91.87c-1.26,0-2.52,0-3.78,0Z"/><path class="cls-1" d="M51.3,22.08c.1-.21.17-.35.23-.49.85-2,1.69-3.93,2.56-5.89a1.16,1.16,0,0,1,.61-.62.94.94,0,0,1,.82.24,1.07,1.07,0,0,1,.12.89c-.37,1-.82,1.92-1.25,2.88-.73,1.66-1.47,3.32-2.2,5-.18.4-.41.71-.89.71s-.68-.31-.85-.69L47,16.37c-.26-.6-.13-1.09.35-1.29s.92,0,1.18.63L51,21.48c.07.18.16.35.27.6"/><path class="cls-1" d="M38.9,16.78v1.84c0,1.64,0,3.27,0,4.91a2.09,2.09,0,0,1-.07.63.83.83,0,0,1-.9.61.79.79,0,0,1-.79-.68,2.94,2.94,0,0,1,0-.58q0-3,0-6.09v-.63H35a3.35,3.35,0,0,1-.63,0,.81.81,0,0,1,.13-1.6c.67,0,1.34,0,2,0h4.67c.64,0,1,.3,1,.81s-.36.83-1,.84-1.5,0-2.32,0"/><path class="cls-1" d="M38.77,5.33v.61q0,3.07,0,6.14a2.89,2.89,0,0,1,0,.54.83.83,0,0,1-.82.71.78.78,0,0,1-.86-.58,2.16,2.16,0,0,1-.08-.63c0-2.06,0-4.13,0-6.19v-.6h-.86c-.56,0-1.11,0-1.67,0a.81.81,0,0,1,0-1.61h6.93a.8.8,0,0,1,.76.85.76.76,0,0,1-.8.76c-.82,0-1.63,0-2.53,0"/><path class="cls-1" d="M43.62,19.86c0-1.26,0-2.52,0-3.78,0-.68.32-1.05.89-1.06s.9.37.9,1.05q0,3.83,0,7.66c0,.64-.34,1-.86,1s-.92-.39-.92-1c0-1.29,0-2.59,0-3.88"/><path class="cls-1" d="M34.28,34.18a5.07,5.07,0,0,0,.43-2.93,5.19,5.19,0,0,0-1-2.37,1.2,1.2,0,0,0-1.88-.27c-.41.29-.77.63-1.16.95a.58.58,0,0,1-.06-.11,4.26,4.26,0,0,1,2.3-1.57,1.45,1.45,0,0,1,1.57.68,5.25,5.25,0,0,1,.93,2.4c0,.31.07.62.12,1l.32-.5A13.76,13.76,0,0,1,42,25.83a9.66,9.66,0,0,1,1.15-.43,3.91,3.91,0,0,1,.7-.08l.05.17a6.86,6.86,0,0,1-.66.29,11.93,11.93,0,0,0-5,3,12.1,12.1,0,0,0-3.08,4.9.64.64,0,0,1-.82.47"/><path class="cls-1" d="M60.27,8.85c-1.13,0-2.26,0-3.38,0-.37,0-.62-.08-.62-.49s.2-.51.59-.51q3.41,0,6.81,0c.38,0,.61.1.61.51s-.26.5-.63.49c-1.13,0-2.26,0-3.38,0"/><path class="cls-1" d="M60.27,6.88c-1.14,0-2.29,0-3.43,0-.37,0-.56-.12-.57-.49s.16-.51.54-.51q3.46,0,6.91,0c.37,0,.56.15.55.51s-.22.49-.58.49c-1.14,0-2.29,0-3.43,0"/><path class="cls-1" d="M55.38,30.37a.79.79,0,0,1,.22-.07l25.14,0s.06.09.13.21H55.48l-.11-.16"/><path class="cls-1" d="M26.9,30.54H1.59l-.14-.18a2,2,0,0,1,.28-.06H26.39a4.89,4.89,0,0,1,.56.06l0,.19"/><path class="cls-1" d="M63.73,9.85a2.09,2.09,0,0,1-1.95,1c-1.63-.09-3.27,0-4.9,0-.38,0-.61-.09-.61-.5s.23-.5.6-.5c2.24,0,4.48,0,6.72,0l.14,0"/><path class="cls-1" d="M62.19,11.81l-.06.11a1.71,1.71,0,0,1-1.78.87c-1.17-.08-2.35,0-3.52,0-.37,0-.56-.14-.56-.5s.17-.5.55-.5c1.68,0,3.36,0,5,0l.33,0"/><path class="cls-1" d="M38.12,32.06c.16,0,.32-.07.48-.09a.73.73,0,0,0,.66-1,.53.53,0,0,0-.81-.34,1.64,1.64,0,0,0-.76,2.09c.19.39.51.39.83.22a8.9,8.9,0,0,1,1-.54c0,.1,0,.26-.12.3a6.81,6.81,0,0,1-1.3.66c-.6.19-1-.19-1-.82A3.15,3.15,0,0,1,38.86,30a.92.92,0,0,1,.8.12,1,1,0,0,1,.22.87,2.37,2.37,0,0,1-1.35,1.28c-.1,0-.26,0-.39,0s0-.13,0-.19"/><path class="cls-1" d="M47.07,29.42a9.67,9.67,0,0,0-1,3.52l-.21,0c0-.53.09-1.05.14-1.66-.25.32-.45.6-.67.85a4.46,4.46,0,0,1-.7.68.6.6,0,0,1-.53.1.56.56,0,0,1-.18-.5c.15-.55.39-1.07.55-1.62a2.17,2.17,0,0,0,0-.55c0-.1,0-.25.07-.28a.66.66,0,0,1,.4-.07.3.3,0,0,1,.16.25,2.8,2.8,0,0,1-.23.48,7.12,7.12,0,0,0-.46,1c0,.16.1.37.16.56a1.67,1.67,0,0,0,.55-.21,2.34,2.34,0,0,0,.45-.64c.28-.52.55-1,.78-1.58a.49.49,0,0,1,.69-.31"/><path class="cls-1" d="M39.77,33.21c.21-.59.44-1.15.6-1.72s.26-1.17.45-1.77c.26.48-.06,1,0,1.59.15-.18.24-.32.36-.43a10.27,10.27,0,0,1,1.08-1.06c.37-.28.73-.07.63.39a13.21,13.21,0,0,1-.56,1.61c-.07.21-.31.42,0,.65,0,0,0,.24-.1.27a.65.65,0,0,1-.41,0,.3.3,0,0,1-.14-.25,3.13,3.13,0,0,1,.25-.47A7.92,7.92,0,0,0,42.39,31a.56.56,0,0,0-.17-.49c-.08-.06-.36,0-.47.11a2.65,2.65,0,0,0-.5.65c-.3.53-.58,1.06-.84,1.61a.48.48,0,0,1-.64.32"/><path class="cls-1" d="M51.79,31.44c-.75.2-1.39.4-2,.51-.46.08-.7-.29-.42-.68a7,7,0,0,1,1.18-1.14c.3-.25.66-.43.93-.71s.13-.4.19-.61a2.13,2.13,0,0,0-.68,0c-.18.05-.31.27-.49.37s-.22,0-.32,0,0-.26.09-.28a9.72,9.72,0,0,1,1.44-.46c.36-.07.51.18.38.58s-.41,1-.58,1.56a.62.62,0,0,0,.33.87m-.6-1.28L51.07,30c-.36.34-.74.66-1.07,1-.09.1,0,.35,0,.53a1.36,1.36,0,0,0,.48-.12,1.91,1.91,0,0,0,.74-1.32"/><path class="cls-1" d="M48.23,29.92c.28-.4.54-.79.84-1.15a.4.4,0,0,1,.37-.1c.09.06.12.25.13.38s-.14.19-.18.18c-.24-.07-.45-.06-.55.2a5.92,5.92,0,0,0-.44,1.2c-.08.47,0,1,0,1.45-.08.64-.43,1-.75.93s-.42-.58-.21-1.18.42-.89.57-1.35a1.27,1.27,0,0,0-.08-.65,2.36,2.36,0,0,0-.21-.39s.08-.08.12-.12c.1.11.21.22.3.34a1.5,1.5,0,0,1,.13.26m0,.93-.16-.06c-.12.36-.26.72-.36,1.09,0,.1.06.23.09.34.1-.08.28-.14.3-.24.07-.37.1-.75.14-1.13"/></g></g></svg>