<svg id="Capa_1" data-name="Capa 1" xmlns="http://www.w3.org/2000/svg" viewBox="0 0 300 121.75"><defs><style>.cls-1,.cls-2{fill:#b3b3b3;}.cls-2{fill-rule:evenodd;}</style></defs><title>Mesa de trabajo 1</title><path class="cls-1" d="M83.72,40H69.54l-2.73,5.85a2.58,2.58,0,0,1-2.44,1.58,2.71,2.71,0,0,1-2.78-2.73,2.57,2.57,0,0,1,.29-1.15L74.14,16.33a2.52,2.52,0,0,1,2.49-1.53,2.46,2.46,0,0,1,2.49,1.53L91.39,43.59a2.58,2.58,0,0,1,.28,1.15,2.7,2.7,0,0,1-2.77,2.73,2.52,2.52,0,0,1-2.44-1.58ZM76.63,22.75l-5,12.16h10Z"/><path class="cls-1" d="M116.2,17.77a2.92,2.92,0,1,1,5.84,0V34.2c0,8.24-5.13,13.46-13.65,13.46S94.74,42.44,94.74,34.2V17.77a2.92,2.92,0,1,1,5.84,0V34.82c0,4.45,2.68,7.57,7.81,7.57s7.81-3.11,7.81-7.57Z"/><path class="cls-1" d="M151.22,20.69H143V44.5a3,3,0,0,1-3,3,2.9,2.9,0,0,1-2.87-3V20.69h-8.24a2.75,2.75,0,1,1,0-5.51h22.27A2.78,2.78,0,0,1,154,18a2.74,2.74,0,0,1-2.78,2.73"/><path class="cls-1" d="M170.86,47.66a16.17,16.17,0,0,1-16.39-16.53,16.38,16.38,0,1,1,32.76,0,16.17,16.17,0,0,1-16.38,16.53m0-27.78c-6.52,0-10.49,5.17-10.49,11.26s4,11.26,10.49,11.26,10.49-5.17,10.49-11.26-4-11.26-10.49-11.26"/><path class="cls-1" d="M36.63,85.32h-18a2.94,2.94,0,0,1-3-2.92V56.34a2.94,2.94,0,0,1,3-2.92H35.91a2.7,2.7,0,0,1,2.78,2.68,2.74,2.74,0,0,1-2.78,2.73H21.54v7.62h7.91a2.73,2.73,0,0,1,2.73,2.73,2.69,2.69,0,0,1-2.73,2.68H21.54v8H36.63a2.74,2.74,0,0,1,2.78,2.73,2.7,2.7,0,0,1-2.78,2.68"/><path class="cls-1" d="M64.66,58.92H50V66.4h8.14a2.73,2.73,0,0,1,2.68,2.78,2.69,2.69,0,0,1-2.68,2.73H50V82.78a2.92,2.92,0,0,1-5.84,0V56.34a2.9,2.9,0,0,1,2.92-2.92H64.66a2.7,2.7,0,0,1,2.73,2.73,2.77,2.77,0,0,1-2.73,2.78"/><path class="cls-1" d="M92.07,85.32h-18a2.94,2.94,0,0,1-3-2.92V56.34a2.94,2.94,0,0,1,3-2.92H91.34a2.7,2.7,0,0,1,2.78,2.68,2.74,2.74,0,0,1-2.78,2.73H77v7.62h7.91a2.73,2.73,0,0,1,2.73,2.73,2.69,2.69,0,0,1-2.73,2.68H77v8H92.07a2.74,2.74,0,0,1,2.78,2.73,2.7,2.7,0,0,1-2.78,2.68"/><path class="cls-1" d="M119.46,77.85a3.33,3.33,0,0,1,1.91-.67A2.58,2.58,0,0,1,124,79.86a2.71,2.71,0,0,1-.91,2c-2.73,2.83-6.95,4.08-10.68,4.08-9.39,0-16.29-6.52-16.29-16.53s6.9-16.53,16.29-16.53c3.74,0,8,1.24,10.68,4.07a2.71,2.71,0,0,1,.91,2,2.58,2.58,0,0,1-2.64,2.68,3.32,3.32,0,0,1-1.91-.67,10.7,10.7,0,0,0-7-2.64C106.14,58.25,102,63,102,69.37s4.12,11.11,10.39,11.11a10.72,10.72,0,0,0,7-2.63"/><path class="cls-1" d="M151.59,58.92H143.4V82.73a3,3,0,0,1-3,3,2.91,2.91,0,0,1-2.87-3V58.92h-8.23a2.75,2.75,0,1,1,0-5.51h22.27a2.78,2.78,0,0,1,2.78,2.78,2.74,2.74,0,0,1-2.78,2.73"/><path class="cls-1" d="M216.75,85.89a16.17,16.17,0,0,1-16.39-16.53,16.38,16.38,0,1,1,32.77,0,16.17,16.17,0,0,1-16.38,16.53m0-27.78c-6.51,0-10.49,5.17-10.49,11.26s4,11.25,10.49,11.25,10.49-5.17,10.49-11.25-4-11.26-10.49-11.26"/><path class="cls-2" d="M231,38.59a3.93,3.93,0,0,0-2.66,1.49l-4.48,5.51a25,25,0,0,1,4.17.9L230.82,43a1.91,1.91,0,0,1,1.36-.77c14.89-1,15.78-.9,30.61,0a1.91,1.91,0,0,1,1.36.77l8.39,10.44c.26.37.17.86-.53.76-15.08-.77-25.79-1-38.41-.7a24.8,24.8,0,0,1,4.72,25.43l3.69,4h25v3.33A1.7,1.7,0,0,0,268.71,88h12.35a1.69,1.69,0,0,0,1.68-1.69V63.57a8.67,8.67,0,0,0-1.63-5.7l-1.84-2.27,4.54-2.07c.33-.15.58-.3.48-.66l-.73-2.71a2.31,2.31,0,0,0-2.09-1.65h-8l-6.86-8.44A4,4,0,0,0,264,38.59c-15-.95-18-1-33,0m47,21.54a1.08,1.08,0,0,1,1.16,1.11V64a3.24,3.24,0,0,1-3.08,3.2l-11.6.43a.74.74,0,0,1-.77-.74V64.36a2.94,2.94,0,0,1,2.7-2.8Z"/><path class="cls-1" d="M225.36,35.67h-23.9c-1.31,0-1.31,3.29,0,3.29h20.44s2.77-2.79,3.46-3.29"/><path class="cls-1" d="M196.1,18.15h6.57q6.57,0,6.57-6.57V7.2h17.52a4.39,4.39,0,0,1,4.38,4.38V33.4a20.11,20.11,0,0,1,3-.22c.47,0,.94,0,1.4.05V11.58a8.76,8.76,0,0,0-8.76-8.76H209.24c-5,0-17.52,10.37-17.52,15.33V46.93h4.38Z"/><path class="cls-1" d="M225.67,29.1h-24.2c-1.31,0-1.31,3.29,0,3.29h24.2c1.47,0,1.47-3.29,0-3.29"/><path class="cls-1" d="M225.67,22.53h-24.2c-1.31,0-1.31,3.28,0,3.28h24.2c1.47,0,1.47-3.28,0-3.28"/><path class="cls-1" d="M201.46,45.53h15.87l2.82-3.29H201.46c-1.31,0-1.31,3.29,0,3.29"/><rect class="cls-1" x="20.87" y="104.19" width="83.29" height="0.92"/><rect class="cls-1" x="197.84" y="104.19" width="83.29" height="0.92"/><path class="cls-1" d="M161.9,85.7a3,3,0,0,1-3-3V56a3,3,0,0,1,3-3,2.9,2.9,0,0,1,2.87,3V82.73a2.9,2.9,0,0,1-2.87,3"/><path class="cls-1" d="M198.55,56.91,186.72,84.12a2.77,2.77,0,0,1-2.49,1.58,2.62,2.62,0,0,1-2.49-1.58L169.85,56.91a2.83,2.83,0,0,1-.24-1.1A2.79,2.79,0,0,1,172.29,53a2.74,2.74,0,0,1,2.54,1.58l9.34,22.27,9.44-22.27A2.69,2.69,0,0,1,196.06,53a2.73,2.73,0,0,1,2.73,2.73,3.27,3.27,0,0,1-.24,1.15"/><path class="cls-1" d="M157.89,114a25.58,25.58,0,0,1,.64-5.76,41.66,41.66,0,0,1,2.12-6.42,35.68,35.68,0,0,1,2.21-4.63c.68-.21,1.69-.46,3-.74.8-.17,1.6-.33,2.37-.46s1.47-.23,2.14-.3,1.37-.1,2.1-.1a15.66,15.66,0,0,1,3.77.42l.08,0,.1-.17c.37-.54.41-.73.41-.83,0-.41-.62-.44-.82-.45h-.22l-1.11,0a34.64,34.64,0,0,0-4,.32c-1.64.21-3.15.47-4.5.78l-2.84.69c.58-1,1.23-2,1.94-3.12s2.91-3.8,3.61-4.62l.43-.48-.14-.06a1,1,0,0,0-.34-.09h0a1.32,1.32,0,0,0-.88.54c-.31.35-2.75,3.64-2.87,3.82l-.5.77c-.65,1-1,1.6-1.22,1.88l-.74,1.21-.24.41a1.25,1.25,0,0,1-.28.09l-1,.29c-.34.09-1.24.4-2.62.88s-2.63,1-3.7,1.45l-.43.18-.15.87.64-.31a47.22,47.22,0,0,1,7.11-2.64h0a.62.62,0,0,1-.1.15l-.67,1.21a45.39,45.39,0,0,0-3.9,9.48,33,33,0,0,0-1.47,9.09c0,.63.07,1.48.57,1.5h0a.67.67,0,0,0,.47-.23l1.16-1.08.14-.14.14-.14.08-.08,0-.06a11.15,11.15,0,0,1-.44-3.18m-1.54,4.78h0Z"/><path class="cls-1" d="M155.94,106.41c.9-2.22.61-3.28.59-3.33a1.17,1.17,0,0,0-1-.86c-1.87-.09-5.15,4.59-6.15,6.09.11-.6.31-1.65.48-2.7.54-3.33.31-3.38.16-3.41a.85.85,0,0,0-.77.14l-.05,0,0,.06c.58,1.67-2,9.33-2,9.4v0a4,4,0,0,1-.93,1.4c-.05.05-.31.33-.23.55s.17.19.37.19h.38c.72,0,1.19-.06,1.26-.54,3.2-6.59,3.77-7.17,3.79-7.19l0,0s1.1-1.66,2.11-1.61h0a1,1,0,0,1,.77.42,1.83,1.83,0,0,1,.27,1.41,10,10,0,0,1-2,3.95c-.48.74-.75,1.27-.65,1.65a.59.59,0,0,0,.31.38,1.94,1.94,0,0,0,.79.23,1.24,1.24,0,0,0,.61-.12c.54-.25.68-1.09.69-1.12l0-.13h-.31a.42.42,0,0,1-.38-.19c-.18-.3.06-.93.16-1.14a37.68,37.68,0,0,0,1.65-3.59"/><path class="cls-1" d="M169.8,101.07l-.23,0c-.71.05-1.18.09-1.24.56-3.08,6.65-3.64,7.24-3.65,7.26l0,0s-1.08,1.71-2.11,1.66a1,1,0,0,1-.77-.4,1.82,1.82,0,0,1-.29-1.4,9.92,9.92,0,0,1,1.88-4c.46-.75.72-1.29.62-1.67a.59.59,0,0,0-.32-.37,1.89,1.89,0,0,0-.76-.21,1.27,1.27,0,0,0-.64.13c-.53.26-.66,1.09-.66,1.13l0,.14.14,0c.29,0,.47,0,.56.17.18.3,0,.93-.14,1.14a39,39,0,0,0-1.58,3.62c-.86,2.24-.54,3.29-.53,3.35a1.17,1.17,0,0,0,1,.84c1.87.09,5.08-4.69,6.06-6.21-.1.61-.28,1.66-.43,2.71-.48,3.34-.24,3.38-.09,3.41a.85.85,0,0,0,.77-.16l0,0,0-.06c-.62-1.66,1.82-9.36,1.84-9.44h0a4,4,0,0,1,.9-1.42c.05-.05.31-.33.22-.55s-.21-.21-.54-.18"/><path class="cls-1" d="M184.88,107.47a.47.47,0,0,1-.29-.26c-.52-1.06.8-4.43.8-4.46,1.75-3.22,1.38-4.07,1.26-4.22-.12-.38-.46-.59-1-.62a12.71,12.71,0,0,0-4.61,1.4,1,1,0,0,0-.77.49.7.7,0,0,0,0,.65c.23.34.78.29.78.29.37,0,.45-.41.49-.64,0,0,0-.11,0-.14a4.05,4.05,0,0,1,2.81-1.19c.29,0,1,.11,1,.7.17,2.32-4,4.24-4,4.26-2.93,1.72-4.13,3.77-4,4.95a1.19,1.19,0,0,0,.86,1,2.06,2.06,0,0,0,.56.1c1.62.08,3.92-1.29,4.48-1.63a.71.71,0,0,0,.68.48,1.83,1.83,0,0,0,.76-.16c.6-.17.85-.33.86-.54s-.2-.34-.66-.49M184,103.4l0,.17c-.6,2.21-.81,3-2.14,4.3a2.39,2.39,0,0,1-1.61.88.67.67,0,0,1-.62-.42,2.21,2.21,0,0,1,.66-2.15A8.28,8.28,0,0,1,184,103.4"/><path class="cls-1" d="M178.45,100.32a1.49,1.49,0,0,0,0-1.14c-.16-.42-.39-.64-.68-.66-1.22-.06-3.13,3.69-3.65,4.77a15.52,15.52,0,0,0-.78-2,.93.93,0,0,0-.23-.31.9.9,0,0,0-.34-.09.59.59,0,0,0-.58.34.4.4,0,0,0,0,.42.25.25,0,0,1,0,.08,3.71,3.71,0,0,0,.31.79l.06.11.1-.07a.28.28,0,0,1,.19-.07c.29,0,.61.63.79,1.54-1,1.84-2,4.19-2,4.21-1.55,4,0,5,.14,5a1.65,1.65,0,0,0,.38.06,1.52,1.52,0,0,0,1.17-.49c1-1,1.48-3.52,1.41-5.37,0-.85-.35-2.92-.39-3.21.14-.31,1.41-3.21,2.63-4.07a.74.74,0,0,0,.66.51h.07a.84.84,0,0,0,.68-.37m-4.9,10a.79.79,0,0,1-.63.41.48.48,0,0,1-.48-.19c-.37-.56.24-2.2.5-2.9.46-1.25.8-2.1,1-2.51.18,1,.37,4.05-.38,5.19"/><path class="cls-1" d="M147.42,93.95a35.17,35.17,0,0,1,7.87-4c2-.76,4.87-1.6,4.55-2.12-.15-.24-.4-.32-1-.32a10.18,10.18,0,0,0-2.84.72,31,31,0,0,0-5.43,2.52,42.16,42.16,0,0,0-7.31,5.19,53.17,53.17,0,0,0-4.52,4.65c-1.14,1.37-2.22,2.77-3.2,4.16a41.35,41.35,0,0,0-2.39,3.75c-.51.93-.81,1.46-1,1.76a24.58,24.58,0,0,0-.51-5.3,20.2,20.2,0,0,0-1.4-4.21,12.06,12.06,0,0,0-1.93-3,4.69,4.69,0,0,0-4.69-1.61c-2.28.49-4.84,2.24-7.59,5.2l-.07.08.48.46.07-.08c2.45-2.56,4.41-4,5.83-4.32a3.1,3.1,0,0,1,2.18.37,6.85,6.85,0,0,1,2.16,2,15,15,0,0,1,1.69,3.07,20.11,20.11,0,0,1,1.14,3.51,16.52,16.52,0,0,1-1.28,10.76l-.07.16h.17a7,7,0,0,0,1.14-.13,1.72,1.72,0,0,0,1-.58,4.09,4.09,0,0,0,.6-1.51,6.73,6.73,0,0,1,.38-1.14l.23-.66a33.33,33.33,0,0,1,3.4-6.58,56,56,0,0,1,5.38-6.92,35,35,0,0,1,6.9-5.82"/><path class="cls-1" d="M145.09,111.11a.59.59,0,0,0-.41.19s-2.07,2.26-3.86,2.17a2,2,0,0,1-.37-.05c-.71-.18-1.27-1.22-1.38-2.6a5.32,5.32,0,0,1,2.9-5.48,2.22,2.22,0,0,1,1.12-.29c.77,0,1.33.61,1.65,1.7.6,2-1.71,3-2,3.1-.07,0-.29,0-.56-.05a1.71,1.71,0,0,0-1.14.21c-.27.24-.27.43-.23.56s.35.36.74.38a2.24,2.24,0,0,0,1.21-.31c.16-.11,3.94-2.58,4.08-4.69a3.13,3.13,0,0,0-.73-2.25,2.21,2.21,0,0,0-1.57-.75,5.12,5.12,0,0,0-3.5,1.73c-3.84,3.58-4.22,7.41-3.28,8.87a2.38,2.38,0,0,0,2,1.13c2.44.12,5.6-2.58,5.73-2.69l0,0v-.05c0-.08,0-.75-.44-.76"/></svg>