<svg id="Capa_1" data-name="Capa 1" xmlns="http://www.w3.org/2000/svg" viewBox="0 0 253.49 112.49"><defs><style>.cls-1,.cls-2{fill:#b3b3b3;}.cls-2{fill-rule:evenodd;}</style></defs><title>Mesa de trabajo 25</title><path class="cls-1" d="M75.88,39.27H64.71l-2.15,4.61a2,2,0,0,1-1.92,1.24A2.14,2.14,0,0,1,58.44,43a2,2,0,0,1,.23-.91l9.67-21.48a2,2,0,0,1,2-1.21,1.94,1.94,0,0,1,2,1.21l9.67,21.48a2,2,0,0,1,.22.91A2.13,2.13,0,0,1,80,45.12,2,2,0,0,1,78,43.88ZM70.3,25.64l-3.93,9.59h7.86Z"/><path class="cls-1" d="M101.48,21.71a2.3,2.3,0,1,1,4.61,0v13c0,6.49-4,10.61-10.76,10.61S84.57,41.16,84.57,34.66v-13a2.3,2.3,0,1,1,4.6,0V35.15c0,3.51,2.11,6,6.16,6s6.15-2.45,6.15-6Z"/><path class="cls-1" d="M129.09,24h-6.45V42.78a2.35,2.35,0,0,1-2.34,2.34A2.29,2.29,0,0,1,118,42.78V24h-6.5a2.17,2.17,0,1,1,0-4.34h17.56a2.19,2.19,0,0,1,2.19,2.19A2.16,2.16,0,0,1,129.09,24"/><path class="cls-1" d="M144.57,45.27a12.74,12.74,0,0,1-12.92-13,12.91,12.91,0,1,1,25.82,0,12.74,12.74,0,0,1-12.91,13m0-21.9c-5.14,0-8.27,4.08-8.27,8.87s3.13,8.87,8.27,8.87,8.27-4.08,8.27-8.87-3.13-8.87-8.27-8.87"/><path class="cls-1" d="M38.76,75H24.6a2.32,2.32,0,0,1-2.34-2.3V52.11a2.32,2.32,0,0,1,2.34-2.3H38.19a2.13,2.13,0,0,1,2.19,2.11,2.16,2.16,0,0,1-2.19,2.15H26.86v6H33.1a2.15,2.15,0,0,1,2.15,2.15,2.12,2.12,0,0,1-2.15,2.11H26.86v6.34h11.9A2.16,2.16,0,0,1,41,72.84,2.13,2.13,0,0,1,38.76,75"/><path class="cls-1" d="M60.86,54.15H49.34V60h6.42a2.15,2.15,0,0,1,2.11,2.19,2.12,2.12,0,0,1-2.11,2.15H49.34V73a2.3,2.3,0,0,1-4.6,0V52.11a2.29,2.29,0,0,1,2.3-2.3H60.86A2.12,2.12,0,0,1,63,52a2.18,2.18,0,0,1-2.15,2.19"/><path class="cls-1" d="M82.46,75H68.3A2.32,2.32,0,0,1,66,72.65V52.11a2.32,2.32,0,0,1,2.34-2.3H81.89a2.13,2.13,0,0,1,2.19,2.11,2.16,2.16,0,0,1-2.19,2.15H70.56v6h6.23a2.15,2.15,0,0,1,2.15,2.15,2.12,2.12,0,0,1-2.15,2.11H70.56v6.34h11.9a2.16,2.16,0,0,1,2.19,2.15A2.13,2.13,0,0,1,82.46,75"/><path class="cls-1" d="M104.05,69.07a2.62,2.62,0,0,1,1.51-.53,2,2,0,0,1,2.08,2.11,2.14,2.14,0,0,1-.72,1.55,11.9,11.9,0,0,1-8.42,3.21c-7.4,0-12.84-5.14-12.84-13s5.44-13,12.84-13a11.89,11.89,0,0,1,8.42,3.21,2.14,2.14,0,0,1,.72,1.55,2,2,0,0,1-2.08,2.11,2.62,2.62,0,0,1-1.51-.53,8.43,8.43,0,0,0-5.55-2.08c-4.95,0-8.19,3.74-8.19,8.76s3.24,8.76,8.19,8.76a8.45,8.45,0,0,0,5.55-2.08"/><path class="cls-1" d="M129.38,54.15h-6.46V72.92a2.35,2.35,0,0,1-2.34,2.34,2.29,2.29,0,0,1-2.26-2.34V54.15h-6.49a2.17,2.17,0,1,1,0-4.34h17.56A2.19,2.19,0,0,1,131.57,52a2.16,2.16,0,0,1-2.19,2.15"/><path class="cls-1" d="M180.74,75.41a13,13,0,1,1,12.91-13,12.75,12.75,0,0,1-12.91,13m0-21.9c-5.13,0-8.27,4.08-8.27,8.87s3.14,8.87,8.27,8.87S189,67.18,189,62.38s-3.13-8.87-8.27-8.87"/><path class="cls-2" d="M192,38.12a3.1,3.1,0,0,0-2.1,1.17l-3.53,4.34a19.74,19.74,0,0,1,3.29.71l2.2-2.74A1.5,1.5,0,0,1,192.9,41c11.73-.8,12.44-.71,24.13,0a1.51,1.51,0,0,1,1.07.61l6.61,8.23c.2.29.13.68-.42.6-11.89-.61-20.33-.83-30.27-.55a19.55,19.55,0,0,1,3.72,20l2.91,3.15h19.72V75.7A1.34,1.34,0,0,0,221.7,77h9.73a1.33,1.33,0,0,0,1.32-1.33V57.81a6.83,6.83,0,0,0-1.28-4.5L230,51.53l3.58-1.63c.26-.12.46-.23.38-.52l-.57-2.14a1.82,1.82,0,0,0-1.65-1.3h-6.28l-5.41-6.65a3.12,3.12,0,0,0-2.1-1.17c-11.84-.75-14.16-.78-26,0m37,17a.85.85,0,0,1,.91.88v2.17a2.56,2.56,0,0,1-2.43,2.52l-9.15.34a.58.58,0,0,1-.61-.59v-2a2.31,2.31,0,0,1,2.12-2.21Z"/><path class="cls-1" d="M187.53,35.82H168.69c-1,0-1,2.59,0,2.59h16.11s2.18-2.2,2.72-2.59"/><path class="cls-1" d="M164.46,22h5.18q5.18,0,5.18-5.18V13.38h13.81a3.46,3.46,0,0,1,3.45,3.45V34a15.85,15.85,0,0,1,2.35-.17c.37,0,.74,0,1.11,0V16.83a6.91,6.91,0,0,0-6.91-6.91H174.82C170.91,9.92,161,18.1,161,22V44.7h3.45Z"/><path class="cls-1" d="M187.77,30.64H168.69c-1,0-1,2.59,0,2.59h19.08c1.16,0,1.16-2.59,0-2.59"/><path class="cls-1" d="M187.77,25.46H168.69c-1,0-1,2.59,0,2.59h19.08c1.16,0,1.16-2.59,0-2.59"/><path class="cls-1" d="M168.69,43.59H181.2L183.43,41H168.69c-1,0-1,2.59,0,2.59"/><rect class="cls-1" x="26.34" y="89.83" width="65.65" height="0.73"/><rect class="cls-1" x="165.84" y="89.83" width="65.65" height="0.73"/><path class="cls-1" d="M137.51,75.26a2.35,2.35,0,0,1-2.35-2.34V51.85a2.35,2.35,0,0,1,2.35-2.34,2.29,2.29,0,0,1,2.26,2.34V72.92a2.29,2.29,0,0,1-2.26,2.34"/><path class="cls-1" d="M166.39,52.57,157.07,74a2.18,2.18,0,0,1-2,1.25,2.07,2.07,0,0,1-2-1.25l-9.36-21.45a2.23,2.23,0,0,1-.19-.87,2.2,2.2,0,0,1,2.11-2.19,2.16,2.16,0,0,1,2,1.25l7.36,17.56,7.44-17.56a2.12,2.12,0,0,1,1.93-1.25,2.15,2.15,0,0,1,2.15,2.15,2.58,2.58,0,0,1-.19.9"/><path class="cls-1" d="M134.34,97.6a20.16,20.16,0,0,1,.51-4.54A32.84,32.84,0,0,1,136.52,88a28.13,28.13,0,0,1,1.74-3.65c.54-.16,1.33-.36,2.35-.58.63-.14,1.26-.26,1.87-.37s1.16-.18,1.69-.24,1.08-.08,1.65-.08a12.35,12.35,0,0,1,3,.33h.06l.08-.13c.29-.42.32-.57.32-.65,0-.32-.49-.35-.65-.35h-.18l-.88,0a27.3,27.3,0,0,0-3.16.25c-1.29.17-2.49.37-3.55.62l-2.24.55c.46-.79,1-1.61,1.53-2.46s2.3-3,2.85-3.64l.34-.38-.11,0a.77.77,0,0,0-.27-.07h0a1,1,0,0,0-.7.42c-.25.28-2.17,2.87-2.26,3l-.39.61c-.51.77-.83,1.26-1,1.48l-.58,1-.19.32a1,1,0,0,1-.22.07l-.78.23c-.26.07-1,.32-2.07.7s-2.08.77-2.92,1.15l-.34.14-.12.69.51-.24a37.23,37.23,0,0,1,5.6-2.08h0a.49.49,0,0,1-.08.12l-.53,1a35.78,35.78,0,0,0-3.08,7.47,26.05,26.05,0,0,0-1.16,7.16c0,.5.05,1.16.45,1.18h0a.52.52,0,0,0,.37-.18l.92-.85.11-.11.11-.11.06-.06,0,0a8.79,8.79,0,0,1-.35-2.5m-1.21,3.77h0Z"/><path class="cls-1" d="M132.81,91.59a4.41,4.41,0,0,0,.47-2.63.92.92,0,0,0-.8-.68c-1.48-.07-4.06,3.62-4.85,4.8.09-.48.24-1.3.38-2.13.43-2.62.25-2.66.13-2.69a.67.67,0,0,0-.61.11l0,0,0,.05c.46,1.32-1.57,7.35-1.59,7.41v0a3.17,3.17,0,0,1-.73,1.1s-.25.26-.18.43.14.15.29.15h.3c.56,0,.94,0,1-.42,2.53-5.19,3-5.65,3-5.67l0,0s.87-1.31,1.66-1.27h0a.8.8,0,0,1,.6.33,1.44,1.44,0,0,1,.21,1.11,7.88,7.88,0,0,1-1.54,3.11c-.37.58-.59,1-.51,1.3a.47.47,0,0,0,.25.3,1.53,1.53,0,0,0,.62.18,1,1,0,0,0,.48-.09c.42-.2.54-.86.54-.88l0-.11h-.25a.33.33,0,0,1-.3-.15c-.14-.24,0-.73.13-.9a29.7,29.7,0,0,0,1.3-2.83"/><path class="cls-1" d="M143.73,87.37h-.18c-.56,0-.93.07-1,.44-2.43,5.24-2.87,5.71-2.88,5.72l0,0s-.85,1.34-1.66,1.31a.8.8,0,0,1-.61-.32,1.43,1.43,0,0,1-.23-1.1,7.82,7.82,0,0,1,1.48-3.14c.36-.59.57-1,.49-1.31a.47.47,0,0,0-.25-.29,1.49,1.49,0,0,0-.6-.17,1,1,0,0,0-.5.1c-.42.21-.52.86-.52.89l0,.11h.11c.23,0,.37,0,.44.14s0,.73-.11.9a30.7,30.7,0,0,0-1.24,2.85,4.41,4.41,0,0,0-.41,2.64.92.92,0,0,0,.8.66c1.47.07,4-3.69,4.77-4.9-.08.48-.22,1.31-.34,2.13-.37,2.63-.19,2.67-.07,2.69a.67.67,0,0,0,.61-.12l0,0,0,0c-.49-1.31,1.43-7.38,1.45-7.44h0A3.17,3.17,0,0,1,144,88s.24-.26.17-.43-.17-.16-.42-.15"/><path class="cls-1" d="M155.62,92.42a.37.37,0,0,1-.23-.21c-.41-.83.63-3.49.63-3.51,1.38-2.53,1.09-3.21,1-3.33-.09-.3-.36-.47-.8-.49A10,10,0,0,0,152.58,86a.75.75,0,0,0-.61.39.55.55,0,0,0,0,.51c.18.27.62.23.62.23.29,0,.35-.33.39-.51s0-.09,0-.11a3.19,3.19,0,0,1,2.22-.94c.23,0,.76.09.8.55.13,1.83-3.14,3.34-3.19,3.36-2.31,1.36-3.25,3-3.16,3.9a.94.94,0,0,0,.68.83,1.62,1.62,0,0,0,.44.08A7.8,7.8,0,0,0,154.33,93a.56.56,0,0,0,.54.38,1.44,1.44,0,0,0,.6-.13c.47-.13.67-.26.68-.42s-.16-.27-.52-.39m-.72-3.21,0,.14c-.47,1.74-.64,2.33-1.68,3.39a1.89,1.89,0,0,1-1.27.7.53.53,0,0,1-.49-.33,1.74,1.74,0,0,1,.52-1.69,6.53,6.53,0,0,1,3-2.19"/><path class="cls-1" d="M150.55,86.78a1.17,1.17,0,0,0,0-.89c-.12-.33-.31-.51-.54-.52-1,0-2.47,2.91-2.88,3.76a12.23,12.23,0,0,0-.61-1.59.73.73,0,0,0-.18-.24.71.71,0,0,0-.27-.07.47.47,0,0,0-.46.26.32.32,0,0,0,0,.33.19.19,0,0,1,0,.07,2.92,2.92,0,0,0,.25.63l0,.09.08-.06a.22.22,0,0,1,.15-.05c.23,0,.48.5.62,1.21-.76,1.45-1.56,3.3-1.57,3.32-1.22,3.15,0,3.91.11,4a1.3,1.3,0,0,0,.3,0,1.2,1.2,0,0,0,.92-.39c.8-.8,1.17-2.77,1.11-4.23,0-.67-.27-2.3-.31-2.53s1.12-2.53,2.08-3.21a.58.58,0,0,0,.52.41H150a.66.66,0,0,0,.53-.29m-3.87,7.87a.62.62,0,0,1-.49.33.38.38,0,0,1-.37-.15c-.29-.44.19-1.73.4-2.29.37-1,.63-1.65.77-2,.14.82.29,3.2-.3,4.09"/><path class="cls-1" d="M126.09,81.76a27.72,27.72,0,0,1,6.2-3.15c1.54-.6,3.84-1.26,3.59-1.67-.12-.19-.31-.25-.79-.25a8,8,0,0,0-2.24.57,24.42,24.42,0,0,0-4.28,2,33.23,33.23,0,0,0-5.76,4.09A41.91,41.91,0,0,0,119.25,87c-.9,1.08-1.75,2.18-2.52,3.28a32.59,32.59,0,0,0-1.88,3c-.4.73-.64,1.15-.78,1.39a19.38,19.38,0,0,0-.4-4.18,15.92,15.92,0,0,0-1.1-3.32,9.51,9.51,0,0,0-1.52-2.4,3.7,3.7,0,0,0-3.7-1.27c-1.8.39-3.81,1.77-6,4.1l-.06.06.37.36.06-.06c1.93-2,3.48-3.16,4.6-3.4a2.44,2.44,0,0,1,1.72.29,5.4,5.4,0,0,1,1.7,1.59,11.8,11.8,0,0,1,1.33,2.42,15.85,15.85,0,0,1,.9,2.77,13,13,0,0,1-1,8.48l-.06.12h.14a5.53,5.53,0,0,0,.9-.1,1.36,1.36,0,0,0,.81-.46,3.22,3.22,0,0,0,.48-1.19,5.31,5.31,0,0,1,.3-.9l.18-.52a26.28,26.28,0,0,1,2.68-5.18,44.13,44.13,0,0,1,4.24-5.46,27.57,27.57,0,0,1,5.44-4.59"/><path class="cls-1" d="M124.26,95.29a.47.47,0,0,0-.32.15s-1.63,1.78-3,1.71l-.29,0c-.56-.14-1-1-1.09-2.05a4.19,4.19,0,0,1,2.28-4.32,1.75,1.75,0,0,1,.88-.23c.61,0,1,.48,1.3,1.34.47,1.61-1.34,2.36-1.57,2.44-.06,0-.23,0-.44,0a1.35,1.35,0,0,0-.9.16c-.21.19-.22.34-.18.44s.28.28.58.3a1.76,1.76,0,0,0,1-.25c.13-.08,3.1-2,3.22-3.7a2.46,2.46,0,0,0-.57-1.77,1.74,1.74,0,0,0-1.24-.59,4,4,0,0,0-2.76,1.36c-3,2.82-3.33,5.84-2.58,7a1.88,1.88,0,0,0,1.56.89c1.93.09,4.41-2,4.52-2.12l0,0v0c0-.06,0-.59-.35-.6"/></svg>