<?xml version="1.0" encoding="utf-8"?>
<!-- Generator: Adobe Illustrator 21.1.0, SVG Export Plug-In . SVG Version: 6.00 Build 0)  -->
<svg version="1.1" id="Layer_1" xmlns="http://www.w3.org/2000/svg" xmlns:xlink="http://www.w3.org/1999/xlink" x="0px" y="0px"
	 viewBox="0 0 85.7 20.4" style="enable-background:new 0 0 85.7 20.4;" xml:space="preserve">
<style type="text/css">
	.st0{fill:none;stroke:#B3B3B3;stroke-width:0.25;stroke-miterlimit:3.86;}
	.st1{fill:none;stroke:#B3B3B3;stroke-width:0.2;stroke-miterlimit:3.86;}
	.st2{fill:#FFFFFF;}
	.st3{fill:#B3B3B3;}
</style>
<title>1</title>
<path class="st0" d="M0.2,1.7h22.5c1.7-0.1,7.1,2.7,4.6,8.6c1.1,1,1.7,2.5,1.6,4.1l4.7-12.7h6.9l2.7,7.4h0.2c0.4-1.3,1-2.5,1.7-3.7
	c2.1-2.8,5.5-4.3,9-3.8c0.9-1.4,2.8-1.9,4.3-0.9c0,0,0.1,0,0.1,0.1c1.1,0.6,1.3,2.7,1.2,3c-0.1,0.8,0.5,0.9,0.9,0.4
	c1.3-1.5,3.1-2.5,5.1-2.7C68,1.1,70.4,0.8,74.1,4h0.6l-1.4-2.4h12.3l-4.1,6.2l-2.1-2.9l-2,2.9l-1.5-1.6c0.8,2,1.1,4.2,0.8,6.4
	c-0.6,3.6-3.3,6.5-6.9,7.4c-3.3,0.8-6.8,0.4-10.1-3.3c-0.7,0.9-1.5,1.6-2.5,2.2c-2.1,1.3-4.7,1.8-7.1,1.1c-1.2-0.2-2.3-0.8-3.1-1.7
	c-0.7,1-1.9,1.5-3.1,1.4H30.1c-1.9,0-2.1-0.7-2.5-1.3h-0.4c-0.9,0.9-2.1,1.3-3.4,1.3H13.1c-1.6,0-2.8-1.3-2.8-2.9
	c0-0.4,0.1-0.9,0.3-1.3c0.4-0.7,1-1.3,1.7-1.7V8.2c0,0-2.1-0.9-2.4-2.7L8.4,7.9L6.3,4.8L4.2,7.9L0.2,1.7z"/>
<circle class="st1" cx="79.2" cy="16.6" r="1.7"/>
<path class="st2" d="M78.8,16.4V16c0-0.1,0-0.2,0.1-0.2c0.1,0,0.2,0,0.3,0c0.2,0,0.4,0.1,0.4,0.3c0,0.1,0,0.2-0.1,0.3
	c-0.1,0-0.3,0.1-0.4,0.1H79C78.9,16.5,78.9,16.5,78.8,16.4L78.8,16.4 M79.9,17.1c0-0.3,0-0.4-0.3-0.5c0.3,0,0.4-0.2,0.4-0.5
	c0-0.2-0.1-0.3-0.2-0.4c-0.1-0.1-0.3-0.1-0.4-0.1h-1c-0.1,0-0.1,0-0.1,0.1c0,0,0,0.1,0.1,0.1c0,0,0,0,0,0h0.1c0.1,0,0.1,0,0.1,0.1
	c0,0,0,0,0,0c0,0.1,0,0.2,0,0.3V17c0,0.1,0,0.2,0,0.4c0,0.1-0.1,0.1-0.1,0.1c0,0,0,0,0,0h-0.1c0,0-0.1,0-0.1,0.1l0,0
	c0,0.1,0.1,0.1,0.1,0.1c0,0,0,0,0,0h0.8c0.1,0,0.1,0,0.1-0.1c0,0,0-0.1-0.1-0.1c0,0,0,0,0,0H79c-0.1,0-0.1,0-0.1-0.1c0,0,0,0,0,0
	c0-0.1,0-0.2,0-0.4v-0.1c0-0.1,0.1-0.1,0.3-0.1c0.1,0,0.3,0,0.4,0c0.1,0.1,0.1,0.2,0.1,0.3v0.2c0,0.2,0.1,0.4,0.3,0.4h0.2
	c0.1,0,0.1,0,0.1-0.1c0,0,0,0,0,0c0-0.1,0-0.1-0.1-0.1H80C79.8,17.4,79.8,17.3,79.9,17.1L79.9,17.1z"/>
<path class="st3" d="M78.8,16.4V16c0-0.1,0-0.2,0.1-0.2c0.1,0,0.2,0,0.3,0c0.2,0,0.4,0.1,0.4,0.3c0,0.1,0,0.2-0.1,0.3
	c-0.1,0-0.3,0.1-0.4,0.1H79C78.9,16.5,78.9,16.5,78.8,16.4L78.8,16.4z M79.8,17c0-0.3,0-0.4-0.3-0.5c0.3,0,0.4-0.2,0.4-0.5
	c0-0.2-0.1-0.3-0.2-0.4c-0.1-0.1-0.3-0.1-0.4-0.1h-1c-0.1,0-0.1,0-0.1,0.1c0,0,0,0.1,0.1,0.1c0,0,0,0,0,0h0.1c0.1,0,0.1,0,0.1,0.1
	c0,0,0,0,0,0c0,0.1,0,0.2,0,0.3v0.7c0,0.1,0,0.2,0,0.4c0,0.1-0.1,0.1-0.1,0.1c0,0,0,0,0,0h-0.1c0,0-0.1,0-0.1,0.1l0,0
	c0,0.1,0.1,0.1,0.1,0.1c0,0,0,0,0,0H79c0.1,0,0.1,0,0.1-0.1c0,0,0-0.1-0.1-0.1c0,0,0,0,0,0H79c-0.1,0-0.1,0-0.1-0.1c0,0,0,0,0,0
	c0-0.1,0-0.2,0-0.4v-0.1c0-0.1,0.1-0.1,0.3-0.1c0.1,0,0.3,0,0.4,0c0.1,0.1,0.1,0.2,0.1,0.3v0.2c0,0.2,0.1,0.4,0.3,0.4h0.2
	c0.1,0,0.1,0,0.1-0.1c0,0,0,0,0,0c0-0.1,0-0.1-0.1-0.1H80C79.8,17.3,79.8,17.2,79.8,17L79.8,17z"/>
<polygon class="st3" points="2.3,2.9 6.1,2.9 4.2,5.9 "/>
<polygon class="st3" points="6.5,2.9 10.2,2.9 8.4,5.9 "/>
<polygon class="st3" points="75.4,2.9 79.2,2.9 77.3,5.9 "/>
<polygon class="st3" points="79.6,2.9 83.3,2.9 81.5,5.9 "/>
<path class="st3" d="M51.4,3.1c-2.9,0.4-5.4,2.5-6.3,5.3c-0.6,2.1-1.1,6.1,2.7,8.9c2,1.6,4.7,2,7,1c1.7-0.6,3.7-2.2,4-3.1
	c0.6-2.3-1.1-3.2-2.4-2.1c-1.3,1.6-3.6,2.8-4.9,1.8c-1.4-1.2-1.1-2.8-1.1-4s-0.1-4.2,1.8-4.5c1.1-0.2,3,0,3.5,1.4
	c0.6,1.6,2.2,1.9,2.5,0.8c0.2-1.3,0.2-2.6,0.1-3.9c0,0-0.1-1-0.1-1.5c0-1.6-2.5-2.5-3.5-0.2C53.6,2.9,52.5,3,51.4,3.1z"/>
<ellipse class="st3" cx="67.3" cy="10.8" rx="8.1" ry="8.1"/>
<path class="st2" d="M68.8,14.2c-0.1,0.9-1,1.6-1.9,1.5c-0.8-0.1-1.3-0.7-1.5-1.5V8c0.1-0.9,1-1.6,1.9-1.5c0.8,0.1,1.3,0.7,1.5,1.5
	V14.2z"/>
<path class="st3" d="M34.9,15.2c0.7,0.2,1.1,0.8,1.2,1.5c0,0.9-0.8,1.7-1.8,1.6h-4.4c-0.9,0-1.7-0.7-1.7-1.6c0-0.9,0.8-1.6,1.7-1.6
	c0,0,0,0,0,0l0,0c0.1,0,0.3,0,0.4,0l4.3-12.2h5l4.2,12.2c0.2,0,0.4,0,0.7,0c0.8-0.1,1.5,0.5,1.6,1.4c0,0.1,0,0.2,0,0.2
	c0,0.9-0.6,1.6-1.5,1.6c0,0,0,0,0,0h-5.4c-0.9,0-1.7-0.7-1.7-1.6c-0.1-0.7,0.4-1.4,1.1-1.5c0,0,0,0,0,0h0.1l-0.4-1.1h-3.1L34.9,15.2
	z"/>
<polygon class="st2" points="37.6,11.8 35.7,11.8 36.6,9.3 "/>
<path class="st3" d="M13.7,18.3h-0.2c-0.9,0-1.6-0.7-1.7-1.6c0-0.8,0.6-1.6,1.5-1.7h0.2c0.2,0,0.4,0,0.7,0V6.5c-0.3,0-0.6,0-0.8,0
	c-1-0.1-1.7-0.8-1.7-1.8c0-0.9,0.8-1.7,1.7-1.7h9.1c1.8,0.1,3.4,1.3,4.1,3c0.5,1.1,0.4,2.3-0.1,3.4c-0.2,0.5-0.5,0.9-0.8,1.2
	c0.5,0.3,1,0.8,1.4,1.3c0.6,0.8,0.8,1.8,0.7,2.8c-0.1,0.9-0.4,1.7-0.9,2.4C26,17.9,25,18.3,24,18.3L13.7,18.3z"/>
<path class="st2" d="M19.5,9V6.6h1.5c0.7,0,1.2,0.6,1.2,1.2c0,0,0,0,0,0l0,0c0,0.6-0.5,1.2-1.1,1.2c0,0,0,0,0,0H19.5z"/>
<path class="st2" d="M19.5,14.9v-2.4h1.5c0.7,0,1.2,0.5,1.2,1.2c0,0.7-0.5,1.2-1.2,1.2l0,0L19.5,14.9z"/>
</svg>
