<svg xmlns="http://www.w3.org/2000/svg" xmlns:xlink="http://www.w3.org/1999/xlink" width="179" height="79" viewBox="0 0 179 79">
  <defs>
    <clipPath id="clip-Mesa_de_trabajo_8">
      <rect width="179" height="79"/>
    </clipPath>
  </defs>
  <g id="Mesa_de_trabajo_8" data-name="Mesa de trabajo – 8" clip-path="url(#clip-Mesa_de_trabajo_8)">
    <rect width="179" height="79" fill="#fff"/>
    <g id="Grupo_187" data-name="Grupo 187" transform="translate(62 4)">
      <g id="Grupo_186" data-name="Grupo 186" transform="translate(0)">
        <path id="Trazado_2526" data-name="Trazado 2526" d="M494.424,6075.822H478.2v7.9h11.01v3.517c0,.35-.008.688-.021,1.019,0,.1-.009.19-.014.285q-.018.37-.047.725a11.379,11.379,0,0,1-2.082,6.25,7.354,7.354,0,0,1-.523.59c-.035.036-.069.071-.1.106a7.3,7.3,0,0,1-.56.5c-.128.1-.265.192-.4.285-.111.077-.218.159-.333.23-.146.091-.3.169-.457.25-.116.063-.227.129-.347.187-.179.084-.369.156-.556.231-.107.042-.208.09-.318.13q-.452.16-.937.286l-.007,0q-.493.127-1.022.22c-.093.016-.193.026-.288.041a20.926,20.926,0,0,1-3.262.236h-3.364c-.438,0-.864-.017-1.278-.047q-.386-.03-.757-.075c-.068-.008-.134-.02-.2-.028-.187-.026-.372-.055-.553-.087l-.243-.045q-.281-.056-.552-.122c-.053-.013-.107-.024-.159-.038-.225-.059-.444-.123-.659-.192-.066-.021-.13-.044-.2-.067a9.271,9.271,0,0,1-4.268-2.912c-.141-.174-.276-.352-.4-.537-.047-.067-.095-.134-.14-.2-.158-.24-.308-.484-.446-.742l-.007-.012c-.14-.261-.265-.533-.384-.811-.035-.082-.067-.165-.1-.247a13.4,13.4,0,0,1-.875-3.973c-.007-.091-.014-.183-.019-.274-.021-.356-.035-.717-.035-1.087v-7.981h0v-2.764h0v-6.616c0-.765.029-1.484.084-2.164,0-.053.008-.108.013-.162.027-.308.061-.606.1-.9.009-.065.018-.13.028-.194.041-.285.086-.563.138-.831l.006-.033c.054-.275.116-.538.183-.8l.045-.174c.068-.249.14-.492.219-.725.012-.036.026-.071.039-.107.049-.139.1-.271.156-.405.031-.077.058-.156.09-.231.015-.033.028-.068.043-.1.056-.127.118-.246.179-.369.044-.088.084-.18.13-.266.027-.05.054-.1.082-.149.109-.195.222-.384.343-.564l.036-.051c.115-.168.236-.329.361-.483.031-.04.062-.079.094-.117q.2-.239.418-.458c.031-.031.064-.062.1-.092a8.852,8.852,0,0,1,4.569-2.214c.168-.033.343-.061.518-.089.122-.02.242-.042.366-.06.185-.025.377-.045.569-.065.121-.012.239-.028.363-.039.215-.019.437-.03.659-.042l.088-.005c.08,0,.157-.01.238-.013.333-.014.674-.021,1.023-.021h3.366q.527,0,1.025.021c.112,0,.217.015.326.02.217.012.435.024.643.042.128.012.248.028.372.042.183.02.367.038.543.064.129.019.252.043.379.064.162.028.325.054.482.086.129.026.251.059.375.089.145.035.293.068.433.108.125.036.243.077.365.116s.265.083.392.13.233.095.349.143.227.094.337.146l.1.05c.085.041.167.086.25.129s.184.1.273.149c2.022,1.179,3.3,3.177,3.95,6.238.031.147.063.3.092.448s.05.29.075.438a26.455,26.455,0,0,1,.3,2.668h8.457c-.086-1.132-.218-2.206-.389-3.229l0,0v0c-.007-.041-.016-.078-.023-.118q-.118-.691-.262-1.35c-.016-.073-.033-.145-.05-.217-.1-.443-.208-.877-.326-1.3-.014-.047-.028-.093-.041-.14-.056-.192-.111-.386-.17-.574l-.01,0a20.892,20.892,0,0,0-1.2-3.029l0-.007c-.017-.036-.037-.068-.055-.1-.055-.108-.113-.213-.17-.32-.132-.249-.268-.493-.408-.73-.068-.114-.136-.228-.206-.339q-.226-.361-.467-.7c-.058-.083-.115-.169-.175-.252q-.333-.458-.69-.883l-.022-.027h0a15.246,15.246,0,0,0-6.791-4.557l0,0-.059-.019c-.11-.038-.223-.071-.334-.106-.191-.061-.382-.124-.578-.179-.129-.037-.261-.07-.392-.1-.183-.048-.367-.1-.553-.141-.139-.033-.279-.062-.42-.093-.185-.039-.371-.079-.561-.114-.053-.01-.105-.022-.159-.032h0l0,0a27.869,27.869,0,0,0-4.735-.421h-1.175l-2.138,0h-.308q-.68,0-1.343.027c-.16.006-.316.019-.475.027-.276.015-.553.028-.824.05-.027,0-.054,0-.081.005l0,0c-4.807.4-8.84,1.9-11.778,4.707l-.009,0c-.049.047-.095.1-.143.145-.091.09-.18.182-.269.273q-.213.221-.418.453c-.083.093-.167.187-.248.284-.147.175-.289.355-.429.538-.05.064-.1.125-.152.19v0a18.8,18.8,0,0,0-3.307,8.637l-.005,0c-.021.146-.037.3-.056.446s-.042.318-.06.481c-.024.222-.044.448-.064.674-.013.155-.029.308-.04.465-.018.256-.031.519-.043.782-.006.134-.015.264-.02.4-.014.4-.022.809-.022,1.225V6087.3a21.37,21.37,0,0,0,2.179,9.736l-.007.009h0c.04.08.086.155.127.233.028.054.053.11.082.164l.01,0a17.348,17.348,0,0,0,12.171,8.736v.007c.073.016.149.026.222.041.218.043.44.082.663.119.187.031.373.063.563.09.084.012.166.028.251.04h0l.005-.007a26.757,26.757,0,0,0,3.519.233h3.366c.99,0,1.954-.047,2.894-.133l0,0c.319-.028.633-.063.945-.1.055-.007.109-.016.164-.022.325-.043.647-.092.966-.147.08-.013.162-.026.242-.041.362-.065.721-.136,1.074-.217l.088-.021q.487-.114.96-.246l.226-.064a19.6,19.6,0,0,0,1.983-.692c.034-.014.069-.026.1-.039l0,0q.593-.247,1.158-.531h0c.024-.011.047-.026.07-.038q.429-.22.841-.463c.053-.031.106-.061.159-.093q.441-.264.862-.556l.129-.094q.37-.262.722-.545c.049-.04.1-.079.149-.12.226-.186.448-.377.663-.577l0-.007c3.388-3.148,5.384-7.957,5.384-14.722v-11.412Z" transform="translate(-454.782 -6050.129)" fill="#b3b3b3"/>
        <g id="Grupo_185" data-name="Grupo 185" transform="translate(0.018 63.736)">
          <path id="Trazado_2527" data-name="Trazado 2527" d="M454.814,6169.921v-7.287h3.141q2.1,0,2.1,1.7a1.844,1.844,0,0,1-1.37,1.778,1.56,1.56,0,0,1,1.462,1.656q0,2.156-2.3,2.155Zm2.977-.764a1.168,1.168,0,0,0,1.318-1.325q0-1.289-1.767-1.29h-.412v-.617q2.112-.281,2.113-1.507,0-1.019-1.175-1.02h-2.1v5.758Z" transform="translate(-454.814 -6162.583)" fill="#b3b3b3"/>
          <path id="Trazado_2528" data-name="Trazado 2528" d="M468.9,6166.049a2.018,2.018,0,0,1,2.307,2.258,5.462,5.462,0,0,1-.047.688h-3.8q0,1.641,1.936,1.641a5.978,5.978,0,0,0,1.638-.2v.764a6.436,6.436,0,0,1-1.74.2q-2.787,0-2.787-2.736,0-2.615,2.487-2.615m-1.535,2.161h2.925a1.253,1.253,0,0,0-1.39-1.406,1.356,1.356,0,0,0-1.535,1.406" transform="translate(-459.834 -6164.062)" fill="#b3b3b3"/>
          <path id="Trazado_2529" data-name="Trazado 2529" d="M487.435,6169.6a5.389,5.389,0,0,1-1.921.336q-4,0-4-3.8,0-3.592,3.862-3.593a6.7,6.7,0,0,1,2.06.307v.815a5.543,5.543,0,0,0-1.958-.357q-3.011,0-3.012,2.829,0,3.032,2.966,3.032a5.089,5.089,0,0,0,1.051-.122v-2.478h.953Z" transform="translate(-466.375 -6162.544)" fill="#b3b3b3"/>
          <path id="Trazado_2530" data-name="Trazado 2530" d="M494.7,6171.4v-5.351h.644l.17.682a2.383,2.383,0,0,1,1.71-.682v.785a2,2,0,0,0-1.571.678v3.888Z" transform="translate(-472.084 -6164.063)" fill="#b3b3b3"/>
          <path id="Trazado_2531" data-name="Trazado 2531" d="M500.523,6169.786q0-1.647,2.194-1.646a9.793,9.793,0,0,1,1.411.1v-.5q0-.921-1.458-.922a6.1,6.1,0,0,0-1.709.254v-.764a6.1,6.1,0,0,1,1.709-.255q2.41,0,2.41,1.662v3.689h-.535l-.329-.53a3.16,3.16,0,0,1-1.762.53q-1.931,0-1.931-1.615m2.194-.882q-1.242,0-1.241.866t.978.866a2.689,2.689,0,0,0,1.674-.52v-1.11a9.724,9.724,0,0,0-1.411-.1" transform="translate(-474.607 -6164.063)" fill="#b3b3b3"/>
          <path id="Trazado_2532" data-name="Trazado 2532" d="M511.435,6171.4v-5.351h.644l.17.682a2.809,2.809,0,0,1,1.823-.682,1.775,1.775,0,0,1,2.025,1.993v3.358h-.953v-3.373a1.058,1.058,0,0,0-1.2-1.193,2.276,2.276,0,0,0-1.555.678v3.888Z" transform="translate(-479.332 -6164.063)" fill="#b3b3b3"/>
          <path id="Trazado_2533" data-name="Trazado 2533" d="M526.917,6169.6a7.949,7.949,0,0,1-2.426.319q-2.415,0-2.415-2.78a2.269,2.269,0,0,1,2.564-2.569,3.458,3.458,0,0,1,1.323.255v-2.192h.953Zm-.953-3.939a3.023,3.023,0,0,0-1.318-.276q-1.632,0-1.633,1.719,0,2.033,1.633,2.032a4.028,4.028,0,0,0,1.318-.2Z" transform="translate(-483.94 -6162.583)" fill="#b3b3b3"/>
          <path id="Trazado_2534" data-name="Trazado 2534" d="M533.894,6164.527a1.344,1.344,0,1,1,2.687,0,1.175,1.175,0,0,1-1.348,1.31,1.191,1.191,0,0,1-1.34-1.31m1.34,1.133a1,1,0,0,0,1.12-1.139q0-1.167-1.12-1.165t-1.112,1.165a1,1,0,0,0,1.112,1.139m-.549-.29v-1.693h.714q.476,0,.475.4,0,.333-.467.489l.573.8H535.7l-.533-.761v-.143c.319-.053.48-.177.48-.376,0-.156-.09-.235-.267-.235H534.9v1.514Z" transform="translate(-489.058 -6162.819)" fill="#b3b3b3"/>
        </g>
      </g>
    </g>
  </g>
</svg>
