<svg xmlns="http://www.w3.org/2000/svg" viewBox="0 0 139.43 27.59"><defs><style>.cls-1{fill:#c4c4c4;}.cls-2{fill:#8c8c8c;}.cls-3{fill:#afafaf;}.cls-4{fill:#fff;}.cls-5{fill:#686868;}</style></defs><title>chilimbalam</title><g id="Layer_2" data-name="Layer 2"><g id="Capa_1" data-name="Capa 1"><path class="cls-1" d="M76.79,9.54l-1.8,0H73.21L73,9.76v.1c-.11,4.14-.19,5.25-.48,8.82v.09l.19.23L75,19l.23-.2v-2c0-1.1,0-2.22.08-3.22v-.25h0l.2.69.21.75,1.11,4.05.05,0,.16.13h.09c.92,0,1,0,1.79,0H79l.23-.17,1.22-4.39.21-.77.06-.21v.32l.14,5,.18.22h.31l1,0H84l.18-.18.54-1.9-.23-.23h-.65l0-.42-.13-2.1c-.13-2.07-.16-2.74-.2-4.3V9.75l-.21-.21-3.58,0-.22.13L79,11.43l-.3,1.07-.44,1.62,0,.17L77.06,9.65l-.22-.11Z"/><circle class="cls-1" cx="57.78" cy="9.67" r="1.72"/><circle class="cls-1" cx="69.66" cy="9.67" r="1.72"/><path class="cls-1" d="M49.15,9.52H48.9c-.5,0-.93,0-1.41,0H46.34l-.07.1-.09.14v.07c0,1.47.06,2.55.06,3.74,0,.43,0,1.7-.05,5.09v.09l.2.2,2.88,0,.17-.21V15.19l1.26,0h.84c0,.27,0,.79,0,.79l0,2.79,0,.06.12.18h.12c1.1,0,1.5,0,2.69,0h.1l.19-.22v-.09c0-1.54-.05-2.43-.05-4s0-3.06.05-4.87V9.69l-.21-.17-2.88,0-.2.19,0,3H49.44v-3l-.16-.24Z"/><path class="cls-1" d="M59.24,12.53c-1.25.05-1.52.05-2.74,0h-.1l-.2.2v.1c.05,1.34.06,1.94.05,2.66v.39l0,2.86,0,.06.12.15h.12c1.27-.05,1.56-.05,2.75,0h.11l.17-.21-.06-1.42c0-.4,0-.65,0-1.71s0-1.37,0-1.93l0-.94-.05-.06-.12-.15Z"/><path class="cls-1" d="M64.12,9.52l-2.8,0-.22.19v.11c0,1.29,0,1.54,0,4l0,3.23v1.7l.05.07.13.16h.44c2,0,2.42-.05,5,0h.11l.18-.21.14-2.06L67,16.44l-.78,0c-.62,0-.87,0-1.89,0V15.27c0-1.58,0-3.74.05-4.5l0-.49,0-.61-.12-.07-.14-.08Z"/><path class="cls-1" d="M71,12.53c-1.25.05-1.52.05-2.74,0h-.1l-.2.2v.1c.05,1.35.06,1.95.05,2.66v.68l0,2.57,0,.06.12.15h.11c1.27-.05,1.56-.05,2.75,0h.11l.17-.22-.06-1.43c0-.4,0-.65,0-1.7s0-1.36,0-1.91l0-1-.05-.06-.12-.15Z"/><path class="cls-1" d="M41.72,8A6.42,6.42,0,0,0,37.15,9.8a5.46,5.46,0,0,0-1.48,3.89s0,.08,0,.12A5.34,5.34,0,0,0,37.79,18,7.1,7.1,0,0,0,42,19.17a8.38,8.38,0,0,0,2.63-.49l.06,0,.05-.05.12-.15.07-2.7-.38-.17-.12.08a3,3,0,0,1-1.83.64,2.81,2.81,0,0,1-3.13-2.7,2.59,2.59,0,0,1,.71-1.94,3.17,3.17,0,0,1,2.19-.87,2.75,2.75,0,0,1,1.77.58l.12.1.38-.24-.83-2.91-.08,0A4.34,4.34,0,0,0,41.72,8Z"/><path class="cls-2" d="M109.3,9.51l-2.8,0-.22.18v.11c0,1.29,0,1.55,0,4v.06l0,3.16v1.7l.05.07.13.16h.34c2,0,2.48-.06,5.08,0H112l.18-.21.14-2.06-.19-.23-.79,0c-.62,0-.87,0-1.88,0V15.3c0-1.59,0-3.77.05-4.55l0-.46,0-.64-.12-.07-.14-.08Z"/><path class="cls-2" d="M97.86,9.8l-.07,0-.15.21v.07L97.55,12l.28.14.09,0a7.47,7.47,0,0,1,2.68-.65c.59,0,.8.1,1,.28a.91.91,0,0,1,.17.62v.22a8.85,8.85,0,0,0-3.84,1.08,2.87,2.87,0,0,0-1.31,2.42,2.94,2.94,0,0,0,3,3.1,3.44,3.44,0,0,0,2.15-.73v.37l.07.08L102,19h.16c1.11,0,1.48-.06,2.5,0h.12l.16-.22v-.09c-.11-1.62-.11-2-.11-3.6l0-1.24v-1a3.92,3.92,0,0,0-.44-2.25c-.37-.6-1.07-1.28-3.24-1.28A10,10,0,0,0,97.86,9.8Zm1.77,6.09c0-.88.92-1.1,2.14-1.27V16.4a2.42,2.42,0,0,1-1.2.38A.83.83,0,0,1,99.63,15.9Z"/><path class="cls-2" d="M114.27,9.81l-.07,0L114,10v.07L114,12l.13.06.15.07.09,0a7.46,7.46,0,0,1,2.68-.65c.59,0,.8.1,1,.28a.91.91,0,0,1,.17.62v.22a8.83,8.83,0,0,0-3.84,1.08A2.87,2.87,0,0,0,113,16.07a2.94,2.94,0,0,0,3,3.1,3.43,3.43,0,0,0,2.16-.73v.37l.18.22h.15c1.11,0,1.49-.06,2.5,0h.12l.16-.23v-.08c-.11-1.62-.11-2-.11-3.6l0-1.24v-1a3.88,3.88,0,0,0-.44-2.25c-.37-.6-1.07-1.28-3.24-1.28A10,10,0,0,0,114.27,9.81ZM116,15.9c0-.88.92-1.1,2.14-1.27V16.4a2.43,2.43,0,0,1-1.2.38A.83.83,0,0,1,116,15.9Z"/><path class="cls-2" d="M126.76,9.52l-1.8,0h-1.78l-.22.18v.1c-.11,4.15-.18,5.17-.48,8.82v.09l.19.23,2.3,0,.23-.19v-2c0-1.1,0-2.23.08-3.22v-.25h0l.2.69.21.75,1.11,4.05.05,0,.16.13h.09c.91,0,1,0,1.79,0H129l.23-.17,1.22-4.39.21-.77.06-.21c0,.16,0,.32,0,.32l.14,5L131,19h.4l.91,0H134l.18-.18.54-1.9-.23-.23h-.65l0-.47-.13-2.05c-.13-2.07-.16-2.74-.2-4.3V9.72l-.21-.21-3.58,0-.22.13L129,11.41l-.3,1.08-.44,1.61,0,.17L127,9.63l-.22-.11Z"/><path class="cls-2" d="M90.13,8.67h-.6L87,8.71H86.9L86.73,9V9c.08,1.28.12,2,.12,4.22,0,1.07,0,2.21,0,3.45h-.64l-.23.23.53,1.9.18.18H90.3c2,0,3.65-.07,4.7-1.32a2.93,2.93,0,0,0,.69-2,2.73,2.73,0,0,0-.45-1.58,2.11,2.11,0,0,0-1.16-.83,2.52,2.52,0,0,0,.86-1,2.48,2.48,0,0,0,.24-1.09,2.43,2.43,0,0,0-.82-1.88c-.55-.47-1.18-.71-3.1-.71C90.94,8.65,90.45,8.65,90.13,8.67Zm1.58,2.4a.87.87,0,0,1,.23.64c0,.33-.14.9-1.11,1H90v-1.9C90.79,10.78,91.45,10.79,91.7,11.07Zm-.21,3.8a.81.81,0,0,1,.69.89,1,1,0,0,1-.62.95,4.28,4.28,0,0,1-1.56.17v-2A7.21,7.21,0,0,1,91.5,14.86Z"/><circle class="cls-3" cx="13.82" cy="13.85" r="12.36"/><path class="cls-1" d="M28.56,10.87c0-.05,0-.1,0-.16a2.37,2.37,0,0,0-.74-1.88L27,8.08h.15l.05-.39,0-.15,0-.35a3.9,3.9,0,0,0-3.55-3.87,3.9,3.9,0,0,0-3.89,2.27l-.16.34-.37-.09a20.07,20.07,0,0,0-4.92-.64A9.75,9.75,0,0,0,10.12,6l-.42.2-.18-.43a4.21,4.21,0,0,0-3.59-2.4,4,4,0,0,0-3,.94,4.31,4.31,0,0,0-1.52,2.9l0,.4A3.93,3.93,0,0,0,4,11.31l.51.21L4.19,12a4.46,4.46,0,0,0-.8,2.47,3.86,3.86,0,0,0,0,.4,4.87,4.87,0,0,0,2,3.34l.46.42a1.64,1.64,0,0,1,.56,1.19,1.39,1.39,0,0,1-.1.52,1.37,1.37,0,0,1-1.28.87H4.91l-1.13-.13a12.43,12.43,0,0,0,9.48,5.13c-.07-.14-.4-.75-.48-.9a6.35,6.35,0,0,1-.73-1.9,2.41,2.41,0,0,1,0-.24,2.76,2.76,0,0,1,.7-1.76,11.56,11.56,0,0,1,2.68-2.34l0,0,.05,0a6.24,6.24,0,0,0,1.33-.65l1-.6,0,.82a13.89,13.89,0,0,1-.31,2.62v0a.42.42,0,0,0,.18-.13,14.65,14.65,0,0,0,1.53-2.76l.18-.43.9.41a5.94,5.94,0,0,0,1.87.63,2.86,2.86,0,0,0,1-.09l.63-.18-.06.65a11.43,11.43,0,0,1-.26,1.7v0a.6.6,0,0,0,.2-.17,14.45,14.45,0,0,0,1.92-3.81l.07-.21.21-.07A3.12,3.12,0,0,0,27.17,16l.24-.26h0l.16-.31.29-.58.13-.91h0l-.06-.38a3.09,3.09,0,0,0-.16-.59l-.1-.27.2-.21A2.48,2.48,0,0,0,28.56,10.87Z"/><path class="cls-2" d="M25.26,7.36a1.94,1.94,0,0,0-3.73-.89l3.61,1.41A1.93,1.93,0,0,0,25.26,7.36Z"/><path class="cls-2" d="M19.57,17.12c-3,2-6.09.57-6.55-1.29-.26-1,0-1.57.6-1.89a1.65,1.65,0,0,1,1.66.06c1,.55.48,1.8,1.58,2.76a2.84,2.84,0,0,0,3.43,0Z"/><circle class="cls-2" cx="5.65" cy="7.51" r="2.03" transform="translate(-2.33 12.47) rotate(-84.94)"/><path class="cls-4" d="M18.42,9.88a.73.73,0,0,1,0,.31,2.7,2.7,0,1,1-3.56-2.8,2.23,2.23,0,0,1,2,.38A3.58,3.58,0,0,1,18.42,9.88Z"/><path class="cls-4" d="M26.22,8.49a2.24,2.24,0,1,1-2.43,2,2.64,2.64,0,0,1,2.43-2.06"/><path class="cls-4" d="M19.67,17.42a2.19,2.19,0,0,0-2,.13,20,20,0,0,1-.24,3.33l.44.27a12.62,12.62,0,0,0,1.78-3.56Z"/><path class="cls-4" d="M25.65,17.35a1.86,1.86,0,0,0-1.91,0,21.27,21.27,0,0,1-.32,3.4l.38.27a12.29,12.29,0,0,0,1.78-3.49Z"/><path class="cls-5" d="M44.91,15.42l-.12-.06a.55.55,0,0,0-.54.06,2.65,2.65,0,0,1-1.65.58c-.28,0-2.77,0-2.81-2.39a2.29,2.29,0,0,1,.62-1.72,2.85,2.85,0,0,1,2-.78,2.45,2.45,0,0,1,1.57.51.53.53,0,0,0,.62,0l.1-.06a.53.53,0,0,0,.23-.6l-.75-2.66A.53.53,0,0,0,43.87,8a4.59,4.59,0,0,0-2.15-.35,6.73,6.73,0,0,0-4.79,1.92,5.79,5.79,0,0,0-1.57,4.23,5.64,5.64,0,0,0,2.25,4.4A7.31,7.31,0,0,0,42,19.48,8.74,8.74,0,0,0,44.7,19,.57.57,0,0,0,45,18.8l.07-.09a.53.53,0,0,0,.12-.33l.06-2.47A.53.53,0,0,0,44.91,15.42Zm-.28,3-.07.09a8.19,8.19,0,0,1-2.58.48,6.84,6.84,0,0,1-4-1.15,5.11,5.11,0,0,1-2-4c-.06-3.6,2.69-5.55,5.84-5.61a4.15,4.15,0,0,1,1.89.29l.75,2.66-.1.06a3.14,3.14,0,0,0-5,2.41,3,3,0,0,0,3.35,2.92,3.19,3.19,0,0,0,2-.69l.12.06Z"/><path class="cls-5" d="M67.3,16.33a.53.53,0,0,0-.43-.19l-.67,0c-.55,0-.8,0-1.57,0v-.93c0-1.58,0-3.73.05-4.5l0-1v0a.52.52,0,0,0-.26-.45l-.09-.05a.53.53,0,0,0-.28-.07l-2.72,0a.53.53,0,0,0-.34.12L61,9.43a.53.53,0,0,0-.19.42c0,1.28,0,1.54,0,4l0,3.23v1.61A.54.54,0,0,0,61,19l.06.08a.53.53,0,0,0,.42.19h.34c2,0,2.41-.05,5,0a.53.53,0,0,0,.41-.19l.06-.07a.53.53,0,0,0,.12-.31l.13-1.9a.53.53,0,0,0-.12-.37Zm-.47,2.31-.06.07c-2.71,0-3.06,0-5.33,0l-.06-.08c0-.84,0-1.14,0-1.62,0-1.08,0-2.15,0-3.23,0-2.44,0-2.71,0-4l.08-.06,2.72,0,.09.05c0,.31,0,.65,0,1,0,1.06-.05,4.76-.06,6,1.57,0,1.52,0,2.8-.08l.06.08Z"/><path class="cls-5" d="M71.56,15.61c0-1,0-1.35,0-1.9l0-.88a.52.52,0,0,0-.11-.35l0-.06a.53.53,0,0,0-.44-.2c-1.24.05-1.51.05-2.72,0a.53.53,0,0,0-.39.16l-.06.06a.53.53,0,0,0-.15.39c.05,1.35.06,1.94.05,2.64v.68l0,2.5a.52.52,0,0,0,.11.33l.05.06a.53.53,0,0,0,.44.2c1.26-.05,1.55-.05,2.73,0a.53.53,0,0,0,.42-.2l0-.06a.52.52,0,0,0,.11-.34l-.05-1.35C71.57,16.89,71.56,16.65,71.56,15.61Zm-.49,3.11c-1.2,0-1.51,0-2.76,0l0-.06c0-1.14,0-2,0-3.17,0-.72,0-1.32-.05-2.67l.06-.06c1.24,0,1.51,0,2.75,0l0,.06c0,1.27-.06,1.34-.06,2.79,0,1.78,0,1.28.09,3Z"/><path class="cls-5" d="M57.78,11.7a2,2,0,1,0-2-2A2,2,0,0,0,57.78,11.7Zm0-3.53a1.5,1.5,0,1,1-1.5,1.5A1.5,1.5,0,0,1,57.78,8.17Z"/><path class="cls-5" d="M54.88,9.39l-.06-.05a.53.53,0,0,0-.35-.12l-2.71,0a.53.53,0,0,0-.37.15l-.06.06a.53.53,0,0,0-.16.38l0,2.62H49.74V9.82a.53.53,0,0,0-.09-.29l-.05-.08a.53.53,0,0,0-.47-.24h-.25c-.5,0-.93,0-1.39,0h-1a.56.56,0,0,0-.46.23L46,9.56a.53.53,0,0,0-.09.31c0,1.46.06,2.55.06,3.73,0,.42,0,1.7-.05,5.08a.53.53,0,0,0,.16.38l.06.06a.53.53,0,0,0,.38.16l2.68,0a.53.53,0,0,0,.41-.2l.05-.06a.53.53,0,0,0,.12-.33V15.49l.95,0h.54V16l0,2.73a.51.51,0,0,0,.09.29l.05.08a.53.53,0,0,0,.46.23c1.09,0,1.49,0,2.68,0a.53.53,0,0,0,.41-.19l.06-.07a.53.53,0,0,0,.13-.36c0-1.54-.05-2.43-.05-4s0-3.06.05-4.86A.53.53,0,0,0,54.88,9.39Zm-.34,9.26-.06.07c-1.19,0-1.59,0-2.7,0l-.05-.08c0-.75,0-2,0-2.72,0-.34,0-.67,0-1H50.69c-.49,0-.89,0-1.48,0v3.68l-.05.06-2.68,0-.06-.06c0-3.47.05-4.67.05-5.09,0-1.24,0-2.35-.06-3.75l.05-.08h1c.56,0,1.06,0,1.67-.05l.05.08V13h2.54L51.7,9.85l.06-.06,2.71,0,.06.05c0,1.62-.05,3.25-.05,4.87S54.5,17.12,54.54,18.65Z"/><path class="cls-5" d="M59.76,15.61c0-1,0-1.36,0-1.92l0-.86a.53.53,0,0,0-.11-.34l0-.06a.53.53,0,0,0-.44-.2c-1.24.05-1.51.05-2.72,0a.53.53,0,0,0-.39.16l-.06.06a.53.53,0,0,0-.15.39c.05,1.34.06,1.93.05,2.64v.39l0,2.79A.52.52,0,0,0,56,19l0,.06a.53.53,0,0,0,.44.2c1.26-.05,1.55-.05,2.73,0a.53.53,0,0,0,.42-.2l.05-.06a.52.52,0,0,0,.12-.35L59.8,17.3C59.78,16.9,59.76,16.66,59.76,15.61Zm-.49,3.11c-1.2,0-1.51,0-2.76,0l0-.06c0-1.14,0-2,0-3.17,0-.72,0-1.32-.05-2.67l.06-.06c1.24,0,1.51,0,2.75,0l0,.06c0,1.27-.06,1.34-.06,2.79,0,1.78,0,1.28.09,3Z"/><path class="cls-5" d="M84.77,16.51a.53.53,0,0,0-.38-.16h-.27L84,14.12c-.13-2.06-.16-2.73-.2-4.29a.53.53,0,0,0-.16-.36l-.08-.08a.53.53,0,0,0-.38-.16l-3.43,0a.53.53,0,0,0-.26.07l-.09.05a.55.55,0,0,0-.26.34l-.4,1.62-.29,1.07-.18.67-.89-3.42a.53.53,0,0,0-.28-.34l-.08,0a.53.53,0,0,0-.25-.06l-1.8,0h-1.7A.53.53,0,0,0,73,9.4l-.08.06a.53.53,0,0,0-.19.4c-.11,4.15-.18,5.16-.47,8.81a.53.53,0,0,0,.12.38l.06.08a.53.53,0,0,0,.42.19l2.11,0a.53.53,0,0,0,.33-.13l.09-.08a.53.53,0,0,0,.19-.41V16.81c0-.53,0-1.07,0-1.61l1,3.64a.54.54,0,0,0,.17.27l.09.08a.53.53,0,0,0,.37.12c.9,0,1,0,1.77,0a.53.53,0,0,0,.32-.1l.1-.08a.53.53,0,0,0,.2-.29l.92-3.31.09,3.22a.53.53,0,0,0,.13.33l.06.08a.53.53,0,0,0,.43.19h.2l1,0H83.9a.53.53,0,0,0,.37-.15l.08-.07a.53.53,0,0,0,.14-.23L85,17.1a.53.53,0,0,0-.13-.52ZM84,18.67l-.08.07H82.38l-1.2,0-.06-.08L81,13.75v-.64H80.6l-.13.47-.21.77-1.2,4.32-.1.08c-.84,0-.89,0-1.8,0l-.09-.08c-.53-2-.67-2.47-1.09-4L75.76,14l-.24-.86h-.43l0,.47c0,1.08-.07,2.15-.08,3.23,0,.66,0,1.19,0,1.86l-.09.08-2.11,0-.06-.08c.28-3.54.36-4.62.48-8.83l.08-.06H75l1.8,0,.08,0,1.41,5.42c.09-.34.16-.68.25-1,.23-.9.49-1.8.73-2.69.14-.54.28-1.09.41-1.63l.09-.05,3.43,0,.08.08c0,1.53.06,2.2.2,4.3.05.88.11,1.77.16,2.66l.07.08h.7l.07.07Z"/><path class="cls-5" d="M69.66,7.63a2,2,0,1,0,2,2A2,2,0,0,0,69.66,7.63Zm0,3.53a1.5,1.5,0,1,1,1.5-1.5A1.5,1.5,0,0,1,69.66,11.17Z"/><path class="cls-5" d="M91.55,14.64a8.55,8.55,0,0,0-1.78,0v2.49a5,5,0,0,0,1.88-.19,1.22,1.22,0,0,0,.75-1.15A1,1,0,0,0,91.55,14.64Zm-.12,1.77a3.36,3.36,0,0,1-1.13.14V15.12a5.58,5.58,0,0,1,1.12,0,.51.51,0,0,1,.45.59A.69.69,0,0,1,91.43,16.42Z"/><path class="cls-5" d="M92.16,11.7a1.09,1.09,0,0,0-.29-.79c-.35-.37-1.13-.36-2.05-.34v2.35c.32,0,.76,0,1,0C91.82,12.83,92.16,12.27,92.16,11.7Zm-1.81.68V11.1a2.09,2.09,0,0,1,1.13.18h0a.57.57,0,0,1,.14.41c0,.15,0,.6-.83.67Z"/><path class="cls-5" d="M99.41,15.9a1.06,1.06,0,0,0,1.17,1.1,2.72,2.72,0,0,0,1.38-.45l0,0V14.37h-.09C100.8,14.53,99.41,14.71,99.41,15.9Zm2.06.32a1.9,1.9,0,0,1-.89.25c-.64,0-.64-.43-.64-.57,0-.53.5-.75,1.53-.92Z"/><path class="cls-5" d="M112.48,16.32a.53.53,0,0,0-.43-.19l-.68,0c-.55,0-.8,0-1.56,0v-.89c0-1.59,0-3.77.05-4.54l0-.46,0-.5a.52.52,0,0,0-.27-.49l-.09,0a.53.53,0,0,0-.26-.07l-2.72,0a.53.53,0,0,0-.33.12l-.08.06a.53.53,0,0,0-.2.43c0,1.28,0,1.54,0,4v.07l0,3.16v1.61a.54.54,0,0,0,.12.35l.06.08a.53.53,0,0,0,.42.19h.24c2,0,2.47-.06,5.07,0a.53.53,0,0,0,.41-.19l.06-.07a.53.53,0,0,0,.13-.31l.13-1.9a.53.53,0,0,0-.12-.38ZM112,18.63l-.06.07c-2.71,0-3.06,0-5.33,0l-.06-.08c0-.83,0-1.14,0-1.62,0-1.08,0-2.15,0-3.23,0-2.44,0-2.71,0-4l.08-.06,2.72,0,.09,0c0,.32,0,.65-.05,1,0,1.06-.05,4.76-.06,6,1.57,0,1.52,0,2.79-.08l.06.08Z"/><path class="cls-5" d="M121.5,15.06l0-1.24v-1a4.18,4.18,0,0,0-.48-2.41c-.61-1-1.69-1.42-3.5-1.42a10.39,10.39,0,0,0-3.35.57.51.51,0,0,0-.27.18l-.06.09a.57.57,0,0,0-.12.3l-.08,1.76a.53.53,0,0,0,.3.5l.06,0a.51.51,0,0,0,.43,0,7.08,7.08,0,0,1,2.56-.62c.53,0,.65.08.75.18a.66.66,0,0,1,.08.35,8.53,8.53,0,0,0-3.69,1.08,3.18,3.18,0,0,0-1.46,2.68A3.27,3.27,0,0,0,116,19.47,3.74,3.74,0,0,0,118,19a.51.51,0,0,0,.06.1l.05.06a.56.56,0,0,0,.46.19h0c1.1,0,1.47-.06,2.48,0a.54.54,0,0,0,.45-.23l0-.06a.51.51,0,0,0,.09-.29v0C121.5,17,121.5,16.62,121.5,15.06ZM121,18.74c-1,0-1.41,0-2.52,0h0l-.06-.07V18l-.15.12a3.33,3.33,0,0,1-2.23.85,2.72,2.72,0,0,1-2.82-2.87,2.65,2.65,0,0,1,1.21-2.23,8.92,8.92,0,0,1,3.88-1.06h.07v-.41a1.16,1.16,0,0,0-.24-.78,1.4,1.4,0,0,0-1.13-.34,7.6,7.6,0,0,0-2.76.66l-.06,0c0-.09.08-1.71.08-1.75l.07-.09a9.82,9.82,0,0,1,3.2-.54c2.06,0,2.71.63,3,1.17a3.72,3.72,0,0,1,.41,2.13c0,.21,0,.79,0,1l0,1.24c0,1.57,0,2,.11,3.62Z"/><path class="cls-5" d="M134.81,16.55l-.07-.07a.53.53,0,0,0-.38-.16h-.27v-.18l-.13-2c-.13-2.07-.16-2.73-.2-4.29a.53.53,0,0,0-.16-.36l-.08-.08a.53.53,0,0,0-.38-.16l-3.43,0a.53.53,0,0,0-.26.07l-.09,0a.55.55,0,0,0-.26.34l-.4,1.62-.3,1.08-.18.66-.89-3.42a.53.53,0,0,0-.28-.34l-.08,0a.53.53,0,0,0-.25-.06l-1.8,0h-1.7a.53.53,0,0,0-.34.12l-.08.06a.53.53,0,0,0-.19.39c-.11,4.15-.18,5.16-.47,8.81a.53.53,0,0,0,.12.39l.06.07a.53.53,0,0,0,.42.19l2.11,0a.53.53,0,0,0,.33-.12l.09-.08a.53.53,0,0,0,.19-.41V16.78c0-.54,0-1.08,0-1.61l1,3.64a.54.54,0,0,0,.17.27l.09.07a.53.53,0,0,0,.37.12c.9,0,1,0,1.77,0a.53.53,0,0,0,.32-.1l.1-.07a.53.53,0,0,0,.2-.29l.92-3.31.09,3.22a.53.53,0,0,0,.13.33l.06.07a.53.53,0,0,0,.42.19h.29l.9,0h1.51a.53.53,0,0,0,.37-.15l.08-.08a.53.53,0,0,0,.14-.23l.49-1.72a.53.53,0,0,0-.13-.52Zm-.86,2.09-.08.07h-1.52l-1.2,0-.06-.07-.14-4.95v-.64h-.37l-.13.47-.21.77L129,18.64l-.1.07c-.84,0-.89,0-1.8,0l-.09-.07c-.53-2-.67-2.47-1.09-4l-.21-.75-.24-.86h-.43l0,.47c0,1.08-.07,2.15-.08,3.23,0,.66,0,1.19,0,1.86l-.09.07-2.11,0-.06-.07c.28-3.54.36-4.62.48-8.83l.08-.06H125l1.8,0,.08,0,1.41,5.42c.09-.34.16-.68.25-1,.23-.9.49-1.8.73-2.7.14-.54.28-1.09.4-1.63l.09,0,3.43,0,.08.08c0,1.53.06,2.2.2,4.3.05.88.11,1.77.16,2.66l.07.08h.7l.07.07Z"/><path class="cls-5" d="M115.81,15.9A1.06,1.06,0,0,0,117,17a2.73,2.73,0,0,0,1.38-.45l0,0V14.37h-.09C117.2,14.53,115.81,14.71,115.81,15.9Zm2.06.32a1.91,1.91,0,0,1-.89.25c-.64,0-.64-.43-.64-.57,0-.53.5-.75,1.53-.92Z"/><path class="cls-5" d="M105.09,15.06l0-1.24v-1a4.17,4.17,0,0,0-.49-2.41c-.61-1-1.69-1.42-3.5-1.42a10.4,10.4,0,0,0-3.35.57.51.51,0,0,0-.27.19l-.07.1a.53.53,0,0,0-.1.29l-.08,1.76a.53.53,0,0,0,.3.5l.06,0a.51.51,0,0,0,.43,0,7.09,7.09,0,0,1,2.56-.62c.53,0,.65.08.75.18a.66.66,0,0,1,.08.35,8.55,8.55,0,0,0-3.69,1.08,3.18,3.18,0,0,0-1.46,2.68,3.27,3.27,0,0,0,3.35,3.41,3.74,3.74,0,0,0,1.91-.51.52.52,0,0,0,.07.11l0,0,0,0a.59.59,0,0,0,.46.2h0c1.1,0,1.47-.06,2.48,0a.51.51,0,0,0,.43-.21l0-.07a.53.53,0,0,0,.1-.31v0C105.09,17,105.09,16.62,105.09,15.06Zm-.46,3.68c-1,0-1.41,0-2.52,0h0l-.06-.07V18l-.15.12a3.33,3.33,0,0,1-2.23.85,2.73,2.73,0,0,1-2.82-2.87A2.65,2.65,0,0,1,98,13.84a9,9,0,0,1,3.88-1.06H102v-.41a1.15,1.15,0,0,0-.24-.78,1.41,1.41,0,0,0-1.13-.34,7.6,7.6,0,0,0-2.76.66l-.06,0,.08-1.75.07-.09a9.84,9.84,0,0,1,3.2-.54c2.06,0,2.71.63,3,1.17a3.71,3.71,0,0,1,.41,2.13c0,.21,0,.79,0,1l0,1.24c0,1.57,0,2,.11,3.62Z"/><path class="cls-5" d="M94.66,13.24a2.84,2.84,0,0,0,.55-.78,2.79,2.79,0,0,0,.27-1.22,2.74,2.74,0,0,0-.93-2.11c-.69-.59-1.49-.78-3.3-.78-.32,0-.81,0-1.13,0h-.6L87,8.4a.53.53,0,0,0-.44.24l-.06.08a.53.53,0,0,0-.09.29v0c.08,1.28.12,2,.12,4.2,0,1,0,2,0,3.15h-.24a.53.53,0,0,0-.38.16l-.07.07a.53.53,0,0,0-.13.52l.48,1.72a.53.53,0,0,0,.13.23l.07.07a.53.53,0,0,0,.38.16H90.3c2,0,3.79-.08,4.93-1.43A3.23,3.23,0,0,0,96,15.73a3,3,0,0,0-.5-1.75A2.3,2.3,0,0,0,94.66,13.24Zm.17,4.31c-1,1.16-2.53,1.2-4.53,1.24H86.77l-.07-.07L86.22,17l.07-.07H87l.07-.07c0-1.2,0-2.41,0-3.61,0-2.26,0-3-.12-4.23L87,8.93l2.52,0h.6c.32,0,.8,0,1.12,0,1.82,0,2.43.21,3,.66a2.2,2.2,0,0,1,.74,1.7,2.27,2.27,0,0,1-.22,1,2.55,2.55,0,0,1-1.25,1.19,2.22,2.22,0,0,1,1.57.86,2.49,2.49,0,0,1,.41,1.45A2.74,2.74,0,0,1,94.83,17.54Z"/><path class="cls-5" d="M138.35,19.11a.49.49,0,0,1,0-.06v-.19a.58.58,0,0,0-.19-.49.75.75,0,0,0-.31-.12.73.73,0,0,0,.38-.15.48.48,0,0,0,.15-.4.55.55,0,0,0-.29-.52,1.05,1.05,0,0,0-.43-.11h-1.06v2.18h.57v-.77h.25a.65.65,0,0,1,.2,0,.26.26,0,0,1,.16.16,1,1,0,0,1,0,.27,1.67,1.67,0,0,0,0,.3h.55l0-.06ZM137.7,18a.52.52,0,0,1-.31.08h-.22v-.64h.14a1,1,0,0,1,.33,0,.26.26,0,0,1,.18.25A.3.3,0,0,1,137.7,18Z"/><path class="cls-5" d="M138.86,16.75a1.91,1.91,0,0,0-1.4-.58,1.94,1.94,0,0,0-1.36.54,1.88,1.88,0,0,0-.62,1.44,2,2,0,1,0,3.37-1.4Zm-.25,2.56a1.61,1.61,0,0,1-2.29,0,1.64,1.64,0,0,1,0-2.31,1.59,1.59,0,0,1,2.3,0,1.58,1.58,0,0,1,.47,1.14A1.61,1.61,0,0,1,138.61,19.31Z"/><path class="cls-5" d="M8.89,21.81A1.22,1.22,0,0,0,8,21.57H8a1.2,1.2,0,0,0-1,1.34,1.15,1.15,0,0,0,.45.77,1.24,1.24,0,0,0,1.72-.24,1.16,1.16,0,0,0-.23-1.63ZM8.67,23.1a.68.68,0,0,1-.94.13.6.6,0,0,1-.24-.4.61.61,0,0,1,0-.08.65.65,0,0,1,.57-.63.67.67,0,0,1,.5.13.6.6,0,0,1,.12.85Z"/><path class="cls-5" d="M7,11.16a1.25,1.25,0,0,0,1.42,1,1.27,1.27,0,0,0,.85-.5A1.21,1.21,0,0,0,9,10a1.27,1.27,0,0,0-.95-.25h0A1.25,1.25,0,0,0,7,11.16Zm1.16-.84a.72.72,0,0,1,.54.14.65.65,0,0,1,.13.92.72.72,0,0,1-.48.28.69.69,0,0,1-.8-.57.65.65,0,0,1,0-.09A.7.7,0,0,1,8.18,10.31Z"/><path class="cls-5" d="M7.9,18.14a1.27,1.27,0,0,0,.85-.5,1.21,1.21,0,0,0,.24-.9,1.25,1.25,0,0,0-1.42-1h0a1.27,1.27,0,0,0-.85.49,1.21,1.21,0,0,0-.24.9A1.25,1.25,0,0,0,7.9,18.14ZM7,17a.69.69,0,0,1,0-.09.66.66,0,0,1,.13-.4.72.72,0,0,1,.48-.28.69.69,0,0,1,.8.57.65.65,0,0,1-.13.49.72.72,0,0,1-.48.28A.69.69,0,0,1,7,17Z"/><path class="cls-5" d="M10.88,19.45a1,1,0,0,0-1.35.19.91.91,0,0,0-.19.55.95.95,0,1,0,1.89-.13A.91.91,0,0,0,10.88,19.45Zm-.53,1.11a.38.38,0,0,1-.44-.31A.36.36,0,0,1,10,20a.4.4,0,0,1,.27-.15h0a.4.4,0,0,1,.3.08.36.36,0,0,1,.14.24A.38.38,0,0,1,10.34,20.56Z"/><path class="cls-5" d="M6.92,13.76a.91.91,0,0,0-.36-.6,1,1,0,0,0-1.35.19.91.91,0,0,0-.19.55A.9.9,0,0,0,5,14a1,1,0,0,0,1.88-.26Zm-.89.5a.38.38,0,0,1-.44-.31.36.36,0,0,1,.07-.27.4.4,0,0,1,.27-.15h0a.4.4,0,0,1,.3.08.36.36,0,0,1,.14.24A.38.38,0,0,1,6,14.26Z"/><path class="cls-5" d="M10.81,9.37a1,1,0,0,0,.85-1.09,1,1,0,0,0-.37-.63,1,1,0,0,0-1.4.2.95.95,0,0,0-.18.71A1,1,0,0,0,10.81,9.37Zm-.48-1.19A.44.44,0,0,1,10.62,8h0A.44.44,0,0,1,11,8.1a.4.4,0,0,1,.16.26.43.43,0,0,1-.86.12A.4.4,0,0,1,10.33,8.18Z"/><path class="cls-5" d="M15.84,11.49a1.39,1.39,0,0,0,1.39-1.39,1.44,1.44,0,0,0-1.14-1.64,1.39,1.39,0,0,0-1.39,1.39A1.44,1.44,0,0,0,15.84,11.49Z"/><path class="cls-5" d="M26.45,9.34a1.28,1.28,0,0,0-1.28,1.29,1.33,1.33,0,0,0,1.05,1.51,1.28,1.28,0,0,0,1.28-1.29A1.33,1.33,0,0,0,26.45,9.34Z"/><path class="cls-5" d="M8,7.72a2.31,2.31,0,1,0-2.51,2.1A2.31,2.31,0,0,0,8,7.72ZM4.3,8.64a1.76,1.76,0,1,1,1.19.62A1.74,1.74,0,0,1,4.3,8.64Z"/><path class="cls-5" d="M31.36,14.86a3.86,3.86,0,0,0-3-1.39,3.53,3.53,0,0,0-.18-.68A2.92,2.92,0,0,0,29,10.88a2.89,2.89,0,0,0-.89-2.39A16.87,16.87,0,0,1,30,8.55a.09.09,0,0,0,.1-.07.09.09,0,0,0,0-.11,8.47,8.47,0,0,0-2.38-.62c0-.07,0-.11,0-.18s0-.26,0-.39A4.35,4.35,0,0,0,22.33,3a13.79,13.79,0,0,0-17,0A4.5,4.5,0,0,0,2.68,4,4.76,4.76,0,0,0,1,7.19q0,.22,0,.44a4.56,4.56,0,0,0,.08.86,13.79,13.79,0,1,0,26.26,8l.18-.18a7.55,7.55,0,0,1,2,1.68.09.09,0,0,0,.16-.07A3.47,3.47,0,0,0,28,15.65a3.38,3.38,0,0,0,.16-.31,7.42,7.42,0,0,1,2.48,1.18.09.09,0,0,0,.14-.11,3.56,3.56,0,0,0-2.38-1.84q0-.15,0-.29a7.25,7.25,0,0,1,2.82.72.09.09,0,0,0,.12-.14ZM23.64,3.78a3.42,3.42,0,0,1,3.11,3.71c0,.1,0,.15,0,.24a5.17,5.17,0,0,0-1,.15l-.27-.14a2.23,2.23,0,0,0,.06-.36h0A2.21,2.21,0,0,0,21.45,6c-.38-.13-.77-.26-1.17-.38A3.43,3.43,0,0,1,23.64,3.78ZM25,7.19s0,.1,0,.15a1.6,1.6,0,0,1,0,.16l-1-.46c-.62-.28-1.27-.55-2-.82a1.66,1.66,0,0,1,3,1ZM13.82,1.94a11.85,11.85,0,0,1,6.62,2,4.36,4.36,0,0,0-1.07,1.44,20.62,20.62,0,0,0-5-.65,10.21,10.21,0,0,0-4.42.87,4.31,4.31,0,0,0-2-2.11A11.85,11.85,0,0,1,13.82,1.94ZM1.91,13.85a11.92,11.92,0,0,1,.4-3.08,4.86,4.86,0,0,0,1.5,1,4.92,4.92,0,0,0-.88,2.73,4.33,4.33,0,0,0,0,.45,5.29,5.29,0,0,0,2.17,3.63l.46.42a1.19,1.19,0,0,1,.41.86.94.94,0,0,1-.07.35.92.92,0,0,1-.86.59H5L4,20.65A11.85,11.85,0,0,1,1.91,13.85Zm2.93,7.82h.22a1.84,1.84,0,0,0,1.72-1.17,2,2,0,0,0-.57-2.22l-.47-.43a4.38,4.38,0,0,1-1.87-3,4.11,4.11,0,0,1,1-3,.46.46,0,0,0-.21-.77A3.55,3.55,0,0,1,1.92,7.27,3.83,3.83,0,0,1,3.27,4.68a3.57,3.57,0,0,1,2.62-.84A3.65,3.65,0,0,1,9.2,6.3a.53.53,0,0,0,.35.33.55.55,0,0,0,.44,0,8.88,8.88,0,0,1,4.36-.95,22.15,22.15,0,0,1,9.22,2.23l1,.46a3.69,3.69,0,0,0-.91.7,9.94,9.94,0,0,0-3.92-.32A11.73,11.73,0,0,0,15.5,6.55a5.87,5.87,0,0,0-3.89.17s-.14.07-.12.17a.16.16,0,0,0,.15.13,15.84,15.84,0,0,1,2.58.17,3,3,0,0,0-1.66,2.7c0,.1,0,.19,0,.28a4.92,4.92,0,0,0-3.15,4.08,4.56,4.56,0,0,0,3.13,5.06,6.53,6.53,0,0,0,1.33.3,12.3,12.3,0,0,0-1.48,1.48,3.23,3.23,0,0,0-.81,2.07,2.92,2.92,0,0,0,0,.29,6.53,6.53,0,0,0,.77,2.07l.08.16A11.89,11.89,0,0,1,4.84,21.67ZM24,17.42a4.79,4.79,0,0,0,1.48,0,14.36,14.36,0,0,1-1.73,3.35A15.76,15.76,0,0,0,24,17.8C24,17.61,24,17.48,24,17.42Zm-.56.87a2.26,2.26,0,0,1-1.18.19,5.6,5.6,0,0,1-1.71-.59L20,17.65l.14-.41.4-.19a3.18,3.18,0,0,0,1-.91,2.58,2.58,0,0,0,.56.57,3.72,3.72,0,0,0,1.3.6.27.27,0,0,0,0,.09S23.44,17.76,23.43,18.28ZM18,17.61a5.5,5.5,0,0,0,.64,0,4.9,4.9,0,0,0,.88-.14,14.81,14.81,0,0,1-1.77,3.46A15.92,15.92,0,0,0,18,18C18,17.82,18,17.7,18,17.61Zm-1-1.3a1.91,1.91,0,0,1-.61-1.19,2.18,2.18,0,0,0-.77-1.4,2,2,0,0,0-1.49-.32,5.66,5.66,0,0,0-3.55,0,4,4,0,0,1,2.22-2.3A3.16,3.16,0,0,0,18.88,10V9.95a3.19,3.19,0,0,0-.1-.8,5.77,5.77,0,0,1,2.54,4.38,2.59,2.59,0,0,1-1.22,2.71A3.07,3.07,0,0,1,17,16.31Zm-4.48-1.18a2.4,2.4,0,0,0,0,.52,3.37,3.37,0,0,0-1.71,1.19,3.76,3.76,0,0,1-.47-1.46A7.65,7.65,0,0,1,12.48,15.13ZM10.31,15a5.1,5.1,0,0,1,0-.7,4.26,4.26,0,0,1,.1-.57,7.15,7.15,0,0,1,2.5.25,1.69,1.69,0,0,0-.22.32A3.62,3.62,0,0,0,10.31,15Zm2.42,1.34c.51,1.13,1.71,1.76,3.44,1.83a4.41,4.41,0,0,1-.75.33l-.1,0a4.05,4.05,0,0,1-2.5-.15A3.59,3.59,0,0,1,11,17.09,7.93,7.93,0,0,1,12.73,16.38Zm2.42,0c-.32-.33-.45-.55-.63-.72a.07.07,0,0,0-.08,0,.09.09,0,0,0,0,.08,2.11,2.11,0,0,0,.33,1,1.71,1.71,0,0,0,.44.48,2.08,2.08,0,0,1-1.69-1.44,1,1,0,0,1,.41-1.25,1.1,1.1,0,0,1,1.18,0c.21.15.29.43.4.86a2.77,2.77,0,0,0,.94,1.7,2.3,2.3,0,0,0,.4.25h-.13A3.05,3.05,0,0,1,15.14,16.37ZM13.48,9.9a2.24,2.24,0,0,1,2.28-2.2,2.2,2.2,0,0,1,.45.05l.46.19.23.1A2.24,2.24,0,1,1,13.48,9.9Zm.34,15.85h-.31c-.09-.21-.2-.42-.31-.65a6.1,6.1,0,0,1-.68-1.75,2.26,2.26,0,0,1,.58-1.67,11.13,11.13,0,0,1,2.57-2.24c.14-.09,1-.45,1.42-.69l.31-.18a14.41,14.41,0,0,1-.31,2.6.37.37,0,0,0,.24.48.64.64,0,0,0,.75-.27,14.57,14.57,0,0,0,1.6-2.87l.47.21a6.28,6.28,0,0,0,2,.67,3.29,3.29,0,0,0,1.21-.1A13.51,13.51,0,0,1,23.11,21a.45.45,0,0,0,0,.3A11.89,11.89,0,0,1,13.82,25.76ZM27.31,14.93a2.62,2.62,0,0,1-1.68,1.47A3.56,3.56,0,0,1,22.7,16a1.31,1.31,0,0,1-.58-.93,10.36,10.36,0,0,1,1.15-3.86A2.84,2.84,0,0,0,26,13.71a2.92,2.92,0,0,0,1.45-.33A2.4,2.4,0,0,1,27.31,14.93Zm.78-4.08A2,2,0,0,1,26,12.78,1.9,1.9,0,0,1,24.18,11a2.35,2.35,0,0,1,.43-1.58A3.78,3.78,0,0,1,25.15,9a2,2,0,0,1,1.74-.24A1.9,1.9,0,0,1,28.09,10.85Z"/></g></g></svg>