<svg xmlns="http://www.w3.org/2000/svg" viewBox="0 0 137.95 21.25"><defs><style>.cls-1{fill:#b3b3b3;}</style></defs><title>citibanamex</title><g id="Layer_2" data-name="Layer 2"><g id="Capa_1" data-name="Capa 1"><path class="cls-1" d="M137.95,12.89a8,8,0,0,1-2,4.54,2.21,2.21,0,0,1-1.62.91,3.79,3.79,0,0,1-1.16-.22c-.69-.22-1.54-.55-2-.74,0,.64.06,1,.06,2,0,1.71-1.93,1.84-3,1.84a8.41,8.41,0,0,1-3.3-.65c-1.12-.54-1.48-1.06-1.48-2.85,0-.71,0-1.22.09-1.74-.61.24-1.28.47-1.93.68-1.65.54-2.36-1.24-2.69-2.26a8.12,8.12,0,0,1-.44-2.62c0-1.78.56-2.38,1.92-2.82.69-.22,1.57-.44,2.08-.58-.41-.5-.84-1.05-1.24-1.6a1.55,1.55,0,0,1-.35-.94c0-1,1-1.8,1.69-2.29a7.63,7.63,0,0,1,3.8-1.43,2.26,2.26,0,0,1,1.9,1.14c.43.58.92,1.33,1.2,1.77.35-.54.75-1.12,1.15-1.67a1.62,1.62,0,0,1,1.29-.64,4.24,4.24,0,0,1,2.25.91,8.55,8.55,0,0,1,2.22,2.43,2.7,2.7,0,0,1,.45,1.33,2.64,2.64,0,0,1-.66,1.54c-.43.58-1,1.28-1.34,1.68.64.16,1.32.36,2,.57a1.62,1.62,0,0,1,1.17,1.7m-13.45-6a.51.51,0,0,0,.54.5c.6,0,1.41-.52,2.24-.52a1,1,0,0,1,1,.64,5.92,5.92,0,0,1,1-2.14,6.29,6.29,0,0,0-4.44,1,.63.63,0,0,0-.33.5m-.36,3.45a.38.38,0,0,1,.22,0,7.68,7.68,0,0,1-1.7-1.6,5.91,5.91,0,0,0-.37,4.44c.15.45.43.54.69.46s.42-.46.41-1c0-.73-.11-2,.76-2.22m4.48,6.82c0-.36-.36-.55-.91-.72s-1.9-.51-1.9-1.4a.77.77,0,0,1,0-.26,2.82,2.82,0,0,1-.69.49,13.91,13.91,0,0,1-1.34.65A5.88,5.88,0,0,0,128,17.63c.49,0,.65-.24.65-.51m1.69-3.36a5.28,5.28,0,0,1,.31-1.56,2.93,2.93,0,0,1,1.19-1.81,3.52,3.52,0,0,1-2.14-.88c-.93-.68-1.3-1.21-1.38-1.67a3.5,3.5,0,0,1-1.51,1.74,3,3,0,0,1-2,.78,3.46,3.46,0,0,1,1.2,2,4.3,4.3,0,0,1,.28,1.35,1.65,1.65,0,0,1-.15.75,3.57,3.57,0,0,1,2.26-.53,3,3,0,0,1,2.11.55,1.68,1.68,0,0,1-.12-.68m3.86-.43a.47.47,0,0,0-.5-.44c-.28,0-.53.21-.81.61-.42.6-1.08,1.64-1.93,1.36a.85.85,0,0,1-.25-.12,3,3,0,0,1,.27.79,12.75,12.75,0,0,1,.19,1.52,6.65,6.65,0,0,0,2.19-1.87,4.41,4.41,0,0,0,.84-1.85m.34-2.79a5.81,5.81,0,0,0-2.34-3.86.78.78,0,0,0-.45-.17.5.5,0,0,0-.48.48,1.59,1.59,0,0,0,.41.83,3.37,3.37,0,0,1,.89,1.7.9.9,0,0,1-.37.74,1.65,1.65,0,0,1,.36,0,9.14,9.14,0,0,1,2,.32M19.9,0a11.92,11.92,0,0,0-9.72,5.16H13a9.48,9.48,0,0,1,13.89,0h2.78A11.9,11.9,0,0,0,19.9,0"/><path class="cls-1" d="M42.44,13.17c0,4-2.48,6-4.93,6a4.62,4.62,0,0,1-3.14-1.35v1.1H32V4.67L34.37,3.4V8.2a4.92,4.92,0,0,1,3.25-1.37c2.54,0,4.82,1.84,4.82,6.34m-2.33.07c0-3-1.21-4.27-2.92-4.27a4,4,0,0,0-2.85,1.51v5A4.16,4.16,0,0,0,37.29,17c1.66,0,2.83-1.26,2.83-3.75M61,6.83A3.87,3.87,0,0,0,57.95,8.2V7.08H55.57V18.87h2.38V12c0-1.91,1-3,2.51-3s2.43.85,2.43,3.24v6.67h2.38V12.11c0-3.76-1.48-5.28-4.22-5.28m-7.63,4v8.09H51V17.71a4.85,4.85,0,0,1-3.32,1.42c-1.91,0-4.21-1.08-4.21-4,0-2.63,2.14-3.82,4.81-3.82a7,7,0,0,1,2.72.45V10.9c0-1.28-1-2-2.4-2a6,6,0,0,0-3.08.74l-.9-1.75a7.47,7.47,0,0,1,4.09-1.06c2.63,0,4.67,1.28,4.67,4M51,13.84a6.25,6.25,0,0,0-2.78-.52c-1.48,0-2.51.67-2.51,1.75s.83,2,2.36,2A3.89,3.89,0,0,0,51,15.53ZM76.6,10.79v8.09H74.22V17.71a4.85,4.85,0,0,1-3.32,1.42c-1.91,0-4.21-1.08-4.21-4,0-2.63,2.14-3.82,4.81-3.82a7,7,0,0,1,2.72.45V10.9c0-1.28-1-2-2.4-2a6,6,0,0,0-3.08.74l-.9-1.75a7.47,7.47,0,0,1,4.09-1.06c2.63,0,4.67,1.28,4.67,4m-2.38,3.06a6.25,6.25,0,0,0-2.78-.52c-1.48,0-2.51.67-2.51,1.75s.83,2,2.36,2a3.89,3.89,0,0,0,2.94-1.51Zm16.67-7a4.12,4.12,0,0,0-3.62,1.73A3.36,3.36,0,0,0,84,6.83a3.48,3.48,0,0,0-2.9,1.37V7.08H78.76V18.87h2.38V12c0-1.91.81-3,2.36-3s2.24.85,2.24,3.24v6.67h2.38V12c0-1.91.69-3,2.24-3s2.27.85,2.27,3.24v6.67H95V12c0-4-1.37-5.19-4.11-5.19m16.14,7H98.88c.25,2.27,1.7,3.2,3.14,3.2a4.9,4.9,0,0,0,2.83-.94l1.28,1.51a5.92,5.92,0,0,1-4.24,1.55c-2.76,0-5.32-2.22-5.32-6.13S98.9,6.83,102,6.83c3.35,0,5.14,2.72,5.14,5.91,0,.43,0,.81-.07,1.06m-2.27-1.91a2.88,2.88,0,0,0-3-3c-1.55,0-2.67,1.08-2.87,3Zm8.86.88L117,7.08h-2.67l-.9,1.62c-.45.83-1,2-1.26,2.4-.2-.45-.76-1.51-1.24-2.36L110,7.08h-2.69l3.37,5.68-3.62,6.11h2.62l1.15-2c.45-.81,1.08-2,1.28-2.4.22.45.76,1.53,1.24,2.38l1.12,2h2.76ZM6.11,9.19A4,4,0,0,1,9,10.52l.05.05L10.4,8.92l0,0a5.23,5.23,0,0,0-4.19-2A6.36,6.36,0,0,0,1.84,8.47,6,6,0,0,0,0,13a6,6,0,0,0,1.84,4.52A6.36,6.36,0,0,0,6.18,19.1a5.23,5.23,0,0,0,4.19-2l0,0L9,15.4,9,15.45a4,4,0,0,1-2.87,1.33A3.61,3.61,0,0,1,2.44,13a3.61,3.61,0,0,1,3.67-3.8m5.67,9.68H14.2V7.06H11.78Zm10.11-2c-.79,0-1.13-.41-1.13-1.33V9.3h2.46V7.08H20.76V3.4L18.38,4.67v2.4h-2V9.3h2V16A2.78,2.78,0,0,0,21.07,19a3.73,3.73,0,0,0,2.14-.54l0,0,.58-2.28-.14.09a3.51,3.51,0,0,1-1.79.59m3.79,2H28.1V7.06H25.68Z"/></g></g></svg>