<svg xmlns="http://www.w3.org/2000/svg" viewBox="0 0 91.71 18.33"><defs><style>.cls-1{fill:#fff;}.cls-2{fill:#7f7f7f;}</style></defs><title>clarasol</title><g id="Layer_2" data-name="Layer 2"><g id="Capa_1" data-name="Capa 1"><path class="cls-1" d="M91.71,2.57A2.34,2.34,0,0,0,89.33.22,2.38,2.38,0,0,0,87,1.88a3,3,0,0,0-.83-1l-.3-.25,0,0L85.76.48,85.5.27l0,.09L85.25.28A3.2,3.2,0,0,0,84.8.13a2.15,2.15,0,0,0-.49-.06A2,2,0,0,0,82.54,1.3l-3,6.52c.06-.28.11-.54.15-.8a4.33,4.33,0,0,0-3.16-5.25A1.94,1.94,0,0,0,75.38.43l-.1,0,.08-.12L74.9.2l-.06,0v0L74.29.12a4.39,4.39,0,0,0-.58,0,2.37,2.37,0,0,0-2.25,1C71.1,1.7,70.06,3.43,69,5.31c0-.06.05-.12.07-.18A4.24,4.24,0,0,0,68.28,1a3.82,3.82,0,0,0-2.72-1,9.44,9.44,0,0,0-5,1.71,8.05,8.05,0,0,0-3.26,4.59A3.49,3.49,0,0,0,58,9.47a6.64,6.64,0,0,0,1.41,1.2,9.25,9.25,0,0,1,.82.61,1.27,1.27,0,0,1,.41,1.18.87.87,0,0,1-.7.64h-.07a.78.78,0,0,1-.24,0,.36.36,0,0,1,0-.16,1.35,1.35,0,0,0-.49-1.39,2.41,2.41,0,0,0-1.5-.44h-.12l0-.18-1,.36-.22.09a2.44,2.44,0,0,0-.44.27,27.89,27.89,0,0,0,.82-5,4.21,4.21,0,0,0-1.36-3.58,1.85,1.85,0,0,0,.35-1.57A1.66,1.66,0,0,0,54.86.41l0,0L55,.21,53.64,0l-.49,0a2.77,2.77,0,0,0-2.25,1c-3,3.12-6.27,10.83-6.4,11.14-.35.78-.67,1.5-.93,2.1l-.09.22c-.42-1.22-.88-2.65-1.12-3.43,3.22-2.08,4-4.2,4.12-5.63a4.89,4.89,0,0,0-1.65-4C43.26.1,38.47.06,37.93.06c-1.8,0-3,.51-3.68,1.51l-.72,1.14.29,0v.05a2,2,0,0,0,.4,1.59,2.2,2.2,0,0,0,.91.65c-.58,1.6-1.86,5.14-2.71,7.53a29.2,29.2,0,0,0,1.06-5.87,4.21,4.21,0,0,0-1.36-3.58,1.85,1.85,0,0,0,.34-1.57A1.65,1.65,0,0,0,31.62.41l0,0,.17-.18L30.4,0l-.49,0a2.77,2.77,0,0,0-2.25,1c-3,3.12-6.27,10.83-6.4,11.14l-.6,1.33-.08,0v0c-.21-1.08-1-1.16-1.19-1.16a1.28,1.28,0,0,0-.33,0l-.48.14a6,6,0,0,1-1.58.31h0a1.07,1.07,0,0,1-.28,0,1.59,1.59,0,0,1,.16-.51l3.5-8.47a3.89,3.89,0,0,0,.17-2.18A2,2,0,0,0,19.57.49L19.34.36l0-.07-.23,0L18.92.11l0,.08L18.5.13l-.26,0a3,3,0,0,0-2.69,1.8l-4.91,10.8v0l-.19-.59L10.5,12l-.1-.06-.13-.39-.19.2-.31-.18A2,2,0,0,0,8,11.47a6.09,6.09,0,0,0-1.18.75,2.33,2.33,0,0,1-1.18.61l0-.05a6.3,6.3,0,0,1,.83-3.26A11.17,11.17,0,0,1,8,7,2.83,2.83,0,0,0,9.52,8.38l.17.06-.09.23.52-.08h0l.68-.11c1.26-.21,2.19-1.3,2.56-3a5.21,5.21,0,0,0-.69-4A3.37,3.37,0,0,0,10.27,0,5.78,5.78,0,0,0,6,1.63,17.83,17.83,0,0,0,2.31,6C1.37,7.56-.31,11.23,0,14.17a4.34,4.34,0,0,0,4.39,4,7.21,7.21,0,0,0,5.72-3,4.26,4.26,0,0,0,.62,1.45,3.66,3.66,0,0,0,3.34,1.45,14,14,0,0,0,4.49-.91A3.1,3.1,0,0,0,20,16.13a2,2,0,0,0,.5,1,2.83,2.83,0,0,0,.56.47l.29.18,0,.06.2.05.24.15,0-.08.27.07a3,3,0,0,0,1,.1A2.35,2.35,0,0,0,25,16.72l.87-2.13.43,0-.11.4a2.56,2.56,0,0,0,.28,2.56l0,0a2.05,2.05,0,0,0,1.05.53l.14,0,0,.1.37,0,.14,0v0l.47,0,.36,0A2.38,2.38,0,0,0,31,16.56c.14-.34.27-.69.4-1A2.32,2.32,0,0,0,32.55,18l.24.12,0,.08.23,0,.24.12,0-.1.41,0,.36,0a3,3,0,0,0,2.77-1.75l0-.08c.1-.29.25-.69.43-1.16L37.74,14c.24.78.5,1.63.72,2.28A2.58,2.58,0,0,0,41,18.16h.15l.37,0,0,.07.17-.08.31,0L42,18l.29-.14a2.81,2.81,0,0,0,1.22-1.12,2,2,0,0,0,.29.4,2.83,2.83,0,0,0,.57.47l.28.18,0,.06.2.05L45,18l0-.08.27.07a3,3,0,0,0,1,.1,2.35,2.35,0,0,0,1.89-1.41l.87-2.13.43,0-.11.4a2.56,2.56,0,0,0,.28,2.56l0,0a2,2,0,0,0,1,.53l.14,0,0,.1.37,0,.13,0v0l.47,0,.36,0a2.38,2.38,0,0,0,2.06-1.6c.23-.56.44-1.13.64-1.71a5.06,5.06,0,0,0,.41,1.31c.62,1.27,2.13,2,4.13,2a8.24,8.24,0,0,0,2.63-.42A6.6,6.6,0,0,0,66,14.44a4.81,4.81,0,0,0,2.82,3.39l.06,0a6.38,6.38,0,0,0,2.23.42c2.42,0,4.29-1.55,5.67-3.6a3.22,3.22,0,0,0,.69,1.89l0,0a2.63,2.63,0,0,0,1.06.9,5.19,5.19,0,0,0,2.22.42,12,12,0,0,0,4.62-1,3.09,3.09,0,0,0,1.87-2.09l.32-1.42-.32.16v0c-.21-1.08-1-1.16-1.19-1.16a1.28,1.28,0,0,0-.33,0l-.48.14a6,6,0,0,1-1.58.31h0a1.07,1.07,0,0,1-.28,0,1.59,1.59,0,0,1,.16-.51L87,3.92a3.06,3.06,0,0,0,.14-.38,2.43,2.43,0,0,0,4,.59h.09l0-.07A2.35,2.35,0,0,0,91.71,2.57ZM41,6.19a3.19,3.19,0,0,1-1.22,1L40,6.53c.2-.51.4-1,.57-1.5.43,0,.64.13.68.22A1.23,1.23,0,0,1,41,6.19ZM73.26,9.87a12.14,12.14,0,0,1-2.06,3,12.14,12.14,0,0,1,1.27-3.46,12.12,12.12,0,0,1,2.06-3A12.09,12.09,0,0,1,73.26,9.87Zm-6.9.62a3.32,3.32,0,0,0-1.48-2c-.8-.45-1.31-.94-1.42-1.36a.7.7,0,0,1,0-.26,1.29,1.29,0,0,0,.07.16,1.41,1.41,0,0,0,.88.69,3,3,0,0,0,.82.12l-.14.32,1.54-.57a4.48,4.48,0,0,0,1.44-.86,3.57,3.57,0,0,0,.42-.45A38.8,38.8,0,0,0,66.36,10.49Z"/><path class="cls-2" d="M91,2.57A1.72,1.72,0,1,1,89.33.9,1.68,1.68,0,0,1,91,2.57Zm-3,0a1.3,1.3,0,0,0,1.31,1.33A1.28,1.28,0,0,0,90.6,2.58a1.29,1.29,0,1,0-2.58,0Zm1,.87h-.39V1.77a4.55,4.55,0,0,1,.64-.05.89.89,0,0,1,.57.13.42.42,0,0,1,.17.36.43.43,0,0,1-.35.4v0c.16.05.24.18.3.41a1.47,1.47,0,0,0,.12.41h-.41A1.31,1.31,0,0,1,89.58,3c0-.17-.13-.25-.35-.25h-.18Zm0-.94h.18c.22,0,.39-.07.39-.24S89.52,2,89.28,2l-.21,0Z"/><path class="cls-2" d="M26.7,5.82a.36.36,0,0,1,0-.08l.11-.17q.33-.57.66-1.09A23.2,23.2,0,0,1,30.32.73l-.41,0a2.09,2.09,0,0,0-1.76.84c-3,3.07-6.27,10.95-6.27,10.95-.35.78-.67,1.49-.93,2.09a1.85,1.85,0,0,0,.08,2.1,2.17,2.17,0,0,0,.43.35c.74-1.89,1.76-4.34,2.91-6.75C25.16,8.63,25.94,7.14,26.7,5.82Z"/><path class="cls-2" d="M31.07,3.33c.44-.64.88-1,.72-1.68A1,1,0,0,0,31.28,1a18.08,18.08,0,0,0-2.4,3,1.88,1.88,0,0,1,1.09.1,2.25,2.25,0,0,1,1.21,1.4,4,4,0,0,1,0,2.27c-.28,1.71-1.64,6.33-2.46,9.1l-.2.69.32,0A1.7,1.7,0,0,0,30.4,16.3a33.16,33.16,0,0,0,2.39-9.7C32.87,5.29,32.35,3.61,31.07,3.33Z"/><path class="cls-2" d="M29,12.72c-1.33-.11-4-.29-4.68-.33-.83,1.84-1.55,3.59-2.09,5a2.33,2.33,0,0,0,.75.08,1.74,1.74,0,0,0,1.34-1.06l1-2.51c.57,0,1.31.07,1.77.12-.18.61-.34,1.19-.34,1.19-.25.86-.29,1.43.14,1.93a1.39,1.39,0,0,0,.71.35l.26-.9C28.24,15.48,28.65,14.1,29,12.72Z"/><path class="cls-2" d="M30.36,7.58v0c.36-1.4-.1-2.4-.73-2.66s-1.41.19-2.06,1.19c-1,1.73-2,3.63-2.82,5.47,1,.07,3.42.23,4.54.32C29.79,10.08,30.22,8.43,30.36,7.58Zm-2.24,2.91c-.2,0-1-.09-1.39-.09C28.44,5.92,30.27,5.21,28.11,10.48Z"/><path class="cls-2" d="M49.93,5.82l0-.08.11-.17q.33-.57.66-1.09A23.24,23.24,0,0,1,53.56.73l-.41,0a2.09,2.09,0,0,0-1.76.84c-3,3.07-6.27,10.95-6.27,10.95-.35.78-.67,1.49-.93,2.09a1.85,1.85,0,0,0,.08,2.1,2.17,2.17,0,0,0,.43.35c.74-1.89,1.76-4.34,2.91-6.75C48.4,8.63,49.17,7.14,49.93,5.82Z"/><path class="cls-2" d="M54.31,3.33c.44-.64.88-1,.72-1.68A1,1,0,0,0,54.52,1a18,18,0,0,0-2.4,3,1.87,1.87,0,0,1,1.09.1,2.25,2.25,0,0,1,1.21,1.4,4,4,0,0,1,0,2.27c-.28,1.71-1.64,6.33-2.46,9.1l-.2.69.32,0a1.7,1.7,0,0,0,1.52-1.18A33.16,33.16,0,0,0,56,6.61C56.1,5.29,55.59,3.61,54.31,3.33Z"/><path class="cls-2" d="M52.28,12.72c-1.33-.11-4-.29-4.68-.33-.83,1.84-1.55,3.59-2.09,5a2.33,2.33,0,0,0,.75.08,1.74,1.74,0,0,0,1.34-1.06l1-2.51c.57,0,1.3.07,1.77.12-.18.61-.34,1.19-.34,1.19-.25.86-.29,1.43.14,1.93a1.39,1.39,0,0,0,.71.35l.26-.9C51.48,15.48,51.89,14.1,52.28,12.72Z"/><path class="cls-2" d="M53.59,7.58v0c.36-1.4-.1-2.4-.73-2.66s-1.41.19-2.06,1.19c-1,1.73-2,3.63-2.82,5.47,1,.07,3.42.23,4.54.32C53,10.08,53.46,8.43,53.59,7.58Zm-2.24,2.91c-.2,0-1-.09-1.39-.09C51.67,5.92,53.51,5.21,51.35,10.48Z"/><path class="cls-2" d="M43.23,6.45c.5-1.07.59-1.86.25-2.4-.48-.78-1.89-1.21-4.18-1.29C39,3.77,38,6.5,36.85,9.5l2.21-.07A5.84,5.84,0,0,0,43.23,6.45Zm-1.7.16A3.43,3.43,0,0,1,38.74,8c.16-.57,1-2.52,1.36-3.68C42.66,4.22,42,6,41.53,6.61Z"/><path class="cls-2" d="M38.77,10.32l-2.26.07c-1,2.63-2.06,5.35-2.79,7.19a2.31,2.31,0,0,0,2.46-1.36c.32-.92,1.17-3,1.6-4.48.11.43.84,2.9,1.32,4.34a1.92,1.92,0,0,0,2,1.38c-.29-1-.73-2.26-1.15-3.54S39.07,11.32,38.77,10.32Z"/><path class="cls-2" d="M44.38,2C43.18.92,39.15.74,37.93.74a3.52,3.52,0,0,0-3.11,1.2A34.46,34.46,0,0,1,39,1.87a12.23,12.23,0,0,1,3.36.45,3.17,3.17,0,0,1,1.85,1.27c.51.82.44,1.89-.21,3.26v0a7.29,7.29,0,0,1-2.19,2.4,6,6,0,0,1-2.16,1c.3,1,.72,2.21,1.12,3.42s.88,2.63,1.17,3.58a1.68,1.68,0,0,0,1-2c-.56-1.6-1.28-3.86-1.44-4.4C47.9,7,45.58,3,44.38,2Z"/><path class="cls-2" d="M34.48,2.85c-.16,1,.65,1.59,1.55,1.64-.4,1.07-3.53,9.78-3.8,10.58a1.88,1.88,0,0,0,.63,2.31c1.58-4,4.83-12.42,5.53-14.66A37.65,37.65,0,0,0,34.48,2.85Z"/><path class="cls-2" d="M75.86,2.32A1.15,1.15,0,0,0,75.09,1C74.51,2,74,2.79,73.5,3.57a3.12,3.12,0,0,1,2.43,0,2.54,2.54,0,0,1,1.54,1.8,5.78,5.78,0,0,1-.21,3.15v0c-.17.47-1.71,4.69-3.67,6.65h0a4,4,0,0,1-1.88,1,3.51,3.51,0,0,1-.73.08,3.21,3.21,0,0,1-1.13-.2A2.83,2.83,0,0,1,68,13.68c-.13-1.07.32-2.55,1.46-4.8,1-1.89,2.44-4.4,4.78-8.09-.91-.12-1.9.1-2.14.65-.87,1.36-4.59,7.71-5.14,9.5-.28,1-1.48,4.48,2.17,6.28,6.34,2.36,9.34-6.89,9.92-10.3A3.71,3.71,0,0,0,75.86,2.32Z"/><path class="cls-2" d="M68.84,13.57h0a2,2,0,0,0,1.29,1.63,2.33,2.33,0,0,0,.82.15,3,3,0,0,0,2-.83c1.48-1.48,2.86-4.66,3.45-6.31a4.92,4.92,0,0,0,.2-2.65,1.67,1.67,0,0,0-1-1.21C74,3.72,72.69,5,71.93,6.2l-.07.09c-.68,1.16-1.22,2.14-1.64,3C69.18,11.31,68.73,12.72,68.84,13.57Zm3-4.42C73,6.84,74.45,5.2,75,5.48s0,2.39-1.14,4.7-2.59,4-3.15,3.67S70.67,11.47,71.86,9.15Z"/><path class="cls-2" d="M10.42,4.8a1.91,1.91,0,0,0-.61-1.6c-.58-.37-1.56.13-2.56,1.32-2.31,2.86-3.63,5.55-3.91,8v0A3.42,3.42,0,0,0,3.47,14a1.88,1.88,0,0,0,.87,1.17,2.14,2.14,0,0,0,1.88-.28,13,13,0,0,0,3.2-2.71,1.3,1.3,0,0,0-1.18-.07c-1.08.49-1.62,1.45-2.8,1.42-.37,0-.48-.44-.48-.44-.25-.48,0-2,.83-3.86A10.08,10.08,0,0,1,8.63,5.37c-.65.52,0,2,1.11,2.36A7.26,7.26,0,0,0,10.42,4.8Z"/><path class="cls-2" d="M4.9,16.16A2.17,2.17,0,0,1,4,16a2.68,2.68,0,0,1-1.34-1.7,4.29,4.29,0,0,1-.18-1.84C2.76,9.8,4.14,7,6.56,4h0a5.37,5.37,0,0,1,2-1.58,1.84,1.84,0,0,1,1.77.08,2.7,2.7,0,0,1,1,2.33,7.79,7.79,0,0,1-.63,3,2.83,2.83,0,0,0,2-2.46c.43-2-.35-4.35-2.49-4.62A5.07,5.07,0,0,0,6.46,2.15,17.11,17.11,0,0,0,2.9,6.38c-.95,1.55-2.5,5-2.17,7.71a3.7,3.7,0,0,0,2.41,3.19c2.3.88,6.7-1,6.91-3.74a1.72,1.72,0,0,0-.07-.67C8,15.06,6.25,16.16,4.9,16.16Z"/><path class="cls-2" d="M13.88,13a1.62,1.62,0,0,0,0,1.64,1.53,1.53,0,0,0,1.51.48h0a11.68,11.68,0,0,0,4.51-1.4c-.09-.44-.3-.69-.68-.59a9.07,9.07,0,0,1-2.22.47c-1,0-1.23-.52-.8-1.48L19.7,3.64a3.25,3.25,0,0,0,.16-1.75,1.31,1.31,0,0,0-.63-.81c-1.17,2.58-5,11-5.33,11.86Z"/><path class="cls-2" d="M15.48,16,15,16a2.69,2.69,0,0,1-.94-.16,2,2,0,0,1-1-.72,2.45,2.45,0,0,1-.06-2.53c.38-.9,4.09-9.11,5.3-11.78l-.23,0c-.8-.11-1.63.74-2,1.44l-5.1,11.22a2.78,2.78,0,0,0,.3,2.88c1.24,1.94,5.14,1,7,.27a2.42,2.42,0,0,0,1.56-1.89A12.45,12.45,0,0,1,15.48,16Z"/><path class="cls-2" d="M57.67,13.42a2.3,2.3,0,0,0,.77,1.42c.74.58,1.94.49,3.36-.28a3.12,3.12,0,0,0,1.72-2.45A2.52,2.52,0,0,0,62,10h0c-1.43-.91-2.19-1.93-2.24-3a3.26,3.26,0,0,1,.62-2,8.27,8.27,0,0,1,1.83-1.87h0c1.66-1.21,3.33-1.49,4.25-.71a2.2,2.2,0,0,1,.65,2,7.72,7.72,0,0,1-.75,2.53,3.83,3.83,0,0,0,1.22-.73,2.77,2.77,0,0,0,.81-1.26,3.61,3.61,0,0,0-.61-3.4C66.44.2,63.49.66,61,2.35a7.33,7.33,0,0,0-3,4.2A2.8,2.8,0,0,0,58.55,9a15.94,15.94,0,0,0,2.16,1.74,1.69,1.69,0,0,1-.56,3c-.3.08-1.07,0-1.14-.48a1.23,1.23,0,0,1,0-.52.68.68,0,0,0-.26-.71,1.73,1.73,0,0,0-1.07-.29A4.79,4.79,0,0,0,57.67,13.42Z"/><path class="cls-2" d="M65.91,3.1c-.57-.49-1.86-.18-3.15.75C61.33,5,60.62,6,60.66,6.93s.65,1.58,1.82,2.33a3.28,3.28,0,0,1,1.92,2.85,4,4,0,0,1-2.17,3.22h0a5.74,5.74,0,0,1-2.47.76h-.13a2.72,2.72,0,0,1-1.73-.57,3.89,3.89,0,0,1-1.13-3.63l-.15.06c-1.41.65-1.26,2.71-.68,3.9.92,1.88,4.09,1.87,5.93,1.23,4.81-1.67,4.74-6.89,2.69-8-1.62-.91-2.17-1.95-1.51-3,1-1.48,1.62-1.63,1.1-.25-.22.67-.06,1.08.46,1.23a2.36,2.36,0,0,0,.7.09,7.82,7.82,0,0,0,1-2.81A1.47,1.47,0,0,0,65.91,3.1Z"/><path class="cls-2" d="M80.54,13a1.62,1.62,0,0,0,0,1.64,1.52,1.52,0,0,0,1.51.48h0a11.68,11.68,0,0,0,4.51-1.4c-.09-.44-.3-.69-.68-.59a9.06,9.06,0,0,1-2.22.47c-1,0-1.23-.52-.8-1.48l3.49-8.45a1.76,1.76,0,0,0,.13-1.23,2.2,2.2,0,0,0-.73-1c-1.29,2.86-4.88,10.79-5.2,11.58Z"/><path class="cls-2" d="M81.69,16a2.7,2.7,0,0,1-.94-.16,2,2,0,0,1-1-.72,2.45,2.45,0,0,1-.06-2.53c.37-.89,4-8.9,5.25-11.68L84.64.8a1.24,1.24,0,0,0-1.48.78L77.71,13.42a2.5,2.5,0,0,0,.32,2.8,2,2,0,0,0,.79.67c1.63.78,4.74.13,6.26-.59a2.44,2.44,0,0,0,1.49-1.62A12.46,12.46,0,0,1,82.13,16Z"/></g></g></svg>