<svg xmlns="http://www.w3.org/2000/svg" xmlns:xlink="http://www.w3.org/1999/xlink" width="179" height="79" viewBox="0 0 179 79">
  <defs>
    <clipPath id="clip-Mesa_de_trabajo_3">
      <rect width="179" height="79"/>
    </clipPath>
  </defs>
  <g id="Mesa_de_trabajo_3" data-name="Mesa de trabajo – 3" clip-path="url(#clip-Mesa_de_trabajo_3)">
    <rect width="179" height="79" fill="#fff"/>
    <g id="continental-tyres-logo" transform="translate(13.731 24.367)">
      <path id="Trazado_241" data-name="Trazado 241" d="M54.6,10.542a7.2,7.2,0,0,0-3.487-1.013A.8.8,0,0,0,50.9,9.51a6.951,6.951,0,0,0-4.013,1.208,8.739,8.739,0,0,0-2.766,3.312,10.751,10.751,0,0,0-.994,4.676A10.068,10.068,0,0,0,44.3,23.712a7.543,7.543,0,0,0,2.942,3.1,7.819,7.819,0,0,0,3.7,1.013l-.039-.058h.214a7.777,7.777,0,0,0,3.546-1.013A7.64,7.64,0,0,0,57.6,23.712a10.734,10.734,0,0,0,1.091-5.007,10.092,10.092,0,0,0-1.149-5.026A8.337,8.337,0,0,0,54.6,10.542Zm-1.948,13.7q-.351,2.046-1.52,2.046h-.019c-.818,0-1.325-.682-1.559-2.046a41.028,41.028,0,0,1-.312-5.532c0-1.032.039-2.065.039-2.922a14.616,14.616,0,0,1,.234-2.338,4.428,4.428,0,0,1,.565-1.753,1.1,1.1,0,0,1,1.033-.682c.8,0,1.305.74,1.539,2.1a35.4,35.4,0,0,1,.331,5.591A35.07,35.07,0,0,1,52.653,24.237Zm129.046.215V3.782h-7.033l-.039,1.539c1.617,0,1.617,0,1.617,1.481v17.65c0,1.188,0,1.13-1.481,1.13l.039,1.5h8.377v-1.5c-.994,0-1.481-.019-1.481-1.13Zm-96.57,0V11.633h1.344l.019-1.442-1.364-.019V3.782L83.707,3.8a21.375,21.375,0,0,1-6.312,6.37v1.461c1.286,0,1.773.019,1.773,1.286V24.452c0,1.11-.643,1.13-1.559,1.13v1.5h9v-1.5c-1.149,0-1.481-.039-1.481-1.13Zm-10.247.1V13.757c0-2.474-1.442-4.247-4.364-4.247a6.659,6.659,0,0,0-4.89,2.416V10.172H58.751v1.461c1.442,0,1.481,0,1.481,1.266l.039,11.572c0,1.091-.1,1.11-1.52,1.149v1.461h8.864v-1.5c-1.325,0-1.714-.019-1.714-1.169V14.146A1.8,1.8,0,0,1,67.46,12.3a1.691,1.691,0,0,1,1.871,1.695l-.02,13.092h7.228v-1.52c-1.014-.019-1.656,0-1.656-1.013ZM91.363,9.393a2.8,2.8,0,0,0,2.2-.955,3,3,0,0,0,.76-1.948,3.356,3.356,0,0,0-.838-2.046,2.852,2.852,0,0,0-4.188,0,2.746,2.746,0,0,0-.838,2.007V6.49A2.882,2.882,0,0,0,89.3,8.555,3.037,3.037,0,0,0,91.363,9.393Z" transform="translate(-31.458 -2.574)" fill="#b3b3b3"/>
      <path id="Trazado_242" data-name="Trazado 242" d="M19.657,26.632a7.519,7.519,0,0,1-5.241-.409C10.87,24.469,7.675,18.7,7.675,14.884c0-6.059,4.89-12.527,11.163-11.553a7.79,7.79,0,0,1,.818.175A21.048,21.048,0,0,1,26.027,6.7l.312-1.208L20.845.059l-.351,1.227q-.423-.132-.838-.292C16.988.039,17.221,0,14.592,0A15.862,15.862,0,0,0,8.63,1.189,13.693,13.693,0,0,0,4.013,4.364,14.174,14.174,0,0,0,.994,9.1,18.2,18.2,0,0,0,0,14.884,16.14,16.14,0,0,0,1.948,22.5a13.453,13.453,0,0,0,5.28,5.318,15.646,15.646,0,0,0,7.617,1.89,21.4,21.4,0,0,0,4.812-.506A10.3,10.3,0,0,0,23.923,27.2c1.247-1.052,1.6-1.013,2.4-1.753L25.774,23.3A15.125,15.125,0,0,1,19.657,26.632Zm43.892-4.754V7.6h-7.4V9.02c1.286.039,1.481.058,1.481,1.325V21.878c0,1.11-.214,1.13-1.578,1.13v1.5h9v-1.5C63.88,23.008,63.549,22.988,63.549,21.878Zm27.411-5.533,7.539-.039a15.017,15.017,0,0,0-.546-4.072,7.774,7.774,0,0,0-1.5-2.689A6.643,6.643,0,0,0,94.1,7.851a7.335,7.335,0,0,0-2.981-.6h-.156a6.73,6.73,0,0,0-3.9.974,9.569,9.569,0,0,0-3,3.643,9.485,9.485,0,0,0-.682,2.864c-.059.682-.078,1.364-.078,2.065a9.451,9.451,0,0,0,.078,1.286,10.045,10.045,0,0,0,.818,2.727,6.8,6.8,0,0,0,2.669,2.942,8.089,8.089,0,0,0,4.091,1.091h.156a8.117,8.117,0,0,0,4.948-1.363,6.709,6.709,0,0,0,2.26-5.241L96.745,18.2a4.889,4.889,0,0,1-3.429,4.676,4,4,0,0,1-2.357.1,3.776,3.776,0,0,1-.7-.331c-.916-.876-.624-4.13-.624-6.293h1.326Zm-1.325-6.02A1.3,1.3,0,0,1,90.959,9.04H91.1c1.188.019,1.188,1.286,1.188,1.286v4.656H90.959L89.634,15Zm25.17,11.65V11.183c0-2.474-1.422-4.247-4.344-4.247a6.665,6.665,0,0,0-4.909,2.416V7.6H98.674V9.059c1.441,0,1.48,0,1.48,1.266l.039,11.572c0,1.091-.1,1.11-1.5,1.149v1.461h8.864v-1.5c-1.344,0-1.734-.019-1.734-1.169V11.572a1.8,1.8,0,0,1,1.559-1.851,1.691,1.691,0,0,1,1.87,1.695V24.508h7.208v-1.52c-.994-.019-1.657,0-1.657-1.013Zm-32.983,0V11.183c0-2.474-1.442-4.247-4.364-4.247a6.722,6.722,0,0,0-4.89,2.416V7.6H65.711V9.059c1.441,0,1.5,0,1.5,1.266L67.23,21.9c0,1.091-.1,1.11-1.52,1.149l.019,1.461h8.864v-1.5c-1.344,0-1.734-.019-1.734-1.169V11.572a1.8,1.8,0,0,1,1.559-1.851,1.691,1.691,0,0,1,1.87,1.695L76.27,24.508h7.208v-1.52h-.1c-.935-.019-1.559-.019-1.559-1.013Zm59.185-.117.039-10.734c0-2.825-2.981-4.734-6.546-4.734a3.3,3.3,0,0,0-.429.019,16.154,16.154,0,0,0-6.37,2.435,10.479,10.479,0,0,1,.019,1.909l4.11-1.987a4.779,4.779,0,0,1,2.24-.292,1.3,1.3,0,0,1,1.071.6,3.192,3.192,0,0,1,.351,1.149l.019,1.967a7.177,7.177,0,0,0-1.442-.623,6.753,6.753,0,0,0-3.448-.1c-2.708.74-3.9,3.663-3.9,7.228,0,2.493,1.5,6.409,4.792,6.409a4.411,4.411,0,0,0,2.552-.721c.331-.195.643-.429.994-.662.838.779,2.494.76,3.253.76l4.325.039-.039-1.559C141.26,22.988,141.007,22.949,141.007,21.858Zm-6.7.468c-.078,0-.156-.019-.234-.019-.955-.059-1.208-.584-1.422-1.987,0-1.617,0-3.663-.02-4.481-.039-1.461.487-2.182,1.383-2.182h.058c.9.039,1.4.8,1.4,1.773,0,1.247.039,3.6.039,4.987.019,1.286-.429,1.909-1.208,1.909Zm-9.468-.448V9.059h1.325l.04-1.442L124.838,7.6V1.208l-1.422.019A21.375,21.375,0,0,1,117.1,7.6V9.059c1.286,0,1.753.019,1.753,1.286V21.878c0,1.11-.623,1.13-1.539,1.13v1.5h9.02v-1.5c-1.189,0-1.5-.039-1.5-1.13Z" fill="#b3b3b3"/>
    </g>
  </g>
</svg>
