<svg xmlns="http://www.w3.org/2000/svg" viewBox="0 0 83.84 56.39"><defs><style>.cls-1{fill:#b3b3b3;}</style></defs><title>corona</title><g id="Layer_2" data-name="Layer 2"><g id="Capa_1" data-name="Capa 1"><path class="cls-1" d="M41.89,0a1.18,1.18,0,0,1,.41,1.52s1.17.37,1.31,1c0,0-1-.35-1.41.51,0,0-.16.88.7.7a.85.85,0,0,1,1.23,0s.79-.83,1.8.18a2.6,2.6,0,0,1,3.17.33,2,2,0,0,1,2.53.58A2.21,2.21,0,0,1,54.09,6,1.4,1.4,0,0,1,55.75,7s.78-.19,1,.78a7.48,7.48,0,0,1,2.08-.14,1.78,1.78,0,0,0-.42.85,3.52,3.52,0,0,0-3.14,1.59A9.21,9.21,0,0,0,50.37,7s.58,1.5.8,2.3h-1.7S49,7.44,46.05,6l-.82.82S47,8.48,46.37,9.35c0,0-.67.59-2.12-.39a5.61,5.61,0,0,0-2.36-.75V6.73s.81-.06.81-1.34c0,0,.13-1.32-.81-1.32Z"/><path class="cls-1" d="M42,0a1.18,1.18,0,0,0-.41,1.52s-1.17.37-1.31,1c0,0,1-.35,1.41.51,0,0,.16.88-.7.7a.85.85,0,0,0-1.23,0S38.92,3,37.91,4a2.6,2.6,0,0,0-3.17.33,2,2,0,0,0-2.53.58A2.21,2.21,0,0,0,29.75,6,1.4,1.4,0,0,0,28.09,7s-.78-.19-1,.78A7.48,7.48,0,0,0,25,7.67a1.78,1.78,0,0,1,.42.85,3.52,3.52,0,0,1,3.14,1.59A9.21,9.21,0,0,1,33.47,7s-.58,1.5-.8,2.3h1.7S34.86,7.44,37.79,6l.82.82s-1.8,1.67-1.14,2.54c0,0,.67.59,2.12-.39A5.61,5.61,0,0,1,42,8.22V6.73s-.81-.06-.81-1.34c0,0-.13-1.32.81-1.32Z"/><path class="cls-1" d="M23.67,8.29a3.11,3.11,0,0,0,3.47,1.54,2.33,2.33,0,0,0,1.43,1.43s-1.29,1.35,0,2.16c0,0,1.18.35,1.41-.46,0,0,0-.83-.66-.93l.93-.69.94.69s-.63,0-.48.93c0,0,.12.88.88.88a.85.85,0,0,0,.88-.88c0-.21-.12-1.25-.91-1.41l1.56-1.14,1.48,1.14A1.55,1.55,0,0,0,33.88,13s.06.88,1.18.88S36.18,13,36.18,13s0-.93-.81-.93L37,11.2l1.52.83a.87.87,0,0,0-.67.93A1,1,0,0,0,39,14c.42,0,1.08-.08,1.08-1a1.85,1.85,0,0,0-1.91-1.79A4.79,4.79,0,0,1,41.94,9v5.71H27.81A2.3,2.3,0,0,0,27.08,13a3.19,3.19,0,0,0-1.6-.94A3.27,3.27,0,0,1,23.67,8.29Z"/><path class="cls-1" d="M60.17,8.29A3.11,3.11,0,0,1,56.7,9.83a2.33,2.33,0,0,1-1.43,1.43s1.29,1.35,0,2.16c0,0-1.18.35-1.41-.46,0,0,0-.83.66-.93l-.93-.69-.94.69s.63,0,.48.93c0,0-.12.88-.88.88a.85.85,0,0,1-.88-.88c0-.21.12-1.25.91-1.41l-1.56-1.14-1.48,1.14A1.55,1.55,0,0,1,50,13s-.06.88-1.18.88S47.66,13,47.66,13s0-.93.81-.93l-1.66-.83L45.29,12A.87.87,0,0,1,46,13a1,1,0,0,1-1.14,1c-.42,0-1.08-.08-1.08-1a1.85,1.85,0,0,1,1.91-1.79A4.79,4.79,0,0,0,41.9,9v5.71H56A2.3,2.3,0,0,1,56.76,13a3.19,3.19,0,0,1,1.6-.94A3.27,3.27,0,0,0,60.17,8.29Z"/><rect class="cls-1" x="27.77" y="15.34" width="28.29" height="1.19"/><rect class="cls-1" x="27.77" y="17.15" width="28.29" height="2.24"/><circle class="cls-1" cx="30.03" cy="18.29" r="0.79"/><circle class="cls-1" cx="35.83" cy="18.29" r="0.79"/><circle class="cls-1" cx="41.73" cy="18.29" r="0.79"/><circle class="cls-1" cx="47.51" cy="18.29" r="0.79"/><circle class="cls-1" cx="53.34" cy="18.29" r="0.79"/><path class="cls-1" d="M10.9,26l.93.36V40.48l-1.75,1.34h2.52L17.17,38V24.5l.62-1.23A10.17,10.17,0,0,1,10.9,26Z"/><path class="cls-1" d="M19.94,20.44S18,23.58,16.12,24.52c0,0,5.79,3.12,9.58-.12A7.78,7.78,0,0,1,19.94,20.44Z"/><path class="cls-1" d="M21,47.42V24.75H20.1V46.19S18,45.52,18,47.32c0,0-.1,1.23,1.54,1.23C19.58,48.55,21,48.45,21,47.42Z"/><path class="cls-1" d="M22.46,42S8.74,45.21,6.37,35.5a13.59,13.59,0,0,1,7.35-13.83S0,22.8,0,35.5c0,0,.15,9.2,9.35,10C9.35,45.47,17.17,46,22.46,42Z"/><path class="cls-1" d="M27.52,27.56A11,11,0,0,1,26,29.87v8.21s2.81,1.54,4,.77l-2,3.2s-1.31-1.54-6.48-2.24c0,0,1.23-.77,1.23-1.66v-8l-.46-.5S24.48,30,27.52,27.56Z"/><path class="cls-1" d="M27.91,42a11,11,0,0,1,1.5-2.31V31.53s-2.81-1.54-4-.77l2-3.2s1.31,1.54,6.48,2.24c0,0-1.23.77-1.23,1.66v8l.46.5S31,39.62,27.91,42Z"/><path class="cls-1" d="M50.57,27.56a11,11,0,0,1-1.5,2.31v8.21s2.81,1.54,4,.77l-2,3.2s-1.31-1.54-6.48-2.24c0,0,1.23-.77,1.23-1.66v-8l-.46-.5S47.52,30,50.57,27.56Z"/><path class="cls-1" d="M51,42a11,11,0,0,1,1.5-2.31V31.53s-2.81-1.54-4-.77l2-3.2s1.31,1.54,6.48,2.24c0,0-1.23.77-1.23,1.66v8l.46.5S54,39.62,51,42Z"/><path class="cls-1" d="M34.15,29.52s1.54.39,1.54,1.35v7.75s-.19.54-1.08.54a6.43,6.43,0,0,1,3,3,7.12,7.12,0,0,1,3-3s-1.16,0-1.16-.56V29.1A4.88,4.88,0,0,0,37,27.31Z"/><path class="cls-1" d="M42.63,27.07s-.87,1.58-3.78,2.12c0,0,.67,1.54,3.68,1.54s3-1.72,3-1.72A5,5,0,0,1,42.63,27.07Z"/><path class="cls-1" d="M57.15,29.75s1.54.39,1.54,1.35v7.75s-.19.54-1.08.54a6.43,6.43,0,0,1,3,3,7.12,7.12,0,0,1,3-3s-1.16,0-1.16-.56V29.33A4.88,4.88,0,0,0,60,27.54Z"/><path class="cls-1" d="M62.28,29.09A9.68,9.68,0,0,0,66,26.86a6.8,6.8,0,0,0,3.34,2.36s-.49,0-.49,1.11v8.52s-.06.56.94.56c0,0-2.39,1.61-2.39,3,0,0-.63-3-2.81-3,0,0,.91-.12.91-.56V31.1s-.64-1.67-1.82-1.67L62.28,30.7Z"/><path class="cls-1" d="M76.52,26.91A11,11,0,0,1,75,29.23v8.21s2.81,1.54,4,.77l-2,3.2s-1.31-1.54-6.48-2.24c0,0,1.23-.77,1.23-1.66v-8l-.46-.5S73.47,29.34,76.52,26.91Z"/><path class="cls-1" d="M81.53,28.56V38s.39,1,2.31,1L80.89,42l-3.18-3.18V30.1a8.78,8.78,0,0,1-3-1.28l1.94-2A8.81,8.81,0,0,0,81.53,28.56Z"/><path class="cls-1" d="M47,50s.86.19.86.66v3.78s-.11.26-.6.26A3.45,3.45,0,0,1,49,56.21a3.71,3.71,0,0,1,1.66-1.46s-.64,0-.64-.27V49.83A2.68,2.68,0,0,0,48.61,49Z"/><path class="cls-1" d="M51.76,48.83A3,3,0,0,1,49.66,50s.38.86,2.05.86,1.68-1,1.68-1A2.76,2.76,0,0,1,51.76,48.83Z"/><path class="cls-1" d="M23.69,46.08s.9-1.88,1.93-1.88c0,0,6.3,1.08,7.33-.35l-1.61,2.26a7.86,7.86,0,0,1-3.35,0C26.42,45.7,24.36,45.42,23.69,46.08Z"/><path class="cls-1" d="M31.57,48.32a2.86,2.86,0,0,1-2.43.31,2.5,2.5,0,0,0-3,1.58,3,3,0,0,1,2.76,0S31.57,50.74,31.57,48.32Z"/><path class="cls-1" d="M23.94,56.12s.73-1.73,4.36-1.73a11.71,11.71,0,0,1,3,.31s1.77-.69,2-1.46l-1.72,3.16S27,55,23.94,56.12Z"/><path class="cls-1" d="M27.16,45.23V55l-2.31.56v-8.5S25.19,46,27.16,45.23Z"/><path class="cls-1" d="M33.63,51.13s.94-2.13,3.44,2.33c0,0,2.32,3.9,3.94,2.27l1.23-1.23s-1.6,1.39-3.33-2.16c0,0-1.77-3.12-3.48-3.48A2.19,2.19,0,0,0,33.63,51.13Z"/><path class="cls-1" d="M41,50.09s-.85-1.77-1.77-.85c0,0-4.46,6.39-4.91,5.94a1,1,0,0,1-.53-.42S33.7,56,34.45,56c0,0,0,.72,2.58-2.61l2.6-3.4S40.2,49.3,41,50.09Z"/><path class="cls-1" d="M43.07,48.45l2-1.05v6.89a1.56,1.56,0,0,0,2,0,2.12,2.12,0,0,1-1.62,1.08s-1.21.27-1.21.78c0,0-.8-1.19-1.62-1.27,0,0,.46-.24.46-.46S43.07,48.45,43.07,48.45Z"/><polygon class="cls-1" points="42.26 49.12 46.55 49.12 46.55 49.67 42.27 49.67 42.26 49.12"/><path class="cls-1" d="M56.25,49.66v4.29a8.68,8.68,0,0,1,2.62.85l-2.21,1.31a4.09,4.09,0,0,0-2.93-1l.54-.57V50.74A5.58,5.58,0,0,0,56.25,49.66Z"/><path class="cls-1" d="M57.13,48.63a5.43,5.43,0,0,0,3,1.77v4.32s.13.51,1.29.26c0,0-.69,1.44-2,1.1A2.15,2.15,0,0,1,58.13,54c0-1.62.08-2.85.08-2.85s-2.64-.91-3.22-.68A5.73,5.73,0,0,0,57.13,48.63Z"/></g></g></svg>