<svg id="Capa_1" data-name="Capa 1" xmlns="http://www.w3.org/2000/svg" viewBox="0 0 300 140.75"><defs><style>.cls-1{fill:#b3b3b3;}</style></defs><title>Mesa de trabajo 9</title><path class="cls-1" d="M152.42,42.24c-.71-3-1.45-6-2.18-9l0-.19a.73.73,0,0,0-.47-.52l-.72-.36-.24.71-.06.16a3.33,3.33,0,0,0-.12.35c-.95,3.88-2,8.84-2.06,9.67l0,.53.52.12a18,18,0,0,0,2.52.13,19.57,19.57,0,0,0,2.43-.12l.58-.11-.06-.74A3.09,3.09,0,0,0,152.42,42.24Z"/><path class="cls-1" d="M95.34,34.09q0,2.14,0,4.27c0,.25,0,.49,0,.72a1.53,1.53,0,0,0,.68,1.16,1.72,1.72,0,0,0,1.12.34h.38l7,.05a1.9,1.9,0,0,0,.46-.07l.12,0,.43-.07.12-.52a1.21,1.21,0,0,0,.06-.34q0-3,0-6a1.18,1.18,0,0,0-.12-.49l-.12-.39-.41-.06c-.58-.08-3.45-.08-4.32-.08-.43,0-4.19,0-4.75.09l-.27,0-.16.22a1.52,1.52,0,0,0-.24,1Z"/><path class="cls-1" d="M51.82,35.84q0,15.77,0,31.56v.14c0,.16,0,.33,0,.51a2.63,2.63,0,0,0,.06.38l0,.15L52,69l.42.1a2.29,2.29,0,0,0,.56.07,4.47,4.47,0,0,0,.82-.1l.39-.06c1.21-.12,2.41-.27,3.62-.42l1.62-.2.39,0a7.22,7.22,0,0,0,.75-.09,1.92,1.92,0,0,0,1.67-1.85,5.53,5.53,0,0,0,0-.75v-.09q0-2.52-.06-5c0-2.25-.05-4.5-.07-6.75q0-4.45-.06-8.9T62,36.15a8.15,8.15,0,0,0-.06-.9c0-.22,0-.45-.08-.68l-.1-.75-.58-.1a1.76,1.76,0,0,0-.37,0h0L52.95,34a1.83,1.83,0,0,0-.4.07l-.1,0-.31.06-.14.29a2.35,2.35,0,0,0-.18,1.19C51.82,35.7,51.82,35.77,51.82,35.84Z"/><path class="cls-1" d="M291.8,10.54H170.65a5.43,5.43,0,0,0,.07,1c0,6.73,0,13.55,0,20.28a2,2,0,0,1-.13,1,2.1,2.1,0,0,1-.28-.73c-1.13-5-2.26-10.06-3.38-15.1a6.63,6.63,0,0,1-.14-1.34c0-1.28,0-2.74,0-4a9.88,9.88,0,0,1-.05-1.12H133.45a29.45,29.45,0,0,1-.87,4.27c-1.52,6.79-3.05,13.67-4.58,20.46-1.08,4.79-2.15,9.64-3.23,14.43,0,.22-.12.45-.21.75-.5-.57-.7-1.19-1.1-1.69l-1.17-1.5c.12-.18.21-.34.33-.49s.39-.49.58-.74a10.32,10.32,0,0,0,2.22-6.23c0-.88,0-1.76,0-2.65,0-3.52,0-7-.07-10.57a9.77,9.77,0,0,0-2.45-6.39c-.4-.48-.81-1-1.22-1.42-1.63-1.82-3.26-3.64-4.91-5.44-.56-.61-1.16-1.36-1.73-2-.19-.2-.36.34-.54-.83H72.87c0,1.17,0,1.58,0,2.35-.17-.06-.29,0-.35,0-.58-.57-1.14-1.29-1.71-1.88-.07-.07-.09.73-.13-.43H8.37c1.36,3.5,2.72,3.55,4.07,5.23,6.24,7.76,12.47,15.61,18.7,23.37a3.61,3.61,0,0,0,.22.31,1.64,1.64,0,0,1,.49,1.33c0,.65,0,1.32,0,2l.23,23.13c0,.37,0,.74,0,1.07l-.44.48a7.89,7.89,0,0,0-2,3.91,12,12,0,0,0-.22,2.53c0,4.32-.06,8.65-.06,13,0,3.1,0,6.2.06,9.3,0,.17,0,.33,0,.46.19.19.35.11.52.08l9.62-1.88,8-1.55.55-.08a2,2,0,0,1-.06.37A59.51,59.51,0,0,0,45.25,103c-.36,1.4-.74,2.8-1.08,4.21a43.92,43.92,0,0,1-2.45,6.9c-2.58,6.1-5.15,12.08-7.72,18.19-.14.34-.26.91-.39.91h.17a6,6,0,0,0,1-.2c4.7-.85,9.39-1.65,14.09-2.47,3.19-.55,6.38-1.05,9.58-1.56,3.42-.54,6.85-1.06,10.28-1.56,2.87-.42,5.74-.79,8.61-1.17q5.2-.68,10.4-1.32c2.62-.32,5.25-.6,7.87-.92l7.86-1,7.88-.91c2.62-.31,5.24-.64,7.86-1a8.14,8.14,0,0,0,1.66-.32l-.72-.19-17.6-4.1-2.24-.52c-.24-.06-.47-.15-.79-.25a1.91,1.91,0,0,1,1-.27c1.67-.17,3.33-.34,5-.49s3.23-.27,4.84-.4c1.16-.1,2.32-.21,3.48-.3l8.16-.58c2.32-.16,4.65-.31,7-.45,1.39-.08,2.78-.13,4.17-.19,1.08,0,2.16-.11,3.24-.15,2.79-.08,5.57-.16,8.36-.21,2.53,0,5.06-.1,7.59-.06,3.64.05,7.28.17,10.92.27q2.21.06,4.43.17c1.71.08,3.41.19,5.11.29,1.22.07,2.44.13,3.66.21,1.42.09,2.84.2,4.25.31l5.27.4,5.44.45,6.36.58,1.53.16a4.57,4.57,0,0,1,.58.13s.07.07.14.16c-.29.08-.56.17-.83.23l-15.53,3.59-4.4,1a.89.89,0,0,0-.51.28l3.18.39,6.42.79,6.6.76,6.6.8,9.14,1.08,7.69,1c2.34.3,4.68.59,7,.9,2.53.35,5.06.73,7.59,1.1s4.95.72,7.41,1.13q6.26,1,12.52,2.12c3.3.57,6.6,1.18,9.9,1.78.86.15,1.73.33,2.59.49a1.69,1.69,0,0,0,.4,0,1.71,1.71,0,0,0-.26-.93q-2.59-6.22-5.19-12.44c-1-2.49-2.07-5-3.13-7.47a34.64,34.64,0,0,1-1.64-4.84q-1.09-4.17-2.18-8.33a38.36,38.36,0,0,0-2.1-6c-.1-.23-.18-.47-.27-.68.2-.23.41-.12.58-.08l5.94,1.16,3.26.63a5.53,5.53,0,0,0,.56.05,1.3,1.3,0,0,0,.13-.87c0-2.73,0-5.46,0-8.19q0-7.34-.13-14.67a10.5,10.5,0,0,0-.64-3.42A6.82,6.82,0,0,0,257,63l-.82-.36a1.67,1.67,0,0,1-.13-1c0-3.33-.4-6.66-.42-10,0-2-.43-4-.43-6.06V44.9c0-.28.85-.22,1.07-.21l3.26.17,3.68.18a7.69,7.69,0,0,0,5.72-2.09,10.19,10.19,0,0,0,1.46-1.57q8.83-12.46,17.68-24.91l3.81-5.34s.06-.21.08-.22C291.92,10.73,291.92,10.54,291.8,10.54ZM274.43,17.9a18.89,18.89,0,0,1,3.3.74l-.57.83-1.25,1.82q-4.72,6.82-9.42,13.65c-.28.4-.55.81-.82,1.22l-.7,1c-.13.19-.27.39-.41.56a1.19,1.19,0,0,1-1,.47h-.15c-.76-.06-1.52-.08-2.25-.1l-1.43-.05-2-.13-1.66-.11-1.37-.07-1.35-.07H253a8.94,8.94,0,0,1,0-1c0-.25,0-.49,0-.72,0-.47,0-.94,0-1.41v-1l-.25-.2a1.9,1.9,0,0,0-1.23-.36h-.29l-.57,0h-1.28l-.08.56c0,.05,0,.1,0,.15a1.88,1.88,0,0,0-.06.43v.13c0,1.21,0,2.42,0,3.64q.05,12.6.12,25.21v2.43c0,.35,0,.72,0,1.07a2,2,0,0,0,1.62,1.92c.23.05.47.09.7.13l1,.17,1.11.2a.93.93,0,0,1,.85.95c0,.12,0,.25,0,.38s.05.45.05.66q.06,7.38.1,14.75V86s0,.08,0,.12h0l-2.43-.47c-1.45-.29-2.9-.57-4.35-.84-2.46-.45-4.91-.87-7.37-1.29l-1-.18-4.63-.77L231.8,82a2.48,2.48,0,0,1-.38-.08c-.22-.07-.24-.16-.25-.29s0-.48,0-.72L231.09,67v-.18a3.19,3.19,0,0,1,0-.55h0l1.77.12,1.38.1,1,.07h.41l.21-.33a.78.78,0,0,0,.2-.51q0-16,0-32a2.3,2.3,0,0,0,0-.36s0-.1,0-.16L236,32.8l-.48-.09a10.13,10.13,0,0,0-2.3-.05l-.61,0-.13.64a2.45,2.45,0,0,0-.08.54c0,.48,0,1,0,1.43,0,.32,0,.65,0,1,0,.1,0,.19,0,.29h-10.7c-.09-2.94,0-16.13.05-18.87h36.62C263.69,17.81,269.06,17.89,274.43,17.9Zm-46,25.73.88,0a1.13,1.13,0,0,1,.18.87c0,1.9,0,3.81,0,5.71q0,4,0,8c0,.31,0,.61,0,.94a1.49,1.49,0,0,1-.37.09l-3.48-.3-1.13-.07a4,4,0,0,0-.09.54c0,.54,0,1.08,0,1.62,0,2.19-.09,4.37-.09,6.56,0,3.9,0,7.79,0,11.69,0,.31,0,.62,0,1a4,4,0,0,1-.53,0c-1.43-.22-2.86-.46-4.29-.66q-3-.43-6-.82-2.49-.32-5-.61c-1.33-.15-2.66-.26-4-.4a14.77,14.77,0,0,1-1.83-.24,1,1,0,0,1-.1-.27c0-5,0-10.06,0-15.22.33,0,.61,0,.88,0h4.7a1.32,1.32,0,0,0,.89-.16c0-.29,0-.63,0-1q0-8.32,0-16.64a3,3,0,0,1,.08-1,16.42,16.42,0,0,1,2.63-.07c.88,0,1.76,0,2.62,0l.35.45c.13,0,.27,0,.41,0h13.31ZM177.42,17.45h39c0,.07,0,.14,0,.21V23.8q0,5.94,0,11.88c0,.13,0,.25,0,.38h-12.7c0-.47,0-.93,0-1.39s0-.7,0-1.07c0-.2,0-.4,0-.6l0-.59-.46-.17a1.14,1.14,0,0,0-.44-.1H194a1,1,0,0,0-.42.1l-.46.16-.06.52a2.41,2.41,0,0,0,0,.36v.23c0,1.54,0,3.12.11,4.69a1.48,1.48,0,0,0,.94,1.31,3.17,3.17,0,0,0,1.34.23l5.74,0,1.34,0c0,.09,0,.18,0,.26v.13q0,7.16,0,14.33c0,.08,0,.15,0,.23s0,.17,0,.24H194.9l-1.49,0-.1.51,0,.16a1.73,1.73,0,0,0-.08.48v.5q0,2.48,0,5a1.06,1.06,0,0,0,.06.34l.1.34.38.23.44.27,1.41.78c.19.11.19.18.19.28a4.54,4.54,0,0,0,0,.53V77.47c0,.09,0,.18,0,.28l-15.83-1c-.49,0-1-.05-1.44-.09a3.35,3.35,0,0,1-.49-.1.36.36,0,0,1-.32-.35,4.56,4.56,0,0,1-.07-.83q0-5.92.07-11.85a6.38,6.38,0,0,1,.08-1.19,4.36,4.36,0,0,1,.66,0,3.9,3.9,0,0,0,1.39-.2l.32-.12.1-.4a1.56,1.56,0,0,0,.06-.41q0-14.28,0-28.59v-.43l-.4-.17a5.32,5.32,0,0,0-1.72-.33,8.15,8.15,0,0,1-.84-.09c0-.05,0-.1,0-.16C177.27,26.53,177.31,19.36,177.42,17.45Zm-5.19,44.8h.1a.37.37,0,0,1,.34.37c0,.19,0,.38,0,.56v1.17q0,5.6,0,11.19c0,.06,0,.13,0,.19s0,.07,0,.09c-.68,0-2.68,0-5.56,0-5.49,0-11.47,0-13.17-.09,0-.08,0-.16,0-.24v-.19q0-6.44,0-12.88c0-.09,0-.18,0-.28s0-.17,0-.25l.17,0h.17c.43,0,.86-.09,1.31-.15a1,1,0,0,0,.91-1.2l-.05-.44c-.06-.5-.12-1-.22-1.54a2.2,2.2,0,0,0-2.14-2,5.31,5.31,0,0,0-.68,0h-8.19a3.59,3.59,0,0,0-.82.12,1.81,1.81,0,0,0-1.4,1.4c-.16.7-.28,1.39-.4,2.09l-.14.76h0l-.05.26.27.49.24.09a3.15,3.15,0,0,0,1.14.16h.3l.42,0c0,.1,0,.21,0,.32v.13q0,6.57,0,13.14c0,.08,0,.16,0,.23s0,.1,0,.15h-.32l-6.19.18-1.83.05-9.63.26h-.25q0-6.93,0-13.86H127a2.15,2.15,0,0,0,2-1.25,6.18,6.18,0,0,0,.49-1.34c.28-1.2.54-2.4.8-3.6l.14-.65q.72-3.27,1.43-6.55.95-4.34,1.91-8.69,1.77-8,3.56-16l1.32-5.91.27-1.16H160.1l0,.14,0,.2q.63,2.79,1.24,5.59T162.64,29q1.45,6.41,2.9,12.82l1.66,7.3q.82,3.61,1.63,7.23l.73,3.25c.09.37.19.79.34,1.22a2.1,2.1,0,0,0,2.1,1.49ZM80.45,17.55h30.28c.07,0,.14-.13.21-.24l.11,0h.1c.22,0,.39,0,.74.42,2.26,2.63,4,4.64,5.69,6.52a4,4,0,0,1,1,2.78V29.5c0,3.33,0,6.67,0,10a3.63,3.63,0,0,1-.8,2.36c-.94,1.18-1.92,2.36-2.91,3.56l-.47.55-.47.56a4.29,4.29,0,0,0-.27.37l-.42.6.34.38.28.32.29.34,3.05,3.36a2.66,2.66,0,0,1,.19.23l.17.2a4.34,4.34,0,0,1,1.08,2.87q0,2.86.1,5.71c0,.06,0,.12,0,.18a2.15,2.15,0,0,0,.18,1l.15.3.33.05a8,8,0,0,0,1.08.09,6.68,6.68,0,0,1,.9.07c0,4.68,0,9.35,0,14-.75.1-1.51.15-2.26.19l-1.46.1c-1.38.12-2.77.23-4.16.33l-1.64.1c-.86.05-1.75.1-2.62.18s-1.46.12-2.2.17l-1.22.08,0-.12a2.39,2.39,0,0,0,.07-.51V55.63l-.62,0a2,2,0,0,1-.37,0,1.11,1.11,0,0,0-.34,0l-3,.17L98,55.91l-.42,0L97,56a1.53,1.53,0,0,0-1.42,1.18,2.93,2.93,0,0,0-.13.78q0,2.59,0,5.2a1.1,1.1,0,0,0,.08.39l.13.44.39.08a4.72,4.72,0,0,0,1,.09h1.11s0,.07,0,.11,0,.13,0,.19q0,5.25-.05,10.49c0,.88,0,1.76,0,2.64v.15c0,.08,0,.17,0,.25,0,.54-.08.6-.61.67s-.92.11-1.39.16l-1.25.13-5,.58-2.22.24L83,80.28l-1.34.16-1.28.16-.34,0c0-.22,0-.44,0-.67V75.49q0-4.25,0-8.5a4.88,4.88,0,0,1,.07-.82c0-.23.14-.41.51-.49h.07l.26,0a2.06,2.06,0,0,0,1.69-2c0-.09,0-.19,0-.28v-.1l.12-28.64c0-.21,0-.42,0-.65V33.2L82.3,33a4.87,4.87,0,0,0-1.71-.24,6.42,6.42,0,0,1-.74,0c0-.08,0-.17,0-.27s0-.14,0-.22V17.69c0-.12,0-.23,0-.36h0l.14,0C80.17,17.4,80.31,17.55,80.45,17.55ZM36.27,87.85q0-3.41,0-6.82c0-1.75,0-3.5.05-5.26l0-2.59v-.23c0-.74.14-.9.85-1.11a2.4,2.4,0,0,0,1.11-.6,1.89,1.89,0,0,0,.57-1.39c0-.33,0-.66,0-1v-.52q-.07-9.85-.14-19.71,0-5.24-.11-10.49c0-.77,0-1.55-.09-2.33a1,1,0,0,0-1.06-1.09h-.21A2.42,2.42,0,0,1,35,33.8c-.46-.52-.89-1.07-1.31-1.62L28,24.74l-5.61-7.29H67.29a1.12,1.12,0,0,1,.37,0,1.58,1.58,0,0,1,.26.31c.08.12.16.23.25.33l3.19,3.75.74.87,1.83,2.14a3.46,3.46,0,0,1,.83,2.32v4.1c0,4,0,8.19.1,12.29C75,50,75,56.56,75,62.89q0,4,0,7.92c0,.34,0,.7,0,1a4.11,4.11,0,0,1-.94,2.75c-1.05,1.38-2,2.58-2.88,3.68-.47.58-1,1.16-1.43,1.73l-1.33,1.61a2.83,2.83,0,0,1-1.75,1.06c-2.07.38-4.14.78-6.2,1.18L57,84.54,42.66,87.25l-2.55.49-3.47.65-.16,0-.18,0a2.19,2.19,0,0,1,0-.46Zm219,37.25q-20.54-3.72-41.22-6.18A191,191,0,0,1,237.88,115c-24.26-5.15-64.37-8.41-88-8.35s-63.68,3.2-88,8.35a191,191,0,0,1,23.87,3.92q-20.67,2.47-41.22,6.18l4.84-11.53c1.6-3.83,3.23-12.89,4.86-16.7q6.7-1,13.41-1.95c.72-2.55,1.44-4.92,2.16-6.9,22.12-4.91,59.22-6.52,80-6.49h0c20.79,0,57.89,1.58,80,6.49.72,2,1.44,4.36,2.17,6.9q6.71.91,13.41,1.95c1.63,3.82,3.26,12.87,4.88,16.7S253.62,121.27,255.22,125.11Z"/><path class="cls-1" d="M217,99.83c-.18-.91-.35-1.82-.52-2.73s-.32-1.78-.5-2.66a.49.49,0,0,0-.13-.25l-1.56-1.46-.35-.33a.84.84,0,0,0-.43-.19l-2.88-.37c-.63-.08-1.26-.16-1.89-.23a.46.46,0,0,0-.33.09l-.35.36c-.31.32-.62.63-.92,1a.44.44,0,0,0-.09.33c.18,1.2.37,2.4.55,3.6l.42,2.8.09.58c.11.74.22,1.48.34,2.21a.77.77,0,0,0,.18.38l1.15,1.17.35.36a1.86,1.86,0,0,0,1.28.64c1.54.17,3.08.41,4.62.62a.42.42,0,0,0,.32-.1c.5-.54,1-1.09,1.47-1.63v-.05a.94.94,0,0,1-.07-.18Zm-3.29,2-1.72-.23c-.2,0-.28-.12-.32-.32-.19-1.21-.4-2.41-.61-3.61-.13-.78-.27-1.55-.39-2.33,0-.06.07-.14.09-.17.67.08,1.26.14,1.85.23a.35.35,0,0,1,.22.23c.13.64.24,1.28.35,1.92l.51,2.93c.07.38.13.77.21,1.15C213.91,101.81,213.83,101.86,213.67,101.83Z"/><path class="cls-1" d="M93,90.9l-3.25.42a.59.59,0,0,0-.37.22l-.57.84-1.3,1.94-.56.81-.13-.21c-.39-.73-.78-1.46-1.15-2.19l-.17-.34c-.18-.37-.36-.54-.83-.46-1,.17-2,.27-3,.39a.24.24,0,0,0-.24.24c0,.22-.06.44-.09.67-.09.64-.18,1.28-.27,1.92-.07.48-.08.48.41.45l.09,0a1,1,0,0,1,0,.18c-.07.56-.15,1.13-.23,1.7l-.56,4c0,.37,0,.38-.42.43a.29.29,0,0,0-.3.3c-.13,1-.29,2-.43,3,0,.31,0,.34.3.3L84,105c.21,0,.24-.15.26-.32.11-1,.23-1.91.34-2.86.05-.41.05-.41-.37-.39-.14,0-.19,0-.17-.17.14-1.1.27-2.19.41-3.29a.77.77,0,0,1,.06-.13l.14.26c.48,1,1,2.09,1.44,3.13a.76.76,0,0,0,.13.16.77.77,0,0,0,.13-.13l1.87-3,.54-.86.08,0c0,.11,0,.22,0,.33-.1.93-.21,1.86-.31,2.79,0,.36,0,.36-.38.41-.14,0-.28,0-.3.23l-.35,3.16c0,.19.07.23.25.21.5-.08,1-.13,1.5-.19l.77-.09,1.82-.22a.29.29,0,0,0,.29-.32c0-.24,0-.49.06-.73l.21-2.31c0-.19-.05-.26-.24-.22l-.14,0c-.17,0-.22,0-.2-.19v-.12c0-.27.05-.55.08-.83.14-1.58.3-3.16.43-4.74,0-.26.09-.39.37-.39a.25.25,0,0,0,.3-.25c.06-.67.12-1.34.19-2l.07-.78C93.29,90.94,93.23,90.87,93,90.9Z"/><path class="cls-1" d="M144.34,97a.59.59,0,0,1-.57-.24q-1.25-1.34-2.51-2.67c-.14-.15-.13-.24,0-.39q1.15-1.28,2.28-2.58a.64.64,0,0,1,.63-.28c.19,0,.28-.06.27-.27q0-1.35-.08-2.71c0-.21-.08-.28-.29-.28l-4.3.08c-.21,0-.29.07-.29.29,0,.86,0,1.71,0,2.57,0,.22,0,.41.31.43-.23.26-.43.5-.64.72a.18.18,0,0,1-.16,0c-.22-.22-.43-.46-.68-.72.32,0,.33-.18.32-.38,0-.86,0-1.72,0-2.59,0-.27,0-.3-.31-.3l-4.3.07c-.21,0-.26.09-.27.28,0,.9,0,1.81-.05,2.71,0,.21.07.28.27.26a.51.51,0,0,1,.49.13c.81.89,1.63,1.77,2.45,2.65.12.13.11.22,0,.35q-1.25,1.39-2.49,2.78a.56.56,0,0,1-.53.24c-.25,0-.32.08-.32.32,0,1,0,1.9-.05,2.86,0,.34,0,.35.33.34,1.5,0,3-.06,4.49-.08.23,0,.31-.07.31-.31,0-.93,0-1.86,0-2.78,0-.36,0-.36-.36-.47.25-.28.49-.55.73-.82a.12.12,0,0,1,.13,0l.76.82c-.24,0-.41,0-.4.29,0,1,0,2,0,3,0,.19.07.27.26.26l4.67-.06c.16,0,.22-.07.21-.23,0-1-.06-2-.09-3.05C144.61,97,144.52,97,144.34,97Z"/><path class="cls-1" d="M117.45,88.68l-8.09.63c-.18,0-.25.08-.26.26-.06.9-.12,1.81-.19,2.71,0,.24.06.32.29.27s.29,0,.28.28q-.19,2.79-.36,5.58c0,.26-.08.37-.35.35s-.28,0-.29.21q-.09,1.57-.19,3.14c0,.15.06.2.21.19l1.72-.15,7.11-.57c.23,0,.31-.11.31-.34,0-.63,0-1.27,0-1.9h.11c0-.64,0-1.29,0-1.93,0-.22-.06-.29-.28-.27-.79.07-1.57.12-2.36.19s-.63-.05-.64.69v0c0,.17-.08.24-.25.25-.54,0-1.07.08-1.61.13-.16,0-.22,0-.21-.19,0-.34,0-.67,0-1,0-.16.06-.23.23-.24l1.66-.13c.17,0,.24-.08.25-.26,0-1,.07-1.93.12-2.9,0-.18-.05-.25-.24-.24-.52.05-1,.08-1.56.13-.23,0-.27,0-.25-.25a8.67,8.67,0,0,0,0-.88c0-.17.07-.23.23-.24l1.21-.1c.57,0,.58,0,.57.54,0,.24.08.29.3.26.83-.08,1.65-.14,2.48-.2.39,0,.39,0,.4-.43,0-1.07.07-2.13.09-3.2C118,88.62,118,88.64,117.45,88.68Z"/><path class="cls-1" d="M191.11,98.38c-1-.07-1.92-.15-2.87-.24-.19,0-.28,0-.25.23s0,.29,0,.44,0,.24-.2.22l-1.7-.13a.22.22,0,0,1-.24-.22c0-.19,0-.39,0-.58q-.29-2.61-.59-5.24c0-.2,0-.26.23-.24l1.19.1c.62,0,.63,0,.71.67a.29.29,0,0,0,.31.29l2.53.19h0l.32,0c.15,0,.18-.06.16-.2-.09-.64-.18-1.27-.25-1.91a.76.76,0,0,0-.25-.51q-.77-.72-1.51-1.46a.94.94,0,0,0-.65-.29l-4.48-.34a.55.55,0,0,0-.36.14c-.3.29-.56.62-.87.89a1.08,1.08,0,0,0-.46,1.26.25.25,0,0,1,0,.07c.14,1.51.29,3,.43,4.52.12,1.31.25,2.62.38,3.94a.65.65,0,0,0,.16.36c.52.56,1.05,1.09,1.56,1.65a1.05,1.05,0,0,0,.74.35l4.7.38a.44.44,0,0,0,.32-.11c.47-.5.92-1,1.37-1.53a.39.39,0,0,0,.1-.26c-.09-.75-.19-1.5-.29-2.25C191.35,98.46,191.26,98.39,191.11,98.38Z"/><path class="cls-1" d="M166.09,97.59l-.76,0c-.17,0-.23-.09-.24-.26-.05-1-.11-1.9-.16-2.85h0c-.05-.94-.11-1.89-.17-2.83,0-.22.06-.29.28-.27a5.69,5.69,0,0,0,.61,0c.27,0,.3,0,.29-.29-.06-.9-.13-1.8-.18-2.71,0-.21-.1-.28-.3-.29l-1.42,0-3.56-.14c-.14,0-.25,0-.24.18,0,1,.07,1.9.12,2.86a.28.28,0,0,0,.19.18,4.46,4.46,0,0,0,.73,0c.21,0,.28.07.29.29,0,1.2.1,2.41.16,3.61,0,.67.06,1.34.09,2,0,.32,0,.32-.29.3s-.43,0-.63,0-.28.06-.27.28c.05,1,.09,1.94.12,2.91,0,.33,0,.35.37.37l5.19.23c.22,0,.29-.05.27-.28q-.12-1.51-.21-3C166.33,97.65,166.26,97.59,166.09,97.59Z"/><path class="cls-1" d="M117.8,85.38l-4.16,2.4-.16.13,0,.07h.21l1.52-.15,2.57-.26c.18,0,.25-.1.25-.29,0-.57,0-1.15,0-1.73a1.15,1.15,0,0,0-.06-.22A.87.87,0,0,0,117.8,85.38Z"/></svg>