<svg id="Capa_1" data-name="Capa 1" xmlns="http://www.w3.org/2000/svg" viewBox="0 0 208.49 113.99"><defs><style>.cls-1{fill:#b3b3b3;}</style></defs><title>Mesa de trabajo 27</title><path class="cls-1" d="M107.52,39.55c-.47-2-.95-3.94-1.42-5.91l0-.13a.48.48,0,0,0-.31-.34l-.47-.23-.15.46,0,.1a2.18,2.18,0,0,0-.08.23c-.62,2.53-1.33,5.77-1.35,6.32v.35l.34.08a11.77,11.77,0,0,0,1.65.08,12.78,12.78,0,0,0,1.59-.08l.38-.07,0-.49A2,2,0,0,0,107.52,39.55Z"/><path class="cls-1" d="M70.23,34.22q0,1.39,0,2.79c0,.16,0,.32,0,.47a1,1,0,0,0,.44.76,1.12,1.12,0,0,0,.73.22h.25l4.55,0a1.24,1.24,0,0,0,.3,0l.08,0,.28,0,.08-.34a.79.79,0,0,0,0-.22q0-2,0-3.9a.77.77,0,0,0-.08-.32l-.08-.26-.27,0c-.38-.05-2.25-.05-2.82-.05-.28,0-2.74,0-3.11.06l-.18,0-.1.14a1,1,0,0,0-.16.66Z"/><path class="cls-1" d="M41.8,35.36q0,10.3,0,20.62v.09c0,.11,0,.22,0,.33a1.72,1.72,0,0,0,0,.25l0,.1,0,.28.27.07a1.5,1.5,0,0,0,.37,0,2.92,2.92,0,0,0,.54-.06l.26,0c.79-.08,1.58-.18,2.36-.27l1.06-.13.25,0a4.72,4.72,0,0,0,.49-.06,1.25,1.25,0,0,0,1.09-1.21,3.61,3.61,0,0,0,0-.49v-.06q0-1.64,0-3.28c0-1.47,0-2.94,0-4.41q0-2.9,0-5.81t0-5.72a5.32,5.32,0,0,0,0-.59c0-.15,0-.29-.05-.44L48.3,34,47.92,34a1.15,1.15,0,0,0-.24,0h0l-5.12.21a1.19,1.19,0,0,0-.26,0l-.06,0-.21,0-.09.19a1.54,1.54,0,0,0-.12.78S41.8,35.32,41.8,35.36Z"/><path class="cls-1" d="M198.56,18.84H119.42a3.55,3.55,0,0,0,0,.67c0,4.4,0,8.85,0,13.25a1.32,1.32,0,0,1-.08.66,1.37,1.37,0,0,1-.18-.48c-.74-3.29-1.48-6.57-2.21-9.86a4.33,4.33,0,0,1-.09-.88c0-.83,0-1.79,0-2.63a6.45,6.45,0,0,1,0-.73H95.12a19.23,19.23,0,0,1-.57,2.79c-1,4.43-2,8.93-3,13.36-.7,3.13-1.41,6.29-2.11,9.42,0,.14-.08.29-.14.49-.32-.37-.46-.77-.72-1.11l-.76-1c.08-.11.14-.22.21-.32l.38-.48A6.74,6.74,0,0,0,89.88,38c0-.58,0-1.15,0-1.73,0-2.3,0-4.6,0-6.91a6.38,6.38,0,0,0-1.6-4.17c-.26-.31-.53-.62-.8-.93-1.07-1.19-2.13-2.38-3.21-3.55-.36-.4-.76-.89-1.13-1.27-.13-.13-.24.22-.35-.54H55.55c0,.76,0,1,0,1.54-.11,0-.19,0-.23,0-.38-.37-.75-.84-1.12-1.23,0,0-.06.48-.09-.28H13.42c.89,2.29,1.78,2.32,2.66,3.42,4.07,5.07,8.15,10.2,12.22,15.26a2.36,2.36,0,0,0,.14.2,1.07,1.07,0,0,1,.32.87c0,.43,0,.86,0,1.29L28.93,55c0,.24,0,.48,0,.7l-.29.32a5.15,5.15,0,0,0-1.29,2.55,7.82,7.82,0,0,0-.14,1.65c0,2.82,0,5.65,0,8.47,0,2,0,4,0,6.07,0,.11,0,.22,0,.3s.23.07.34.05l6.28-1.23,5.25-1,.36-.05a1.33,1.33,0,0,1,0,.24,38.87,38.87,0,0,0-1.92,6.16c-.24.92-.48,1.83-.7,2.75a28.69,28.69,0,0,1-1.6,4.51c-1.69,4-3.36,7.89-5,11.88-.09.22-.17.59-.25.59H30a3.92,3.92,0,0,0,.68-.13c3.07-.56,6.13-1.08,9.2-1.61,2.08-.36,4.17-.69,6.26-1s4.47-.69,6.71-1c1.87-.27,3.75-.51,5.63-.76l6.79-.86c1.71-.21,3.43-.39,5.14-.6l5.14-.63,5.14-.6,5.14-.63a5.32,5.32,0,0,0,1.08-.21l-.47-.12L75,88.09l-1.46-.34c-.16,0-.31-.1-.52-.16a1.25,1.25,0,0,1,.63-.18l3.27-.32,3.16-.26,2.27-.2,5.33-.38,4.56-.3c.91-.05,1.82-.08,2.73-.12.7,0,1.41-.07,2.11-.1,1.82-.05,3.64-.11,5.46-.14,1.65,0,3.31-.06,5,0,2.38,0,4.75.11,7.13.18q1.45,0,2.89.11l3.34.19,2.39.14,2.78.2,3.44.26,3.55.3,4.16.38,1,.1a3,3,0,0,1,.38.09s0,0,.09.1l-.54.15-10.14,2.34-2.87.66a.58.58,0,0,0-.34.18l2.08.26,4.2.51,4.31.5,4.31.52,6,.71,5,.63c1.53.2,3.06.38,4.58.59s3.31.47,5,.72,3.23.47,4.84.74q4.09.67,8.18,1.39c2.16.37,4.31.77,6.46,1.16l1.69.32a1.11,1.11,0,0,0,.26,0,1.12,1.12,0,0,0-.17-.61L178,90.25c-.68-1.63-1.35-3.26-2-4.88a22.62,22.62,0,0,1-1.07-3.16l-1.42-5.44a25.05,25.05,0,0,0-1.37-3.94c-.07-.15-.12-.31-.18-.44.13-.15.27-.08.38-.05l3.88.76,2.13.41a3.61,3.61,0,0,0,.37,0,.85.85,0,0,0,.08-.57c0-1.78,0-3.57,0-5.35q0-4.79-.08-9.58a6.86,6.86,0,0,0-.42-2.23,4.46,4.46,0,0,0-2.46-2.66l-.54-.23a1.09,1.09,0,0,1-.09-.63c0-2.17-.26-4.35-.27-6.52,0-1.32-.28-2.64-.28-4v-.51c0-.18.56-.15.7-.14l2.13.11,2.4.12A5,5,0,0,0,183.62,40a6.66,6.66,0,0,0,1-1q5.77-8.14,11.55-16.27l2.49-3.49s0-.13.05-.14S198.63,18.84,198.56,18.84Zm-11.35,4.8a12.34,12.34,0,0,1,2.16.48l-.37.54-.82,1.19L182,34.77l-.53.8-.46.68c-.09.13-.18.26-.27.37a.77.77,0,0,1-.63.3H180c-.49,0-1-.05-1.47-.06l-.93,0-1.3-.08-1.08-.07-.89,0-.88,0h-.27a5.84,5.84,0,0,1,0-.63c0-.16,0-.32,0-.47,0-.31,0-.62,0-.92v-.66l-.16-.13a1.24,1.24,0,0,0-.81-.24H172l-.37,0h-.83l-.05.36,0,.1a1.22,1.22,0,0,0,0,.28v.08c0,.79,0,1.58,0,2.38q0,8.23.08,16.47v1.58c0,.23,0,.47,0,.7a1.32,1.32,0,0,0,1.06,1.25l.46.08.64.11.72.13a.61.61,0,0,1,.55.62c0,.08,0,.16,0,.25s0,.29,0,.43q0,4.82.07,9.64v.14s0,.06,0,.08h0l-1.59-.31-2.84-.55c-1.61-.29-3.21-.57-4.81-.84l-.67-.12-3-.5-2.06-.34-.25-.05c-.14,0-.16-.1-.16-.19s0-.31,0-.47l0-9.08v-.11a2.08,2.08,0,0,1,0-.36h0l1.16.08.9.07.63,0h.27l.14-.21a.51.51,0,0,0,.13-.33q0-10.44,0-20.89a1.51,1.51,0,0,0,0-.24s0-.06,0-.1l0-.31-.31-.06a6.62,6.62,0,0,0-1.5,0l-.4,0-.08.42a1.6,1.6,0,0,0-.05.35c0,.31,0,.62,0,.93s0,.42,0,.64c0,.06,0,.13,0,.19h-7c-.06-1.92,0-10.53,0-12.33h23.92C180.2,23.59,183.7,23.64,187.21,23.64Zm-30,16.81h.58a.74.74,0,0,1,.12.57c0,1.24,0,2.49,0,3.73q0,2.62,0,5.24c0,.2,0,.4,0,.62a1,1,0,0,1-.24.06l-2.27-.2-.74,0a2.63,2.63,0,0,0-.06.35c0,.35,0,.71,0,1.06,0,1.43-.06,2.86-.06,4.29,0,2.55,0,5.09,0,7.64,0,.2,0,.4,0,.65a2.62,2.62,0,0,1-.35,0l-2.8-.43-3.91-.54-3.26-.4-2.6-.26a9.65,9.65,0,0,1-1.2-.16.65.65,0,0,1-.06-.18c0-3.29,0-6.57,0-9.94l.58,0h3.07a.86.86,0,0,0,.58-.11c0-.19,0-.41,0-.63q0-5.43,0-10.87a2,2,0,0,1,.05-.68,10.72,10.72,0,0,1,1.72,0c.57,0,1.15,0,1.71,0l.23.29.27,0h8.7Zm-33.35-17.1h25.49s0,.09,0,.14v4q0,3.88,0,7.76c0,.08,0,.17,0,.25H141c0-.3,0-.61,0-.91s0-.46,0-.7,0-.26,0-.39l0-.39-.3-.11a.74.74,0,0,0-.29-.07H134.7a.66.66,0,0,0-.27.06l-.3.1,0,.34a1.57,1.57,0,0,0,0,.23v.15c0,1,0,2,.07,3.06a1,1,0,0,0,.62.86,2.07,2.07,0,0,0,.88.15l3.75,0h.87c0,.06,0,.11,0,.17v.09q0,4.68,0,9.36s0,.1,0,.15,0,.11,0,.16h-5l-1,0-.07.34,0,.1a1.13,1.13,0,0,0-.05.32V49q0,1.62,0,3.24a.69.69,0,0,0,0,.22l.07.22.25.15.29.17.92.51c.12.07.13.12.12.18a3,3,0,0,0,0,.35v8.55c0,.06,0,.12,0,.18l-10.34-.65-.94-.06a2.19,2.19,0,0,1-.32-.07.24.24,0,0,1-.21-.23,3,3,0,0,1,0-.54q0-3.87,0-7.74a4.17,4.17,0,0,1,0-.77,2.85,2.85,0,0,1,.43,0,2.55,2.55,0,0,0,.91-.13l.21-.08.06-.26a1,1,0,0,0,0-.27q0-9.33,0-18.67v-.28l-.26-.11a3.47,3.47,0,0,0-1.13-.22,5.32,5.32,0,0,1-.55-.06s0-.07,0-.1C123.74,29.29,123.78,24.6,123.85,23.36Zm-3.39,29.27h.07a.24.24,0,0,1,.23.24c0,.12,0,.25,0,.37V54q0,3.66,0,7.31s0,.08,0,.12,0,0,0,.06c-.44,0-1.75,0-3.63,0-3.59,0-7.49,0-8.6-.06,0-.05,0-.11,0-.16v-.12q0-4.21,0-8.41c0-.06,0-.12,0-.18s0-.11,0-.16h.22l.86-.1a.67.67,0,0,0,.59-.78l0-.29c0-.33-.08-.67-.14-1a1.44,1.44,0,0,0-1.4-1.32,3.47,3.47,0,0,0-.44,0h-5.35a2.35,2.35,0,0,0-.54.08,1.18,1.18,0,0,0-.92.92c-.1.45-.18.91-.26,1.37l-.09.5h0l0,.17.17.32.16.06a2.06,2.06,0,0,0,.74.11h.47c0,.07,0,.14,0,.21v.09q0,4.29,0,8.59c0,.05,0,.1,0,.15s0,.06,0,.1h-.21l-4,.12-1.19,0-6.29.17h-.16q0-4.53,0-9.05h.25A1.4,1.4,0,0,0,92.24,52a4,4,0,0,0,.32-.88c.18-.78.35-1.57.52-2.35l.09-.42q.47-2.14.94-4.28.62-2.84,1.25-5.67Q96.51,33.19,97.68,28l.86-3.86.17-.76h13.82v.09l0,.13.81,3.65.81,3.64,1.9,8.37L117.17,44q.54,2.36,1.06,4.72l.48,2.13c.06.24.13.52.22.79a1.37,1.37,0,0,0,1.37,1Zm-60-29.2H80.28s.09-.09.14-.16h.14c.14,0,.25,0,.49.27,1.48,1.72,2.63,3,3.72,4.26a2.61,2.61,0,0,1,.67,1.81v1.61c0,2.18,0,4.36,0,6.53a2.37,2.37,0,0,1-.52,1.54c-.61.77-1.25,1.54-1.9,2.32l-.3.36-.31.36a2.8,2.8,0,0,0-.18.24L82,43l.22.25.18.21.19.22,2,2.2.13.15.11.13A2.84,2.84,0,0,1,85.49,48q0,1.87.07,3.73s0,.08,0,.12a1.41,1.41,0,0,0,.12.69l.1.2.21,0a5.2,5.2,0,0,0,.71.06,4.36,4.36,0,0,1,.59,0c0,3.05,0,6.11,0,9.15-.49.06-1,.1-1.48.13l-1,.07-2.72.21-1.07.07c-.56,0-1.14.07-1.71.12l-1.44.11-.8.06,0-.08a1.56,1.56,0,0,0,0-.33V48.29l-.4,0-.24,0a.73.73,0,0,0-.23,0l-2,.11L72,48.48l-.27,0-.34,0a1,1,0,0,0-.93.77,1.91,1.91,0,0,0-.08.51q0,1.69,0,3.4a.72.72,0,0,0,.05.25l.08.29.25.05a3.08,3.08,0,0,0,.65.06h.72s0,0,0,.07,0,.08,0,.12q0,3.43,0,6.85c0,.58,0,1.15,0,1.73v.1c0,.05,0,.11,0,.16,0,.35-.05.39-.4.44l-.91.1-.82.09-3.29.38-1.45.16-3,.34-.88.11-.84.1-.22,0c0-.14,0-.29,0-.44V61.26q0-2.78,0-5.56a3.19,3.19,0,0,1,0-.53c0-.15.09-.27.34-.32h0l.17,0a1.34,1.34,0,0,0,1.1-1.28c0-.06,0-.12,0-.18V53.3L62,34.59c0-.14,0-.27,0-.42v-.53l-.27-.1a3.18,3.18,0,0,0-1.12-.16,4.19,4.19,0,0,1-.48,0c0-.05,0-.11,0-.18s0-.09,0-.14V23.51c0-.08,0-.15,0-.23h0l.09,0C60.32,23.32,60.41,23.42,60.5,23.42ZM31.64,69.34q0-2.23,0-4.46c0-1.14,0-2.29,0-3.44l0-1.69V59.6c0-.49.09-.59.56-.73a1.57,1.57,0,0,0,.72-.39,1.24,1.24,0,0,0,.37-.91c0-.21,0-.43,0-.65v-.34q0-6.43-.09-12.87,0-3.42-.07-6.85c0-.5,0-1-.06-1.52a.67.67,0,0,0-.69-.71H32.3a1.58,1.58,0,0,1-1.46-.6c-.3-.34-.58-.7-.86-1.06l-3.73-4.86-3.66-4.76H51.91a.73.73,0,0,1,.24,0,1,1,0,0,1,.17.21l.16.22,2.08,2.45.48.57,1.2,1.4a2.26,2.26,0,0,1,.54,1.52v2.68c0,2.63,0,5.35.06,8,.07,4.2.07,8.47.07,12.6q0,2.59,0,5.17c0,.23,0,.46,0,.68a2.68,2.68,0,0,1-.61,1.8c-.69.9-1.3,1.69-1.88,2.4l-.94,1.13-.87,1.05A1.85,1.85,0,0,1,51.5,66l-4.05.77-2.29.44L35.82,69l-1.67.32-2.27.43-.11,0-.12,0a1.43,1.43,0,0,1,0-.3Zm143,24.33q-13.42-2.43-26.92-4a124.74,124.74,0,0,1,15.59-2.56c-15.85-3.36-42-5.49-57.45-5.46s-41.59,2.09-57.45,5.46A124.76,124.76,0,0,1,64,89.64q-13.5,1.61-26.92,4l3.16-7.53c1-2.51,2.11-8.42,3.18-10.91q4.38-.68,8.76-1.27c.47-1.66.94-3.21,1.41-4.51,14.45-3.21,38.69-4.26,52.26-4.24h0c13.58,0,37.82,1,52.26,4.24.47,1.29.94,2.85,1.41,4.51q4.38.59,8.76,1.27c1.07,2.49,2.13,8.4,3.19,10.91S173.62,91.17,174.67,93.67Z"/><path class="cls-1" d="M149.67,77.16c-.11-.59-.23-1.19-.34-1.79s-.21-1.16-.32-1.74a.32.32,0,0,0-.09-.16l-1-1-.23-.21a.55.55,0,0,0-.28-.12l-1.88-.24-1.24-.15a.3.3,0,0,0-.21.06l-.23.24c-.2.21-.41.41-.6.63a.29.29,0,0,0-.06.22c.12.78.24,1.57.36,2.35l.28,1.83.06.38c.07.48.14,1,.22,1.45a.5.5,0,0,0,.12.25L145,80l.23.24a1.21,1.21,0,0,0,.83.42c1,.11,2,.27,3,.4a.27.27,0,0,0,.21-.07c.32-.35.64-.71,1-1.07v0a.61.61,0,0,1,0-.12Zm-2.15,1.31-1.12-.15c-.13,0-.18-.08-.21-.21-.13-.79-.26-1.57-.4-2.36-.09-.51-.17-1-.25-1.52,0,0,0-.09.06-.11.44.05.82.09,1.21.15a.23.23,0,0,1,.14.15c.09.42.16.84.23,1.25l.34,1.92c0,.25.09.5.13.75S147.63,78.49,147.53,78.47Z"/><path class="cls-1" d="M68.71,71.33l-2.12.27a.39.39,0,0,0-.24.14L66,72.3l-.85,1.26-.36.53-.08-.14c-.25-.48-.51-1-.75-1.43l-.11-.22c-.12-.24-.24-.35-.54-.3-.66.11-1.32.17-2,.25a.16.16,0,0,0-.16.16l-.06.44c-.06.42-.12.84-.18,1.26s0,.32.27.29h.06a.64.64,0,0,1,0,.12c0,.37-.1.74-.15,1.11l-.36,2.62c0,.24,0,.25-.27.28a.19.19,0,0,0-.2.2c-.09.65-.19,1.31-.28,2,0,.2,0,.22.2.19l2.67-.34c.14,0,.16-.1.17-.21.07-.62.15-1.25.22-1.87,0-.27,0-.27-.24-.25-.09,0-.12,0-.11-.11.09-.72.18-1.43.27-2.15a.5.5,0,0,1,0-.08l.09.17.94,2a.09.09,0,1,0,.17,0l1.22-2,.35-.56.05,0c0,.07,0,.14,0,.22-.07.61-.14,1.22-.2,1.82,0,.23,0,.23-.25.27s-.18,0-.2.15l-.23,2.06c0,.13,0,.15.16.14l1-.13.5-.06,1.19-.15a.19.19,0,0,0,.19-.21c0-.16,0-.32,0-.48l.14-1.51c0-.12,0-.17-.15-.15l-.09,0c-.11,0-.15,0-.13-.12v-.08c0-.18,0-.36.05-.54.09-1,.2-2.06.28-3.1,0-.17.06-.26.24-.25a.16.16,0,0,0,.19-.16c0-.44.08-.88.12-1.32l0-.51C68.89,71.36,68.85,71.31,68.71,71.33Z"/><path class="cls-1" d="M102.23,75.31a.38.38,0,0,1-.37-.16l-1.64-1.75c-.09-.1-.08-.16,0-.25q.75-.83,1.49-1.69a.42.42,0,0,1,.41-.18c.13,0,.18,0,.18-.17q0-.88-.05-1.77c0-.14-.06-.18-.19-.18l-2.81.05c-.14,0-.19,0-.19.19,0,.56,0,1.12,0,1.68,0,.14,0,.27.21.28l-.42.47a.12.12,0,0,1-.11,0l-.44-.47c.21,0,.21-.11.21-.25,0-.56,0-1.13,0-1.69,0-.18,0-.2-.2-.2l-2.81,0c-.14,0-.17.06-.18.18,0,.59,0,1.18,0,1.77,0,.14,0,.18.18.17a.33.33,0,0,1,.32.09l1.6,1.73c.08.09.07.14,0,.23l-1.63,1.82a.36.36,0,0,1-.34.16c-.17,0-.21.06-.21.21,0,.62,0,1.24,0,1.87,0,.22,0,.23.22.22l2.94-.05c.15,0,.2,0,.2-.2,0-.61,0-1.21,0-1.82,0-.24,0-.24-.23-.31l.48-.53a.08.08,0,0,1,.08,0l.5.54c-.16,0-.27,0-.26.19,0,.65,0,1.3,0,1.95,0,.12,0,.17.17.17l3,0c.1,0,.14,0,.14-.15,0-.66,0-1.33-.06-2C102.41,75.34,102.36,75.29,102.23,75.31Z"/><path class="cls-1" d="M84.67,69.88l-5.28.41c-.12,0-.17.05-.17.17,0,.59-.08,1.18-.13,1.77,0,.16,0,.21.19.18s.19,0,.18.18q-.13,1.82-.23,3.65c0,.17-.06.24-.23.23s-.18,0-.19.14q-.06,1-.13,2.05c0,.1,0,.13.14.12l1.13-.1,4.65-.37c.15,0,.2-.07.2-.22,0-.41,0-.83,0-1.24h.07c0-.42,0-.84,0-1.26,0-.14,0-.19-.18-.18l-1.54.13c-.46,0-.41,0-.42.45v0c0,.11,0,.16-.16.17l-1.05.09c-.11,0-.14,0-.14-.13s0-.44,0-.65,0-.15.15-.16l1.08-.08c.11,0,.16-.05.16-.17,0-.63,0-1.26.08-1.9,0-.12,0-.16-.16-.16l-1,.09c-.15,0-.17,0-.16-.16a5.66,5.66,0,0,0,0-.57c0-.11,0-.15.15-.16l.79-.06c.37,0,.38,0,.37.35,0,.16.05.19.2.17l1.62-.13c.25,0,.26,0,.26-.28,0-.7,0-1.39.06-2.09C85,69.84,85.06,69.85,84.67,69.88Z"/><path class="cls-1" d="M132.78,76.22l-1.88-.16c-.13,0-.18,0-.16.15s0,.19,0,.29,0,.16-.13.15l-1.11-.08a.14.14,0,0,1-.15-.15c0-.13,0-.25,0-.38q-.19-1.71-.39-3.42c0-.13,0-.17.15-.16l.78.06c.41,0,.41,0,.46.44a.19.19,0,0,0,.2.19l1.65.13h.21c.1,0,.11,0,.1-.13-.06-.42-.12-.83-.17-1.25a.49.49,0,0,0-.16-.33q-.5-.47-1-1a.62.62,0,0,0-.42-.19l-2.93-.22a.36.36,0,0,0-.23.09c-.19.19-.36.41-.57.58a.71.71,0,0,0-.3.83.16.16,0,0,1,0,0c.09,1,.19,2,.28,3s.16,1.71.25,2.57a.42.42,0,0,0,.1.24c.34.36.69.71,1,1.08a.69.69,0,0,0,.49.23l3.07.25a.28.28,0,0,0,.21-.07c.3-.33.6-.66.89-1a.26.26,0,0,0,.06-.17c-.06-.49-.12-1-.19-1.47C132.94,76.27,132.89,76.23,132.78,76.22Z"/><path class="cls-1" d="M116.44,75.7l-.49,0c-.11,0-.15-.06-.16-.17,0-.62-.07-1.24-.11-1.86h0c0-.62-.07-1.23-.11-1.85,0-.15,0-.19.18-.17a3.72,3.72,0,0,0,.4,0c.17,0,.2,0,.19-.19,0-.59-.08-1.18-.12-1.77,0-.13-.07-.18-.2-.19l-.93,0-2.33-.09c-.09,0-.16,0-.16.12,0,.62,0,1.24.08,1.87a.18.18,0,0,0,.12.12,2.91,2.91,0,0,0,.48,0c.14,0,.18,0,.19.19,0,.79.07,1.57.1,2.36,0,.44,0,.87.06,1.31,0,.21,0,.21-.19.2l-.41,0c-.14,0-.18,0-.18.18,0,.63.06,1.27.08,1.9,0,.22,0,.23.24.24l3.39.15c.14,0,.19,0,.18-.18q-.08-1-.14-2C116.6,75.74,116.55,75.7,116.44,75.7Z"/><path class="cls-1" d="M84.9,67.73,82.19,69.3l-.11.08,0,0h.14l1-.1,1.68-.17c.12,0,.16-.06.16-.19,0-.37,0-.75,0-1.13a.75.75,0,0,0,0-.14A.57.57,0,0,0,84.9,67.73Z"/></svg>