<svg xmlns="http://www.w3.org/2000/svg" xmlns:xlink="http://www.w3.org/1999/xlink" width="179" height="79" viewBox="0 0 179 79">
  <defs>
    <clipPath id="clip-path">
      <rect id="Rectángulo_59" data-name="Rectángulo 59" width="156.312" height="26.978" transform="translate(0 0)" fill="#b3b3b3"/>
    </clipPath>
    <clipPath id="clip-Mesa_de_trabajo_12">
      <rect width="179" height="79"/>
    </clipPath>
  </defs>
  <g id="Mesa_de_trabajo_12" data-name="Mesa de trabajo – 12" clip-path="url(#clip-Mesa_de_trabajo_12)">
    <rect width="179" height="79" fill="#fff"/>
    <g id="Grupo_202" data-name="Grupo 202" transform="translate(-33.624 -36.761)">
      <g id="Grupo_201" data-name="Grupo 201" transform="translate(44.624 62.761)" clip-path="url(#clip-path)">
        <path id="Trazado_2589" data-name="Trazado 2589" d="M381.777,77.363q0,1.854,0,3.708c0,1.264.022,2.528-.008,3.791-.015.639.18.9.868.883,1.63-.045,3.263.009,4.894-.023a5.269,5.269,0,0,0,5.426-5.2c.042-2.077.111-4.163-.02-6.233-.154-2.442-1.326-4.579-4.137-5.008-1.984-.3-4.031-.173-6.048-.286-.812-.046-1,.3-.988,1.034.033,2.443.013,4.887.012,7.331m-5.178-.027c0-3.118-.007-6.236.007-9.353a8.752,8.752,0,0,1,.149-1.672,1.964,1.964,0,0,1,1.783-1.78,81.121,81.121,0,0,1,11.6.3c4.531.643,7.114,3.782,8.009,8.234a18.4,18.4,0,0,1-.669,10.508c-1.726,4.433-5.172,6.509-9.763,6.758-2.833.153-5.68.044-8.521.029a2.311,2.311,0,0,1-2.459-2.161c-.121-1.874-.114-3.756-.135-5.635-.02-1.741,0-3.483,0-5.224" transform="translate(-303.584 -64.094)" fill="#b3b3b3"/>
        <path id="Trazado_2590" data-name="Trazado 2590" d="M547.667,76.994c0-3.288.022-6.576-.011-9.864-.013-1.241.2-2.315,1.48-2.834a3.155,3.155,0,0,1,3.571,1.042c1.17,1.509,2.245,3.092,3.352,4.649q3.764,5.289,7.521,10.583c.585.821,1.066,1,1.566.586a.929.929,0,0,0,.3-1.267,13.34,13.34,0,0,1-1.34-6.525c-.049-2.163-.02-4.327-.012-6.491a2.47,2.47,0,0,1,2.629-2.726,2.442,2.442,0,0,1,2.489,2.759c0,6.744-.012,13.489.013,20.233,0,1.19-.239,2.214-1.408,2.716a3.085,3.085,0,0,1-3.359-.683,4.793,4.793,0,0,1-.762-.9q-5.14-7.155-10.27-14.318c-.1-.137-.2-.274-.3-.4-.352-.429-.794-.7-1.317-.379a.942.942,0,0,0-.3,1.4,12.8,12.8,0,0,1,1.288,6.114c.055,2.247.026,4.5.014,6.744a2.5,2.5,0,0,1-2.559,2.643,2.465,2.465,0,0,1-2.556-2.623q-.01-5.227,0-10.454Z" transform="translate(-437.026 -63.804)" fill="#b3b3b3"/>
        <path id="Trazado_2591" data-name="Trazado 2591" d="M269.846,76.524c.2-3.891-.491-8.21-4.417-9.074a10.975,10.975,0,0,0-2.744-.165,4.862,4.862,0,0,0-4.918,4.14,27.085,27.085,0,0,0,.053,9.551,4.5,4.5,0,0,0,2.571,3.26,7.362,7.362,0,0,0,4.779.514,4.833,4.833,0,0,0,4.165-4.081,32.472,32.472,0,0,0,.511-4.144m5.381-.093a13.62,13.62,0,0,1-4.919,10.461,10.674,10.674,0,0,1-15.3-1.7,15.1,15.1,0,0,1,.1-18.413,10.882,10.882,0,0,1,16.855-.045,14.372,14.372,0,0,1,3.27,9.7" transform="translate(-206.332 -62.76)" fill="#b3b3b3"/>
        <path id="Trazado_2592" data-name="Trazado 2592" d="M152.472,76.683c-.084-1.747-.107-3.04-.218-4.325a5.039,5.039,0,0,0-4.079-4.742,10.973,10.973,0,0,0-2.744-.165,4.862,4.862,0,0,0-4.918,4.14,27.079,27.079,0,0,0,.053,9.551,4.5,4.5,0,0,0,2.571,3.26,7.361,7.361,0,0,0,4.779.513,4.832,4.832,0,0,0,4.164-4.08,40.14,40.14,0,0,0,.39-4.15m5.5-.086a13.618,13.618,0,0,1-4.919,10.461,10.673,10.673,0,0,1-15.3-1.7,15.1,15.1,0,0,1,.1-18.413A10.882,10.882,0,0,1,154.7,66.9a14.37,14.37,0,0,1,3.27,9.7" transform="translate(-114.865 -62.889)" fill="#b3b3b3"/>
        <path id="Trazado_2593" data-name="Trazado 2593" d="M44.627,77.193c0-3.317-.009-6.634,0-9.95.007-2.145.875-3,3.034-3,3.716-.006,7.431-.013,11.147.006a2.286,2.286,0,0,1,2.532,2.41,2.19,2.19,0,0,1-2.263,2.309c-1.576.031-3.153-.007-4.729.02-1.481.025-2.961.1-4.442.148q-.06,2.22-.119,4.441c0,.056,0,.112,0,.169,0,1.2,0,1.2,1.162,1.2,2.168,0,4.335-.013,6.5.005a2.417,2.417,0,0,1,2.7,2.382A2.228,2.228,0,0,1,57.9,79.739c-2.335.047-4.672.024-7.008.032-1.1,0-1.1,0-1.1,1.126,0,2.221,0,4.441,0,6.662-.005,1.689-.835,2.587-2.4,2.616a2.511,2.511,0,0,1-2.757-2.61c0-.084-.007-.169-.007-.253q0-5.059,0-10.119" transform="translate(-44.624 -63.909)" fill="#b3b3b3"/>
        <path id="Trazado_2594" data-name="Trazado 2594" d="M503.017,77.254c0,3.485.018,6.97-.009,10.455a2.519,2.519,0,0,1-3.627,2.3,2.26,2.26,0,0,1-1.416-1.764,10.193,10.193,0,0,1-.111-1.509q-.011-9.485,0-18.97a9.052,9.052,0,0,1,.056-1.177,2.421,2.421,0,0,1,2.787-2.286,2.372,2.372,0,0,1,2.318,2.577c.015,3.457,0,6.913,0,10.37" transform="translate(-398.174 -63.962)" fill="#b3b3b3"/>
        <path id="Trazado_2595" data-name="Trazado 2595" d="M675.4,68.95c0,.889.044,1.78-.011,2.666-.07,1.106-.768,1.679-1.965,1.717-1.345.042-2.2-.475-2.253-1.588-.087-1.887-.08-3.783,0-5.671.044-1.066.9-1.613,2.167-1.6,1.215.016,1.967.572,2.043,1.636.067.941.014,1.891.014,2.837h.008" transform="translate(-533.331 -64.099)" fill="#b3b3b3"/>
        <path id="Trazado_2596" data-name="Trazado 2596" d="M686.513,146.163a17.089,17.089,0,0,1-15.2-8.443,1.8,1.8,0,0,1,3.2-1.655c.166.315,3.867,7.066,13.213,6.455a1.8,1.8,0,1,1,.235,3.6c-.494.032-.977.048-1.446.048" transform="translate(-533.331 -119.186)" fill="#b3b3b3"/>
      </g>
    </g>
  </g>
</svg>
