<svg xmlns="http://www.w3.org/2000/svg" viewBox="0 0 59.09 25.25"><defs><style>.cls-1{fill:#b3b3b3;}</style></defs><title>fox</title><g id="Layer_2" data-name="Layer 2"><g id="Capa_1" data-name="Capa 1"><path class="cls-1" d="M51.64,12.43c-.07-.15-.21-.31-.09-.47.36-.68.78-1.33,1.14-2h0L58.4,0c-1,0-2,0-3,0-1.55,0-3.11,0-4.66,0-1,1.83-2.11,3.62-3.16,5.44-.13-.2-.25-.4-.37-.61C46.87,4.23,46.5,3.6,46.13,3L45.07,1.11c-.2-.36-.41-.71-.6-1.07C43.31,0,42.15,0,41,0,39.51,0,38,0,36.56,0c.5.83,1,1.68,1.46,2.51l1.54,2.65c.32.55.65,1.1,1,1.66h0c.39.68.79,1.36,1.18,2,.58,1,1.15,2,1.74,3a1.15,1.15,0,0,1,.15.44A11.34,11.34,0,0,0,43,13.39c-.66,1.17-1.36,2.33-2,3.51h0c-1.59,2.78-3.19,5.55-4.78,8.32h7.67C45,23.09,46.26,21,47.5,18.83,48.73,21,50,23.09,51.21,25.2c2.63,0,5.26,0,7.89,0-2.5-4.25-5-8.52-7.46-12.78"/><path class="cls-1" d="M15.5,3.63c0-1.21-.14-2.42-.23-3.62H6.93C6,0,5.08,0,4.15,0s-2,0-3,0H0C0,2,0,4,0,5.95q0,9.65,0,19.3H7.15q0-4.07,0-8.15h6.44c.22,0,.43,0,.65,0l-.09,0a18.69,18.69,0,0,0,0-2.14c.06-1.56,0-3.12,0-4.67-2.33,0-4.65,0-7,0,0-1.11,0-2.21,0-3.32,1.11-.06,2.23,0,3.34,0,1.29,0,2.59,0,3.89,0a11.78,11.78,0,0,0,1.32,0c-.06-1.09-.11-2.18-.23-3.26"/><path class="cls-1" d="M25.62,12.81h0c0-.17,0-.34,0-.5,0,.17,0,.34,0,.5"/><path class="cls-1" d="M39.67,11.16a13.63,13.63,0,0,0-.5-2.29,12.74,12.74,0,0,0-1.42-3,14,14,0,0,0-1.38-1.75A11.92,11.92,0,0,0,33.6,2l-.07,0,.06,0a11.9,11.9,0,0,0-11.2-.31l0,0a13.17,13.17,0,0,0-2.79,1.95,13.32,13.32,0,0,0-1.49,1.65,13.32,13.32,0,0,0-1.5,2.59,13.8,13.8,0,0,0-.85,3,14,14,0,0,0,0,3.93l0,0a11.94,11.94,0,0,0,1.35,3.91h0a12,12,0,0,0,20.69.64h0a12.05,12.05,0,0,0,1.27-2.7h0a13.25,13.25,0,0,0,.54-5.44m-9.89,7.05a2.21,2.21,0,0,1-1.51,1.47,2.13,2.13,0,0,1-1.73-.28,2.26,2.26,0,0,1-.92-1.48q0-.64,0-1.28c0-1.28,0-2.56,0-3.85,0-.17,0-.34,0-.5s0-.11,0-.17c0-1.11,0-2.23,0-3.34a12.49,12.49,0,0,1,0-1.45,2.34,2.34,0,0,1,1.05-1.66,2.06,2.06,0,0,1,2.17.11,2.5,2.5,0,0,1,.94,1.46c0,1.7,0,3.41,0,5.11,0,2,0,3.9,0,5.85"/><path class="cls-1" d="M25.62,12.81c0,1.28,0,2.56,0,3.85,0-1.28,0-2.57,0-3.85"/></g></g></svg>