<svg xmlns="http://www.w3.org/2000/svg" xmlns:xlink="http://www.w3.org/1999/xlink" width="179" height="79" viewBox="0 0 179 79">
  <defs>
    <clipPath id="clip-Mesa_de_trabajo_4">
      <rect width="179" height="79"/>
    </clipPath>
  </defs>
  <g id="Mesa_de_trabajo_4" data-name="Mesa de trabajo – 4" clip-path="url(#clip-Mesa_de_trabajo_4)">
    <rect width="179" height="79" fill="#fff"/>
    <g id="Grupo_195" data-name="Grupo 195" transform="translate(-1429.02 -284.852)">
      <path id="Trazado_2536" data-name="Trazado 2536" d="M49.813,111.313H36.419v-19.1H27.744v19.1H14.02v-49.3H27.744V80.406h8.674V62.015H49.813Zm61.431.22a25.2,25.2,0,0,0,24.923-25.308A24.991,24.991,0,0,0,88.627,75.41c0-6.094-6.094-13.395-13.176-13.395H52.558v49.3h21.3c8.673,0,14.767-7.411,14.767-13.889C90.547,101.431,97.355,111.533,111.244,111.533ZM72.157,91.495c1.976,0,3.568,1.921,3.568,4.118,0,2.306-1.593,4.227-3.568,4.227H65.35V91.495Zm0-18.5c1.976,0,3.568,1.921,3.568,4.118s-1.593,4.118-3.568,4.118H65.35V72.995Zm9,13.23c1.592-.109,4.173-1.921,5.16-3.019a20.217,20.217,0,0,0,0,6.808C85.222,88.421,82.752,86.5,81.16,86.225Zm17.566,0A12.517,12.517,0,1,1,111.243,98.8,12.512,12.512,0,0,1,98.726,86.225Zm12.518,9.882a9.854,9.854,0,0,0,0-19.709,9.854,9.854,0,1,0,0,19.709Zm19.151-33.432a3.11,3.11,0,1,1,3.12,3.206,3.1,3.1,0,0,1-3.12-3.206Zm3.12,3.84a3.832,3.832,0,1,0-3.894-3.84A3.823,3.823,0,0,0,133.515,66.515Zm-.814-3.538h.771l1.166,1.916h.751l-1.257-1.946a1.15,1.15,0,0,0,1.146-1.218c0-.865-.518-1.256-1.564-1.256h-1.681v4.42h.667V62.978Zm0-.567V61.046h.912c.468,0,.965.1.965.646,0,.68-.508.718-1.075.718Z" transform="translate(1443 239)" fill="#b3b3b3" fill-rule="evenodd"/>
    </g>
  </g>
</svg>
