<svg xmlns="http://www.w3.org/2000/svg" xmlns:xlink="http://www.w3.org/1999/xlink" width="179" height="79" viewBox="0 0 179 79">
  <defs>
    <clipPath id="clip-Mesa_de_trabajo_6">
      <rect width="179" height="79"/>
    </clipPath>
  </defs>
  <g id="Mesa_de_trabajo_6" data-name="Mesa de trabajo – 6" clip-path="url(#clip-Mesa_de_trabajo_6)">
    <rect width="179" height="79" fill="#fff"/>
    <g id="Grupo_95" data-name="Grupo 95" transform="translate(7 14)">
      <g id="Grupo_92" data-name="Grupo 92" transform="translate(0 0)">
        <path id="Trazado_361" data-name="Trazado 361" d="M317.24,473.746a35.44,35.44,0,0,0-9.608-.237c-2.443.184-6.68,2.146-5.9,1.193a66.766,66.766,0,0,0,4.768-6.2,51.716,51.716,0,0,0,3.646-8.171,18.515,18.515,0,0,1,4.268-6.717c2.29-2.055,8.91-1.752,8.91-1.752l3.043-7.1c-8.706-.654-13.723,3.818-15.272,6.023a13.267,13.267,0,0,0-1.612,3.7c-.473,1.371-2.381,6.264-4.051,10.735a22.307,22.307,0,0,1-6.562,8.83,13.873,13.873,0,0,1-3.224,1.967l1.975,5.365c5.722-4.467,11.148-5.781,14.128-5.9a29.911,29.911,0,0,1,9.545.595,69.931,69.931,0,0,1,6.62,2.323c.359.183.536-.069.422-.225-1.793-1.787-8.17-3.852-11.094-4.429" transform="translate(-295.644 -431.27)" fill="#b3b3b3"/>
        <path id="Trazado_362" data-name="Trazado 362" d="M470.624,590.795a9.748,9.748,0,0,1-2.8,2.326c-1.34.6-1.762-.065-1.529-.889.674-1.58,2.881-3.852,2.172-3.614a30.854,30.854,0,0,1-3.137.587,6.513,6.513,0,0,1,.6-2c-3.235-.248-6.77,3.724-7.311,4.284s-2.183,2.077-3.673,2.039c-1.344-.032-1.332-1.08-1.234-2.213.422-1.337,2.321-2.966,2.522-3.244s-1.293-.9-2.057-1.259a6.728,6.728,0,0,1-2.778,2.631c-.678.252-.311-.223-.232-1.188s.291-.934.153-1.291a6.948,6.948,0,0,0-2.474.14,2.744,2.744,0,0,1-1.766,1.927c-.9.668-.891.128-.8-.625.079-.67.24-.719-.008-.859-1.32-.782-2.27-.709-2.314-.41a7.35,7.35,0,0,1-2.747,2.686,5.552,5.552,0,0,1-2.668.65c-1.009-.016-1.013-.137-1.092-.487a2.37,2.37,0,0,0-.472-1.409c-.319-.433-.386-.555-.694-.666a19.375,19.375,0,0,0-1.746.95c-.433.283-.244.575-.019.953a1.817,1.817,0,0,1,.019,1.848,2.529,2.529,0,0,1-1.959,1.521c-.9.033-1.158-1.182-.643-2.39a5.5,5.5,0,0,1,2.826-2.681c1.119-.349,1.474-1.409.284-1.245a7.368,7.368,0,0,0-3.688,1.649,4.056,4.056,0,0,0-1.8,3.9c.28,2.52,2.574,3.287,4.583,1.92,2.234-2.01,1.395-3.013,2.223-3.234,2.333,1.454,4.619.045,5.478-.31s.835-.039.43.775-2.821,2.869-2.581,2.9a21.848,21.848,0,0,0,2.778.439,23.319,23.319,0,0,0,3.4-4.089,2,2,0,0,1,1.825-.757c.965.367-1.888,3.474-2.365,4.28a23.864,23.864,0,0,0,3.3.351c.544-.341.753-1.882,1.258-2.693.476-.871,1.462-1.961,1.383-.4-.2,2.088.414,4.039,3.685,3.4,1.682-.328,2.932-1.689,3.152-1.362.891,1.963,2.542,1.464,3.393,1.253,1.021-.262,1.478-1.141,2.254-1.085.028.6.316,1.655,2,1.288s3.157-1.507,4.918-3.381c.773-.866.312-1.261-.063-.918m-5.565-.985a9.733,9.733,0,0,1-1.1,2.256c-.571.705-1.2,1.817-2.613,1.387-.867-.434-.209-1.778.914-2.865.674-.922,3.066-1.366,2.8-.779" transform="translate(-412.992 -555.838)" fill="#b3b3b3"/>
        <path id="Trazado_363" data-name="Trazado 363" d="M786.339,476a35.228,35.228,0,0,0-9.6-.237c-2.443.179-6.676,2.147-5.907,1.2a69.888,69.888,0,0,0,4.776-6.205,53.29,53.29,0,0,0,3.637-8.175,18.512,18.512,0,0,1,4.268-6.717c2.289-2.048,8.909-1.748,8.909-1.748l3.046-7.1c-8.711-.658-13.716,3.813-15.273,6.02a12.864,12.864,0,0,0-1.6,3.7c-.485,1.374-2.388,6.265-4.055,10.741a22.281,22.281,0,0,1-6.57,8.828,13.927,13.927,0,0,1-3.22,1.971l1.97,5.367c5.731-4.477,11.157-5.789,14.137-5.907a30.133,30.133,0,0,1,9.549.6,69.542,69.542,0,0,1,6.614,2.324c.357.174.536-.074.418-.226-1.789-1.783-8.163-3.854-11.092-4.429" transform="translate(-706.807 -433.247)" fill="#b3b3b3"/>
        <path id="Trazado_364" data-name="Trazado 364" d="M941.778,532.953c-.378.3-1.911,2.861-4.051,3.425-.8.236-1.753.339-1.468-.765.557-1.2,2.307-3.2,2.272-4.035a16.141,16.141,0,0,1-3.307.859,6.247,6.247,0,0,1,1.017-2.42c-1.292-.579-4.524,1.476-6.571,3.566a13.314,13.314,0,0,1-3.013,1.9s-1.624.991-2.68.6c-1.04-.39.995-3.266,1.565-4.528.587-1.267,4.828-8.242,5.774-9.657-.365.055-2.515-.12-2.743.132s-3.723,6.548-4.126,7.362a9.7,9.7,0,0,1-1.068,1.827,2.69,2.69,0,0,0-3.2-1.317c-1.363.223-3.728,2.727-4.249,3.393a18.427,18.427,0,0,1-2.648,2.071s-1.824,1.011-2.39.84,1.16-2.368,1.642-3.068,1.135-1.854,0-2.664c-.581-.416-2.965.575-3.533,1.245s-1.945.845-1.992.654.528-.9.465-1.137a8.688,8.688,0,0,0-2.215-1.168,25.957,25.957,0,0,1-3.46,4.029,6.505,6.505,0,0,1-4.041,2.226c-2.447.44-1.726-1.273-1.549-1.6s2.687-3.373,2.483-3.478-1.782-1.153-2.1-1.4a13.385,13.385,0,0,1-7.957,7.947c-.39.218-.094.528.591.236,1.833-.327,3.7-1.915,3.72-1.6a2.214,2.214,0,0,0,1.675,1.931c1.545.043,5.907-1.365,7.537-3.417.472-.215,1.4-1.456.871-.037a11.6,11.6,0,0,1-2.329,3.16l3.224.02c.307-.134,1.753-2.832,2.577-3.785a3.125,3.125,0,0,1,2.971-1.222c1.045.225-.689,1.464-1.3,2.771-.625,1.3-.4,2.367,1.332,2.286,1.757-.084,4.936-2.71,4.717-2.183a2.184,2.184,0,0,0,1.627,1.913c1.809.351,3.173-.036,5.139-1.208-.154.487.114,1.131.968,1.453,2.7.283,4.995-1.682,5.968-2.1a1.682,1.682,0,0,0,1.377,2.274,6.91,6.91,0,0,0,4.557-1.212c.359,1.456,1.805,1.328,3.139,1.023,2.867-1.271,5.01-4.644,5.01-4.644s.529-.7-.224-.5m-19.569.672a4.574,4.574,0,0,1-2.047,2.128c-.989.587-1.882.694-2.447.12-.8-.814,1.683-3.606,3.149-4.152.725-.273,2.617-.124,1.345,1.9m12.743.571a4.184,4.184,0,0,1-1.931,2.01c-.995.567-1.637.731-2.207.166-.806-.814,1.533-3.058,3-3.606.727-.274,2.13-.469,1.141,1.431" transform="translate(-815.236 -498.931)" fill="#b3b3b3"/>
        <path id="Trazado_365" data-name="Trazado 365" d="M967.519,551.87c-1.379,2.473.516,3.226,2.047,2.051,1-.741,1.355-2.077.79-2.546-1.2-1.417-2.7-.018-2.837.494" transform="translate(-884.121 -524.234)" fill="#b3b3b3"/>
        <path id="Trazado_366" data-name="Trazado 366" d="M1095.9,672.622h1.039V677.9h-.528v-4.764h-.824Z" transform="translate(-996.794 -631.046)" fill="#b3b3b3"/>
        <path id="Trazado_367" data-name="Trazado 367" d="M1140.519,677.051l-.437-.28,1.435-2.161a1.749,1.749,0,0,1-.544.091,1.4,1.4,0,0,1-1.062-.451,1.54,1.54,0,0,1-.444-1.117,1.59,1.59,0,0,1,.217-.822,1.5,1.5,0,0,1,.6-.583,1.625,1.625,0,0,1,.836-.225,1.562,1.562,0,0,1,.808.219,1.506,1.506,0,0,1,.581.589,1.627,1.627,0,0,1,.213.814,2.022,2.022,0,0,1-.134.682,4.331,4.331,0,0,1-.465.859Zm.572-2.81a1.111,1.111,0,0,0,0-2.223,1.111,1.111,0,0,0,0,2.223" transform="translate(-1035.251 -630.064)" fill="#b3b3b3"/>
        <path id="Trazado_368" data-name="Trazado 368" d="M1188.442,673.291h-.508a1.8,1.8,0,0,1,.522-1.284,1.682,1.682,0,0,1,1.235-.5,1.577,1.577,0,0,1,1.183.475,1.547,1.547,0,0,1,.449,1.108,1.749,1.749,0,0,1-.212.843,6.353,6.353,0,0,1-.836,1.065l-1.312,1.412h2.432v.512h-3.583l2.014-2.177a6.347,6.347,0,0,0,.8-.978,1.3,1.3,0,0,0,.183-.67,1.008,1.008,0,0,0-.331-.765,1.114,1.114,0,0,0-.806-.321,1.144,1.144,0,0,0-.845.334,1.45,1.45,0,0,0-.382.95" transform="translate(-1077.624 -630.064)" fill="#b3b3b3"/>
        <path id="Trazado_369" data-name="Trazado 369" d="M1239.923,671.5h.108v3.689h.64v.5h-.64v1.226h-.524v-1.226h-2.527Zm-.416,3.689v-2.217l-1.565,2.217Z" transform="translate(-1120.721 -630.064)" fill="#b3b3b3"/>
        <g id="Grupo_91" data-name="Grupo 91" transform="translate(93.239 0)">
          <path id="Trazado_370" data-name="Trazado 370" d="M1081.171,344.366l.095-.6s1.281.126,1.765.166a2.44,2.44,0,0,1-.1-.893s.532-.262.845-.1-.683-.329-.523-.814.791.027.791.027a2.527,2.527,0,0,1-.187-1.486c-.2-.351,1.4-.313,1.363-.656s-1.442-.088-2.4-.794c-1.433-1.269-3.137-1.125-3.064-.828s.348,0,.211.708-.363.717-.979-.2a11.477,11.477,0,0,0-4.085-.662c-1.4.012-7.315,1.8-7.315,1.8a16.954,16.954,0,0,1-8.3.049,16.582,16.582,0,0,1-7.226-3.161c-.441-.4-1.273-1.44-1.478-.654-.087.9,4.189,4.483,8.189,5.986a24.217,24.217,0,0,0,7.89,1.7c2.131.209,6.975-1.249,8.156-.583.5.339-.6.144-1.135.406s.031.719-.077.96a2,2,0,0,1-1.49.6c-.342.306-1,1.07-1.308,1.348a2.383,2.383,0,0,1,1.7-.587c.721-.15.885-.634,1.411-1.015s1.382-.3,1.734-.554c-.611-.152-.748-.5-.93-.5s2.278-.571,2.414-.219-1.342,1.129-1.877,1.452-1.592,1.025-1.943,1.218c-1.972.738-2.719,1.548-2.711,1.785s.5.335.748.447c.389.581,1.249.9,1.7,1.543a3.238,3.238,0,0,0,3.829.258c.822-.633,1.348-1.015,1.9-.918s.142.532-.029.78a4.04,4.04,0,0,1-.574.741c-.176.124,1.4,0,.733.146s-.97,1.414-1.258,1.726,1.393-1.431,1.393-1.431-.376,1.092.211.767c.453-.8.861-.455.861-.455s-.256-.824-.313-1c.078.217.87-.879.969-1.358-.358-1.3-1.012-1.035-1.012-1.035a2.075,2.075,0,0,1-1.6.9c-.41.254-1.561,1.62-3.332,1.336-1.015.4-2.818-2.093-3.62-2.416-.276-.706,1.786-.674,1.786-.674l3.024-.246s-1.732.668-1,.7a6.248,6.248,0,0,0,2.215-.572c1.078-.342,1.236.546,1.236.546s-1.814,1.509-.8,1.021a6.122,6.122,0,0,0,1.939-1.426s.587-.383.694-.747-1.206.11-1.91-.7a6.96,6.96,0,0,0-5.346,1,3.159,3.159,0,0,1-.906.156s4.019-2.378,5.269-2.911a3.946,3.946,0,0,1,2.924.416s.166-.426-.2-.528S1081.171,344.366,1081.171,344.366Zm-6.668-3.933c-.82-.011-2.12.5-2.059.715.081.294,2.114-.731,1.323.077-.956.974-4.7,1.362-6.881,1.681a20.524,20.524,0,0,1-11.338-2.706c-2.09-1.031-4.821-3.29-4.526-3.8a16.642,16.642,0,0,0,7.531,3.94,17.914,17.914,0,0,0,10.5-.248c1.216-.276,3.167-1.06,4.534-.938s2.605.308,2.577.757S1075.322,340.443,1074.5,340.433Zm5.013,1.4c-.212.37-.114.5.17.757s.483.65.077.711-.372-.207-.628.164-.386.463-.851.347-.867-.14-.879-.365,1.505.073,1.714-.343-.2-.349-.256-.66.343-.418.41-.958-.35-.837-.146-1.295.536-.247.666-.386c.154-.166.323.165.339.433s.6.244.288.39-.779-.144-.812.126.422.3.44.654S1079.728,341.469,1079.515,341.834Z" transform="translate(-1050.591 -335.987)" fill="#b3b3b3"/>
          <path id="Trazado_371" data-name="Trazado 371" d="M1213.812,422.681c.01,0,.018-.016.025-.023C1213.755,422.723,1213.734,422.747,1213.812,422.681Z" transform="translate(-1193.611 -411.954)" fill="#b3b3b3"/>
          <path id="Trazado_372" data-name="Trazado 372" d="M1186.81,440.02c.392-.333,1.053-.9,1.272-1.086.248-.217-.739-.193-1.043.134s-.327.865-1.056.763-.272.012-.579.2S1186.414,440.35,1186.81,440.02Z" transform="translate(-1168.712 -426.096)" fill="#b3b3b3"/>
          <path id="Trazado_373" data-name="Trazado 373" d="M1186.4,440.092a4.033,4.033,0,0,0-1.543,1.143,2.146,2.146,0,0,1-.6.7c-.353.281-.9.215-1.164.406s-.619.386.106.354,1.086-.134,1.218-.276-.15-.263.339-.5,1.033-.358,1.234-.95.934-.444,1.257-.324S1186.813,440.077,1186.4,440.092Z" transform="translate(-1166.445 -427.234)" fill="#b3b3b3"/>
          <path id="Trazado_374" data-name="Trazado 374" d="M1184.687,461.45c-.031.359-.107-.311-.67.3s-1.157.544-.79.574a4.564,4.564,0,0,0,1.125-.228C1184.935,461.978,1184.706,461.18,1184.687,461.45Z" transform="translate(-1166.746 -445.906)" fill="#b3b3b3"/>
          <path id="Trazado_375" data-name="Trazado 375" d="M1160.874,466.951c-.54.109-.923.753-.694.7.28-.067.61-.43,1.028-.4S1161.413,466.835,1160.874,466.951Z" transform="translate(-1146.586 -450.759)" fill="#b3b3b3"/>
          <path id="Trazado_376" data-name="Trazado 376" d="M1167.1,470.746a1.317,1.317,0,0,0-1.092,0c-.266.193-.626.161-.853.262s-.983.4-1.022.581c-.079.4.719-.211,1.082-.227s.794-.571,1.125-.315.927.453,1.143.219S1167.283,470.874,1167.1,470.746Z" transform="translate(-1150.103 -453.998)" fill="#b3b3b3"/>
          <path id="Trazado_377" data-name="Trazado 377" d="M1280.207,465.977c-.481.376-1.159.451-.9,1.291s-.14-1.068.648-.745-.063.678-.321.954a1.612,1.612,0,0,0-.4,1.228c.063.445-.161.5-.151.725s.518.424.5,1.009.079.8.2.489a1.631,1.631,0,0,0-.055-1.3,1.2,1.2,0,0,1-.154-1.383,4.263,4.263,0,0,1,1.092-1.078c.136,0,.071-.451-.114-.575s-.276-.079-.15-.264c.254-.365.248-.6.509-.827S1280.692,465.6,1280.207,465.977Z" transform="translate(-1250.866 -449.434)" fill="#b3b3b3"/>
          <path id="Trazado_378" data-name="Trazado 378" d="M1246.152,482.784c-.37.266.079.761.252.529S1246.281,482.689,1246.152,482.784Z" transform="translate(-1221.874 -464.641)" fill="#b3b3b3"/>
          <path id="Trazado_379" data-name="Trazado 379" d="M1245.182,495.4c-.14.229.061.487.192.3S1245.267,495.26,1245.182,495.4Z" transform="translate(-1221.108 -475.677)" fill="#b3b3b3"/>
          <path id="Trazado_380" data-name="Trazado 380" d="M1274.98,476.819c-.221.144.194.306.272.079a1.658,1.658,0,0,0-.027-.67C1275.216,476,1275.2,476.675,1274.98,476.819Z" transform="translate(-1247.211 -458.868)" fill="#b3b3b3"/>
          <path id="Trazado_381" data-name="Trazado 381" d="M1274.206,488.963s-.12.362-.2.589.144.174.268-.1S1274.434,488.951,1274.206,488.963Z" transform="translate(-1246.397 -470.069)" fill="#b3b3b3"/>
          <path id="Trazado_382" data-name="Trazado 382" d="M1286.9,491.893c-.225.008-.588.024-.715.253-.11.2.553.2.729.015S1287.127,491.882,1286.9,491.893Z" transform="translate(-1257.076 -472.638)" fill="#b3b3b3"/>
          <path id="Trazado_383" data-name="Trazado 383" d="M1315.65,475.164c.086-.183-.69-.15-1.139-.089s-.686-.059-.808.3a1.266,1.266,0,0,0-.045.989c.152.351.544,1.007.467,1.368s.2.217.2-.682-.973-.54-.5-1.1a5.042,5.042,0,0,0,.477-.556C1314.443,475.164,1315.567,475.345,1315.65,475.164Z" transform="translate(-1281.094 -457.855)" fill="#b3b3b3"/>
          <path id="Trazado_384" data-name="Trazado 384" d="M1268.937,515.942l-.225.055c-.221.233-.114.542.061.4S1269.165,515.891,1268.937,515.942Z" transform="translate(-1241.664 -493.713)" fill="#b3b3b3"/>
          <path id="Trazado_385" data-name="Trazado 385" d="M1305.5,478.965c-.084.138-.221.14-.258.325s.248.481.345.613.179-.055.161-.457S1305.67,478.693,1305.5,478.965Z" transform="translate(-1273.79 -461.222)" fill="#b3b3b3"/>
          <path id="Trazado_386" data-name="Trazado 386" d="M1307.461,473.111c.312-.152.215-.234.032-.317s-.311.146-.613.475l.227.124S1307.15,473.257,1307.461,473.111Z" transform="translate(-1275.227 -455.882)" fill="#b3b3b3"/>
          <path id="Trazado_387" data-name="Trazado 387" d="M1309.739,459.539a.446.446,0,0,0,.122-.107C1309.688,459.525,1309.612,459.588,1309.739,459.539Z" transform="translate(-1277.678 -444.186)" fill="#b3b3b3"/>
          <path id="Trazado_388" data-name="Trazado 388" d="M1314.174,447.792c.1.264.138.039.492-.2s.579-.2.639.063.224-.012.4-.151a.255.255,0,0,1,.414.161c.055.177.059-.808.469-.782s.465.2.594.065-.254-.571-.8-.5-.71.347-1.3.321a6.014,6.014,0,0,0-1.994.13,4.475,4.475,0,0,1-1.072.358c-.256.048-.634.562-.843.788a3.218,3.218,0,0,1,.95-.343c.542-.067.623-.294.772-.031s.15.307.5.023S1314.073,447.526,1314.174,447.792Z" transform="translate(-1278.992 -432.797)" fill="#b3b3b3"/>
          <path id="Trazado_389" data-name="Trazado 389" d="M1338.825,468.612c.3-.193.38-.376.167-.305s-.26.219-.5.41-.309.579-.126.574c.214-.01,0,0,.265-.223S1338.535,468.8,1338.825,468.612Z" transform="translate(-1302.739 -451.951)" fill="#b3b3b3"/>
          <path id="Trazado_390" data-name="Trazado 390" d="M1344.818,475.245c-.514.051-.431.526-.648.445s.071-.483-.077-.384-.463.437-.439.286a.767.767,0,0,0-.184-.65c-.187-.14-.05.184-.321.224s-.225-.321-.436-.28a.435.435,0,0,0-.345.434c.048.384.123.083.522.155s.219.229.292.495.136.323.224.26-.112-.534.124-.542.112.473.182.619.339.075.524.246.175.533.244.678.108.443.374.284-.288-.378-.325-.526a1.859,1.859,0,0,1-.038-.922,1.3,1.3,0,0,0,.13-.428c.027-.118.453-.077.6-.2a2,2,0,0,1,1.188.13,1.373,1.373,0,0,0,.439.339c.215.079.324.493.392.67s.315.315.371.134-.329-.584-.4-.7.018-.359-.232-.41.136.266-.459-.189S1345.328,475.194,1344.818,475.245Z" transform="translate(-1306.332 -457.729)" fill="#b3b3b3"/>
          <path id="Trazado_391" data-name="Trazado 391" d="M1369.95,485.835c-.345-.254-.459-.788-.828-.922s-.757.033-.8.3c-.149.814.259,1.093.625,1.08a7.677,7.677,0,0,1,1.092.13c.4.045.9.5,1.078.493s.427.016.086-.152A4.308,4.308,0,0,1,1369.95,485.835Z" transform="translate(-1329.049 -466.478)" fill="#b3b3b3"/>
          <path id="Trazado_392" data-name="Trazado 392" d="M1351.773,463.887c-.145.127-.435.39-.288.4.243.022.357-.221.476-.318s.258-.277.221-.368S1351.921,463.763,1351.773,463.887Z" transform="translate(-1314.288 -447.823)" fill="#b3b3b3"/>
          <path id="Trazado_393" data-name="Trazado 393" d="M1353.631,455.662a3.7,3.7,0,0,1-.345.375.393.393,0,0,0-.14.334c.181.02.272-.1.475-.26S1353.686,455.57,1353.631,455.662Z" transform="translate(-1315.776 -440.869)" fill="#b3b3b3"/>
          <path id="Trazado_394" data-name="Trazado 394" d="M1337.98,455.413a4.565,4.565,0,0,0-1.268-.007c-.245.011.011-.329.126-.511a3.557,3.557,0,0,1,.315-.431c.142-.187.166-.337.339-.581s.059-.662-.087-.5-.065.479-.427.553-.1-.384.012-.476.274-.67.386-.824-.052-.477-.207-.557-.228.307-.245.666-.2.276-.452.676,0,.57.133.891a1.117,1.117,0,0,1-.142,1.022c-.2.248-.386.107-.591.326s-.252.546-.008.477.229-.309.465-.406.76.024,1.21-.053a1.445,1.445,0,0,1,1.01.374,1.757,1.757,0,0,1,.744.925,1.3,1.3,0,0,1-.259,1.148c-.2.246-.124.511-.3.79a7.85,7.85,0,0,1-1.5.959,2.153,2.153,0,0,1-1.108.2c-.279-.02-.535-.364-.841-.353a1.073,1.073,0,0,1-.741-.329c-.124-.144.178-.128.422-.164s.422.04.053-.124a1.748,1.748,0,0,0-1.557.483c-.555.441-1.229.294-2.006.5s-1.568-.564-1.785-.67-1.18-1.358-1.4-1.5a5.171,5.171,0,0,1-.944-.858.864.864,0,0,0-.685-.419c-.333-.046-.29-.436-.656-.51s-.449.008-.506.23c-.077.3.161.262.648.333s1.383,1.076,1.633,1.3a18.224,18.224,0,0,1,1.521,1.578c.388.495.81,1.165,1.189,1.568s.611.84,1.016,1.03.634.034,1.19.248a2.061,2.061,0,0,0,1.455,0c.449-.14.441-.288.887-.514a1.544,1.544,0,0,0,.654-.985,3.666,3.666,0,0,1,.213-.668c.083-.122.755-.09,1-.039s.193.258.084.532-.609.593-.676,1.2-.185.544-.887,1.229-.806.245-1.127.526a.933.933,0,0,1-.868.247c-.271-.05-.1-.234-.252-.26s0,.179-.228.341a2.722,2.722,0,0,1-1.3.024c-.242-.049.074-.392-.376-.341s-.614-.185-.839-.475-.435-.938-1.05-1.121-.226.309-.226.309a2.459,2.459,0,0,1,.5.968c.244.735.36.668.634.658s.438.341.792.8.65.361.9.56-.122.633.209.589,0-.6.33-.79.591.305.776.441.122.743.127.892a1.313,1.313,0,0,1-.146.757c-.172.272-.458-.071-.619-.276a.415.415,0,0,0-.548-.126c-.152.094-.088.124.193.292s.191.2.146.589a2.8,2.8,0,0,1-.217,1.295,1.337,1.337,0,0,0-.071,1.2c.11.414.343.851.409,1.089s-.169.964.075,1.013.075-.421.151-.723a1.461,1.461,0,0,0-.163-.92,3.337,3.337,0,0,1-.13-.979c-.051-.477.031-.688.207-.848s-.144-.382-.033-.716.1.118.485-.021.173-.217.465-.5-.1-1.492.028-1.405.31-.52.352-.222.144.411.355.434.508-.053.239-.1-.231-.378-.394-.7-.129-.144-.54-.544,0-.749.385-.944.706-.357,1.483-.688.543-.743.863-1.054.237-.846.553-1.218a1.383,1.383,0,0,0,.228-1.055c-.011-.239.117-.095.327-.134a10.656,10.656,0,0,0,1.123-.674c.473-.256.308-.58.705-1.224a1.48,1.48,0,0,0,.016-1.706A3.308,3.308,0,0,0,1337.98,455.413Zm-3.035,6.193c-.382.194-.519.588-1.367.536s-.875.124-1.371-.122-.978-.227-1.2-.546a.445.445,0,0,1,.091-.661,1.821,1.821,0,0,1,1.691-.164c.465.282.526.278.631.546s.122-.634.635-.654.568-.235.812-.215.58.1.619.331A1.075,1.075,0,0,1,1334.946,461.607Z" transform="translate(-1291.519 -437.726)" fill="#b3b3b3"/>
          <path id="Trazado_395" data-name="Trazado 395" d="M1412.349,490.889c.272-.1.236-.219.567-.292s.815.024,1.117-.018.319-.432.266-.818-.471-.459-.831-.354-.671.656-.9.936-.5.288-.581.443C1411.942,490.861,1412.084,490.991,1412.349,490.889Z" transform="translate(-1367.345 -470.421)" fill="#b3b3b3"/>
          <path id="Trazado_396" data-name="Trazado 396" d="M1326.425,513.13a.831.831,0,0,0-.677.354c-.114.158.323.518.248.11-.041-.2.532-.23.658-.146s.193.285.494.305.111-.272.01-.508S1326.851,513.082,1326.425,513.13Z" transform="translate(-1291.748 -491.21)" fill="#b3b3b3"/>
          <path id="Trazado_397" data-name="Trazado 397" d="M1341.969,520.909c-.157-.264-.39-.674-.635-.661s-1.026.041-.986.221c.041.195.273.048.553.185s.485.038.615.274.272.615.41.43S1342.135,521.171,1341.969,520.909Z" transform="translate(-1304.56 -497.491)" fill="#b3b3b3"/>
          <path id="Trazado_398" data-name="Trazado 398" d="M1304.907,526.181a2.907,2.907,0,0,1,.011-1.137c.138-.333.8-1.106.735-1.194-.16-.219-.361.077-.5.26a1.367,1.367,0,0,0-.526,1.07,7.118,7.118,0,0,0,.087,1.4,5.653,5.653,0,0,1,.228,1.066c.02.449.252.917.148,1.25s-.309,1.235-.108,1.078a1.248,1.248,0,0,0,.331-.82,11.287,11.287,0,0,0-.062-2.03A2.974,2.974,0,0,1,1304.907,526.181Z" transform="translate(-1273.248 -500.58)" fill="#b3b3b3"/>
          <path id="Trazado_399" data-name="Trazado 399" d="M1314.27,562.792c-.242-.022-.424-.041-.51.112s-.2.335-.292.191-.058-.626-.177-.559a1.177,1.177,0,0,0-.053.9c.13.146.436.22.518.037s.248-.546.493-.5S1314.512,562.811,1314.27,562.792Z" transform="translate(-1280.741 -534.55)" fill="#b3b3b3"/>
          <path id="Trazado_400" data-name="Trazado 400" d="M1321.892,545.139c.144-.181-.01-.264-.134-.321s-.173.189-.386.167-.067-.177-.051-.477-.028-.6-.032-.743-.039-.152-.151.006a5.687,5.687,0,0,0,.033,1.46c.006.177.134.327.284.258A1.639,1.639,0,0,0,1321.892,545.139Z" transform="translate(-1287.683 -518.005)" fill="#b3b3b3"/>
          <path id="Trazado_401" data-name="Trazado 401" d="M1324.513,545.08c-.082.156,0,.3.133.294s.138-.424.1-.571S1324.6,544.927,1324.513,545.08Z" transform="translate(-1290.654 -518.975)" fill="#b3b3b3"/>
          <path id="Trazado_402" data-name="Trazado 402" d="M1328.208,544.571a7.085,7.085,0,0,0-.055.751.439.439,0,0,1,.189.167c.065.12.083-.12.072-.329S1328.283,544.209,1328.208,544.571Z" transform="translate(-1293.873 -518.724)" fill="#b3b3b3"/>
          <path id="Trazado_403" data-name="Trazado 403" d="M1332.328,538.746c-.079-.449-.394.044-.284-.23a2.043,2.043,0,0,0,.162-.544c.046-.227-.391.138-.347.461s-.027.658.154.652.067.207.165.353S1332.41,539.189,1332.328,538.746Z" transform="translate(-1297.118 -512.964)" fill="#b3b3b3"/>
          <path id="Trazado_404" data-name="Trazado 404" d="M1337.984,543.275a.508.508,0,0,0,.083-.274c-.008-.15.023-.15.3-.134s.146-.126.138-.272-.572.083-.687.209S1337.835,543.252,1337.984,543.275Z" transform="translate(-1302.302 -517.036)" fill="#b3b3b3"/>
          <path id="Trazado_405" data-name="Trazado 405" d="M1345.209,539.494c.329-.014.144-1.466.026-1.344s-.04.42-.032.508-.17.335-.221.518A.223.223,0,0,0,1345.209,539.494Z" transform="translate(-1308.61 -513.176)" fill="#b3b3b3"/>
          <path id="Trazado_406" data-name="Trazado 406" d="M1285.045,564.2c-.021.241.231.469.091.743s-.134,1.052.014,1.012.01-.447.156-.569.181.022.165.262a1.907,1.907,0,0,1-.242.723c-.167.369-.047.271-.27.1s-.414.228-.433.406.4.073.6-.055.345-.432.461-.556a2.811,2.811,0,0,0,.349-1c.047-.327-.327-.522-.4-.788S1285.061,563.967,1285.045,564.2Z" transform="translate(-1255.632 -535.931)" fill="#b3b3b3"/>
          <path id="Trazado_407" data-name="Trazado 407" d="M1328.93,599.507a2.757,2.757,0,0,0-.343.436c-.144.215-.092.471.109.5C1328.847,600.469,1329.017,599.416,1328.93,599.507Z" transform="translate(-1294.182 -566.956)" fill="#b3b3b3"/>
          <path id="Trazado_408" data-name="Trazado 408" d="M1339.906,583.943c-.243.008-.254.4-.363.76s-.236.158-.682.355-.248.52-.449.8-.4.55-.307.577c.4.136.528-.349.547-.589s-.075-.3.375-.493a4.653,4.653,0,0,0,.855-.485C1340.179,584.674,1340.148,583.929,1339.906,583.943Z" transform="translate(-1302.576 -553.319)" fill="#b3b3b3"/>
          <path id="Trazado_409" data-name="Trazado 409" d="M1356.021,583.218c-.27.045-.2.219-.253.523s-.169.242-.2.364c0,0,.15-.067.357-.134s.057-.152.324-.223.137-.333.133-.455S1356.293,583.176,1356.021,583.218Z" transform="translate(-1317.906 -552.661)" fill="#b3b3b3"/>
          <path id="Trazado_410" data-name="Trazado 410" d="M1364.8,574.847c.264-.161.2-.217.312-.491s.14-.183.248-.459-.035-.865-.246-.8-.016.243-.03.721a.716.716,0,0,1-.331.7c-.177.158-.353.255-.449.168s-.071-.353-.19-.227.047.355.024.507-.086.211-.135.392-.122.653.024.6c.087-.032.182.023.27-.069s-.156-.083.041-.42S1364.531,575.009,1364.8,574.847Z" transform="translate(-1325.237 -543.812)" fill="#b3b3b3"/>
          <path id="Trazado_411" data-name="Trazado 411" d="M1385,587.64c-.126.156-.088.092-.088.689s-.1,1.23.059,1.4.2-.4.181-.725S1385.21,587.388,1385,587.64Z" transform="translate(-1343.596 -556.531)" fill="#b3b3b3"/>
          <path id="Trazado_412" data-name="Trazado 412" d="M1370.915,610.7c-.112.187-.082.156.04.209s.075.355.027.656a1.42,1.42,0,0,1-.388.795.708.708,0,0,0-.286.429c-.051.18.012.209.217.113a4.372,4.372,0,0,0,.7-1.258.7.7,0,0,0,.1-.542C1371.313,610.743,1371,610.562,1370.915,610.7Z" transform="translate(-1330.807 -576.73)" fill="#b3b3b3"/>
          <path id="Trazado_413" data-name="Trazado 413" d="M1384.507,457.028c.3-.012-.321-.433-.451-.636s-.3-.617-.6-1.084a3.612,3.612,0,0,1-.508-1.323c-.118-.532-.1-1.012-.278-.825s-.026.839.05,1.105.212.8.431.934.566,1.174.761,1.435S1384.2,457.042,1384.507,457.028Z" transform="translate(-1341.589 -438.653)" fill="#b3b3b3"/>
          <path id="Trazado_414" data-name="Trazado 414" d="M1375.827,432.443c-.118.163.386.229.648.619.223.323.457.607.494.469.041-.215-.39-.609-.516-.784S1375.935,432.3,1375.827,432.443Z" transform="translate(-1335.643 -420.496)" fill="#b3b3b3"/>
          <path id="Trazado_415" data-name="Trazado 415" d="M1391.734,439.174c.265-.16.088,0,.28.11s.035.176.3.132.182-.065.284.2.148.649.321.524.09-.067.262-.282.272-.039.484-.079.158.2.324.522.248.172.295-.16.189-.492.449-.317c.473.327.153-.073.356-.205s.382-.065.711-.081.723.507.871.443-.178-.443-.39-.642a7.754,7.754,0,0,0-1.283-.9c-.306-.14-.412.2-.558.44s-.875.071-1.359.089-.429-.1-.8-.2S1391.513,439.311,1391.734,439.174Z" transform="translate(-1349.547 -425.759)" fill="#b3b3b3"/>
          <path id="Trazado_416" data-name="Trazado 416" d="M1391.984,448.8a3.017,3.017,0,0,0-.491-.1c-.3-.053.246.416.439.309C1392.012,448.962,1392.1,448.836,1391.984,448.8Z" transform="translate(-1349.314 -434.774)" fill="#b3b3b3"/>
          <path id="Trazado_417" data-name="Trazado 417" d="M1394.115,453.484c-.124.15.24.215.244.081C1394.366,453.381,1394.2,453.385,1394.115,453.484Z" transform="translate(-1351.665 -438.913)" fill="#b3b3b3"/>
          <path id="Trazado_418" data-name="Trazado 418" d="M1391.859,423.046c.181.053.607.692.906.678s.158.144.522.187.3-.191.5-.378.687-.177.859-.367-.217-.14-.492-.1a1.786,1.786,0,0,0-.918.337c-.233.217-.4-.161-.682-.329S1391.606,422.978,1391.859,423.046Z" transform="translate(-1349.662 -412.23)" fill="#b3b3b3"/>
          <path id="Trazado_419" data-name="Trazado 419" d="M1348.108,353.609a17.138,17.138,0,0,1-1.968.711,14.422,14.422,0,0,1-3.035.633,22.946,22.946,0,0,1-6.159-.215c-1.8-.341-4.278-.656-5.53-1.052a12.959,12.959,0,0,0-3.953-.432,12.374,12.374,0,0,0-2.954.394,7.728,7.728,0,0,1-1.834.257c-.546-.008-.126-.026.11-.217s.052-.209-.338-.132-.386.222-.682.237-1.21.142-1.513.154-.494-.278-.327-.644.907-.008.907-.008.3-.1-.01-.209-.626-.481-1.038-.2-.84.247-1.277.562a5.929,5.929,0,0,1-1.43.508,2.186,2.186,0,0,1-1.514.006,3.261,3.261,0,0,0-1.5-.268,2.879,2.879,0,0,1-1.423.061c-.552-.158-.312-.883-.725-.688s.406.284.115.566-.9-.532-.891-.323.694.658,1.25.875.547.038.993-.073a4.078,4.078,0,0,1,1.549.025c.73.087.4.1.958.44s.848-.008,1.179-.081a2.761,2.761,0,0,0,1.243-.65s.656-.238.778-.122a.913.913,0,0,0,.8.232,1.393,1.393,0,0,0,1.222.187,2.777,2.777,0,0,1,.826.144.229.229,0,0,1,.195.353c-.082.156-.355.254-.1.392s.164.291.692.6.51.575.731.806a1.245,1.245,0,0,1,.372.91c.022.447-.207.067-.384.254s-.018.3.232.41.074.416.089.711.242.589.254.889a.811.811,0,0,0,.447.639c.253.167.1,0,.5.248s-.127-.057.073.922-.11.362-.239.875-.468.38-.43.619.241-.043.45-.2.209-.038.425-.018a2.555,2.555,0,0,0,.933-.128,1.662,1.662,0,0,0,.585-.414,1.113,1.113,0,0,1,.808-.244c.363-.014.552.128.668,0s-.772-.359-.9-.5-.49-.1-.857-.2-.382.283-.8.392-.405-.284-.355-.434a1,1,0,0,0-.122-.8c-.193-.231-.492-.219-.747-.416a.659.659,0,0,1-.215-.768c.112-.242.306.079.64.063s.621.392,1.085.609a4.655,4.655,0,0,1,1.064.824c.221.2.78.5,1.033.764a4.68,4.68,0,0,0,1.094.729c.339.166.483.01.712.388s-1.222.41-1.8.465a8.592,8.592,0,0,0-1.807.136c-.361.164-.578-.036-.974-.079s-.978-.108-.847.066c.193.261,1.073.285,1.71.317s2.571-.11,3.445-.205a1.781,1.781,0,0,0,1.19-.5c.328-.195-.692-.6-.692-.6a5.668,5.668,0,0,0-1.052-.554c-.711-.3-1.724-1.271-2.307-1.574s-.847-.623-.926-.948,1.166-.406,2.313-.544a11.729,11.729,0,0,1,4.091.033,31.365,31.365,0,0,0,5.368.224,20.045,20.045,0,0,0,4.56-1.058c3.012-1.113,4.556-1.681,5.724-2.183C1349.939,354.667,1350.865,352.27,1348.108,353.609Zm.784.751a6.062,6.062,0,0,1-1.8.952c-.914.372-2.951,1.029-4.165,1.385a13.4,13.4,0,0,1-4.211.847c-1.573-.11-2.259-.15-2.85-.215a12,12,0,0,1-2.674-.4,19.573,19.573,0,0,0-4.169-.767c-.908.016-2.179,0-2.053-.227s2.377-.073,2.164-.339a3.694,3.694,0,0,0-1.482-.205,8.97,8.97,0,0,0-2.063.065c-.2.12-1.011.378-1.044.153s.731-.524,1.637-.6-.055-.18-.485-.157-.989.221-1.49.284-.859.059-.782-.213c.14-.472.272-.549,1.133-.7a20.5,20.5,0,0,1,2.816-.457c.842-.012,2.757.2,3.4.24s3.659.627,4.511.794a36.785,36.785,0,0,0,5.8.722c1.111-.117,4.534-.215,6.266-1.163s2.139-.985,2.166-.851S1349.176,354.1,1348.892,354.36Z" transform="translate(-1278.961 -350.71)" fill="#b3b3b3"/>
          <path id="Trazado_420" data-name="Trazado 420" d="M1344.967,368.94c-.489,0-.166-.136-.646-.276s-.616-.079-.58.073c.055.2.576.355.9.465a1.776,1.776,0,0,1,.709.394c.164.164.207.028.164-.193S1345.456,368.944,1344.967,368.94Z" transform="translate(-1307.531 -364.561)" fill="#b3b3b3"/>
          <path id="Trazado_421" data-name="Trazado 421" d="M1347.558,377.642a.781.781,0,0,1-.312-.433c-.063-.209-.207-.181-.272.057s-.265-.032-.447.154c-.156.152-.038.17.211.213a1.328,1.328,0,0,1,.623.321c.3.2.3.337.569.247S1347.7,377.772,1347.558,377.642Z" transform="translate(-1309.916 -371.994)" fill="#b3b3b3"/>
          <path id="Trazado_422" data-name="Trazado 422" d="M1383.983,382.629a1.636,1.636,0,0,1-.408-.4c-.177-.2-.219-.124-.258.01-.029.088,0,.088.187.155s.016.3.069.446.272,0,.483.01S1384.124,382.7,1383.983,382.629Z" transform="translate(-1342.215 -376.41)" fill="#b3b3b3"/>
          <path id="Trazado_423" data-name="Trazado 423" d="M1392.867,380.72a2.061,2.061,0,0,0-.5-.439c-.233-.14-.516-.11-.5-.024.038.2.221.245.406.326s.174-.142.2.1.292.388.451.578.2.155.337.092.045-.256-.193-.276S1393.038,380.907,1392.867,380.72Z" transform="translate(-1349.714 -374.725)" fill="#b3b3b3"/>
          <path id="Trazado_424" data-name="Trazado 424" d="M1377.081,392.181c-.134.109-.062.4-.16.512s-.273.014-.2.189.094.071.126.428.031.643.145.607.014-.658.071-.823.146-.054.253-.1,0-.373.021-.536.148-.142.378-.111.172.16.321.124.024-.136-.045-.284-.114-.187-.2-.079a.293.293,0,0,1-.376.057C1377.256,392.1,1377.211,392.069,1377.081,392.181Z" transform="translate(-1336.425 -385.122)" fill="#b3b3b3"/>
          <path id="Trazado_425" data-name="Trazado 425" d="M1367.274,399.312c.168.024.262.049.229-.026a.621.621,0,0,0-.333-.281c-.217-.1-.321.027-.339.132C1366.791,399.318,1367.107,399.291,1367.274,399.312Z" transform="translate(-1327.771 -391.191)" fill="#b3b3b3"/>
          <path id="Trazado_426" data-name="Trazado 426" d="M1354.147,399.612c.1-.111.177-.414.1-.408s-.138-.026-.18.035C1354.006,399.328,1354.043,399.718,1354.147,399.612Z" transform="translate(-1316.562 -391.392)" fill="#b3b3b3"/>
          <path id="Trazado_427" data-name="Trazado 427" d="M1359.172,403.876a1.123,1.123,0,0,0-.432-.164c-.2-.065-.2-.165-.29-.108-.075.049-.071.094.1.207s.02.118.073.28.095.1.248.14.021.177.077.368.266.213.445.191.12-.078.156-.245a3.572,3.572,0,0,1,.14-.4c.065-.195.142-.17.394-.27s.065-.2-.059-.282-.341.091-.459.231S1359.436,404.027,1359.172,403.876Z" transform="translate(-1320.388 -395.229)" fill="#b3b3b3"/>
          <path id="Trazado_428" data-name="Trazado 428" d="M1335.3,419.934a1.615,1.615,0,0,1-.989-.018,1.713,1.713,0,0,0-.982.073c-.451.108-.579.356-.334.311a3.7,3.7,0,0,1,.713.045,2.6,2.6,0,0,0,.52.083c.272,0,.095.114.28.152s.022.209.173.292a2.417,2.417,0,0,0,1.048-.027c.252-.073.508-.17.627-.207s.067-.181.112-.244.3-.014.219-.187-.115-.085-.312-.167-.356.106-.475.244-.183-.079-.314-.224S1335.41,419.826,1335.3,419.934Z" transform="translate(-1298.009 -409.509)" fill="#b3b3b3"/>
          <path id="Trazado_429" data-name="Trazado 429" d="M1326.939,419.259c-.041.109.246.094.264.17a.241.241,0,0,0,.264.124c.118-.022.008-.165-.059-.3S1326.98,419.155,1326.939,419.259Z" transform="translate(-1292.805 -408.896)" fill="#b3b3b3"/>
          <path id="Trazado_430" data-name="Trazado 430" d="M1324.463,421.047a1.651,1.651,0,0,0-.181.024c-.041.075-.039.177.1.143S1324.537,421.044,1324.463,421.047Z" transform="translate(-1290.459 -410.542)" fill="#b3b3b3"/>
          <path id="Trazado_431" data-name="Trazado 431" d="M1329.185,396.346c-.241-.02-.27.073-.522.144s-.23.152-.183.3c.033.12.591.051.725-.073s.059-.3.2-.128.416.132.552.126.1.056.088.235.116.264.217.2-.04-.223.142-.246.18-.1.126-.158a2.543,2.543,0,0,0-.612-.283A2.986,2.986,0,0,0,1329.185,396.346Z" transform="translate(-1294.133 -388.889)" fill="#b3b3b3"/>
          <path id="Trazado_432" data-name="Trazado 432" d="M1325.936,437.406a.3.3,0,0,0,.152.173c.205.091.134-.284.268-.38s.161-.109.108-.257-.23-.065-.4.12S1325.871,437.224,1325.936,437.406Z" transform="translate(-1291.899 -424.41)" fill="#b3b3b3"/>
          <path id="Trazado_433" data-name="Trazado 433" d="M1331.81,437.016c0,.057-.012.078.131.116s.091-.081.087-.215S1331.837,436.9,1331.81,437.016Z" transform="translate(-1297.077 -424.398)" fill="#b3b3b3"/>
          <path id="Trazado_434" data-name="Trazado 434" d="M1332.535,435.216c.15-.121.187-.123.229-.258s.1,0,.228.023.083-.069.07-.148-.294-.043-.3-.1-.063-.13-.189-.126-.165.158-.067.152c.048,0,.079.155.006.278a.553.553,0,0,1-.231.258.273.273,0,0,0-.183.234c-.029.134-.006.1.087.093s.136-.073.235-.132S1332.381,435.332,1332.535,435.216Z" transform="translate(-1297.321 -422.427)" fill="#b3b3b3"/>
          <path id="Trazado_435" data-name="Trazado 435" d="M1327.873,443.963c-.1.039-.25.157-.248.278s.077.26.151.165a2.11,2.11,0,0,0,.128-.219c.061-.09.163-.126.231-.189S1328.064,443.886,1327.873,443.963Z" transform="translate(-1293.41 -430.595)" fill="#b3b3b3"/>
        </g>
      </g>
      <g id="Grupo_94" data-name="Grupo 94" transform="translate(30.4 0)">
        <g id="Grupo_93" data-name="Grupo 93" transform="translate(0 0)">
          <path id="Trazado_436" data-name="Trazado 436" d="M541.792,341.841h.7V337.41h-.7v-.618h2.46a3.3,3.3,0,0,1,1.046.118,1.438,1.438,0,0,1,.989,1.471,1.543,1.543,0,0,1-1.174,1.594v.018a.64.64,0,0,1,.24.266l.8,1.4c.089.155.193.186.394.186h.171v.627h-.483c-.483,0-.6-.087-.79-.428l-.875-1.55a.546.546,0,0,0-.6-.314H543.3v1.665h.7v.627h-2.213Zm2.651-2.323a.98.98,0,0,0,1.032-1.071.872.872,0,0,0-.534-.894,1.946,1.946,0,0,0-.7-.1H543.3v2.067Z" transform="translate(-541.792 -336.692)" fill="#b3b3b3"/>
          <path id="Trazado_437" data-name="Trazado 437" d="M587.2,341.841h.7V337.41h-.7v-.618h4.108v1.317h-.7v-.658h-1.9v1.822h2.01v.663h-2.01v1.873h2.031v-.684h.7v1.342H587.2Z" transform="translate(-581.595 -336.692)" fill="#b3b3b3"/>
          <path id="Trazado_438" data-name="Trazado 438" d="M629.118,340.055v.419c0,.417.54.665,1.135.665.651,0,1.123-.3,1.123-.867,0-.66-.666-.877-1.367-1.151-.748-.28-1.509-.6-1.509-1.607,0-1.069.859-1.53,1.817-1.53.853,0,1.722.322,1.722.941v.669h-.751V337.2c0-.329-.507-.507-.971-.507-.554,0-1,.257-1,.779,0,.6.571.8,1.2,1.046.841.314,1.665.636,1.665,1.688a1.711,1.711,0,0,1-1.935,1.65c-.887,0-1.874-.4-1.874-1.206v-.595Z" transform="translate(-617.685 -335.984)" fill="#b3b3b3"/>
          <path id="Trazado_439" data-name="Trazado 439" d="M665.769,341.841h.717v-4.39H665.15v.883h-.7v-1.542h4.873v1.542h-.7v-.883h-1.338v4.39h.719v.627h-2.238Z" transform="translate(-649.301 -336.692)" fill="#b3b3b3"/>
          <path id="Trazado_440" data-name="Trazado 440" d="M703.286,341.841h.545l1.807-5.049h.912l1.809,5.049h.548v.627h-1.971v-.627h.6l-.442-1.263h-2.012l-.443,1.263h.609v.627h-1.967Zm3.61-1.9-.7-1.972a2.141,2.141,0,0,1-.091-.433h-.026a2.5,2.5,0,0,1-.094.433l-.7,1.972Z" transform="translate(-683.341 -336.692)" fill="#b3b3b3"/>
          <path id="Trazado_441" data-name="Trazado 441" d="M750.145,337.41h-.719v-.618h2.24v.618h-.713v2.935a1.787,1.787,0,0,0,.215.925,1.383,1.383,0,0,0,1.222.578,1.368,1.368,0,0,0,1.224-.592,1.8,1.8,0,0,0,.217-.918V337.41h-.718v-.618h2.229v.618h-.709v2.943a2.431,2.431,0,0,1-.39,1.384,2.215,2.215,0,0,1-1.852.828,2.268,2.268,0,0,1-1.866-.828,2.311,2.311,0,0,1-.378-1.384Z" transform="translate(-723.782 -336.692)" fill="#b3b3b3"/>
          <path id="Trazado_442" data-name="Trazado 442" d="M802.844,341.841h.707V337.41h-.707v-.618H805.3a3.314,3.314,0,0,1,1.045.118,1.444,1.444,0,0,1,.991,1.471,1.539,1.539,0,0,1-1.174,1.594v.018a.669.669,0,0,1,.241.266l.8,1.4c.089.155.193.186.392.186h.171v.627h-.479c-.485,0-.6-.087-.792-.428l-.877-1.55c-.142-.243-.25-.314-.6-.314h-.675v1.665h.7v.627h-2.209Zm2.654-2.323a.98.98,0,0,0,1.027-1.071.873.873,0,0,0-.532-.894,1.976,1.976,0,0,0-.7-.1h-.938v2.067Z" transform="translate(-770.603 -336.692)" fill="#b3b3b3"/>
          <path id="Trazado_443" data-name="Trazado 443" d="M845.84,341.841h.546l1.809-5.049h.909l1.813,5.049h.542v.627h-1.969v-.627h.605l-.445-1.263h-2.01l-.443,1.263h.615v.627H845.84Zm3.608-1.9-.692-1.972a2.173,2.173,0,0,1-.094-.433h-.024a2.651,2.651,0,0,1-.1.433l-.7,1.972Z" transform="translate(-808.289 -336.692)" fill="#b3b3b3"/>
          <path id="Trazado_444" data-name="Trazado 444" d="M895.537,341.841h.71V337.41h-.71v-.618h1.5l2.788,4.066a3.466,3.466,0,0,1,.2.412h.026a4.042,4.042,0,0,1-.042-.459v-3.4h-.721v-.618h2.242v.618h-.717v5.058h-.788l-2.79-4.069a2.225,2.225,0,0,1-.193-.41h-.022a3.563,3.563,0,0,1,.031.458v3.394h.729v.627h-2.243Z" transform="translate(-851.848 -336.692)" fill="#b3b3b3"/>
          <path id="Trazado_445" data-name="Trazado 445" d="M949.89,341.841h.713v-4.39h-1.328v.883h-.7v-1.542h4.873v1.542h-.7v-.883h-1.336v4.39h.717v.627H949.89Z" transform="translate(-898.333 -336.692)" fill="#b3b3b3"/>
          <path id="Trazado_446" data-name="Trazado 446" d="M993.356,341.841h.711V337.41h-.711v-.618h4.11v1.317h-.695v-.658h-1.9v1.822h2.009v.663h-2.009v1.873h2.032v-.684h.7v1.342h-4.249Z" transform="translate(-937.586 -336.692)" fill="#b3b3b3"/>
        </g>
      </g>
    </g>
  </g>
</svg>
