<svg id="metlife-1" xmlns="http://www.w3.org/2000/svg" width="165.49" height="35.581" viewBox="0 0 165.49 35.581">
  <path id="Trazado_243" data-name="Trazado 243" d="M134.4,0a8.274,8.274,0,0,0-2.511.561,31.34,31.34,0,0,0-12.243,7.927l-2.57,3.033.991,1.418a32.355,32.355,0,0,1,4.307,9.877,21.471,21.471,0,0,1,.794,5.2c.014.34.031.7.039,1.093s.016.812.02,1.27c.018,2.426.048,5.2-.206,5.2h12.115l.687-.7c.427-.612.491-2.775.491-17.224,0-14.937-.05-16.585-.52-17.105A1.741,1.741,0,0,0,134.4,0Z" transform="translate(-97.698 -0.001)" fill="#b3b3b3" opacity="0.721"/>
  <path id="Trazado_244" data-name="Trazado 244" d="M1.992,0A1.931,1.931,0,0,0,.569.492C.027.985,0,1.933,0,17.6c0,14.5.063,16.67.491,17.283l.491.7H13.028c9.3,0,12.1-.09,12.291-.394a27.565,27.565,0,0,0,.206-4.806,25.107,25.107,0,0,0-.853-7.563A30.983,30.983,0,0,0,16.328,8.069,33.327,33.327,0,0,0,4.424.561,8.393,8.393,0,0,0,1.991,0Z" transform="translate(0 0.001)" fill="#b3b3b3" opacity="0.721"/>
  <path id="Trazado_245" data-name="Trazado 245" d="M85.348,69.62l-.766.927c-1.36,1.664-3.84,7.179-4.669,10.38A25.1,25.1,0,0,0,79.07,88.5c-.016,2.434-.059,5.18.186,5.18H91.292c.254,0,.225-2.773.206-5.2a26.572,26.572,0,0,0-.853-7.563,32.332,32.332,0,0,0-4.3-9.875Z" transform="translate(-65.973 -58.098)" fill="#b3b3b3"/>
  <g id="Grupo_68" data-name="Grupo 68" transform="translate(50.521 5.653)">
    <path id="Trazado_246" data-name="Trazado 246" d="M400.353,34.16a6.92,6.92,0,0,0-4.523,1.635,5.887,5.887,0,0,0-2.188,4.294l-.216,1.625h-2.433v4.1h2.511v6.1a51.218,51.218,0,0,0,.206,6.3,8.982,8.982,0,0,0,2.511.207h2.305V45.81H402.3v-4.1h-3.767V40.669a2.289,2.289,0,0,1,2.727-2.344,7.883,7.883,0,0,1,1.7.364c.372.166.755-.171,1.481-1.29l.991-1.517-.706-.532a8.882,8.882,0,0,0-4.365-1.191Zm-14.744.029c-2.454.128-3.679,3.839-1.256,5.16A2.417,2.417,0,0,0,387.512,39a2.188,2.188,0,0,0,.971-2.048,2.573,2.573,0,0,0-2.08-2.679A2.7,2.7,0,0,0,385.609,34.189Zm-57.083.571-2.551.088-2.541.089-2.815,5.2c-1.548,2.86-2.916,5.3-3.031,5.417a32.826,32.826,0,0,1-3.188-5.278l-2.982-5.495-2.511.079-2.511.079-.363,8.036c-.2,4.42-.45,9.7-.559,11.739l-.2,3.7h4.944l.206-4.018c.112-2.21.224-5.223.245-6.7.073-5.088.1-5.085,2.933-.039l2.5,4.451h2.639l2.462-4.648,2.453-4.648.235,5.515c.129,3.033.32,6.543.422,7.8l.177,2.285h4.974l-.01-1.5c0-.823-.21-5.68-.461-10.793s-.457-9.76-.461-10.33l-.01-1.035Zm37.042.02v11.61c0,6.384.091,11.7.206,11.817a75.057,75.057,0,0,0,7.691.207h7.485V54H370.9V34.78h-5.336Zm-13.184,2.5v4.4l-1.334.089-1.334.1v3.782l1.334.1,1.334.1.01,4.156c.018,5.515.564,7.06,2.913,8.223a9.224,9.224,0,0,0,6.818-.286l1.55-.788-.942-1.536-.942-1.536-1.364.5c-1.267.457-1.436.451-2.2-.049-.819-.539-.824-.562-.824-4.629v-4.1h4.081v-4.1h-4.052l-.1-2.127-.089-2.127-2.433-.089-2.433-.089Zm-12.262,4.047a7.9,7.9,0,0,0-7.485,4.8,11.55,11.55,0,0,0,.088,8.065,8.065,8.065,0,0,0,4.424,4.038c2.794,1,7.725.437,9.967-1.133l.853-.591-.952-1.546-.942-1.536-1.628.758a7.619,7.619,0,0,1-5.4.463c-1.058-.4-2.364-1.823-2.364-2.57,0-.548.362-.591,5.807-.591H348.3V49.966c0-5.162-3.325-8.667-8.182-8.636Zm.039,3.831a3.426,3.426,0,0,1,2.511.945,3.07,3.07,0,0,1,.922,1.576c0,.623-.167.65-3.453.65-2.2,0-3.453-.114-3.453-.325a3.627,3.627,0,0,1,1.717-2.442,4.411,4.411,0,0,1,1.756-.4Zm71.955-3.811c-4.9,0-8.141,3.017-8.485,7.9-.285,4.043,1.185,6.916,4.365,8.528,1.9.964,2.131,1,4.983.9a9.57,9.57,0,0,0,4.787-.995,6.034,6.034,0,0,0,1.8-1.113,9.3,9.3,0,0,0-.932-1.7l-.932-1.477-1.118.67c-1.5.885-4.723,1.157-5.984.5a4.107,4.107,0,0,1-2.158-2.364l-.216-.709h12.027l-.216-1.655c-.738-5.782-3.255-8.479-7.916-8.479Zm-.245,3.831a2.817,2.817,0,0,1,2.325.867,4.6,4.6,0,0,1,1.128,1.575c.2.706.185.709-3.453.709s-3.655,0-3.453-.709a4.607,4.607,0,0,1,1.128-1.576,2.817,2.817,0,0,1,2.325-.867Zm-23.7-3.486-2.433.089-2.433.089-.088,7.878c-.046,4.33-.015,8.052.069,8.272.1.274.9.394,2.521.394h2.364Z" transform="translate(-305.277 -34.16)" fill="#b3b3b3"/>
  </g>
</svg>
