<svg xmlns="http://www.w3.org/2000/svg" xmlns:xlink="http://www.w3.org/1999/xlink" width="179" height="79" viewBox="0 0 179 79">
  <defs>
    <clipPath id="clip-Mesa_de_trabajo_10">
      <rect width="179" height="79"/>
    </clipPath>
  </defs>
  <g id="Mesa_de_trabajo_10" data-name="Mesa de trabajo – 10" clip-path="url(#clip-Mesa_de_trabajo_10)">
    <rect width="179" height="79" fill="#fff"/>
    <g id="Grupo_199" data-name="Grupo 199" transform="translate(-697.305 -474.791)">
      <path id="Trazado_2547" data-name="Trazado 2547" d="M826.734,579.465l-3.513-6.081L819.71,567.3h14.046l-3.512,6.083Z" transform="translate(-54.092 -50.099)" fill="#a8a8a8"/>
      <path id="Trazado_2548" data-name="Trazado 2548" d="M860.128,579.537l-3.511-6.081-3.512-6.083h14.046l-3.511,6.083Z" transform="translate(-73.432 -50.14)" fill="#868686"/>
      <path id="Trazado_2549" data-name="Trazado 2549" d="M893.371,579.537l-3.511-6.081-3.512-6.083H900.4l-3.513,6.083Z" transform="translate(-92.684 -50.14)" fill="#868686"/>
      <path id="Trazado_2550" data-name="Trazado 2550" d="M826.721,538.515l3.5,6.061,3.5,6.061h-14l3.5-6.061Z" transform="translate(-54.099 -33.429)" fill="#e1e1e1"/>
      <path id="Trazado_2551" data-name="Trazado 2551" d="M909.959,567.372l3.51,6.083,3.513,6.081H902.935l3.511-6.081Z" transform="translate(-102.289 -50.14)" fill="#a8a8a8"/>
      <path id="Trazado_2552" data-name="Trazado 2552" d="M843.334,550.644l-3.513-6.084-3.513-6.085h14.05l-3.514,6.085Z" transform="translate(-63.705 -33.406)" fill="#b1b1b1"/>
      <path id="Trazado_2553" data-name="Trazado 2553" d="M876.757,550.631l-3.51-6.082-3.513-6.083h14.049l-3.513,6.083Z" transform="translate(-83.062 -33.4)" fill="#868686"/>
      <path id="Trazado_2554" data-name="Trazado 2554" d="M860.1,521.726l-3.513-6.083-3.511-6.083h14.047l-3.512,6.083Z" transform="translate(-73.416 -16.661)" fill="#e1e1e1"/>
      <path id="Trazado_2555" data-name="Trazado 2555" d="M860.127,480.791l3.5,6.06,3.5,6.061h-14l3.5-6.061Z" transform="translate(-73.444 0)" fill="#868686"/>
      <g id="Grupo_198" data-name="Grupo 198" transform="translate(726.305 537.234)">
        <path id="Trazado_2556" data-name="Trazado 2556" d="M727.04,615.194l1.739,4.6,1.807-4.6h.735v5.241h-.5v-4.527h-.016l-1.792,4.527h-.469l-1.726-4.527H726.8v4.527h-.5v-5.241Z" transform="translate(-726.305 -615.069)" fill="#b3b3b3"/>
        <path id="Trazado_2557" data-name="Trazado 2557" d="M740.154,616.627a2.59,2.59,0,0,1,.462-.869,2.238,2.238,0,0,1,.774-.6,2.482,2.482,0,0,1,1.084-.224,2.457,2.457,0,0,1,1.078.224,2.245,2.245,0,0,1,.77.6,2.609,2.609,0,0,1,.464.869,3.559,3.559,0,0,1,0,2.072,2.538,2.538,0,0,1-.464.866,2.241,2.241,0,0,1-.77.6,2.459,2.459,0,0,1-1.078.224,2.484,2.484,0,0,1-1.084-.224,2.234,2.234,0,0,1-.774-.6,2.52,2.52,0,0,1-.462-.866,3.551,3.551,0,0,1,0-2.072Zm.458,1.878a2.287,2.287,0,0,0,.353.742,1.779,1.779,0,0,0,.612.524,1.883,1.883,0,0,0,.9.2,1.849,1.849,0,0,0,.89-.2,1.761,1.761,0,0,0,.609-.524,2.252,2.252,0,0,0,.354-.742,3.239,3.239,0,0,0,0-1.685,2.24,2.24,0,0,0-.354-.737,1.783,1.783,0,0,0-.609-.527,1.883,1.883,0,0,0-.89-.2,1.918,1.918,0,0,0-.9.2,1.8,1.8,0,0,0-.612.527,2.274,2.274,0,0,0-.353.737,3.149,3.149,0,0,0,0,1.685Z" transform="translate(-734.236 -614.918)" fill="#b3b3b3"/>
        <path id="Trazado_2558" data-name="Trazado 2558" d="M754.128,615.194l3.053,4.434h.015v-4.434h.5v5.241h-.558L754.084,616h-.015v4.433h-.5v-5.241Z" transform="translate(-742.095 -615.069)" fill="#b3b3b3"/>
        <path id="Trazado_2559" data-name="Trazado 2559" d="M768.688,615.194v.426h-1.828v4.814h-.5V615.62h-1.821v-.426Z" transform="translate(-748.447 -615.069)" fill="#b3b3b3"/>
        <path id="Trazado_2560" data-name="Trazado 2560" d="M779.184,615.194v.426h-3.12v1.9h2.922v.425h-2.922v2.071h3.157v.424h-3.656v-5.241Z" transform="translate(-754.832 -615.069)" fill="#b3b3b3"/>
        <path id="Trazado_2561" data-name="Trazado 2561" d="M785.9,619.235a1.075,1.075,0,0,0,.363.433,1.482,1.482,0,0,0,.547.231,3.059,3.059,0,0,0,.675.07,1.919,1.919,0,0,0,.448-.058,1.556,1.556,0,0,0,.451-.188,1.152,1.152,0,0,0,.35-.331.842.842,0,0,0,.139-.489.719.719,0,0,0-.1-.381.886.886,0,0,0-.256-.27,1.526,1.526,0,0,0-.35-.182,3.585,3.585,0,0,0-.374-.113l-1.167-.285a3.282,3.282,0,0,1-.444-.149,1.218,1.218,0,0,1-.378-.234,1.1,1.1,0,0,1-.261-.359,1.229,1.229,0,0,1-.1-.521,1.659,1.659,0,0,1,.074-.449,1.25,1.25,0,0,1,.274-.483,1.6,1.6,0,0,1,.555-.386,2.225,2.225,0,0,1,.9-.158,2.6,2.6,0,0,1,.74.1,1.819,1.819,0,0,1,.617.308,1.476,1.476,0,0,1,.58,1.219h-.5a1.2,1.2,0,0,0-.136-.525,1.153,1.153,0,0,0-.316-.374,1.36,1.36,0,0,0-.447-.228,1.832,1.832,0,0,0-.533-.077,2.17,2.17,0,0,0-.494.054,1.262,1.262,0,0,0-.42.176.912.912,0,0,0-.29.319,1,1,0,0,0-.11.491.774.774,0,0,0,.062.319.71.71,0,0,0,.172.232.948.948,0,0,0,.255.154,1.847,1.847,0,0,0,.305.094l1.275.318a3.552,3.552,0,0,1,.525.178,1.788,1.788,0,0,1,.434.264,1.138,1.138,0,0,1,.294.386,1.3,1.3,0,0,1,.107.551,1.976,1.976,0,0,1-.019.234,1.22,1.22,0,0,1-.088.312,1.6,1.6,0,0,1-.2.334,1.259,1.259,0,0,1-.353.3,2.043,2.043,0,0,1-.554.221,3.253,3.253,0,0,1-.793.084,3.368,3.368,0,0,1-.859-.106,1.865,1.865,0,0,1-.675-.327,1.442,1.442,0,0,1-.429-.564,1.861,1.861,0,0,1-.128-.83h.5A1.485,1.485,0,0,0,785.9,619.235Z" transform="translate(-760.455 -614.918)" fill="#b3b3b3"/>
        <path id="Trazado_2562" data-name="Trazado 2562" d="M796.887,619.235a1.118,1.118,0,0,0,.365.433,1.47,1.47,0,0,0,.546.231,3.074,3.074,0,0,0,.676.07,1.941,1.941,0,0,0,.449-.058,1.582,1.582,0,0,0,.451-.188,1.161,1.161,0,0,0,.348-.331.839.839,0,0,0,.139-.489.715.715,0,0,0-.1-.381.887.887,0,0,0-.256-.27,1.51,1.51,0,0,0-.348-.182,3.635,3.635,0,0,0-.375-.113l-1.166-.285a3.265,3.265,0,0,1-.444-.149,1.242,1.242,0,0,1-.379-.234,1.125,1.125,0,0,1-.261-.359,1.243,1.243,0,0,1-.1-.521,1.684,1.684,0,0,1,.072-.449,1.251,1.251,0,0,1,.276-.483,1.576,1.576,0,0,1,.555-.386,2.213,2.213,0,0,1,.9-.158,2.6,2.6,0,0,1,.74.1,1.812,1.812,0,0,1,.618.308,1.493,1.493,0,0,1,.581,1.219h-.5a1.212,1.212,0,0,0-.134-.525,1.174,1.174,0,0,0-.317-.374,1.356,1.356,0,0,0-.447-.228,1.83,1.83,0,0,0-.532-.077,2.164,2.164,0,0,0-.495.054,1.24,1.24,0,0,0-.419.176.926.926,0,0,0-.29.319.991.991,0,0,0-.11.491.748.748,0,0,0,.062.319.665.665,0,0,0,.173.232.915.915,0,0,0,.253.154,1.86,1.86,0,0,0,.3.094l1.279.318a3.583,3.583,0,0,1,.524.178,1.728,1.728,0,0,1,.433.264,1.088,1.088,0,0,1,.294.386,1.264,1.264,0,0,1,.108.551,2.273,2.273,0,0,1-.018.234,1.178,1.178,0,0,1-.09.312,1.565,1.565,0,0,1-.2.334,1.25,1.25,0,0,1-.351.3,2.049,2.049,0,0,1-.555.221,3.251,3.251,0,0,1-.793.084,3.352,3.352,0,0,1-.858-.106,1.867,1.867,0,0,1-.676-.327,1.446,1.446,0,0,1-.429-.564,1.848,1.848,0,0,1-.129-.83h.5A1.485,1.485,0,0,0,796.887,619.235Z" transform="translate(-766.818 -614.918)" fill="#b3b3b3"/>
        <path id="Trazado_2563" data-name="Trazado 2563" d="M807.375,616.627a2.585,2.585,0,0,1,.464-.869,2.227,2.227,0,0,1,.774-.6,2.485,2.485,0,0,1,1.082-.224,2.455,2.455,0,0,1,1.08.224,2.239,2.239,0,0,1,.771.6,2.594,2.594,0,0,1,.463.869,3.549,3.549,0,0,1,0,2.072,2.524,2.524,0,0,1-.463.866,2.235,2.235,0,0,1-.771.6,2.457,2.457,0,0,1-1.08.224,2.486,2.486,0,0,1-1.082-.224,2.223,2.223,0,0,1-.774-.6,2.515,2.515,0,0,1-.464-.866,3.55,3.55,0,0,1,0-2.072Zm.458,1.878a2.309,2.309,0,0,0,.352.742,1.779,1.779,0,0,0,.614.524,1.871,1.871,0,0,0,.895.2,1.851,1.851,0,0,0,.893-.2,1.775,1.775,0,0,0,.609-.524,2.265,2.265,0,0,0,.352-.742,3.179,3.179,0,0,0,0-1.685,2.253,2.253,0,0,0-.352-.737,1.8,1.8,0,0,0-.609-.527,1.886,1.886,0,0,0-.893-.2,1.906,1.906,0,0,0-.895.2,1.8,1.8,0,0,0-.614.527,2.3,2.3,0,0,0-.352.737,3.189,3.189,0,0,0,0,1.685Z" transform="translate(-773.165 -614.918)" fill="#b3b3b3"/>
        <path id="Trazado_2564" data-name="Trazado 2564" d="M823.211,615.194a2.291,2.291,0,0,1,.614.081,1.467,1.467,0,0,1,.505.247,1.2,1.2,0,0,1,.345.425,1.377,1.377,0,0,1,.127.614,1.468,1.468,0,0,1-.256.866,1.179,1.179,0,0,1-.764.471v.014a1.148,1.148,0,0,1,.427.136.853.853,0,0,1,.275.253,1.076,1.076,0,0,1,.155.357,2.721,2.721,0,0,1,.062.438c.005.086.008.194.015.322s.015.255.029.385a2.44,2.44,0,0,0,.068.366.677.677,0,0,0,.13.268h-.55a.6.6,0,0,1-.07-.178,1.783,1.783,0,0,1-.037-.22c-.006-.076-.013-.15-.017-.224s-.011-.137-.015-.19c-.01-.186-.025-.372-.048-.554a1.511,1.511,0,0,0-.139-.494.853.853,0,0,0-.309-.348.934.934,0,0,0-.553-.118h-1.9v2.326h-.5v-5.241Zm-.037,2.491a1.346,1.346,0,0,0,.433-.07,1.072,1.072,0,0,0,.36-.2.984.984,0,0,0,.245-.319.964.964,0,0,0,.093-.43,1.024,1.024,0,0,0-.28-.762,1.156,1.156,0,0,0-.851-.279h-1.865v2.064Z" transform="translate(-781.034 -615.069)" fill="#b3b3b3"/>
        <path id="Trazado_2565" data-name="Trazado 2565" d="M833.031,615.194v5.241h-.5v-5.241Z" transform="translate(-787.822 -615.069)" fill="#b3b3b3"/>
        <path id="Trazado_2566" data-name="Trazado 2566" d="M842.968,615.194l1.96,5.241h-1.2l-.4-1.165h-1.958l-.411,1.165H839.8l1.982-5.241Zm.067,3.215-.661-1.922h-.015l-.683,1.922Z" transform="translate(-792.033 -615.069)" fill="#b3b3b3"/>
        <path id="Trazado_2567" data-name="Trazado 2567" d="M854.681,615.194l1.226,3.606h.014l1.162-3.606h1.623v5.241h-1.08v-3.714h-.016l-1.284,3.714h-.888l-1.285-3.676h-.014v3.676h-1.08v-5.241Z" transform="translate(-799.71 -615.069)" fill="#b3b3b3"/>
        <path id="Trazado_2568" data-name="Trazado 2568" d="M872.8,615.194v.968h-2.768v1.124h2.539v.9h-2.539v1.284h2.826v.968h-3.978v-5.241Z" transform="translate(-808.873 -615.069)" fill="#b3b3b3"/>
        <path id="Trazado_2569" data-name="Trazado 2569" d="M883.01,615.194a1.687,1.687,0,0,1,.635.114,1.464,1.464,0,0,1,.485.312,1.345,1.345,0,0,1,.308.458,1.474,1.474,0,0,1,.107.563,1.56,1.56,0,0,1-.2.8,1.214,1.214,0,0,1-.635.514v.014a.892.892,0,0,1,.354.18.962.962,0,0,1,.226.287,1.317,1.317,0,0,1,.131.364,3.572,3.572,0,0,1,.053.4c0,.084.01.181.014.294s.015.226.027.344a2.243,2.243,0,0,0,.059.334.729.729,0,0,0,.122.268h-1.153a2.032,2.032,0,0,1-.117-.592c-.014-.23-.037-.452-.066-.663a1.045,1.045,0,0,0-.25-.6.857.857,0,0,0-.625-.191h-1.152v2.046h-1.152v-5.241Zm-.41,2.371a.877.877,0,0,0,.594-.175.729.729,0,0,0,.2-.572.7.7,0,0,0-.2-.555.877.877,0,0,0-.594-.173h-1.263v1.475Z" transform="translate(-815.419 -615.069)" fill="#b3b3b3"/>
        <path id="Trazado_2570" data-name="Trazado 2570" d="M893.929,615.194v5.241h-1.154v-5.241Z" transform="translate(-822.71 -615.069)" fill="#b3b3b3"/>
        <path id="Trazado_2571" data-name="Trazado 2571" d="M900.97,616.421a1.136,1.136,0,0,0-.257-.29,1.2,1.2,0,0,0-.348-.194,1.174,1.174,0,0,0-.407-.07,1.339,1.339,0,0,0-.661.151,1.236,1.236,0,0,0-.441.4,1.717,1.717,0,0,0-.245.577,2.8,2.8,0,0,0-.078.668,2.6,2.6,0,0,0,.078.641,1.686,1.686,0,0,0,.245.563,1.256,1.256,0,0,0,.441.4,1.338,1.338,0,0,0,.661.151,1.069,1.069,0,0,0,.826-.322,1.5,1.5,0,0,0,.362-.852h1.117a2.682,2.682,0,0,1-.228.888,2.1,2.1,0,0,1-.483.676,2.077,2.077,0,0,1-.706.425,2.577,2.577,0,0,1-.888.146,2.645,2.645,0,0,1-1.083-.21,2.3,2.3,0,0,1-.812-.575,2.551,2.551,0,0,1-.507-.863,3.15,3.15,0,0,1-.176-1.067,3.245,3.245,0,0,1,.176-1.09,2.632,2.632,0,0,1,.507-.877,2.3,2.3,0,0,1,.812-.587,2.8,2.8,0,0,1,1.9-.089,2.241,2.241,0,0,1,.69.364,1.949,1.949,0,0,1,.5.592,2.1,2.1,0,0,1,.25.807H901.1A.948.948,0,0,0,900.97,616.421Z" transform="translate(-825.377 -614.897)" fill="#b3b3b3"/>
        <path id="Trazado_2572" data-name="Trazado 2572" d="M912.7,615.194l1.96,5.241h-1.2l-.4-1.165h-1.961l-.411,1.165h-1.16l1.981-5.241Zm.067,3.215-.662-1.922h-.014l-.683,1.922Z" transform="translate(-832.418 -615.069)" fill="#b3b3b3"/>
        <path id="Trazado_2573" data-name="Trazado 2573" d="M923.943,615.194l2.187,3.517h.014v-3.517h1.079v5.241h-1.152l-2.181-3.507h-.014v3.507H922.8v-5.241Z" transform="translate(-840.097 -615.069)" fill="#b3b3b3"/>
        <path id="Trazado_2574" data-name="Trazado 2574" d="M942.937,615.738a1.484,1.484,0,0,0-.892-.253,2.158,2.158,0,0,0-.433.044,1.166,1.166,0,0,0-.377.146.773.773,0,0,0-.264.275.849.849,0,0,0-.1.429.548.548,0,0,0,.143.393,1.038,1.038,0,0,0,.381.245,3.147,3.147,0,0,0,.54.159q.3.062.614.136c.208.05.412.107.614.173a1.989,1.989,0,0,1,.538.268,1.277,1.277,0,0,1,.382.426,1.5,1.5,0,0,1-.044,1.36,1.511,1.511,0,0,1-.482.485,2.008,2.008,0,0,1-.656.271,3.092,3.092,0,0,1-.724.085,3.055,3.055,0,0,1-.833-.109,2.1,2.1,0,0,1-.691-.334,1.587,1.587,0,0,1-.469-.573,1.837,1.837,0,0,1-.173-.826h.661a1.18,1.18,0,0,0,.128.569,1.16,1.16,0,0,0,.338.392,1.38,1.38,0,0,0,.489.229,2.249,2.249,0,0,0,.572.073,2.583,2.583,0,0,0,.474-.044,1.353,1.353,0,0,0,.429-.152.84.84,0,0,0,.309-.288.859.859,0,0,0,.118-.471.656.656,0,0,0-.144-.439,1.028,1.028,0,0,0-.381-.275,2.78,2.78,0,0,0-.542-.173l-.612-.135c-.207-.047-.412-.1-.613-.161a2.277,2.277,0,0,1-.54-.242,1.167,1.167,0,0,1-.382-.39,1.15,1.15,0,0,1-.143-.6,1.388,1.388,0,0,1,.161-.686,1.42,1.42,0,0,1,.43-.477,1.926,1.926,0,0,1,.609-.279,2.666,2.666,0,0,1,.7-.093,2.716,2.716,0,0,1,.75.1,1.7,1.7,0,0,1,.606.3,1.459,1.459,0,0,1,.41.519,1.848,1.848,0,0,1,.165.745h-.66A1.1,1.1,0,0,0,942.937,615.738Z" transform="translate(-850.065 -614.897)" fill="#b3b3b3"/>
        <path id="Trazado_2575" data-name="Trazado 2575" d="M954.844,615.764a1.623,1.623,0,0,0-.952-.278,1.694,1.694,0,0,0-.8.176,1.584,1.584,0,0,0-.551.474,2.026,2.026,0,0,0-.32.68,2.991,2.991,0,0,0-.1.792,3.351,3.351,0,0,0,.1.848,2.006,2.006,0,0,0,.32.7,1.593,1.593,0,0,0,.554.474,1.725,1.725,0,0,0,.807.176,1.578,1.578,0,0,0,.613-.114,1.383,1.383,0,0,0,.463-.317,1.448,1.448,0,0,0,.3-.48,2.007,2.007,0,0,0,.132-.6h.7a2.385,2.385,0,0,1-.682,1.542,2.211,2.211,0,0,1-1.586.55,2.5,2.5,0,0,1-1.065-.21,2.088,2.088,0,0,1-.755-.575,2.482,2.482,0,0,1-.451-.867,3.708,3.708,0,0,1-.15-1.071,3.519,3.519,0,0,1,.161-1.077,2.606,2.606,0,0,1,.475-.877,2.227,2.227,0,0,1,.777-.59,2.53,2.53,0,0,1,1.068-.217,2.683,2.683,0,0,1,.777.111,2.048,2.048,0,0,1,.655.324,1.829,1.829,0,0,1,.478.531,1.958,1.958,0,0,1,.248.737h-.7A1.31,1.31,0,0,0,954.844,615.764Z" transform="translate(-856.672 -614.897)" fill="#b3b3b3"/>
        <path id="Trazado_2576" data-name="Trazado 2576" d="M965.321,615.194v2.254h2.76v-2.254h.7v5.241h-.7v-2.4h-2.76v2.4h-.7v-5.241Z" transform="translate(-864.319 -615.069)" fill="#b3b3b3"/>
        <path id="Trazado_2577" data-name="Trazado 2577" d="M976.676,616.612a2.6,2.6,0,0,1,.473-.876,2.285,2.285,0,0,1,.786-.611,2.735,2.735,0,0,1,2.187,0,2.282,2.282,0,0,1,.785.611,2.615,2.615,0,0,1,.474.876,3.449,3.449,0,0,1,0,2.063,2.594,2.594,0,0,1-.474.877,2.236,2.236,0,0,1-.785.606,2.787,2.787,0,0,1-2.187,0,2.239,2.239,0,0,1-.786-.606,2.579,2.579,0,0,1-.473-.877,3.441,3.441,0,0,1,0-2.063Zm.642,1.814a2.1,2.1,0,0,0,.324.694,1.66,1.66,0,0,0,.565.495,1.893,1.893,0,0,0,1.644,0,1.665,1.665,0,0,0,.565-.495,2.1,2.1,0,0,0,.323-.694,3.016,3.016,0,0,0,0-1.564,2.088,2.088,0,0,0-.323-.694,1.652,1.652,0,0,0-.565-.5,1.909,1.909,0,0,0-1.644,0,1.648,1.648,0,0,0-.565.5,2.081,2.081,0,0,0-.324.694,3.027,3.027,0,0,0,0,1.564Z" transform="translate(-871.207 -614.897)" fill="#b3b3b3"/>
        <path id="Trazado_2578" data-name="Trazado 2578" d="M989.932,616.612a2.61,2.61,0,0,1,.474-.876,2.279,2.279,0,0,1,.786-.611,2.737,2.737,0,0,1,2.188,0,2.285,2.285,0,0,1,.784.611,2.612,2.612,0,0,1,.475.876,3.477,3.477,0,0,1,0,2.063,2.591,2.591,0,0,1-.475.877,2.239,2.239,0,0,1-.784.606,2.789,2.789,0,0,1-2.188,0,2.234,2.234,0,0,1-.786-.606,2.59,2.59,0,0,1-.474-.877,3.469,3.469,0,0,1,0-2.063Zm.642,1.814a2.127,2.127,0,0,0,.323.694,1.719,1.719,0,0,0,2.775,0,2.111,2.111,0,0,0,.324-.694,3.013,3.013,0,0,0,0-1.564,2.1,2.1,0,0,0-.324-.694,1.648,1.648,0,0,0-.566-.5,1.907,1.907,0,0,0-1.643,0,1.658,1.658,0,0,0-.566.5,2.113,2.113,0,0,0-.323.694,3.028,3.028,0,0,0,0,1.564Z" transform="translate(-878.884 -614.897)" fill="#b3b3b3"/>
        <path id="Trazado_2579" data-name="Trazado 2579" d="M1004.425,615.194v4.655h2.775v.585h-3.473v-5.241Z" transform="translate(-886.964 -615.069)" fill="#b3b3b3"/>
      </g>
      <rect id="Rectángulo_55" data-name="Rectángulo 55" width="28.313" height="0.467" transform="translate(772.808 547.488)" fill="#b3b3b3"/>
      <path id="Trazado_2580" data-name="Trazado 2580" d="M876.724,509.56l3.511,6.082,3.512,6.083H869.7l3.511-6.083Z" transform="translate(-83.042 -16.661)" fill="#838383"/>
      <path id="Trazado_2581" data-name="Trazado 2581" d="M810.156,567.261l3.511,6.083,3.513,6.082H803.131l3.513-6.082Z" transform="translate(-44.491 -50.076)" fill="#868686"/>
    </g>
  </g>
</svg>
