<svg xmlns="http://www.w3.org/2000/svg" viewBox="0 0 109.2 23.27"><defs><style>.cls-1{fill:#b3b3b3;}</style></defs><title>myst</title><g id="Layer_2" data-name="Layer 2"><g id="Capa_1" data-name="Capa 1"><path class="cls-1" d="M73.88,19.09h0Z"/><path class="cls-1" d="M81.44,19.92"/><path class="cls-1" d="M74.86,18.8h0Z"/><polyline class="cls-1" points="0 12.71 0 11.28 20.79 11.28 22 13 0 13 0 13"/><polygon class="cls-1" points="12.17 23.11 18 23.11 21.69 13.77 19.78 13.77 16.81 21.16 14.86 21.16 17.79 13.77 15.86 13.77 12.17 23.11"/><polygon class="cls-1" points="37.49 0.45 29.29 17.54 21.12 0.45 16.16 13 18.1 13 21.28 4.96 29.29 21.62 37.32 4.96 40.51 13 42.44 13 37.49 0.45"/><polygon class="cls-1" points="46.43 23.11 42.74 13.77 40.81 13.77 43.74 21.16 41.8 21.16 38.85 13.77 36.92 13.77 40.6 23.11 46.43 23.11"/><polygon class="cls-1" points="101.02 8.62 101.02 3.63 83.25 3.63 83.25 5.35 99.08 5.35 99.08 6.96 90.92 6.96 90.92 13.11 92.78 13.11 92.78 8.72 101.02 8.62"/><polygon class="cls-1" points="90.92 21.39 89.04 21.39 89.04 13.96 87.13 13.96 87.13 21.39 87.13 23.11 92.78 23.11 92.78 13.96 90.92 13.96 90.92 21.39"/><polyline class="cls-1" points="109.16 13.11 87.13 13.11 87.67 11.39 109.2 11.39"/><polygon class="cls-1" points="37.86 11.28 36.62 13 51.03 13 51.65 13 50.35 11.28 37.86 11.28"/><polygon class="cls-1" points="58.79 3.68 58.8 3.71 58.77 3.71 55.64 8.17 52.63 3.71 51.28 3.71 50.09 3.71 47.86 3.71 45.86 3.71 45.69 3.71 52.65 13 52.84 10.41 49.26 5.4 51.56 5.4 55.66 10.7 59.81 5.37 61.94 5.37 62.7 5.37 47.29 23.11 49.7 23.11 66.43 3.68 58.79 3.68"/><path class="cls-1" d="M75.61,23.27H67v-5.5h8.71a2.42,2.42,0,0,0,1.54-.57,2,2,0,0,0,.52-1.52,2.14,2.14,0,0,0-.52-1.58A2,2,0,0,0,76,13.6h-.56a4.87,4.87,0,0,1-3.72-1.38,4.38,4.38,0,0,1-1.12-3.06V8.29a4.31,4.31,0,0,1,1.23-3.21C73.39,3.53,76,3.58,77.11,3.6h2.63V1.93H74.11a5.43,5.43,0,0,0-3.89,1.34A3.42,3.42,0,0,0,69.1,5.62H67.17a5.36,5.36,0,0,1,1.72-3.75A7.32,7.32,0,0,1,74.11,0h7.55V5.53h-4.6c-.87,0-2.9-.06-3.91.93a2.44,2.44,0,0,0-.65,1.84v1a2.52,2.52,0,0,0,.61,1.66,3.07,3.07,0,0,0,2.3.76h.52a3.71,3.71,0,0,1,3.81,4,3.88,3.88,0,0,1-1.11,2.91,4.3,4.3,0,0,1-2.92,1.11H69v1.64h6.61a7.5,7.5,0,0,0,4.79-1.77,5.45,5.45,0,0,0,1.49-4.05A5.32,5.32,0,0,0,77.7,10L78,8.15a7.57,7.57,0,0,1,2.88,1.31,7.17,7.17,0,0,1,2.87,6.06A7.3,7.3,0,0,1,81.71,21,9.31,9.31,0,0,1,75.61,23.27Z"/></g></g></svg>