<svg xmlns="http://www.w3.org/2000/svg" viewBox="0 0 266.99 103.49"><defs><style>.cls-1{isolation:isolate;}.cls-2,.cls-3,.cls-4{fill:#b3b3b3;}.cls-3,.cls-4{mix-blend-mode:multiply;}.cls-4{opacity:0.8;}</style></defs><title>Mesa de trabajo 22</title><g class="cls-1"><g id="Capa_1" data-name="Capa 1"><path class="cls-2" d="M174.56,66.11h0Z"/><path class="cls-2" d="M176.72,65.46h0Z"/><polygon class="cls-2" points="203.77 74.97 203.77 71.17 203.77 52.92 207.99 52.92 207.99 71.17 212.15 71.17 212.15 39.34 230.13 39.34 230.13 35.79 195.22 35.79 195.22 32 234.42 32 234.42 43.01 216.24 43.24 216.24 74.96 203.77 74.97"/><path class="cls-2" d="M58.55,34.94,44.39,70.68h4.29l8.78-21.8,2.67,3.79L51.33,75H38.46L58.19,25l18,37.67L94.29,25,114,75H101.15l-8.78-22.3,2.74-3.79,8.69,21.8h4.29L93.93,34.94,76.2,71.68Z"/><polyline class="cls-2" points="124.17 52.67 127.72 52.67 92.37 52.67 95.11 48.87 125.51 48.87 127.72 52.67"/><polyline class="cls-2" points="11.62 52.02 11.62 48.87 57.46 48.87 60.13 52.67 11.62 52.67 11.62 52.67"/><polygon class="cls-3" points="47.27 52.67 51.5 52.67 50.83 54.36 46.6 54.36 47.27 52.67"/><polygon class="cls-3" points="55.93 52.67 60.13 52.67 59.46 54.36 55.24 54.36 55.93 52.67"/><polygon class="cls-3" points="92.37 52.67 96.68 52.67 97.27 54.36 92.96 54.36 92.37 52.67"/><polygon class="cls-3" points="100.89 52.67 105.21 52.67 105.88 54.36 101.56 54.36 100.89 52.67"/><rect class="cls-3" x="203.77" y="52.92" width="4.22" height="1.86"/><polygon class="cls-3" points="212.11 52.92 216.26 52.92 216.22 54.78 212.11 54.78 212.11 52.92"/><polyline class="cls-2" points="252.37 52.92 203.77 52.92 204.97 49.12 252.45 49.12"/><polygon class="cls-4" points="125.51 48.87 127.5 52.54 125.35 52.67 122.83 48.87 125.51 48.87"/><polygon class="cls-2" points="141.27 32.12 141.3 32.18 141.24 32.18 134.32 42.01 127.7 32.18 124.72 32.18 122.09 32.18 117.16 32.18 112.76 32.18 112.39 32.18 127.72 52.67 128.15 46.95 120.25 35.91 125.34 35.91 134.37 47.6 143.52 35.85 148.22 35.85 149.9 35.85 115.9 74.97 121.22 74.97 158.13 32.12 141.27 32.12"/><path class="cls-2" d="M178.36,75.33H159.48V63.2h19.21a5.35,5.35,0,0,0,3.4-1.26,4.46,4.46,0,0,0,1.14-3.35,4.74,4.74,0,0,0-1.15-3.49A4.52,4.52,0,0,0,179.17,54h-1.23c-3.54,0-6.3-1-8.2-3a9.65,9.65,0,0,1-2.47-6.74V42.29A9.52,9.52,0,0,1,170,35.21c3.5-3.43,9.24-3.32,11.69-3.28h5.81V28.25H175.07c-4.52,0-7.16,1.61-8.58,3A7.53,7.53,0,0,0,164,36.41h-4.25a11.79,11.79,0,0,1,3.8-8.27c2-1.89,5.59-4.14,11.52-4.14h16.66V36.19H181.59c-1.92,0-6.4-.12-8.62,2.06a5.37,5.37,0,0,0-1.44,4v2.1a5.54,5.54,0,0,0,1.35,3.67c1.06,1.11,2.77,1.68,5.07,1.68h1.14a8.18,8.18,0,0,1,8.39,8.86A8.57,8.57,0,0,1,185,65a9.48,9.48,0,0,1-6.43,2.44H163.73v3.61h14.58c.06,0,6.55.06,10.57-3.89,2.18-2.14,3.28-5.15,3.28-8.94,0-10.21-8.81-12-9.18-12.09l.77-4.18a16.77,16.77,0,0,1,6.34,2.9c2.88,2.13,6.32,6.19,6.32,13.37,0,5-1.54,9-4.58,12C186.84,75.13,179.53,75.33,178.36,75.33Z"/></g></g></svg>