<svg xmlns="http://www.w3.org/2000/svg" viewBox="0 0 300 75.75"><defs><style>.cls-1{isolation:isolate;}.cls-2,.cls-3,.cls-4{fill:#b3b3b3;}.cls-3,.cls-4{mix-blend-mode:multiply;}.cls-4{opacity:0.8;}</style></defs><title>Mesa de trabajo 1 copia 3</title><g class="cls-1"><g id="Capa_1" data-name="Capa 1"><path class="cls-2" d="M200.85,57.53h0Z"/><path class="cls-2" d="M203.43,56.76h0Z"/><polygon class="cls-2" points="235.78 68.13 235.78 63.6 235.78 41.77 240.82 41.77 240.82 63.6 245.8 63.6 245.8 25.53 267.3 25.53 267.3 21.29 225.55 21.29 225.55 16.75 272.42 16.75 272.42 29.92 250.69 30.2 250.69 68.13 235.78 68.13"/><path class="cls-2" d="M62.13,20.26,45.21,63h5.13l10.5-26.07L64,41.47,53.5,68.13H38.11L61.7,8.38l21.54,45,21.63-45,23.59,59.75H113.08l-10.5-26.67,3.27-4.54L116.24,63h5.13L104.44,20.26,83.24,64.2Z"/><polyline class="cls-2" points="140.6 41.47 144.85 41.47 102.58 41.47 105.85 36.93 142.2 36.93 144.85 41.47"/><polyline class="cls-2" points="6.02 40.7 6.02 36.93 60.83 36.93 64.02 41.47 6.02 41.47 6.02 41.47"/><polygon class="cls-3" points="48.64 41.47 53.71 41.47 52.91 43.49 47.84 43.49 48.64 41.47"/><polygon class="cls-3" points="59 41.47 64.02 41.47 63.23 43.49 58.18 43.49 59 41.47"/><polygon class="cls-3" points="102.58 41.47 107.73 41.47 108.43 43.49 103.28 43.49 102.58 41.47"/><polygon class="cls-3" points="112.76 41.47 117.93 41.47 118.73 43.49 113.56 43.49 112.76 41.47"/><rect class="cls-3" x="235.78" y="41.77" width="5.04" height="2.23"/><polygon class="cls-3" points="245.75 41.77 250.72 41.77 250.67 43.99 245.75 43.99 245.75 41.77"/><polyline class="cls-2" points="293.89 41.77 235.78 41.77 237.21 37.23 293.98 37.23"/><polygon class="cls-4" points="142.2 36.93 144.58 41.32 142.01 41.47 139 36.93 142.2 36.93"/><polygon class="cls-2" points="161.05 16.89 161.08 16.97 161.01 16.97 152.74 28.73 144.82 16.97 141.26 16.97 138.11 16.97 132.22 16.97 126.95 16.97 126.51 16.97 144.85 41.47 145.35 34.63 135.92 21.43 142 21.43 152.79 35.41 163.74 21.36 169.35 21.36 171.37 21.36 130.71 68.13 137.07 68.13 181.21 16.89 161.05 16.89"/><path class="cls-2" d="M205.4,68.56H182.82V54.06h23a6.4,6.4,0,0,0,4.07-1.51,5.34,5.34,0,0,0,1.36-4,5.66,5.66,0,0,0-1.38-4.18A5.4,5.4,0,0,0,206.37,43H204.9c-4.24,0-7.53-1.23-9.8-3.65a11.54,11.54,0,0,1-3-8.06V29.06a11.38,11.38,0,0,1,3.24-8.47c4.18-4.1,11-4,14-3.92h6.94V12.27H201.47c-5.4,0-8.56,1.93-10.26,3.55a9,9,0,0,0-3,6.2h-5.09a14.1,14.1,0,0,1,4.54-9.89c2.37-2.26,6.69-4.95,13.77-4.95h19.92V21.77H209.26c-2.29,0-7.66-.15-10.31,2.46a6.42,6.42,0,0,0-1.72,4.84v2.51A6.63,6.63,0,0,0,198.84,36c1.27,1.33,3.31,2,6.06,2h1.37a9.78,9.78,0,0,1,10,10.6,10.25,10.25,0,0,1-2.94,7.68,11.33,11.33,0,0,1-7.69,2.92H187.9v4.32h17.43c.07,0,7.83.07,12.64-4.65,2.6-2.56,3.92-6.16,3.92-10.69,0-12.2-10.53-14.37-11-14.45l.92-5a20.06,20.06,0,0,1,7.58,3.47c3.45,2.55,7.56,7.4,7.56,16,0,6-1.84,10.79-5.48,14.35C215.53,68.32,206.79,68.56,205.4,68.56Z"/></g></g></svg>