<svg xmlns="http://www.w3.org/2000/svg" viewBox="0 0 103.83 30.5"><defs><style>.cls-1{fill:#b3b3b3;fill-rule:evenodd;}</style></defs><title>nationalgeo</title><g id="Layer_2" data-name="Layer 2"><g id="Capa_1" data-name="Capa 1"><path class="cls-1" d="M0,0H21.29V30.5H0V0ZM3.07,27.43H18.21V3.07H3.07V27.43Z"/><path class="cls-1" d="M35.43,13.69H34.11C32.38,11.24,30.67,8.81,29,6.07h0v7.62H27.49V3.07H28.8c1.73,2.43,3.44,4.84,5.14,7.57h0V3.07h1.46V13.69Z"/><path class="cls-1" d="M38.89,9.48c.42-1.4.85-2.69,1.23-4.32h0c.42,1.64.8,2.93,1.2,4.32Zm.7-6.42L35.92,13.69H37.5l.92-2.9h3.2l.83,2.9h2L41.11,3.07Z"/><polygon class="cls-1" points="46.2 13.69 46.2 4.49 43.41 4.49 43.41 3.07 50.81 3.07 50.81 4.49 48.02 4.49 48.02 13.69 46.2 13.69 46.2 13.69"/><polygon class="cls-1" points="51.4 3.07 53.21 3.07 53.21 13.69 51.4 13.69 51.4 3.07 51.4 3.07"/><path class="cls-1" d="M58.82,12.35c-1.9,0-2.57-2.09-2.57-4.13S57,4.4,58.82,4.4s2.56,1.87,2.56,3.82-.67,4.13-2.56,4.13Zm0,1.52c2.78,0,4.5-2.47,4.5-5.64,0-3-1.91-5.34-4.5-5.34s-4.51,2.37-4.51,5.34c0,3.17,1.73,5.64,4.51,5.64Z"/><path class="cls-1" d="M72.38,13.69H71.06c-1.73-2.44-3.45-4.87-5.16-7.62h0v7.62H64.44V3.07h1.32c1.73,2.43,3.44,4.84,5.14,7.57h0V3.07h1.46V13.69Z"/><path class="cls-1" d="M75.84,9.48c.43-1.4.85-2.69,1.23-4.32h0c.42,1.64.8,2.93,1.2,4.32Zm.7-6.42L72.87,13.69h1.58l.92-2.9h3.2l.84,2.9h2L78.06,3.07Z"/><polygon class="cls-1" points="81.97 3.07 83.78 3.07 83.78 12.26 87.37 12.26 87.37 13.69 81.97 13.69 81.97 3.07 81.97 3.07"/><path class="cls-1" d="M34.31,22.57V27a8.36,8.36,0,0,1-3,.65c-3.13,0-5.1-2.43-5.1-5.55a5.15,5.15,0,0,1,5.16-5.43,4.55,4.55,0,0,1,2.58.82l-.59,1.26a4,4,0,0,0-1.94-.56c-1.94,0-3.26,1.53-3.26,3.94s1.52,4,3.08,4a2.66,2.66,0,0,0,1.28-.26V22.57Z"/><polygon class="cls-1" points="40.82 18.23 37.79 18.23 37.79 21.14 40.76 21.14 40.76 22.57 37.79 22.57 37.79 25.99 41.37 25.99 41.37 27.42 35.96 27.42 35.96 16.8 40.82 16.8 40.82 18.23 40.82 18.23"/><path class="cls-1" d="M46.43,26.09c-1.9,0-2.57-2.09-2.57-4.13s.76-3.82,2.57-3.82S49,20,49,22s-.67,4.13-2.56,4.13Zm0,1.52c2.77,0,4.5-2.47,4.5-5.64,0-3-1.91-5.34-4.5-5.34S41.93,19,41.93,22c0,3.17,1.73,5.64,4.51,5.64Z"/><path class="cls-1" d="M59.67,22.57V27a8.36,8.36,0,0,1-3,.65c-3.12,0-5.1-2.43-5.1-5.55a5.15,5.15,0,0,1,5.16-5.43,4.54,4.54,0,0,1,2.58.82L58.7,18.7a4,4,0,0,0-1.94-.56c-1.94,0-3.26,1.53-3.26,3.94s1.52,4,3.08,4a2.65,2.65,0,0,0,1.28-.26V22.57Z"/><path class="cls-1" d="M63.17,18.23H64a1.54,1.54,0,0,1,1.68,1.71,1.87,1.87,0,0,1-1.73,2.11l-.76,0V18.23Zm4.61,9.19L65.63,23a3.58,3.58,0,0,0,1.84-3.16c0-2.06-1.26-3.06-3.3-3.06H61.34V27.42h1.82v-4H64l1.71,4Z"/><path class="cls-1" d="M70.78,23.22c.42-1.4.85-2.69,1.23-4.32h0c.42,1.64.8,2.93,1.2,4.32Zm.7-6.42L67.8,27.42h1.58l.93-2.9h3.2l.83,2.9h2L73,16.8Z"/><path class="cls-1" d="M79.79,16.8H77V27.42h1.82v-4h.82a3.47,3.47,0,0,0,3.49-3.55c0-2.06-1.26-3.06-3.29-3.06Zm-.26,5.25-.76,0V18.23h.82a1.54,1.54,0,0,1,1.67,1.71,1.87,1.87,0,0,1-1.73,2.11Z"/><polygon class="cls-1" points="91.51 27.42 89.69 27.42 89.69 22.31 85.91 22.31 85.91 27.42 84.11 27.42 84.11 16.8 85.91 16.8 85.91 20.88 89.69 20.88 89.69 16.83 91.51 16.83 91.51 27.42 91.51 27.42"/><polygon class="cls-1" points="93.25 16.8 95.06 16.8 95.06 27.42 93.25 27.42 93.25 16.8 93.25 16.8"/><path class="cls-1" d="M103.25,18.73a3.81,3.81,0,0,0-1.87-.59c-1.85,0-3.2,1.53-3.2,3.94s1.49,4,3.25,4a3.43,3.43,0,0,0,1.82-.53l.5,1.32a4.63,4.63,0,0,1-2.4.73c-3.13,0-5.1-2.43-5.1-5.55a5.13,5.13,0,0,1,5.13-5.43,4.5,4.5,0,0,1,2.45.82l-.58,1.29Z"/></g></g></svg>