<svg id="Capa_1" data-name="Capa 1" xmlns="http://www.w3.org/2000/svg" viewBox="0 0 300 121.75"><defs><style>.cls-1,.cls-2{fill:#b3b3b3;}.cls-1{fill-rule:evenodd;}</style></defs><title>Mesa de trabajo 1 copia 4</title><path class="cls-1" d="M126.64,116.18c-5,0-9.38-2.39-9.36-7.3,0-6.69,7.21-6.66,11.83-6.64,3.77,0,10,.61,10,5.8,0,6.34-8.14,8.16-12.48,8.14m-6.77-36.55c0-3.77,2-8.11,6.29-8.09,5,0,7.31,5,7.29,9.35s-2.09,8.33-6.93,8.31-6.67-5.44-6.66-9.57m14.8,18c-2.84,0-6.33-.1-9.81-.11-4.7,0-5-2.23-5-3.3,0-1.71.79-2.63,2.15-3.62A21.37,21.37,0,0,0,126,91c8.82,0,13.18-5.72,13.2-10.92a8.73,8.73,0,0,0-1.83-5.42l7,.31V71.61a23.88,23.88,0,0,1-4.13.34,22.64,22.64,0,0,1-6.9-1.24,24,24,0,0,0-6.26-1c-8.76,0-13.32,4.72-13.34,10.92,0,4.69,2.67,7.41,6.65,9.49-1,.92-3.92,2.33-5.92,3.53a6.13,6.13,0,0,0-.29,2.28c0,3.28,3.25,5.36,6.24,6.21v.15c-4.35.84-8.34,3.6-8.36,8.15,0,3.84,4.37,8,13.41,8,15.15.06,18.9-10.82,18.91-13.6,0-5.34-3.6-7.2-9.73-7.23"/><path class="cls-1" d="M43.59,101.12c-7.47,0-10.56-9.73-10.54-15.56,0-6.12,2.83-14.37,9.87-14.34,7.54,0,10.63,9.72,10.61,15.56,0,6.12-2.83,14.37-9.94,14.34m-.74-31.76c-9.52,0-16.31,7.7-16.35,16.88,0,10.11,7.69,16.69,17.15,16.72,9.11,0,16.4-7.69,16.43-16.88,0-10.11-7.34-16.69-17.23-16.73"/><path class="cls-1" d="M85.05,69.52c-4.34,0-7.35,4.53-9.13,7.3h-.14l0-6.4c0-.71-.21-.93-.64-.93-.64,0-3.49,1.84-8.7,4v1.07c1.07.58,3.7,1,3.69,3.22l-.07,20c0,2.35-1.43,2.35-3.43,2.34H64.74V102c2.56-.06,5.54-.13,8.46-.11s6.05.1,10,.19v-1.85l-4,0c-2,0-3.41,0-3.4-2.36l.06-16.73A6,6,0,0,1,81,75.21c2.49,0,2.48,1.72,4.69,1.73a3.46,3.46,0,0,0,3.36-3.62,3.89,3.89,0,0,0-4-3.79"/><path class="cls-1" d="M162.67,72.1c4,0,6.18,2.95,6.16,6.58,0,.85-.23,1.78-2,1.77l-12.38,0c.88-5.13,3.88-8.32,8.22-8.3m2,27.07c-5.69,0-10-5.6-10.41-12.36a18.53,18.53,0,0,1,0-4.12l20,.08.64-.43a7.32,7.32,0,0,0,.08-1.28c0-7.55-6.22-11.21-12-11.23-5,0-14.39,4.08-14.44,18,0,4.56,2.22,15.52,13.53,15.57,5.84,0,9.9-3.66,13.2-8l-1-1c-2.64,2.62-5.71,4.75-9.62,4.73"/><path class="cls-1" d="M210.44,98.34,210.52,80c0-5.56-2.1-10-8.14-10-4.77,0-8.26,2.39-12.33,5.29l0-4.62c0-.57-.21-.72-.42-.72a95.67,95.67,0,0,1-9.4,3.39v1.35c3.34,1.36,4.12,2.08,4.11,4.72l-.07,18.86c0,2.35-1.43,2.35-3.43,2.34h-1.28v1.85c2.56-.06,5.12-.12,7.68-.11s5.05.16,7.54.17v-1.85H193.5c-2,0-3.55,0-3.54-2.37L190,77.19c2.36-1.56,6-3.39,8.26-3.39,4.06,0,6.54,2,6.53,6.08l-.07,18.43c0,2.35-1.43,2.35-3.42,2.34H200v1.85c2.56-.06,5.12-.12,7.69-.11s5,.16,7.54.17v-1.85H214c-2,0-3.56,0-3.55-2.37"/><path class="cls-1" d="M233.81,72.37c4,0,6.18,2.95,6.17,6.57,0,.86-.22,1.78-2,1.77l-12.38,0c.87-5.13,3.87-8.32,8.21-8.3m2,27.07c-5.69,0-10-5.6-10.41-12.36a18,18,0,0,1,0-4.12l20,.07.64-.43a7.12,7.12,0,0,0,.08-1.28c0-7.55-6.22-11.21-12-11.23-5,0-14.39,4.08-14.44,18,0,4.56,2.22,15.53,13.53,15.57,5.84,0,9.9-3.66,13.19-8l-1-1c-2.64,2.62-5.71,4.75-9.62,4.73"/><path class="cls-1" d="M257.05,77.17c0-3.07,2.72-4.7,5.58-4.68,4.55,0,7,2.59,7.72,7.07H272l-.47-7.26a18.65,18.65,0,0,0-8.11-2.1c-7.82,0-11,5.09-11.05,9.07,0,11.46,15.47,8.82,15.44,17.22,0,2.49-1.58,5-5.79,5-5.19,0-8-4-8.92-8.72l-1.28.35.75,8.19a18.73,18.73,0,0,0,8.67,2.45c8.47,0,12.26-4.93,12.27-9.63,0-11.17-16.48-8.68-16.44-17"/><path class="cls-1" d="M116.92,4.13c-.63-.63-5.2,4.54-1.29,9.87,4.06-3.53,3.95-7.08,1.29-9.87"/><path class="cls-1" d="M117.51,18.83c4.06-.87,5.71-2.9,5.72-8.09-1.39,0-6.33.62-5.72,8.09"/><path class="cls-1" d="M135,12.79a5.13,5.13,0,0,0-1.76-4.18c-2.16,1.64-2.79,3-2.79,5.06a9.39,9.39,0,0,0,1.38,4.81c2.41-2.4,3.18-3.79,3.18-5.69"/><path class="cls-1" d="M160,32.74c-4.69.36-6.47,5.43-5.46,8.09,7.1-1.63,5.84-8.09,5.46-8.09"/><path class="cls-1" d="M134.22,22.54l2.15-.63c2,2.41,5.56,4.19,9.75.78-4.68-4.19-5.18-2.92-7.72-2.42a10.61,10.61,0,0,0,1.53-4.93c0-.76-.25-1-.76-1a2.74,2.74,0,0,0-1.52.63c-.76.38-1.27.76-1.52.89a5.61,5.61,0,0,0-2.29,4.3,11.33,11.33,0,0,0,.37,2.41"/><path class="cls-1" d="M148.34,43.22c2.16-1.89,5.2-4.54,1.42-9.74-4.57,3.66-2.93,6.83-1.42,9.74"/><path class="cls-1" d="M112.74,7h-.25c-1.4,0-6.72,2.77-5.21,8.22,7.09-1.63,6-6.7,5.46-8.22"/><path class="cls-1" d="M142.67,32.19c4.18-.75,5.7-2.65,5.72-7.59v-.25c-4-.39-7,4.67-5.72,7.84"/><path class="cls-1" d="M87.18,3.3c-3.56,2.91-3.44,6.07-1.42,10,3.55-3.41,4.44-6.45,1.42-10"/><path class="cls-1" d="M76.89,18.09c1-4.94-1.25-7.09-5.42-8.25-1.41,6.83,3.78,7.86,5.42,8.25"/><path class="cls-1" d="M68.27,21.49c1-6.72-3.39-7.87-5.42-8.38-1.15,6.71,2.77,7.73,5.42,8.38"/><path class="cls-1" d="M153.92,41.59c-1.41,4.55,1.37,7.47,5.42,8.37,1-6.58-3-7.48-5.42-8.37"/><path class="cls-1" d="M97.93,5h-.5c-1.9,0-4.19,4.93-1.16,9.62,6-5.18,1.67-9.62,1.67-9.62"/><path class="cls-1" d="M105.76,14c2-4.93-2.26-7.22-5.29-8.25-.52,3.42.1,7.09,5.29,8.25"/><path class="cls-1" d="M88,17c7.6-1.88,5.85-8.09,5.21-8.09-2.15,0-7,3.66-5.21,8.09"/><path class="cls-1" d="M83.61,12.54h-.5a13.53,13.53,0,0,0-2,1,7.18,7.18,0,0,0-2.92,2.52,4.67,4.67,0,0,0-.51,2.28v.13a17.83,17.83,0,0,0,.25,2.28c4.05-.88,6.08-2.89,5.71-8.22"/><path class="cls-1" d="M149.08,44.59c3.42-1.89,3.68-2.53,4.57-4a68.64,68.64,0,0,1-7.73,4c-3.55,1.64-5.58,2.39-12.42,4.27l.12-.25c2.92-1.52,3.55-2.78,3.82-6.46,4.18-.87,5.06-1.12,7.85-2.76V39l-4.68,1.38c4.68-2.52,4.57-5.94,3.95-8.09-4.95,1.63-6.09,4-5.47,8.21h.13a22.72,22.72,0,0,1-6.71.62c4.31-4.8,5.58-5.94,9.77-9L142,32l-2.28,1.13c-3.15-5.08-6.32-3.43-8.35-2.93l1.4-3.29c4.68,3.56,7.08,1.66,9.49.14-3.91-3.68-6.2-3-8.6-2l.51-1.39h-.13l-5.21,8.47c-.75-3.17-1.88-4.31-5.3-5.46.13-.5.13-.5.38-.76.39-.89,1.15-2.4,2.17-4.68l.89-1.77h.12c-1.66,7.59,2.51,8.36,3.4,8.87,2.55-6.19-1.13-7.85-3.14-9.25V18.7l1.9.64c1-7.22-3.52-7.86-5.17-8.37-.9,5.19,2.14,6.85,2.89,7.61L125,22c-3.92-2.92-5.18-2.92-8.35-1l-.49-6h-.25a62.59,62.59,0,0,1-2.06,14.18h-.25a6.51,6.51,0,0,0-3.67-2.29l1.53-2.79,2.79.77a8.2,8.2,0,0,0-1.13-5.32l.25-1.9h-.25l-.64,1.4a7.32,7.32,0,0,0-4.3-1.91c-.9,3.92,1.25,5.2,2.39,6.21-1.52,3-1.78,3.66-3.93,3.66L106,14.59h-.13l-.39,4h-.25c-1.25-2.79-3.4-4.57-5.43-4.57-.76,0-1.77.38-3.93,1.89l-.12-1h-.26l-.38,2-1,3,.37,2.28h.64a13.34,13.34,0,0,0-.9,3.41,17,17,0,0,0,.5,2.54l-2.53-3.17a7,7,0,0,0,.9-3.29,11.67,11.67,0,0,0-.12-1.9l-2.91,1-1.38-3.8-.39.38,1.13,4.06c-2.54,2.52-2.67,3.92-1.66,6.32a5.94,5.94,0,0,0,3.68-1.76l.75,1.4c-2.28,1-2.66,1.39-4.06,3.54H88l-.63-1.9-.25-1.4L87,26.32l-.75-3.93a27.84,27.84,0,0,1-.62-7.47h-.38A29.84,29.84,0,0,0,84.85,19c0,.88,0,2,.12,3.41-3.16-2.54-4.17-1.53-6.2-1.41.87,3.93,2.52,5.2,6.82,5.59L86.22,30l-3.54-1.66c-1,5.19,2.39,7.35,5,8.24l4.14,12.29a2.16,2.16,0,0,1-1.39.64c-.25,0-.64-.13-1.64-1-.13-.25-.63-.51-1.52-1.14-.5-.39-1.26-1.14-2.4-2v-.13a6.55,6.55,0,0,0,2.55-7.34l-2.91,1.26a37.82,37.82,0,0,0-3.26-9.89,47.36,47.36,0,0,0-5.17-9.64l-.38.25c5,10.27,5.42,11.16,6.42,15.34l.63,2.41A10.34,10.34,0,0,1,83.15,40a.45.45,0,0,1-.13.37,3.31,3.31,0,0,0-1,2.41,16.13,16.13,0,0,1-3.54-3.68c1.91-2,2.16-2.78,2.17-7-2.91.88-3.42,1.26-5.2,3.66h-.13l-2.27-3c3.29-1.39,4.57-3.28,4.57-7.08,0-.5,0-.5-.38-.76-3.79,1.13-5.07,2.52-5.71,5.94l-2.64-4.57c7.22-1.89,5.33-7,5.21-8.1-3.8,1.14-5.07,2.4-5.58,5.81h-.13c-2.39-3.42-5-3.94-8.6-2.42V22c-3.93,3.66-2.92,5.56-2.8,6.45l-.25.13c-1.51-2-2.4-2.54-4.8-2.55-1.14,0-1.77.25-1.78.88,0,2.54,2.65,4.44,6.7,5.09v.13c-2.41.88-2.91,1.38-4.06,3.28h-.13c-.75-1.78-.88-2-2.27-2.92-3.55,4.93-1.54,7.22-.9,8.61C44.43,37,44,37.11,41,37.74c.87,4,2.89,6,8.21,5.59l-.67-1.6,2.78,1.91.18.09c-4.25,1.24-5.26,4.18-4.79,8.33,6.19-1.18,6.45-5.23,6.21-7.54l1.13.65c.88.48,1.82.95,2.79,1.41-3.25,1.35-4,4.08-3.57,7.82,5.45-1,6.13-4.4,6-6.72,1.06.46,2.14.9,3.24,1.33-3.12,1.3-3.86,3.93-3.43,7.51,5.36-1,5.91-4.39,5.78-6.62,1.19.44,2.38.86,3.56,1.27C65.32,52.56,64.6,55.29,65,59c5.62-1,6.22-4.58,6.09-6.93,1.69.55,3.3,1.05,4.77,1.5-3.42,1.39-4.22,4.22-3.76,8.1,6-1.11,6.39-5,6.18-7.38l2.11.61a16.37,16.37,0,0,0,.11,1.85,10.35,10.35,0,0,0,2.9-1c1.8.85,8.52,6,9.57,6.73,2.64,2.26,4.3,5.57,4.44,16.21,0,1.09,0,20,0,20,0,2.43-1.48,2.43-3.54,2.43h-1.4V103c2.33-.06,4.6-.11,6.86-.11h1.13c.39,0,.68,0,.89,0,2.35,0,4.65.16,6.88.16v-1.92H107c-2.07,0-3.69,0-3.68-2.44,0,0,.06-24,.05-24,.39-8.33,5.24-13.73,12-17.7.57-.31,1.38-.77,1.4-.76,1-.54,2.13-1.06,3.28-1.58,0,4.81,1.37,6.59,6.31,7.62,0-4.94-1.25-6.59-5.55-7.74l5.95-1.76c.5,4.56,1.5,6.09,5.55,7.11.52-3.42.4-5.45-3.27-7.6V52l4.82-1.38.13.13c.24,4.56,1.76,6.2,6.31,7.24,0-4.69-1-6.34-4.66-7.61v-.13l5.95-2.14.13.13c.12,4.31,1.63,6.21,5.68,7.24,1.27-4.18-1.5-6.84-3.91-8v-.26l4.69-2c0,4.81,1.38,6.72,5.55,7.74,1-4.05,0-6.2-4.66-8.37M137.33,34.8v.26a32.06,32.06,0,0,0-8.12,7.83h-.13a8.88,8.88,0,0,0-1.51-4.18,27,27,0,0,0,3-1.64c.51-.38,1.77-1.39,3.67-2.65ZM130.76,31H131a8.75,8.75,0,0,0,2.4,2.78v.13a21.08,21.08,0,0,1-6.84,3.78h-.13ZM127,34.53,125,36.93l-1.52-.26-.13.25-.13,2-3.56,3.41c0-4.69.14-5.06,2.29-5.95L120.63,35c1.15-4.43,1-4.56,2.42-4.55h.25c1.14,2.41,1.63,2.92,3.66,4.06m-4.17-5.33v-.76h.26v.51Zm-6.44-6.6c1.14.89,2.77,2.92,7.72.91l-2.28,4.3c-1.14-.63-2.79-2.16-5.82-1.53l-.13-.13Zm-.9,6.33a.12.12,0,0,1,.13-.13,6.75,6.75,0,0,0,4.93,2.54L119.36,34c-2.4-.64-1.64-.64-5.06,0h-.12Zm-2,8A5.39,5.39,0,0,0,116.82,38h1.52l-.26,4.31H118c-1.26-2.92-2-3.55-4.93-4.44l.25-.89Zm-1,11.4-3.67,2.52-.25-.13,3.44-9.49h.25c1.26,2.41,1.77,2.79,4.29,4.07-.5.5-1,1-1.39,1a6.17,6.17,0,0,0-2.91-1ZM107.48,30.8l.13-.25A6.33,6.33,0,0,0,113,31.83l.13.13-2.55,7.72h-.38A10.74,10.74,0,0,1,108,33.59v-1l-.26-.12h-.25a4.77,4.77,0,0,1-.25-1.15.67.67,0,0,1,.25-.51m-.27,6.46h.13c.5,2.15,2.39,4.43,2.39,4.94a3.78,3.78,0,0,1-.51,1.65h-.12a8.54,8.54,0,0,0-3.41-4.44Zm-2.7,14.68a40.47,40.47,0,0,1-1.87-11.28l1.65-.5.25-.13.13.13c-1,3.41-.65,5.82,2.76,8l-1.28,3.16Zm-8.27-30C98.51,20.65,99,20,99.79,17.74h.13c1.38,3,1.89,3.55,5,4.7l.13-.12.12.12a43.11,43.11,0,0,0,1,10.39A8.19,8.19,0,0,0,102.53,36l.52-6.46,1.27.38c2.29-5.44-3.78-7.86-5.3-8.24-.64,4.18,1.13,6.08,3.27,7.6a36.63,36.63,0,0,0-1.17,10.51,40.7,40.7,0,0,0,.86,9.62L99.2,50.54a56.64,56.64,0,0,0,1.29-11.26,15.06,15.06,0,0,0-.37-3.93L99.25,30,99,26.61c0-.89-.88-2.16-2.77-3.81Zm-1.3,12.41a10.88,10.88,0,0,0,.51-3A2.61,2.61,0,0,1,95.71,30h.13a4.25,4.25,0,0,0,2.9,1.4c1,10.51-1.05,18.87-2.58,22.41l-3.91-9.51c7.09-2.38,5.33-7.2,5.21-8.34A7.66,7.66,0,0,0,94,37.49v-.25ZM90.62,40l-1.51-4.82c2-.88,3.8-1.76,4.32-5.56.5.63.76.89.75,1.27A15,15,0,0,1,90.74,40Zm.5,1.52s1-2.4.89-1a10.67,10.67,0,0,0-.14,3c.13.75-.75-2-.75-2M68.37,25.39h.13v.25h-.13ZM61,24l.12-.25c3.54,3.17,3.16,2,6.58,1.91.37,1,.88,1.78,1,2.28a29.74,29.74,0,0,0,3.4,5.71c1.9,2.29,2.65,3.3,2.65,4.07,0,.25-.13.76-.13,1.39a55,55,0,0,1-6.07-3.94c1.66-5.06-2.64-7.35-5.42-8.37v1.77c0,2.28.5,3.92,1.51,4.44l2.52,1.9,3,2.54,2.4,1.65-3.3,1.77A42.38,42.38,0,0,0,58.62,31.7C62.29,27.78,61.54,25.5,61,24M67,40.33h-4l.77-3.67h.13Zm-8.84-8.25.25-.13,4.42,3.81c-2.66,1-3.17,1.39-4.82,3.66l-2.15-.77c2-2.53,2.29-3.29,2.29-6.58M72.75,49.84l-2.28-.51c-9.62-2.56-12.39-3.45-19.34-7.27l1.39-2,2.66-.88,2.53,1c0,.89-.13,1.52-.13,1.9a4.91,4.91,0,0,0,.25,1.77c2.28-.37,2.66-.76,4.31-2.27l5.95.65h.25a6.52,6.52,0,0,0-.64,4.94h.25L71.11,46l1.76,3.55ZM77.81,51c1.14-1.14,3.17-2.78,2.3-7.22-3.67,1.26-4.56,1.89-5.45,4.67h-.26l-2.14-3.68a8.38,8.38,0,0,0,1.28-5.19,14.18,14.18,0,0,0,1.89,1c1.39.77,2.15,1.27,2.53,1.4a5.26,5.26,0,0,1,1.52.77l1.14,1,1,1A1.68,1.68,0,0,1,82,46.07h1l2.53,2v.27c-2.5.64-3.92,1.87-4.59,3.56Zm10,4.2-2.13-1.31a6.3,6.3,0,0,0,1-3.73c0-.34.09-.73.14-1.17l2.27,2A7,7,0,0,0,87.8,55.2M93,59h0c-1.47-1.14-3.23-2.65-3.22-2.7L92.1,54.7,93,53.57v-.13c1.14.51.87,1.1,2.37,4.63,0,0,0,0,0,0,.13.25.26.82,1.77,4.11L93,59m7.37,3.55s-.64-1.37-1.14-2.26h0c-.2-.5-1.47-3-1.47-3,3-1.14,3.68-1.89,4.57-5.31h.13c.37,2,1.13,3.8,1.13,4.31,0,.16-2.51,5-2.57,5.14h0c-.3.48-.61,1-.64,1.07m2.8.26,1.53-3.58h0l1.79-3.9a7,7,0,0,0,5.06.9v.13c-.56.36-3.4,2.14-3.87,2.45h0c-1.53,1.16-4.51,4-4.51,4m13.7-9.23-3.55,1.76c-1-1.77-1.26-2.28-2.78-3.3V52l2-1.52.38-.12a5.78,5.78,0,0,0,3.92,3.17Zm5.58-2.14-4.44,1.63-.13-.13c.51-2.53-.12-3.42-1.25-5.57l1.91-1.77h.25c.5,3.29,1.13,4.06,3.66,5.71Zm2.4-1.89h-.13c-.62-3-1.25-3.93-4-5.59l2.79-3,.13-.25c1.26,2.53,1.64,3,3.91,4.06Zm7-.24-4.94,1.25-.13-.12c2.68-6.58,3.31-8,6.35-7.71l.13.13a6.73,6.73,0,0,0-1.41,6.46"/><path class="cls-2" d="M92.57,62.21s3.17,1.68,4.13,7.33a60.19,60.19,0,0,1,.73,10.56V98.87a2.07,2.07,0,0,1-2.08,2.23H92.48V103l15.88,0v-1.92H105.8a2.25,2.25,0,0,1-2.49-2.44l0-18.95V74.27A19.23,19.23,0,0,1,106,65.53a26.24,26.24,0,0,1,6.61-6.82,39.17,39.17,0,0,1,7.44-4.06s7.74-2.55,9.95-3l8.76-2.54s4.42-1.74,5-2,5.61-2.68,5.61-2.68,3.26-1.85,3.91-3.36l.33-.54L147.38,44s-10.19,4.45-15.47,5.48l-5,1.15-.13-.12a43.09,43.09,0,0,1,2.33-5.31s1.29-3.29,4.14-2.27L139,41.83a16.62,16.62,0,0,0,6.31-2.45V39a35.67,35.67,0,0,1-12.79,2.12s.91-1.14,4.72-5a60.25,60.25,0,0,1,5.05-4L142,32s-4.39,2.87-5.39,3.63A28.77,28.77,0,0,0,129.18,43s-1.7,1.56-4.25,6.75a6.47,6.47,0,0,1-2.45,1.75s-7,2.51-9.12,4a40.65,40.65,0,0,0-10.17,7.27l3.3-7.45s-1.8-1.86-1.9-3c0,0-1.55-3.88-2-11.64a69.88,69.88,0,0,1,.4-11.15l-.81-.38s-1.41,3.5-1.16,13.25a71.72,71.72,0,0,0,2.6,13.9l-3.24,6.35-3.54-7.33a16.14,16.14,0,0,0,2.6-6.56,40.53,40.53,0,0,0-.17-18.2l-.59.7a68.76,68.76,0,0,1,.08,10.13s-.67,9-2.61,12.43c0,0-4.82-11.32-5.14-12.29l.81-1.61a17.23,17.23,0,0,0,3.3-6.4,12.31,12.31,0,0,0,.33-2.85l.27-.75s-1.07-1.51-1.61-2.32-2-2.54-2-2.54l-.75.86,2,3.56a2.13,2.13,0,0,1,.86,2.21,15.55,15.55,0,0,1-3.63,8.39l-1.6-5s-2.56-8.89-2.88-13.36A47.59,47.59,0,0,1,85.63,15l-.43-.05s-1.36,4.36,1,15.08c0,0,1,6.3,5.61,19l1.93,5.28,3.43,8.14S88,54.44,85.64,54.11a22.41,22.41,0,0,1-2.27,1.72s7.84,5.36,9.07,6.39"/><path class="cls-2" d="M48.56,41.8s8.87,5.73,14,7.25c0,0,17.49,5.81,17.81,5.86s-.16-.81.49-3l-3.23-.81s-2.74-1.62-3.49-2.92l-1.88-3.4S71.28,45.95,71,46s2,3.56,2,3.56l-.21.48s-4.95-1.68-9.09-2.61c0,0-5.49-1.85-7.53-2.82l-5-2.49-1.5-.81-2.31-1.95A15.77,15.77,0,0,1,48.56,41.8Z"/><polyline class="cls-2" points="55.14 39.12 57.77 40.2 57.99 39.56 55.68 38.53"/><path class="cls-2" d="M62.13,41.51l6.19.77s.65-1.18,1-1.34c0,0-6.07-6.8-9.73-8.53l-1.24-.75-.11.38,4.57,3.73,4.24,4.54H62.95Z"/><path class="cls-2" d="M68.07,35.54s8,5.84,10.16,6.6c0,0,3.66,1.84,3.71,3.78l1.08.22,2.64,2.05L89,50.94s1.13-1.29,1.51-1.23l-.38-.05L88,47.82l-3.17-2.48L81.95,43,78.46,39a8.85,8.85,0,0,1-3.77.15l-6.13-3.95Z"/><path class="cls-2" d="M68.15,26.44l.65-.16,2.63,4.58s3.65,4.75,3.92,5.07a15.38,15.38,0,0,0-.49,1.61l-4.51-6.63Z"/><path class="cls-2" d="M75.7,19.94s5.63,10,6.64,15.75l.9,4.42L84.6,39s-2.24-7.49-3.37-10c0,0-2.41-5.66-3.16-6.36l-2-3Z"/><polygon class="cls-2" points="88.26 17.47 88.62 17.11 90.03 20.83 89.3 21.51 88.26 17.47"/><path class="cls-2" d="M105.84,14.57a50.09,50.09,0,0,0,.4,18.26l1.25-.36-.32-1.13.41-.89s-.28-1.78,2.23-3.51l1.66-2.82s-.68-.65-.81-.73-1.5,3.51-3.32,3.59l-.81,0S106.2,14.69,105.84,14.57Z"/><polygon class="cls-2" points="113.06 19.67 113.38 17.69 113.1 17.69 112.45 19.15 113.06 19.67"/><path class="cls-2" d="M115.77,15a70.45,70.45,0,0,1-2,14.3s-2.81,10.37-3.34,10.41,0,.2,0,.2a19,19,0,0,1-2.21-4.25l-1,1.57,2.49,5-.57,1.61-1.67,4.32-1.3,3.11a14.45,14.45,0,0,1,2.79-.07s1.5.41,1.57.73l2.39-1.61a10.08,10.08,0,0,1-.52-1.86l-3.72,2.25-.36-.12L112,40.92l1.34-4,2.2-8.23,1-7.79L116.1,15Z"/><path class="cls-2" d="M127,18.62,121.8,28l-2.4,6.09s-1,1.7-1.35,8.32a4.1,4.1,0,0,1-1.54,2.95l-1.33,1s1.49.81,1.49,1.17l2-2s4.41-4,4.9-4.67l-.2-1.78-3.56,3.26s-.48-1.33.25-4.52a3.41,3.41,0,0,1,1.82-1.37L120.61,35A22.68,22.68,0,0,1,122,30.68s1.17-.44,1.29-.2c0,0-.48-2.55.29-3.8L125.73,22l1.34-2.62.33-.69Z"/><path class="cls-2" d="M125,37a7.94,7.94,0,0,1,1.41.61L130.84,31l2-4.28,1.38-3.19"/><path class="cls-2" d="M127.63,38.65a23.61,23.61,0,0,0,2.91-1.53c.36-.36,3.76-2.74,3.76-2.74l-.77-.49-7.08,3.7Z"/></svg>