<svg id="Capa_1" data-name="Capa 1" xmlns="http://www.w3.org/2000/svg" viewBox="0 0 250.49 131.99"><defs><style>.cls-1,.cls-2{fill:#b3b3b3;}.cls-1{fill-rule:evenodd;}</style></defs><title>Mesa de trabajo 21</title><path class="cls-1" d="M108.61,115.91c-4.4,0-8.27-2.11-8.26-6.44,0-5.9,6.36-5.87,10.43-5.86,3.32,0,8.84.54,8.83,5.11,0,5.59-7.18,7.2-11,7.18m-6-32.23c0-3.33,1.72-7.15,5.55-7.14,4.39,0,6.45,4.42,6.43,8.24s-1.84,7.35-6.11,7.33-5.88-4.8-5.87-8.44m13.05,15.87c-2.51,0-5.58-.08-8.65-.09-4.14,0-4.38-2-4.38-2.91a3.65,3.65,0,0,1,1.89-3.19,18.85,18.85,0,0,0,3.45.39c7.78,0,11.63-5,11.64-9.63A7.7,7.7,0,0,0,118,79.34l6.21.27v-3a21.06,21.06,0,0,1-3.64.3,20,20,0,0,1-6.08-1.09,21.14,21.14,0,0,0-5.52-.9c-7.72,0-11.75,4.16-11.77,9.63,0,4.14,2.35,6.53,5.86,8.37A50.29,50.29,0,0,1,97.89,96a5.4,5.4,0,0,0-.25,2c0,2.89,2.86,4.73,5.5,5.48v.13c-3.83.74-7.35,3.17-7.37,7.19,0,3.39,3.86,7.05,11.83,7.08,13.36,0,16.66-9.54,16.68-12,0-4.71-3.18-6.35-8.58-6.37"/><path class="cls-1" d="M35.37,102.63c-6.59,0-9.31-8.58-9.3-13.72,0-5.4,2.5-12.67,8.71-12.65,6.65,0,9.38,8.57,9.36,13.72,0,5.39-2.49,12.67-8.77,12.65m-.65-28c-8.4,0-14.39,6.79-14.42,14.89,0,8.91,6.78,14.72,15.13,14.75,8,0,14.46-6.78,14.49-14.88,0-8.91-6.47-14.72-15.19-14.75"/><path class="cls-1" d="M71.93,74.77c-3.83,0-6.48,4-8.06,6.44h-.12l0-5.65c0-.63-.19-.82-.56-.82-.57,0-3.08,1.63-7.67,3.55v.94c.94.51,3.26.9,3.25,2.84l-.06,17.64c0,2.07-1.26,2.07-3,2.06H54v1.63c2.25-.06,4.89-.11,7.46-.1s5.34.09,8.78.16v-1.63l-3.51,0c-1.76,0-3,0-3-2.08L63.8,85a5.29,5.29,0,0,1,4.6-5.19c2.19,0,2.19,1.51,4.14,1.52a3,3,0,0,0,3-3.19,3.43,3.43,0,0,0-3.57-3.35"/><path class="cls-1" d="M140.38,77c3.51,0,5.45,2.6,5.43,5.8,0,.75-.2,1.57-1.76,1.56l-10.92,0c.77-4.52,3.42-7.33,7.25-7.32m1.72,23.87c-5,0-8.83-4.93-9.18-10.9a16.34,16.34,0,0,1,0-3.64l17.63.07.57-.38a6.46,6.46,0,0,0,.07-1.13c0-6.65-5.49-9.88-10.57-9.9-4.39,0-12.69,3.6-12.74,15.9,0,4,2,13.69,11.93,13.73,5.15,0,8.73-3.23,11.64-7.05l-.88-.88c-2.33,2.31-5,4.19-8.48,4.17"/><path class="cls-1" d="M182.51,100.18l.06-16.2c0-4.9-1.85-8.8-7.18-8.82-4.21,0-7.28,2.11-10.87,4.67V75.76c0-.51-.19-.64-.37-.64a84.37,84.37,0,0,1-8.29,3V79.3c2.94,1.2,3.63,1.83,3.62,4.16l-.06,16.63c0,2.08-1.26,2.07-3,2.06h-1.13v1.63c2.26-.05,4.52-.11,6.78-.1s4.46.14,6.65.15V102.2h-1.13c-1.75,0-3.13,0-3.13-2.09l.07-18.58c2.08-1.37,5.28-3,7.29-3,3.58,0,5.77,1.78,5.75,5.36l-.06,16.26c0,2.08-1.26,2.07-3,2.06h-1.13v1.63c2.26-.06,4.52-.11,6.78-.1s4.45.14,6.65.15v-1.63h-1.13c-1.76,0-3.14,0-3.13-2.09"/><path class="cls-1" d="M203.12,77.28c3.51,0,5.45,2.6,5.44,5.8,0,.75-.2,1.57-1.76,1.57l-10.92,0c.77-4.52,3.42-7.33,7.24-7.32m1.73,23.87c-5,0-8.83-4.94-9.18-10.9a15.83,15.83,0,0,1,0-3.64l17.63.07.56-.38a6.28,6.28,0,0,0,.07-1.13c0-6.66-5.49-9.88-10.57-9.9-4.39,0-12.69,3.6-12.73,15.9,0,4,2,13.69,11.93,13.73,5.15,0,8.73-3.23,11.63-7.05l-.88-.88c-2.33,2.31-5,4.19-8.49,4.17"/><path class="cls-1" d="M223.62,81.51c0-2.71,2.4-4.14,4.92-4.13,4,0,6.2,2.28,6.81,6.24h1.44l-.41-6.4a16.45,16.45,0,0,0-7.15-1.85c-6.9,0-9.74,4.49-9.75,8,0,10.11,13.64,7.78,13.61,15.18,0,2.2-1.39,4.45-5.1,4.44-4.57,0-7.07-3.54-7.87-7.69l-1.13.31.66,7.22a16.52,16.52,0,0,0,7.64,2.16c7.47,0,10.81-4.35,10.82-8.5,0-9.85-14.53-7.65-14.5-15"/><path class="cls-1" d="M100,17.1c-.56-.56-4.59,4-1.14,8.71,3.58-3.12,3.48-6.25,1.14-8.71"/><path class="cls-1" d="M100.56,30.06c3.58-.77,5-2.55,5-7.14-1.23,0-5.58.55-5,7.14"/><path class="cls-1" d="M116,24.73A4.52,4.52,0,0,0,114.43,21c-1.9,1.45-2.46,2.67-2.46,4.46a8.28,8.28,0,0,0,1.22,4.25c2.12-2.11,2.8-3.34,2.81-5"/><path class="cls-1" d="M138,42.33c-4.13.32-5.7,4.78-4.82,7.14,6.26-1.44,5.15-7.13,4.82-7.14"/><path class="cls-1" d="M115.29,33.33l1.89-.56c1.78,2.13,4.91,3.7,8.6.69-4.12-3.69-4.57-2.58-6.81-2.14A9.36,9.36,0,0,0,120.33,27c0-.67-.22-.9-.67-.9a2.42,2.42,0,0,0-1.34.56c-.67.33-1.12.67-1.34.78a5,5,0,0,0-2,3.79,10,10,0,0,0,.33,2.12"/><path class="cls-1" d="M127.75,51.57c1.9-1.67,4.59-4,1.25-8.59-4,3.23-2.58,6-1.25,8.59"/><path class="cls-1" d="M96.35,19.66h-.22c-1.23,0-5.92,2.44-4.59,7.25,6.25-1.44,5.26-5.9,4.82-7.25"/><path class="cls-1" d="M122.74,41.84c3.69-.66,5-2.34,5-6.69v-.22c-3.57-.35-6.15,4.12-5,6.92"/><path class="cls-1" d="M73.81,16.36c-3.14,2.56-3,5.35-1.25,8.82,3.13-3,3.92-5.69,1.25-8.82"/><path class="cls-1" d="M64.74,29.41c.9-4.35-1.11-6.26-4.78-7.27-1.24,6,3.33,6.93,4.78,7.27"/><path class="cls-1" d="M57.14,32.41c.91-5.92-3-6.94-4.78-7.39-1,5.92,2.44,6.82,4.78,7.39"/><path class="cls-1" d="M132.66,50.13c-1.24,4,1.21,6.59,4.78,7.38.91-5.81-2.66-6.6-4.78-7.38"/><path class="cls-1" d="M83.29,17.84h-.44c-1.68,0-3.69,4.35-1,8.49,5.26-4.57,1.47-8.49,1.47-8.49"/><path class="cls-1" d="M90.19,25.79c1.8-4.35-2-6.37-4.67-7.27-.46,3,.09,6.25,4.67,7.27"/><path class="cls-1" d="M74.56,28.43c6.7-1.66,5.15-7.14,4.6-7.14-1.9,0-6.15,3.23-4.6,7.14"/><path class="cls-1" d="M70.66,24.51h-.44a11.93,11.93,0,0,0-1.79.89,6.33,6.33,0,0,0-2.58,2.22,4.12,4.12,0,0,0-.45,2v.11a15.72,15.72,0,0,0,.22,2c3.57-.78,5.37-2.55,5-7.25"/><path class="cls-1" d="M128.4,52.77c3-1.67,3.24-2.23,4-3.57a60.53,60.53,0,0,1-6.81,3.56,58.59,58.59,0,0,1-11,3.77l.11-.22c2.58-1.34,3.13-2.45,3.37-5.69,3.68-.77,4.47-1,6.92-2.44v-.34l-4.13,1.22c4.13-2.22,4-5.24,3.48-7.14-4.36,1.44-5.37,3.56-4.82,7.24h.11a20,20,0,0,1-5.92.54,42.29,42.29,0,0,1,8.61-7.91l-.22-.11-2,1c-2.77-4.48-5.57-3-7.36-2.59l1.24-2.9c4.12,3.14,6.25,1.47,8.37.13-3.45-3.25-5.46-2.69-7.59-1.8l.45-1.23h-.11l-4.6,7.47c-.66-2.79-1.66-3.8-4.68-4.82.12-.45.12-.45.33-.67.34-.78,1-2.12,1.91-4.13l.79-1.56H109c-1.46,6.69,2.22,7.38,3,7.82,2.25-5.46-1-6.93-2.77-8.15v-.34l1.67.56c.91-6.36-3.11-6.93-4.56-7.38-.79,4.58,1.88,6,2.55,6.71l-1.8,3c-3.45-2.57-4.57-2.58-7.36-.91l-.44-5.25h-.22a55.19,55.19,0,0,1-1.82,12.51h-.22a5.74,5.74,0,0,0-3.23-2l1.35-2.46,2.46.68a7.23,7.23,0,0,0-1-4.69L96.87,29h-.22l-.56,1.23a6.45,6.45,0,0,0-3.79-1.69C91.51,32,93.4,33.15,94.4,34c-1.34,2.68-1.57,3.23-3.47,3.23l-.53-10.94h-.11l-.35,3.57h-.22c-1.11-2.46-3-4-4.79-4-.67,0-1.56.33-3.46,1.67l-.11-.89h-.23l-.34,1.78-.9,2.68.33,2h.56a11.76,11.76,0,0,0-.79,3,15,15,0,0,0,.44,2.24l-2.23-2.8a6.21,6.21,0,0,0,.79-2.9A10.29,10.29,0,0,0,78.9,31l-2.57.88-1.22-3.35-.34.33,1,3.58c-2.24,2.22-2.36,3.46-1.47,5.58a5.24,5.24,0,0,0,3.24-1.55l.66,1.23a6.14,6.14,0,0,0-3.58,3.12h-.11L74,39.13l-.22-1.23-.11-1.23L73,33.2a24.55,24.55,0,0,1-.54-6.59H72.1a26.32,26.32,0,0,0-.35,3.58c0,.78,0,1.78.11,3C69.07,31,68.18,31.85,66.39,32c.77,3.47,2.22,4.59,6,4.93l.55,3-3.12-1.46c-.91,4.58,2.11,6.49,4.45,7.27l3.65,10.84a1.9,1.9,0,0,1-1.23.56c-.22,0-.56-.12-1.45-.9-.11-.22-.56-.45-1.34-1-.44-.34-1.11-1-2.12-1.79v-.11a5.77,5.77,0,0,0,2.24-6.47l-2.57,1.11a33.35,33.35,0,0,0-2.88-8.72,41.77,41.77,0,0,0-4.56-8.5l-.34.22c4.44,9.06,4.78,9.84,5.66,13.53l.56,2.12a9.12,9.12,0,0,1,.33,2.13.39.39,0,0,1-.11.33,2.92,2.92,0,0,0-.9,2.12,14.23,14.23,0,0,1-3.12-3.25c1.68-1.78,1.9-2.45,1.91-6.14-2.57.77-3,1.11-4.59,3.23h-.11l-2-2.69c2.91-1.22,4-2.9,4-6.25,0-.44,0-.44-.34-.67-3.35,1-4.47,2.22-5,5.24l-2.33-4c6.37-1.66,4.7-6.13,4.6-7.14-3.35,1-4.47,2.11-4.92,5.13h-.12c-2.11-3-4.45-3.47-7.58-2.14v.34c-3.47,3.22-2.57,4.9-2.47,5.69l-.22.11c-1.33-1.79-2.11-2.24-4.23-2.25-1,0-1.56.22-1.57.77,0,2.24,2.33,3.92,5.91,4.49v.11a5.3,5.3,0,0,0-3.58,2.89h-.11c-.67-1.57-.77-1.79-2-2.57-3.13,4.35-1.35,6.37-.8,7.59-4.46-3.59-4.8-3.47-7.47-2.92.77,3.57,2.55,5.25,7.24,4.93l-.59-1.41,2.45,1.68.16.08c-3.75,1.09-4.64,3.68-4.23,7.35,5.46-1,5.68-4.61,5.47-6.65l1,.58c.77.42,1.6.83,2.46,1.24-2.87,1.19-3.54,3.6-3.15,6.9,4.81-.9,5.4-3.88,5.31-5.93.94.4,1.89.79,2.86,1.17-2.75,1.15-3.4,3.46-3,6.63,4.73-.88,5.22-3.87,5.09-5.84,1,.39,2.1.76,3.14,1.12-2.75,1.23-3.39,3.64-3,6.9,5-.92,5.49-4,5.37-6.11,1.49.49,2.91.93,4.21,1.32-3,1.22-3.72,3.72-3.31,7.15,5.27-1,5.64-4.41,5.45-6.51l1.86.54a14.44,14.44,0,0,0,.1,1.63,9.13,9.13,0,0,0,2.56-.84C72.11,63.4,78,67.9,79,68.59c2.33,2,3.79,4.91,3.92,14.29,0,1,0,17.61,0,17.61,0,2.15-1.31,2.14-3.12,2.14H78.49v1.7c2.05-.05,4.05-.09,6.05-.1h1c.34,0,.6,0,.78,0,2.07,0,4.1.14,6.07.14v-1.7h-1.1c-1.82,0-3.25,0-3.25-2.15,0,0,.05-21.15,0-21.19C88.43,72,92.71,67.21,98.7,63.71c.5-.28,1.22-.68,1.24-.67.92-.47,1.87-.93,2.89-1.39,0,4.24,1.21,5.81,5.56,6.72,0-4.35-1.1-5.81-4.89-6.83L108.73,60c.44,4,1.33,5.37,4.9,6.27.46-3,.35-4.8-2.88-6.71v-.23L115,58.1l.11.12c.21,4,1.55,5.47,5.57,6.38,0-4.14-.88-5.59-4.11-6.71v-.12l5.25-1.88.11.11c.1,3.8,1.44,5.48,5,6.38,1.12-3.68-1.32-6-3.45-7v-.23l4.13-1.77c0,4.24,1.22,5.92,4.9,6.82.9-3.57,0-5.47-4.11-7.38M118,44.14v.23a28.27,28.27,0,0,0-7.16,6.91h-.11a7.83,7.83,0,0,0-1.33-3.69,23.77,23.77,0,0,0,2.68-1.45c.45-.34,1.57-1.22,3.24-2.34Zm-5.8-3.36h.22a7.72,7.72,0,0,0,2.12,2.46v.11a18.59,18.59,0,0,1-6,3.34h-.11Zm-3.35,3.12L107.21,46l-1.34-.23-.11.22-.11,1.79-3.14,3c0-4.13.12-4.46,2-5.25l-1.22-1.23c1-3.9.9-4,2.13-4h.22a6.07,6.07,0,0,0,3.23,3.58m-3.67-4.7v-.67h.23V39Zm-5.68-5.82c1,.79,2.45,2.58,6.81.8l-2,3.79c-1-.56-2.46-1.9-5.14-1.35l-.11-.11ZM98.75,39a.11.11,0,0,1,.11-.11,6,6,0,0,0,4.35,2.24l-1,2.34c-2.12-.56-1.45-.56-4.46,0h-.11Zm-1.81,7a4.76,4.76,0,0,0,3,1h1.34l-.23,3.8h-.11c-1.11-2.57-1.78-3.13-4.34-3.92l.22-.78ZM96,56l-3.24,2.23-.22-.11,3-8.37h.22c1.11,2.13,1.56,2.46,3.78,3.59-.44.44-.89.89-1.23.89a5.44,5.44,0,0,0-2.56-.9ZM91.71,40.62l.11-.22a5.58,5.58,0,0,0,4.8,1.13l.11.12-2.25,6.81h-.34a9.47,9.47,0,0,1-2-5.37v-.89l-.23-.11H91.7a4.21,4.21,0,0,1-.22-1,.59.59,0,0,1,.22-.45m-.24,5.7h.11c.44,1.9,2.11,3.91,2.11,4.36a3.34,3.34,0,0,1-.45,1.45h-.11a7.53,7.53,0,0,0-3-3.92ZM89.1,59.27a35.69,35.69,0,0,1-1.65-9.94l1.45-.44.22-.11.12.11c-.9,3-.57,5.13,2.44,7l-1.12,2.79ZM81.8,32.78c2-1.11,2.45-1.67,3.13-3.68H85c1.22,2.68,1.66,3.13,4.45,4.14l.11-.11.11.11a38,38,0,0,0,.87,9.16,7.23,7.23,0,0,0-3.24,2.78l.46-5.69,1.12.34c2-4.8-3.33-6.93-4.67-7.27a6.11,6.11,0,0,0,2.89,6.71,32.3,32.3,0,0,0-1,9.27A35.89,35.89,0,0,0,86.87,57l-2.45,1a50,50,0,0,0,1.14-9.93,13.28,13.28,0,0,0-.33-3.47l-.77-4.69-.22-3c0-.79-.78-1.9-2.44-3.36ZM80.66,43.72A9.59,9.59,0,0,0,81.1,41a2.3,2.3,0,0,1,.23-1.11h.11A3.75,3.75,0,0,0,84,41.16c.87,9.27-.93,16.64-2.27,19.76l-3.45-8.39c6.26-2.1,4.7-6.35,4.6-7.36a6.75,6.75,0,0,0-3,1.34v-.22Zm-3.81,5-1.33-4.25c1.79-.77,3.35-1.55,3.81-4.9.44.56.67.78.67,1.12a13.18,13.18,0,0,1-3,8Zm.44,1.34s.9-2.12.78-.89a9.41,9.41,0,0,0-.12,2.68c.11.66-.66-1.79-.66-1.79M57.23,35.85h.12v.22h-.12ZM50.76,34.6l.11-.22c3.12,2.79,2.79,1.79,5.8,1.68.33.9.77,1.57.88,2a26.22,26.22,0,0,0,3,5c1.67,2,2.34,2.91,2.34,3.58,0,.22-.11.67-.12,1.23a48.54,48.54,0,0,1-5.35-3.48C58.9,40,55.11,38,52.65,37.06v1.56c0,2,.44,3.46,1.33,3.91l2.23,1.68,2.68,2.24L61,47.92l-2.91,1.56a37.38,37.38,0,0,0-9.47-8.07c3.24-3.46,2.58-5.46,2.14-6.81M56,49H52.4l.68-3.24h.11Zm-7.8-7.28.22-.11L52.3,45A6.91,6.91,0,0,0,48,48.22l-1.9-.68c1.79-2.23,2-2.9,2-5.8M61.09,57.41l-2-.45c-8.48-2.25-10.93-3-17.06-6.41l1.23-1.78L45.59,48l2.23.9c0,.78-.11,1.34-.12,1.67a4.33,4.33,0,0,0,.22,1.57c2-.33,2.34-.67,3.8-2L57,50.7h.22a5.75,5.75,0,0,0-.56,4.35h.22l2.8-1,1.55,3.13Zm4.46,1c1-1,2.8-2.45,2-6.36-3.24,1.11-4,1.66-4.8,4.12h-.23l-1.88-3.25a7.39,7.39,0,0,0,1.13-4.57,12.51,12.51,0,0,0,1.67.9c1.23.68,1.9,1.12,2.23,1.23a4.64,4.64,0,0,1,1.34.68l1,.9.89.9a1.48,1.48,0,0,1,.33,1.12h.89l2.23,1.79v.24a5.36,5.36,0,0,0-4,3.14Zm8.81,3.7L72.48,61a5.56,5.56,0,0,0,.87-3.29c0-.3.08-.64.13-1l2,1.8a6.21,6.21,0,0,0-1.12,3.68M79,65.52h0c-1.29-1-2.85-2.34-2.84-2.38l2-1.45.79-1v-.11c1,.45.76,1,2.09,4.09,0,0,0,0,0,0,.11.22.23.72,1.56,3.62L79,65.52m6.5,3.13s-.57-1.2-1-2h0c-.18-.44-1.3-2.6-1.3-2.6,2.68-1,3.24-1.67,4-4.68h.11c.33,1.79,1,3.35,1,3.8,0,.14-2.21,4.42-2.26,4.53h0c-.27.42-.54.87-.57.95m2.47.23,1.35-3.15h0l1.58-3.44a6.13,6.13,0,0,0,4.46.79v.11c-.49.32-3,1.89-3.41,2.16h0c-1.35,1-4,3.52-4,3.52M100,60.75,96.9,62.3a6.39,6.39,0,0,0-2.45-2.91v-.11l1.79-1.34.34-.11a5.1,5.1,0,0,0,3.46,2.8Zm4.92-1.89L101,60.3l-.11-.11c.45-2.23-.1-3-1.1-4.91l1.68-1.56h.22c.44,2.91,1,3.58,3.23,5Zm2.12-1.67H107c-.55-2.68-1.11-3.47-3.56-4.93l2.46-2.67.12-.22c1.11,2.23,1.44,2.69,3.45,3.58Zm6.14-.21-4.36,1.1-.12-.11c2.37-5.8,2.92-7,5.6-6.8l.11.11A5.94,5.94,0,0,0,113.21,57"/><path class="cls-2" d="M78.56,68.32s2.8,1.48,3.64,6.47a53.08,53.08,0,0,1,.64,9.31v16.55a1.82,1.82,0,0,1-1.83,2H78.49v1.72l14,0v-1.69H90.23A2,2,0,0,1,88,100.51l0-16.71V79a17,17,0,0,1,2.34-7.71,23.14,23.14,0,0,1,5.83-6,34.54,34.54,0,0,1,6.56-3.58s6.82-2.25,8.77-2.62l7.72-2.24s3.9-1.53,4.42-1.77,4.94-2.36,4.94-2.36,2.88-1.63,3.45-3l.29-.48-5.53,3s-9,3.92-13.64,4.83l-4.4,1-.12-.11a38,38,0,0,1,2.06-4.68s1.13-2.9,3.65-2l5-.94a14.66,14.66,0,0,0,5.56-2.16v-.34a31.46,31.46,0,0,1-11.27,1.87s.8-1,4.16-4.37a53.13,53.13,0,0,1,4.46-3.54l-.22-.11s-3.88,2.53-4.76,3.2a25.37,25.37,0,0,0-6.57,6.47s-1.5,1.37-3.74,6a5.7,5.7,0,0,1-2.16,1.54s-6.18,2.22-8,3.54a35.85,35.85,0,0,0-9,6.42l2.91-6.57s-1.59-1.64-1.68-2.64c0,0-1.37-3.42-1.73-10.26a61.62,61.62,0,0,1,.36-9.83l-.71-.33s-1.24,3.08-1,11.68a63.24,63.24,0,0,0,2.3,12.26l-2.86,5.6-3.12-6.47a14.23,14.23,0,0,0,2.29-5.79,35.75,35.75,0,0,0-.15-16.05L84,41a60.64,60.64,0,0,1,.07,8.93s-.59,8-2.3,11c0,0-4.25-10-4.53-10.84l.72-1.42A15.2,15.2,0,0,0,80.85,43a10.85,10.85,0,0,0,.29-2.52l.24-.66s-.95-1.33-1.42-2-1.8-2.24-1.8-2.24l-.66.76,1.75,3.14a1.88,1.88,0,0,1,.76,2,13.71,13.71,0,0,1-3.2,7.4l-1.41-4.42s-2.26-7.84-2.54-11.78a42,42,0,0,1-.41-5.94l-.38,0s-1.2,3.84.92,13.3c0,0,.89,5.56,4.95,16.73l1.7,4.66,3,7.18s-8.1-7-10.19-7.29a19.76,19.76,0,0,1-2,1.51s6.91,4.73,8,5.64"/><path class="cls-2" d="M39.76,50.31s7.82,5.05,12.38,6.39c0,0,15.42,5.12,15.71,5.17s-.14-.71.43-2.61l-2.85-.72A11.35,11.35,0,0,1,62.35,56l-1.66-3s-.9,1-1.19,1,1.75,3.14,1.75,3.14l-.19.43s-4.37-1.48-8-2.3c0,0-4.84-1.63-6.64-2.49L42,50.6l-1.33-.71-2-1.72A13.91,13.91,0,0,1,39.76,50.31Z"/><polyline class="cls-2" points="45.55 47.95 47.88 48.91 48.07 48.34 46.03 47.43"/><path class="cls-2" d="M51.72,50.06l5.46.68s.57-1,.91-1.19c0,0-5.35-6-8.58-7.53l-1.09-.67-.1.33,4,3.29,3.74,4H52.44Z"/><path class="cls-2" d="M57,44.8s7,5.15,9,5.82c0,0,3.23,1.62,3.27,3.33l.95.19L72.46,56l3,2.43s1-1.14,1.33-1.09l-.33,0-1.89-1.62-2.8-2.19L69.2,51.34l-3.08-3.48A7.81,7.81,0,0,1,62.8,48l-5.41-3.48Z"/><path class="cls-2" d="M57,36.77l.57-.14,2.32,4s3.22,4.19,3.45,4.47a13.56,13.56,0,0,0-.43,1.42l-4-5.85Z"/><path class="cls-2" d="M63.69,31s5,8.85,5.86,13.89l.8,3.89,1.19-.94s-2-6.61-3-8.8c0,0-2.13-5-2.79-5.61L64,30.85Z"/><polygon class="cls-2" points="74.76 28.86 75.08 28.54 76.32 31.82 75.68 32.43 74.76 28.86"/><path class="cls-2" d="M90.27,26.3a44.18,44.18,0,0,0,.35,16.1l1.11-.32-.28-1,.36-.78s-.25-1.57,2-3.1l1.47-2.49s-.6-.57-.71-.64-1.33,3.1-2.93,3.16l-.71,0S90.59,26.41,90.27,26.3Z"/><polygon class="cls-2" points="96.63 30.8 96.92 29.06 96.67 29.06 96.1 30.34 96.63 30.8"/><path class="cls-2" d="M99,26.68a62.13,62.13,0,0,1-1.78,12.61s-2.48,9.15-2.94,9.18,0,.18,0,.18a16.71,16.71,0,0,1-1.95-3.75l-.86,1.39,2.2,4.42-.5,1.42-1.47,3.81-1.15,2.74A12.74,12.74,0,0,1,93,58.62s1.32.36,1.39.64l2.11-1.42a8.89,8.89,0,0,1-.46-1.64l-3.28,2-.32-.11,3.23-8.54,1.19-3.49,1.94-7.26.87-6.87-.38-5.2Z"/><path class="cls-2" d="M109,29.87l-4.62,8.25-2.11,5.37s-.86,1.5-1.19,7.33a3.62,3.62,0,0,1-1.36,2.6l-1.18.89s1.31.72,1.31,1l1.79-1.74s3.89-3.52,4.32-4.12l-.17-1.57L102.6,50.8s-.42-1.18.22-4a3,3,0,0,1,1.6-1.21l-1.14-1.29a20,20,0,0,1,1.22-3.81s1-.39,1.14-.18c0,0-.42-2.25.26-3.35l1.9-4.13L109,30.55l.29-.61Z"/><path class="cls-2" d="M107.21,46.08a7,7,0,0,1,1.24.54l3.86-5.83L114.07,37l1.22-2.81"/><path class="cls-2" d="M109.48,47.54a20.82,20.82,0,0,0,2.57-1.35c.32-.32,3.32-2.41,3.32-2.41l-.68-.43-6.24,3.26Z"/></svg>