<svg id="Capa_1" data-name="Capa 1" xmlns="http://www.w3.org/2000/svg" viewBox="0 0 115.49 136.49"><defs><style>.cls-1{fill:none;}.cls-2{fill:#b3b3b3;}</style></defs><title>Mesa de trabajo 26</title><path class="cls-1" d="M57.12,84.38c.22-1.36,0-1.82-1.23-1.82a6,6,0,0,0-1.69.31,5.21,5.21,0,0,1,1.69-.31c1.23,0,1.45.46,1.23,1.82l-.09.49h0Z"/><path class="cls-1" d="M52.93,89a2.31,2.31,0,0,1,.12-.49C53,88.63,53,88.78,52.93,89Z"/><path class="cls-1" d="M48.31,91.62h0a2.8,2.8,0,0,1-.46-1.6A2.8,2.8,0,0,0,48.31,91.62Z"/><path class="cls-1" d="M33.37,83.27c-.86,5-2.46,7.08-5.39,7.08a3.9,3.9,0,0,1-2.4-.68,3.92,3.92,0,0,1-1.08-3.08,3.92,3.92,0,0,0,1.08,3.08,3.78,3.78,0,0,0,2.4.68c3,0,4.53-2.09,5.39-7.08a14.14,14.14,0,0,0,.25-4.37A14.14,14.14,0,0,1,33.37,83.27Z"/><path class="cls-1" d="M49.27,89.09c-.4,2.43.92,3.85,3.85,3.85a6,6,0,0,0,1.51-.18,5.79,5.79,0,0,1-1.51.18c-2.89,0-4.25-1.42-3.85-3.85a4.37,4.37,0,0,1,1.32-2.59A4.54,4.54,0,0,0,49.27,89.09Z"/><path class="cls-1" d="M42.37,90.48a3.13,3.13,0,0,0,2.31-1.17l1.54-9.21h0l-1.54,9.21a3.19,3.19,0,0,1-2.31,1.17,1.16,1.16,0,0,1-1.11-.59c0-.06,0-.12-.06-.18s0,.12.06.18A1.16,1.16,0,0,0,42.37,90.48Z"/><path class="cls-1" d="M32.27,91.65h0a9.7,9.7,0,0,0,3.42-3.3A10,10,0,0,1,32.27,91.65Z"/><path class="cls-1" d="M36.36,87.21c-.12.25-.28.46-.4.71C36.08,87.67,36.24,87.46,36.36,87.21Z"/><path class="cls-1" d="M37.66,90.45a9.24,9.24,0,0,1,.18-2l1.42-8.35h0l-1.42,8.35A9.24,9.24,0,0,0,37.66,90.45Z"/><path class="cls-1" d="M31.37,94.6a13.51,13.51,0,0,0-3.66-1.85c-2.93,0-4.71-.77-5.88-2.59a9.53,9.53,0,0,1-1.11-6.84,13.39,13.39,0,0,1,.77-2.8,13.93,13.93,0,0,0-.77,2.8,9.26,9.26,0,0,0,1.11,6.84c1.17,1.82,3,2.59,5.88,2.59a13.51,13.51,0,0,1,3.66,1.85,5.88,5.88,0,0,0,3.39,1.29,4.31,4.31,0,0,0,1.79-.31h0a4.31,4.31,0,0,1-1.79.31A5.88,5.88,0,0,1,31.37,94.6Z"/><path class="cls-1" d="M71.1,79.05h0a2.54,2.54,0,0,0,2.46-2A2.57,2.57,0,0,1,71.1,79.05Z"/><path class="cls-1" d="M70.67,79a1.62,1.62,0,0,1-1.32-1.94A1.66,1.66,0,0,0,70.67,79Z"/><polygon class="cls-1" points="72.61 80.13 72.61 80.13 70.48 92.72 72.61 80.13"/><path class="cls-1" d="M28.91,40.37c.09-.52.22-1,.34-1.57a30,30,0,0,0-.77,6.07A30.89,30.89,0,0,1,28.91,40.37Z"/><path class="cls-1" d="M66.79,78l-.34,1.94L66.79,78a15.14,15.14,0,0,0,.31-2.8A14.91,14.91,0,0,1,66.79,78Z"/><path class="cls-1" d="M56.75,91.62h0a2.76,2.76,0,0,0,1.57,1.48l2.12-2h0l-2.12,2A2.86,2.86,0,0,1,56.75,91.62Z"/><path class="cls-1" d="M56.16,92l-.28.18A2.16,2.16,0,0,0,56.16,92Z"/><path class="cls-1" d="M50.81,81.64h0l1,2.31a6.17,6.17,0,0,1,.89-.46c-.28.15-.59.31-.89.46Z"/><path class="cls-1" d="M61.37,91.19c.25,1,1.29,1.69,2.74,1.69a6.49,6.49,0,0,0,2.09-.34h0a6.49,6.49,0,0,1-2.09.34c-1.45,0-2.49-.68-2.74-1.69a2.57,2.57,0,0,1-.09-.68A5.11,5.11,0,0,0,61.37,91.19Z"/><path class="cls-2" d="M54.16,90.57a3.09,3.09,0,0,0,1.94-.83l.49-2.65h-.15c-2.06,0-3,.31-3.39,1.39a2.31,2.31,0,0,0-.12.49A1.24,1.24,0,0,0,54.16,90.57Z"/><path class="cls-2" d="M56.44,87.09c-2.06,0-3,.31-3.39,1.39C53.42,87.43,54.38,87.09,56.44,87.09Z"/><path class="cls-2" d="M28,90.35c2.93,0,4.53-2.09,5.39-7.08a14.14,14.14,0,0,0,.25-4.37.28.28,0,0,0,0-.15,3.07,3.07,0,0,0-3.26-2.49A4.51,4.51,0,0,0,26.75,78a12.06,12.06,0,0,0-2,5.36,16.61,16.61,0,0,0-.28,3.26,3.92,3.92,0,0,0,1.08,3.08A4.11,4.11,0,0,0,28,90.35Z"/><path class="cls-2" d="M26.78,78a4.42,4.42,0,0,1,3.57-1.72,3,3,0,0,1,3.26,2.49.28.28,0,0,0,0,.15.28.28,0,0,0,0-.15,3.07,3.07,0,0,0-3.26-2.49A4.42,4.42,0,0,0,26.78,78a12.06,12.06,0,0,0-2,5.36,16.61,16.61,0,0,0-.28,3.26,16.61,16.61,0,0,1,.28-3.26A12.06,12.06,0,0,1,26.78,78Z"/><path class="cls-2" d="M95.37,16.07A140.09,140.09,0,0,0,56.5,10.84a139.7,139.7,0,0,0-38.83,5.24A138.68,138.68,0,0,0,12.4,54.91a138.68,138.68,0,0,0,5.27,38.83S33.62,99,56.5,99A149.32,149.32,0,0,0,80,97.13a5.4,5.4,0,0,0,3.23-3.82,2.21,2.21,0,0,0,.06-.52c.09-1.88-1-7-1.66-10.38H78.15l-1,6.25c-.25,1.57,0,2,1.14,2a4.54,4.54,0,0,0,1.26-.25l.12,1.91a8.54,8.54,0,0,1-2.86.55c-1.72,0-3-.71-3.2-1.79a4,4,0,0,1,.09-1.88l1.14-6.78H73.32l.37-2.34H75.2L76,75.2h3.42l-.83,4.9,6.07,0L86,89.86l4.71-9.76H94.1s-4.47,8.56-6,11.64a31.1,31.1,0,0,1-2.53,4.43,88.91,88.91,0,0,0,9.82-2.43,130.44,130.44,0,0,0,4.77-26.61A27.78,27.78,0,0,0,90,65a27,27,0,0,0-9.49,2c-4.83,1.72-10.26,4.68-18,6.16-.89.18-1.79.34-2.71.46h-.09a27.52,27.52,0,0,1-3.2.18A28.21,28.21,0,0,1,28.42,45.64h0v-.18a3.35,3.35,0,0,1,0-.55,28,28,0,0,1,.77-6.07c0-.06,0-.09,0-.15.09-.34.18-.71.28-1,0-.09,0-.15.06-.25.09-.34.22-.65.31-1l.09-.28c.12-.31.22-.62.34-.92a3.2,3.2,0,0,0,.12-.31c.12-.31.25-.62.37-.89,0-.09.09-.22.12-.31.12-.31.28-.59.43-.89.06-.09.09-.18.15-.28.15-.28.31-.59.46-.86l.15-.25a8,8,0,0,1,.52-.86c0-.06.09-.12.12-.18a8.92,8.92,0,0,1,.59-.89s0,0,0-.06a28.58,28.58,0,0,1,4-4.65l.09-.09c.25-.25.52-.46.77-.71a.82.82,0,0,1,.18-.15l.77-.65-.77.65.77-.65.22-.18.77-.59.25-.18.8-.55.25-.15c.28-.18.55-.34.83-.52l.25-.15c.28-.15.59-.34.89-.49l.22-.12,1-.46a.52.52,0,0,1,.15-.06l1-.46a0,0,0,0,0,0,0,28.15,28.15,0,0,1,7.36-1.91h.06c.52-.06,1-.09,1.54-.12h0c.52,0,1-.06,1.6-.06s1.08,0,1.6.06h.06c.52,0,1,.06,1.51.12h.06a27.27,27.27,0,0,1,8.5,2.4s.06,0,.09,0c.34.15.68.34,1,.49.06,0,.09.06.15.06.34.18.65.34,1,.52a.67.67,0,0,1,.15.09l.92.55a.31.31,0,0,1,.15.12c.31.18.59.4.89.62a.54.54,0,0,1,.15.12l.89.65a.43.43,0,0,0,.12.09l.89.71s0,0,.06,0a27,27,0,0,1,5.64,6.62v0c.22.34.4.68.59,1,0,0,0,.06.06.12.18.34.37.65.52,1,0,.06.06.09.09.15.15.34.31.65.46,1l.09.18c.15.34.28.68.43,1,0,.06,0,.12.06.18.12.34.28.71.4,1,0,.06,0,.09.06.15.12.37.25.74.34,1.11a.11.11,0,0,0,0,.09,28.32,28.32,0,0,1,1.14,7.95v.18h0a28.65,28.65,0,0,1-2.74,12,57.52,57.52,0,0,0-11.06,3.88c-.68.31-1.36.59-2,.86a29.6,29.6,0,0,0-2.06-36.59s-.09,0-.12-.06c-.31-.12-.62-.22-.92-.34l-.25-.09L64.42,25l-.28-.09c-.31-.09-.62-.15-.92-.25a1.09,1.09,0,0,0-.31-.06L62,24.45a1.59,1.59,0,0,0-.34-.06l-.89-.15c-.12,0-.25,0-.37-.06l-.89-.09-.4,0c-.31,0-.62,0-.92-.06-.12,0-.25,0-.37,0-.43,0-.86,0-1.29,0s-.86,0-1.29,0c-.12,0-.25,0-.37,0-.31,0-.62,0-.92.06l-.4,0-.86.09c-.12,0-.25,0-.4.06a7.16,7.16,0,0,0-.86.15,1.55,1.55,0,0,1-.37.06l-.89.18-.34.09c-.31.06-.62.15-.89.22l-.31.09-.89.28-.31.09c-.31.09-.59.22-.89.31-.06,0-.12,0-.15.06a29.64,29.64,0,0,0,0,39.23h0s.06,0,.09,0a33.11,33.11,0,0,0,10.07,1.82c10.9,0,17.28-7.05,29-8.31.18,0,.37,0,.55-.06.4,0,.83-.09,1.29-.12l.71-.06c.74-.06,1.57-.09,2.46-.09a32.32,32.32,0,0,1,10,1.57q.09-2.4.09-4.9A139.76,139.76,0,0,0,95.37,16.07Zm-26,61a2.54,2.54,0,0,1,2.46-2,1.67,1.67,0,0,1,1.72,2,2.52,2.52,0,0,1-2.46,2h0a1.63,1.63,0,0,1-.4,0A1.71,1.71,0,0,1,69.34,77.08Zm3.26,3h0l-2.12,12.6H67.07l2.12-12.6ZM61.55,88.41l1.54-9.15a36.81,36.81,0,0,0,.52-4.07H67.1a12.73,12.73,0,0,1-.31,2.8l-.34,1.94-1.29,7.61c-.37,2.12-.37,2.4-.25,2.74a.66.66,0,0,0,.65.34,1.05,1.05,0,0,0,.4-.06l.28,1.91h0a6.49,6.49,0,0,1-2.09.34c-1.45,0-2.53-.65-2.74-1.69a2.57,2.57,0,0,1-.09-.68A10.33,10.33,0,0,1,61.55,88.41ZM59.8,73.6h0ZM56.26,84.87a7.55,7.55,0,0,1,.77,0l.09-.49c.22-1.36,0-1.82-1.23-1.82a6,6,0,0,0-1.69.31,10.64,10.64,0,0,0-1.42.59c-.28.15-.59.31-.89.46l-1-2.31h0a13.58,13.58,0,0,1,2.28-1,10.44,10.44,0,0,1,3.7-.71c2.19,0,3.57.77,3.85,2.12a5.45,5.45,0,0,1-.15,2.22l-.77,4.13a.52.52,0,0,0,0,.22c-.22,1.32-.09,1.82.8,2.53h0l-2.12,2a2.76,2.76,0,0,1-1.57-1.48c-.31.25-.46.34-.59.43l-.28.18a0,0,0,0,0,0,0,4,4,0,0,1-1.23.49,5.79,5.79,0,0,1-1.51.18c-2.89,0-4.25-1.39-3.85-3.85a4.37,4.37,0,0,1,1.32-2.59C51.76,85.4,53.67,84.87,56.26,84.87Zm-17-4.77h3.36l-1.32,7.76a6,6,0,0,0-.12,1.82c0,.06,0,.12.06.18a1.16,1.16,0,0,0,1.11.59,3.13,3.13,0,0,0,2.31-1.17l1.54-9.21h3.26l-1.57,9.3a4.17,4.17,0,0,0-.06.62,2.66,2.66,0,0,0,.46,1.6h0l-2.65,1.29a2.43,2.43,0,0,1-.83-1.2,5.77,5.77,0,0,1-3.63,1.17c-1.85,0-3.26-.8-3.51-2a1.82,1.82,0,0,1-.06-.43,9.24,9.24,0,0,1,.18-2Zm-8.47-6.28c5.2,0,7.82,3.57,6.84,9.33a14.09,14.09,0,0,1-1.26,4c-.12.25-.28.46-.4.71s-.15.28-.25.43a10.34,10.34,0,0,1-3.42,3.33,5.41,5.41,0,0,1,1.66.92,4.36,4.36,0,0,0,2.28.74A15.53,15.53,0,0,0,38,93.19l-1.45,2.4h0a4.31,4.31,0,0,1-1.79.31,6.3,6.3,0,0,1-3.39-1.29,13.51,13.51,0,0,0-3.66-1.85c-2.93,0-4.71-.77-5.88-2.59a9.53,9.53,0,0,1-1.11-6.84,13.39,13.39,0,0,1,.77-2.8,10.55,10.55,0,0,1,5.08-5.79A10.29,10.29,0,0,1,30.79,73.82Zm9.42-51.46a7.23,7.23,0,0,0-.77.59C39.69,22.73,40,22.54,40.21,22.36Zm0,0,.25-.18A1.71,1.71,0,0,1,40.21,22.36Zm1.08-.74-.8.55c.25-.18.52-.37.8-.55l.25-.15A1.72,1.72,0,0,0,41.29,21.62Zm.25-.15c.28-.18.55-.34.83-.52C42.09,21.09,41.81,21.28,41.54,21.46Zm.83-.52.25-.15A1.72,1.72,0,0,1,42.37,20.94Zm1.14-.65c-.31.15-.59.31-.89.49.31-.15.59-.31.89-.49l.22-.12A.77.77,0,0,1,43.51,20.29Zm1.32-.65a.52.52,0,0,1-.15.06l-1,.46,1-.46a.52.52,0,0,0,.15-.06l1-.46Zm1-.46a0,0,0,0,0,0,0Zm7.39-1.91a27.83,27.83,0,0,0-7.36,1.91,27,27,0,0,1,7.36-1.91h.06S53.3,17.27,53.27,17.27Zm.09,0c.52-.06,1-.09,1.54-.12C54.38,17.15,53.85,17.18,53.36,17.24Zm1.54-.12Zm3.26,0H58.1c-.52,0-1-.06-1.6-.06s-1.08,0-1.6.06c.52,0,1-.06,1.6-.06s1.08,0,1.6.06h.06c.52,0,1,.06,1.51.12C59.18,17.18,58.66,17.15,58.17,17.12Zm1.51.12h.06S59.71,17.24,59.67,17.24Zm8.65,2.46s-.06,0-.09,0a27.51,27.51,0,0,0-8.5-2.4,27.27,27.27,0,0,1,8.5,2.4s.06,0,.09,0c.34.15.68.34,1,.49C69,20,68.67,19.86,68.33,19.71Zm1,.52c.06,0,.09.06.15.06S69.41,20.23,69.34,20.23Zm2.19,1.26-.92-.55a.67.67,0,0,1-.15-.09c-.31-.18-.65-.37-1-.52.34.18.65.34,1,.52a.67.67,0,0,1,.15.09,7.33,7.33,0,0,1,.92.55.31.31,0,0,1,.15.12A.31.31,0,0,0,71.53,21.49Zm.15.09c.31.18.59.4.89.62C72.3,22,72,21.8,71.68,21.59Zm2.06,1.48a.43.43,0,0,0-.12-.09c-.28-.22-.59-.43-.89-.65a.54.54,0,0,1-.15-.12.54.54,0,0,1,.15.12l.89.65a.43.43,0,0,0,.12.09l.89.71s0,0,.06,0,0,0-.06,0Zm6.56,7.36a29.07,29.07,0,0,0-5.64-6.62,29.07,29.07,0,0,1,5.64,6.62Zm.62,1c-.18-.34-.4-.68-.59-1,.18.34.4.68.59,1,0,0,0,.06.06.12S81,31.5,80.92,31.47Zm.06.09c.18.34.37.65.52,1C81.32,32.24,81.17,31.9,81,31.56Zm1.08,2.16.09.18C82.09,33.84,82.09,33.78,82.06,33.72ZM46.37,65s.06,0,.09,0S46.4,65.07,46.37,65Zm39.7-6.53c.4,0,.83-.09,1.29-.12C86.9,58.42,86.47,58.48,86.07,58.51Z"/><path class="cls-2" d="M54.62,92.76a4.48,4.48,0,0,0,1.23-.49l0,0,0,0A4.9,4.9,0,0,1,54.62,92.76Z"/><path class="cls-2" d="M56.16,92c.12-.09.28-.22.59-.43h0C56.44,91.83,56.29,92,56.16,92Z"/><path class="cls-2" d="M57,84.9h0a7,7,0,0,0-.77,0c-2.59,0-4.5.52-5.67,1.63,1.17-1.11,3-1.63,5.64-1.63A7.81,7.81,0,0,1,57,84.9Z"/><path class="cls-2" d="M54.19,82.9a10.64,10.64,0,0,0-1.42.59A7.68,7.68,0,0,1,54.19,82.9Z"/><path class="cls-2" d="M56.78,79.94c2.19,0,3.57.77,3.85,2.12a5.45,5.45,0,0,1-.15,2.22l-.77,4.13a.52.52,0,0,0,0,.22c-.22,1.32-.09,1.82.8,2.53h0c-.86-.71-1-1.2-.8-2.53,0-.06,0-.15,0-.22l.77-4.13a6.1,6.1,0,0,0,.15-2.22c-.28-1.39-1.66-2.16-3.85-2.12a10.44,10.44,0,0,0-3.7.71,10.74,10.74,0,0,0-2.28,1h0a12.55,12.55,0,0,1,2.28-1A10.56,10.56,0,0,1,56.78,79.94Z"/><path class="cls-2" d="M71.1,79.05h0a1.63,1.63,0,0,1-.4,0A1.63,1.63,0,0,0,71.1,79.05Z"/><path class="cls-2" d="M64.94,90.32a.66.66,0,0,0,.65.34,1.05,1.05,0,0,0,.4-.06l.28,1.91h0L66,90.6a1.05,1.05,0,0,1-.4.06.66.66,0,0,1-.65-.34c-.15-.34-.12-.62.25-2.74L66.48,80l-1.29,7.61C64.82,89.71,64.79,90,64.94,90.32Z"/><path class="cls-2" d="M63.09,79.27a36.81,36.81,0,0,0,.52-4.07h0c-.09,1.11-.25,2.46-.52,4.07l-1.54,9.15a13.5,13.5,0,0,0-.25,2.06,12.73,12.73,0,0,1,.25-2.06Z"/><path class="cls-2" d="M41.2,89.71a5.06,5.06,0,0,1,.12-1.82l1.32-7.76h0l-1.32,7.76A5.89,5.89,0,0,0,41.2,89.71Z"/><path class="cls-2" d="M44.86,91.71a5.77,5.77,0,0,1-3.63,1.17c-1.85,0-3.26-.8-3.51-2a1.82,1.82,0,0,1-.06-.43,1.82,1.82,0,0,0,.06.43c.25,1.17,1.66,2,3.51,2a5.77,5.77,0,0,0,3.63-1.17,2.25,2.25,0,0,0,.83,1.2l2.65-1.29h0l-2.65,1.29A2.25,2.25,0,0,1,44.86,91.71Z"/><path class="cls-2" d="M47.85,90a4.17,4.17,0,0,1,.06-.62l1.57-9.3h0l-1.57,9.3A4.63,4.63,0,0,0,47.85,90Z"/><path class="cls-2" d="M34,92.57a4.34,4.34,0,0,0,2.25.74A15.53,15.53,0,0,0,38,93.19l-1.45,2.4h0L38,93.19a15.53,15.53,0,0,1-1.76.12A4.64,4.64,0,0,1,34,92.57a5.15,5.15,0,0,0-1.66-.92h0A5.15,5.15,0,0,1,34,92.57Z"/><path class="cls-2" d="M21.49,80.5a10.66,10.66,0,0,1,5.08-5.79,10.12,10.12,0,0,1,4.19-.89c5.2,0,7.82,3.57,6.84,9.33a14.09,14.09,0,0,1-1.26,4,14.09,14.09,0,0,0,1.26-4c1-5.76-1.63-9.33-6.84-9.33a10,10,0,0,0-4.19.89A10.77,10.77,0,0,0,21.49,80.5Z"/><path class="cls-2" d="M36,87.89c-.09.12-.15.28-.25.43C35.81,88.2,35.87,88,36,87.89Z"/><polygon class="cls-2" points="69.19 80.13 72.61 80.13 72.61 80.13 69.19 80.13 67.07 92.72 69.19 80.13"/><path class="cls-2" d="M59.67,17.24h.06s0,0-.06,0Z"/><path class="cls-2" d="M53.27,17.27h.06S53.3,17.27,53.27,17.27Z"/><path class="cls-2" d="M66.67,25.84s-.09,0-.12-.06.09,0,.12.06Z"/><path class="cls-2" d="M83.91,39.36c-.12-.65-.31-1.26-.46-1.88C83.6,38.09,83.76,38.74,83.91,39.36Z"/><path class="cls-2" d="M84.56,45.61v-.18a28,28,0,0,0-.65-6.07,28.74,28.74,0,0,1,.65,5.91.44.44,0,0,1-.06.18S84.53,45.55,84.56,45.61Z"/><path class="cls-2" d="M53.27,17.27a27.83,27.83,0,0,0-7.36,1.91A27,27,0,0,1,53.27,17.27Z"/><path class="cls-2" d="M74.67,23.8a27,27,0,0,1,5.64,6.62A29.07,29.07,0,0,0,74.67,23.8Z"/><path class="cls-2" d="M46.37,25.84h0l.15-.06A.24.24,0,0,0,46.37,25.84Z"/><path class="cls-2" d="M29.25,38.8c-.12.52-.25,1-.34,1.57C29,39.85,29.12,39.32,29.25,38.8Z"/><path class="cls-2" d="M28.45,45.42v.18a.2.2,0,0,0,0-.18v-.15h0a28.66,28.66,0,0,1,.43-4.9,26.81,26.81,0,0,0-.43,4.5A3.33,3.33,0,0,1,28.45,45.42Z"/><path class="cls-2" d="M28.48,44.87c0,.18,0,.37,0,.55v0C28.45,45.24,28.48,45.05,28.48,44.87Z"/><path class="cls-2" d="M68.27,19.68a27.51,27.51,0,0,0-8.5-2.4A27.51,27.51,0,0,1,68.27,19.68Z"/><path class="cls-2" d="M80.49,67A27.52,27.52,0,0,1,90,65a26.82,26.82,0,0,0-9.49,2c-4.83,1.72-10.26,4.68-18,6.16-.89.18-1.79.34-2.71.46a26.19,26.19,0,0,0,2.71-.46C70.27,71.69,75.69,68.73,80.49,67Z"/><path class="cls-2" d="M28.48,45.42v.18h0c0-.06,0-.12.06-.18s0-.12-.06-.15h0Z"/><path class="cls-2" d="M28.51,45.42h0c0-.06,0-.12-.06-.18h0A1.21,1.21,0,0,1,28.51,45.42Z"/><path class="cls-2" d="M100.26,67.16h0l-.15-.06A.52.52,0,0,0,100.26,67.16Z"/><path class="cls-2" d="M87.36,58.39c-.46,0-.89.09-1.29.12C86.47,58.48,86.9,58.42,87.36,58.39Z"/><path class="cls-2" d="M23.52,106.52l1.39-.22-1.57,8.81H22Zm1.39-3.76a.85.85,0,0,1,.83,1,1.28,1.28,0,0,1-1.2,1,.85.85,0,0,1-.83-1A1.28,1.28,0,0,1,24.91,102.76Z"/><path class="cls-2" d="M26.32,106.64l1.32-.37a3.4,3.4,0,0,1,.06,1.36,4.46,4.46,0,0,1,2.83-1.32,1.73,1.73,0,0,1,1.79,1.26,2.78,2.78,0,0,1,0,1l-1.17,6.56H29.89l1-5.82c.15-.92.15-1.14,0-1.45a1,1,0,0,0-.83-.37,4.66,4.66,0,0,0-2.49,1.2l-1.14,6.41H25.18l1.2-6.65A4.25,4.25,0,0,0,26.32,106.64Z"/><path class="cls-2" d="M33.81,106.58l1.32-.31a3.14,3.14,0,0,1,.06,1.26,4.42,4.42,0,0,1,2.62-1.29,1.63,1.63,0,0,1,1.66,1.45,4.77,4.77,0,0,1,2.89-1.45c1.23,0,1.88,1,1.66,2.34l-1.17,6.5H41.54l1.14-6.37c.15-.83-.15-1.26-.83-1.26s-1.42.49-2.43,1.32l-1.14,6.31H37L38.09,109a1.82,1.82,0,0,0,0-1.11.81.81,0,0,0-.77-.34A4,4,0,0,0,35,108.65l-1.17,6.44H32.57l1.2-6.68A3.74,3.74,0,0,0,33.81,106.58Z"/><path class="cls-2" d="M49,106.24a2.57,2.57,0,0,1,2.56,1.51,5.28,5.28,0,0,1,.18,3.2c-.52,2.86-2.25,4.4-4.34,4.4-2.28,0-3.23-1.76-2.74-4.59S46.77,106.24,49,106.24Zm-.22,1.11a2.27,2.27,0,0,0-1.85.92,5.57,5.57,0,0,0-.8,2.25,6,6,0,0,0,0,2.8,1.57,1.57,0,0,0,1.51.86,2.25,2.25,0,0,0,2-1.29,5.88,5.88,0,0,0,.59-1.88,6.29,6.29,0,0,0,.09-2.59A1.55,1.55,0,0,0,48.74,107.35Z"/><path class="cls-2" d="M54,102.73l1.32-.25a7.24,7.24,0,0,1-.15,2l-.37,2c-.09.43-.22,1-.22,1a3.77,3.77,0,0,1,2.59-1.17c2,0,2.89,1.69,2.4,4.37s-2.12,4.65-4.1,4.65a2.41,2.41,0,0,1-2.06-1.14,2.72,2.72,0,0,1-.4.92H51.7a6.65,6.65,0,0,0,.65-2.16l1.54-8.47A5.11,5.11,0,0,0,54,102.73Zm-.37,10.35a2.22,2.22,0,0,0,1.85,1,2.33,2.33,0,0,0,1.63-.77,6.41,6.41,0,0,0,1.08-2.77,3.66,3.66,0,0,0-.06-2.31,1.5,1.5,0,0,0-1.42-.74,3.33,3.33,0,0,0-2.28,1.14Z"/><path class="cls-2" d="M61.52,106.52l1.39-.22-1.57,8.81H60Zm1.36-3.76a.85.85,0,0,1,.83,1,1.28,1.28,0,0,1-1.2,1,.85.85,0,0,1-.83-1A1.34,1.34,0,0,1,62.88,102.76Z"/><path class="cls-2" d="M64.45,113.39c-.12.68-.06.86.31.86a1.09,1.09,0,0,0,.18,0l.09.89a1.82,1.82,0,0,1-.86.18,1.16,1.16,0,0,1-.92-.37,1.46,1.46,0,0,1-.18-1.23l1.63-9.15a5.83,5.83,0,0,0,.12-1.76l1.32-.25a7.24,7.24,0,0,1-.15,2Z"/><path class="cls-2" d="M67.68,106.52l1.39-.22-1.57,8.81H66.14ZM69,102.76a.85.85,0,0,1,.83,1,1.28,1.28,0,0,1-1.2,1,.85.85,0,0,1-.83-1A1.34,1.34,0,0,1,69,102.76Z"/><path class="cls-2" d="M70.24,107.45a6.93,6.93,0,0,1,3.66-1.17c1.14,0,1.85.46,2,1.36a5.49,5.49,0,0,1-.15,1.91l-.59,2.83c-.28,1.39-.28,1.76.28,2.09l-.83,1a1.35,1.35,0,0,1-.89-1.26,3.66,3.66,0,0,1-2.59,1.17c-2,0-2.4-1.29-2.22-2.46.34-1.94,2.16-3.08,4.93-3.08a5.23,5.23,0,0,1,.59,0l.12-.62c.12-.77.15-1.08,0-1.36a1.12,1.12,0,0,0-1-.46,5.32,5.32,0,0,0-2.8,1Zm4,3.3a4.34,4.34,0,0,0-.65,0c-2.09,0-3,.74-3.2,2.06-.18,1,.18,1.57,1.14,1.57A2.79,2.79,0,0,0,73.78,113Z"/><path class="cls-2" d="M77.54,106.64l1.36-.37a3.11,3.11,0,0,1,0,1.42,3.62,3.62,0,0,1,2.59-1.45,1.26,1.26,0,0,1,.43.09l-.8,1.48a1,1,0,0,0-.34-.06,2.24,2.24,0,0,0-1.48.62,2,2,0,0,0-.74,1.36l-1,5.39H76.3l1.2-6.65A4.18,4.18,0,0,0,77.54,106.64Z"/><path class="cls-2" d="M82.37,106.52l1.39-.22-1.57,8.81H80.83Zm1.36-3.76a.85.85,0,0,1,.83,1,1.28,1.28,0,0,1-1.2,1,.85.85,0,0,1-.83-1A1.34,1.34,0,0,1,83.73,102.76Z"/><path class="cls-2" d="M84.9,107.45a6.93,6.93,0,0,1,3.66-1.17c1.14,0,1.85.46,2,1.36a5.49,5.49,0,0,1-.15,1.91l-.59,2.83c-.28,1.39-.28,1.76.28,2.09l-.83,1a1.35,1.35,0,0,1-.89-1.26,3.72,3.72,0,0,1-2.59,1.17c-2,0-2.4-1.29-2.22-2.46.34-1.94,2.16-3.08,4.93-3.08a5.23,5.23,0,0,1,.59,0l.12-.62c.15-.77.15-1.08,0-1.36a1.12,1.12,0,0,0-1-.46,5.32,5.32,0,0,0-2.8,1Zm4,3.3a4.34,4.34,0,0,0-.65,0c-2.09,0-3,.74-3.2,2.06-.18,1,.18,1.57,1.14,1.57A2.79,2.79,0,0,0,88.47,113Z"/><path class="cls-2" d="M100.33,92.32a1.56,1.56,0,1,1,.46-1.11A1.51,1.51,0,0,1,100.33,92.32Zm-2.09-2.06a1.28,1.28,0,0,0-.4,1,1.35,1.35,0,0,0,.4,1,1.28,1.28,0,0,0,1,.4,1.23,1.23,0,0,0,1-.4,1.3,1.3,0,0,0,.4-1,1.35,1.35,0,0,0-2.31-1Zm1,.09a1.5,1.5,0,0,1,.46.06.41.41,0,0,1,.28.43.35.35,0,0,1-.18.34l-.25.09a.57.57,0,0,1,.31.15.5.5,0,0,1,.09.28V92s0,.09,0,.09v0h-.28V91.8a.45.45,0,0,0-.15-.4.82.82,0,0,0-.34-.06h-.25V92H98.6V90.29l.59.06Zm.31.28a1,1,0,0,0-.37-.06h-.25v.62h.28a.68.68,0,0,0,.28,0,.3.3,0,0,0,.18-.28C99.62,90.75,99.59,90.66,99.49,90.63Z"/><path class="cls-2" d="M46.56,118.35h.89l-3.79,6.87h-.22l-1.6-6.87h.92l1.11,4.8Z"/><path class="cls-2" d="M47.45,120.69h.83l-.74,4.5h-.83Zm.71-1.91a.49.49,0,0,1,.34.15.38.38,0,0,1,.09.37.57.57,0,0,1-.22.37.64.64,0,0,1-.37.15.38.38,0,0,1-.31-.15.38.38,0,0,1-.09-.37.77.77,0,0,1,.22-.37A.49.49,0,0,1,48.16,118.78Z"/><path class="cls-2" d="M52.41,123H49.48a1.22,1.22,0,0,0,.25,1,1.1,1.1,0,0,0,.89.37,2.73,2.73,0,0,0,1.6-.55l-.15.86a3.42,3.42,0,0,1-.83.4,2.73,2.73,0,0,1-.89.12,1.66,1.66,0,0,1-1.08-.31,2,2,0,0,1-.55-.83,2.55,2.55,0,0,1-.06-1.2,3,3,0,0,1,.8-1.66A2.05,2.05,0,0,1,51,120.6a1.4,1.4,0,0,1,1.23.62,2.31,2.31,0,0,1,.22,1.69Zm-2.83-.55h2.09a1.35,1.35,0,0,0-.15-.83.8.8,0,0,0-.65-.28,1.13,1.13,0,0,0-.77.28A1.92,1.92,0,0,0,49.57,122.47Z"/><path class="cls-2" d="M54.29,120.69l-.09.59a2,2,0,0,1,1.36-.68,1,1,0,0,1,.68.22,1.12,1.12,0,0,1,.4.59,2.65,2.65,0,0,1,0,1.2l-.43,2.59h-.83l.43-2.56a1.94,1.94,0,0,0,0-1,.65.65,0,0,0-.62-.31A1.47,1.47,0,0,0,54,122l-.52,3.2h-.83l.74-4.5.89,0Z"/><path class="cls-2" d="M61,118.35h.83l-1.11,6.84H59a1.65,1.65,0,0,1-1.39-.62,2.16,2.16,0,0,1-.28-1.69,2.91,2.91,0,0,1,.86-1.63,2.24,2.24,0,0,1,1.57-.65,2.44,2.44,0,0,1,.89.18Zm-1,6.07.46-2.86a1.36,1.36,0,0,0-.74-.22,1.47,1.47,0,0,0-1,.43,2.2,2.2,0,0,0-.55,1.17,1.47,1.47,0,0,0,.15,1.08.72.72,0,0,0,.37.31,2,2,0,0,0,.74.09Z"/><path class="cls-2" d="M64.36,120.69a1.71,1.71,0,0,1,1.48.68A2.12,2.12,0,0,1,66.2,123a2.7,2.7,0,0,1-.89,1.6,2.56,2.56,0,0,1-1.72.65,1.85,1.85,0,0,1-1.48-.65,2.08,2.08,0,0,1-.37-1.63,2.78,2.78,0,0,1,.89-1.63A2.5,2.5,0,0,1,64.36,120.69Zm-.18.8a1.52,1.52,0,0,0-1,.43,1.75,1.75,0,0,0-.55,1.08,1.28,1.28,0,0,0,.22,1,1.09,1.09,0,0,0,.92.4,1.56,1.56,0,0,0,1.08-.4,1.67,1.67,0,0,0,.55-1,1.31,1.31,0,0,0-.22-1A1,1,0,0,0,64.17,121.49Z"/><path class="cls-2" d="M68.45,127.49l1.11-6.81H71a2,2,0,0,1,1.63.59,2,2,0,0,1,.34,1.66,2.9,2.9,0,0,1-.86,1.66,2.26,2.26,0,0,1-1.6.65,2.29,2.29,0,0,1-.86-.18l-.4,2.4h-.8Zm2.4-6h-.59l-.46,2.77a1.32,1.32,0,0,0,.77.22,1.4,1.4,0,0,0,1-.43,2.23,2.23,0,0,0,.55-1.11,1.26,1.26,0,0,0-.06-.77.93.93,0,0,0-.4-.49A1.44,1.44,0,0,0,70.85,121.52Z"/><path class="cls-2" d="M76,120.69a1.71,1.71,0,0,1,1.48.68,2.12,2.12,0,0,1,.37,1.66,2.67,2.67,0,0,1-2.62,2.25,1.85,1.85,0,0,1-1.48-.65,2.08,2.08,0,0,1-.37-1.63,2.78,2.78,0,0,1,.89-1.63A2.5,2.5,0,0,1,76,120.69Zm-.18.8a1.52,1.52,0,0,0-1,.43,1.75,1.75,0,0,0-.55,1.08,1.28,1.28,0,0,0,.22,1,1.09,1.09,0,0,0,.92.4,1.56,1.56,0,0,0,1.08-.4,1.67,1.67,0,0,0,.55-1,1.31,1.31,0,0,0-.22-1A1,1,0,0,0,75.84,121.49Z"/><path class="cls-2" d="M79.82,120.69l-.18,1,.06-.06c.52-.71,1-1,1.36-1a1.16,1.16,0,0,1,.89.49l-.55.77a1.05,1.05,0,0,0-.74-.43,1,1,0,0,0-.77.4,1.84,1.84,0,0,0-.46,1L79,125.15h-.83l.74-4.5.86,0Z"/><path class="cls-2" d="M84,121.4l1.82-1.63-.15.92H87l-.12.8H85.54l-.37,2.22c-.09.52.06.77.46.77a1.92,1.92,0,0,0,1-.31l-.12.83a2.25,2.25,0,0,1-1.08.28,1.14,1.14,0,0,1-.89-.37.67.67,0,0,1-.15-.25,1.11,1.11,0,0,1-.06-.34,6.52,6.52,0,0,1,.09-.83l.34-2H84Z"/><path class="cls-2" d="M87.61,120.69h.83l-.74,4.5h-.83Zm2.16-2.43-1.26,1.48H88l.86-1.48Z"/></svg>