<svg xmlns="http://www.w3.org/2000/svg" xmlns:xlink="http://www.w3.org/1999/xlink" width="179" height="79" viewBox="0 0 179 79">
  <defs>
    <clipPath id="clip-Mesa_de_trabajo_5">
      <rect width="179" height="79"/>
    </clipPath>
  </defs>
  <g id="Mesa_de_trabajo_5" data-name="Mesa de trabajo – 5" clip-path="url(#clip-Mesa_de_trabajo_5)">
    <rect width="179" height="79" fill="#fff"/>
    <g id="Grupo_182" data-name="Grupo 182" transform="translate(7 24)">
      <g id="Wordmark" transform="translate(32.034 7.035)">
        <path id="_xAE__1_" d="M1160.577,650.553c0-.346-.282-.471-.6-.471h-.565v1.571h.283v-.66h.188l.377.66h.346l-.408-.691A.409.409,0,0,0,1160.577,650.553Zm-.879.22v-.44h.251c.157,0,.314.032.314.22s-.189.22-.346.22Zm.283-1.288a1.374,1.374,0,0,0-1.382,1.382,1.394,1.394,0,0,0,1.382,1.382,1.382,1.382,0,1,0,0-2.764Zm0,2.575a1.162,1.162,0,1,1,1.162-1.162A1.179,1.179,0,0,1,1159.981,652.06Z" transform="translate(-1027.858 -633.374)" fill="#b3b3b3"/>
        <path id="quickbooks" d="M288.037,553.361c-2.041,0-3.078-1.821-3.078-3.58s1.13-3.518,2.984-3.518a3.2,3.2,0,0,1,2.387,1.036l2.167-2.167a6.476,6.476,0,1,0-4.491,11.055,6.13,6.13,0,0,0,4.554-1.634l-2.1-2.261A3.181,3.181,0,0,1,288.037,553.361Zm-12.091,2.513h3.361V543.72h-3.361Zm-6.093-5.5a2.786,2.786,0,0,1-2.669,2.952c-1.35,0-2.041-.943-2.041-2.921V543.72h-3.36v7.537c0,2.512,1.256,4.962,4.585,4.962a4.948,4.948,0,0,0,3.58-2.167h.063v1.822h3.2V543.719h-3.361Zm-14.132-5.119h-.063a5.138,5.138,0,0,0-3.831-1.884,6.065,6.065,0,0,0-6.061,6.375c0,3.737,2.418,6.47,5.9,6.47a5.5,5.5,0,0,0,3.894-1.79h.063v7.443h3.36V543.72h-3.234v1.539Zm-3.235,8.1a3.4,3.4,0,0,1-3.266-3.612,3.319,3.319,0,0,1,3.266-3.548,3.435,3.435,0,0,1,3.235,3.611A3.4,3.4,0,0,1,252.486,553.361Zm76.41-9.987a6.263,6.263,0,0,0-6.6,6.375,6.6,6.6,0,1,0,6.6-6.375Zm0,9.987c-2.2,0-3.172-1.853-3.172-3.612A3.263,3.263,0,0,1,328.9,546.2c2.2,0,3.172,1.853,3.172,3.548C332.067,551.477,331.094,553.361,328.9,553.361Zm41.957-4.962c-1.727-.409-2.324-.628-2.324-1.319,0-.974,1.225-1.162,1.79-1.162a3.762,3.762,0,0,1,2.669,1.225l1.979-1.885a5.9,5.9,0,0,0-4.616-1.821c-2.419,0-4.962,1.225-4.962,3.957,0,2.355,1.821,3.046,3.643,3.486,1.884.44,2.575.754,2.575,1.539,0,1.131-1.288,1.319-1.728,1.319a4.324,4.324,0,0,1-3.046-1.445l-2.041,2.073a6.811,6.811,0,0,0,4.962,1.978c3.266,0,5.213-1.57,5.213-4.145C374.9,549.624,372.549,548.807,370.853,548.4Zm-6.343-4.68h-4.334l-4.334,5.056h-.062V537.03h-3.361v18.843h3.361v-6h.062l4.491,6h4.429l-5.214-6.627Zm-49.778-.346a5.236,5.236,0,0,0-3.737,1.665h-.031V537H307.6v18.843h3.2v-1.728h.063a4.514,4.514,0,0,0,3.832,2.073,6.416,6.416,0,0,0,.031-12.814Zm-.659,9.987a3.379,3.379,0,0,1-3.235-3.549,3.454,3.454,0,0,1,3.235-3.611,3.339,3.339,0,0,1,3.266,3.548A3.38,3.38,0,0,1,314.072,553.361Zm-7.726-9.641h-4.334l-4.334,5.056h-.063V537.03h-3.36v18.843h3.36v-6h.063l4.491,6H306.6l-5.213-6.627Zm37.279-.346a6.263,6.263,0,0,0-6.6,6.375,6.6,6.6,0,1,0,6.6-6.375Zm0,9.987c-2.2,0-3.172-1.853-3.172-3.612a3.263,3.263,0,0,1,3.172-3.548c2.2,0,3.172,1.853,3.172,3.548C346.828,551.477,345.823,553.361,343.625,553.361Z" transform="translate(-245.765 -536.999)" fill="#b3b3b3"/>
      </g>
      <ellipse id="Circle_2_" cx="14.133" cy="14.133" rx="14.133" ry="14.133" transform="translate(0 0)" fill="#b3b3b3"/>
      <path id="qb" d="M49.515,531.133a5.482,5.482,0,0,0,5.5,5.5H55.8v-2.041h-.785a3.455,3.455,0,1,1,0-6.909H56.9v10.678a2.037,2.037,0,0,0,2.041,2.041v-14.76H55.011A5.5,5.5,0,0,0,49.515,531.133Zm14.917-5.5h-.785v2.041h.785a3.455,3.455,0,1,1,0,6.909H62.548V523.909a2.037,2.037,0,0,0-2.041-2.041v14.76h3.926a5.5,5.5,0,1,0,0-10.992Z" transform="translate(-45.589 -517)" fill="#fff"/>
      <path id="intuit_2_" d="M269.915,499.193a.942.942,0,1,0-.942-.942A.989.989,0,0,0,269.915,499.193Zm-5.559.628a2.148,2.148,0,0,0-1.915,1.162h-.032v-1.005h-1.476v6.187h1.539v-3.392a1.513,1.513,0,0,1,1.444-1.665c1.005,0,1.162.911,1.162,1.633v3.423h1.539V502.3A2.213,2.213,0,0,0,264.356,499.821Zm-6.532,6.344h1.539v-6.187h-1.539Zm28.108-6.972a.942.942,0,1,0-.942-.942A.945.945,0,0,0,285.932,499.193Zm-2.512.785v1.382h1.727v4.8h1.539v-4.8h1.727v-1.382Zm-2.638,6.187h1.539v-6.187h-1.539Zm-13.347-4.805h1.727v4.8H270.7v-4.8h1.727v-1.382H267.4v1.382Zm10.207,2.041a1.513,1.513,0,0,1-1.444,1.665c-1.005,0-1.162-.911-1.162-1.633v-3.423H273.5v3.863a2.261,2.261,0,0,0,2.293,2.512,2.148,2.148,0,0,0,1.916-1.162h.032v1h1.476v-6.187h-1.57v3.36Z" transform="translate(-224.063 -495.958)" fill="#b3b3b3"/>
    </g>
  </g>
</svg>
