<svg xmlns="http://www.w3.org/2000/svg" width="89" height="20" viewBox="0 0 89 20"><defs><style>.a{fill:#b3b4b4;}</style></defs><title>roberts</title><polygon class="a" points="75.25 1.73 77.61 1.73 73.88 7.36 75.25 1.73"/><path class="a" d="M54.71,14.78q0,.76,0,1.26a3.83,3.83,0,0,0,.15.83c.07.22.54.18.55.6a.35.35,0,0,1-.39.36c-1,0-2.9,0-3.18,0a.3.3,0,0,1-.33-.23c-.07-.51.42-.44.54-.72a3,3,0,0,0,.16-.83q0-.49,0-1.26V5.23q0-.76,0-1.26a8.16,8.16,0,0,0-.1-.82c-.08-.42-.61-.23-.61-.64s.19-.35.54-.36h4.72a7.84,7.84,0,0,1,2,.22,4.48,4.48,0,0,1,1.49.7,4,4,0,0,1,1.14,1.36,3.6,3.6,0,0,1,.43,1.67,3.33,3.33,0,0,1-.28,1.33,4,4,0,0,1-.8,1.19,5.38,5.38,0,0,1-1.22.94,5.89,5.89,0,0,1-1.54.61q1.33,1.8,2.36,3.07c.69.85,1.11,1.38,1.67,2a8.05,8.05,0,0,0,1,1.05,5.73,5.73,0,0,0,1.14.73c.45.22.88.15.85.57s-1.08.37-1.36.37a11.85,11.85,0,0,1-1.56-.13,3.34,3.34,0,0,1-.93-.39,3.76,3.76,0,0,1-.76-.65q-.45-.46-1.06-1.18-1.06-1.24-2.12-2.75c-.58-.83-1.13-1.73-1.71-2.56,0,0-.24-.26-.13-.48s.3-.21.53-.27q3.25-.79,3.25-3.25a2.46,2.46,0,0,0-.8-1.9,3.84,3.84,0,0,0-2-.82c-.26-.05-1.66-.18-1.73.27s0,10.95,0,10.95"/><path class="a" d="M4.4,14.78q0,.76,0,1.26a3.84,3.84,0,0,0,.15.83c.07.22.54.18.55.6a.35.35,0,0,1-.39.36c-1,0-2.9,0-3.18,0a.3.3,0,0,1-.33-.23c-.07-.51.42-.44.54-.72A3,3,0,0,0,2,16q0-.49,0-1.26V5.23Q2,4.46,2,4a8.09,8.09,0,0,0-.1-.82c-.08-.42-.61-.23-.61-.64s.19-.35.54-.36H6.51a7.84,7.84,0,0,1,2,.22,4.48,4.48,0,0,1,1.49.7,4,4,0,0,1,1.14,1.36,3.6,3.6,0,0,1,.43,1.67,3.33,3.33,0,0,1-.28,1.33,4,4,0,0,1-.8,1.19,5.39,5.39,0,0,1-1.22.94,5.89,5.89,0,0,1-1.54.61q1.33,1.8,2.36,3.07c.69.85,1.11,1.38,1.67,2a8,8,0,0,0,1,1.05,5.74,5.74,0,0,0,1.14.73c.45.22.88.15.85.57s-1.08.37-1.36.37a11.85,11.85,0,0,1-1.56-.13,3.34,3.34,0,0,1-.93-.39,3.75,3.75,0,0,1-.76-.65q-.45-.46-1.06-1.18Q8.06,14.35,7,12.84c-.58-.83-1.13-1.73-1.71-2.56,0,0-.24-.26-.13-.48s.3-.21.53-.27q3.25-.79,3.25-3.25a2.46,2.46,0,0,0-.8-1.9,3.84,3.84,0,0,0-2-.82c-.26-.05-1.66-.18-1.73.27s0,10.95,0,10.95"/><path class="a" d="M20.34,1.67a9.19,9.19,0,0,1,3.3.62A7.87,7.87,0,0,1,26.39,4a7.66,7.66,0,0,1,1.76,2.62,8.15,8.15,0,0,1,.64,3.16A7.79,7.79,0,0,1,28.11,13a8.37,8.37,0,0,1-1.87,2.64,8.64,8.64,0,0,1-2.78,1.76,9.14,9.14,0,0,1-3.44.64,9.05,9.05,0,0,1-3.39-.63,8.71,8.71,0,0,1-2.74-1.72,8,8,0,0,1-1.84-2.57A7.62,7.62,0,0,1,11.38,10a7.9,7.9,0,0,1,.69-3.29A8.07,8.07,0,0,1,14,4,8.75,8.75,0,0,1,16.79,2.3a9.83,9.83,0,0,1,3.55-.63M20,3.38a6.21,6.21,0,0,0-2.37.47,5.63,5.63,0,0,0-1.94,1.28,5.55,5.55,0,0,0-1.2,2,7,7,0,0,0-.44,2.46,7.67,7.67,0,0,0,.49,2.7A7.13,7.13,0,0,0,16,14.6a5.36,5.36,0,0,0,4.15,1.78,6.34,6.34,0,0,0,2.42-.45,5.4,5.4,0,0,0,1.88-1.27,5.79,5.79,0,0,0,1.22-2,7.07,7.07,0,0,0,.44-2.54,7.76,7.76,0,0,0-.41-2.55,6.8,6.8,0,0,0-1.2-2.15A5.55,5.55,0,0,0,20,3.38"/><path class="a" d="M33.87,2.15a12.52,12.52,0,0,1,2,.12,4.3,4.3,0,0,1,1.33.44A3.7,3.7,0,0,1,38.61,4a3,3,0,0,1,.51,1.69,3,3,0,0,1-.36,1.43,3,3,0,0,1-1,1.09l-.41.25q-.2.11-.61.29.65.18,1,.32a4.59,4.59,0,0,1,.75.36,4.1,4.1,0,0,1,1.56,1.49,3.89,3.89,0,0,1,.55,2,4.23,4.23,0,0,1-.8,2.49,5.43,5.43,0,0,1-2.2,1.79,5.9,5.9,0,0,1-.79.3,5.77,5.77,0,0,1-.88.19q-.47.07-1.06.11c-.39,0-.82,0-1.32,0H29.39c-.18,0-.58,0-.57-.4s.44-.29.59-.58a8.33,8.33,0,0,0,.14-2V5.22q0-.77,0-1.26a1.72,1.72,0,0,0-.16-.83c-.26-.33-.48-.19-.52-.52-.06-.58.68-.45,1.14-.45h3.91m-1.94,6.2a1.29,1.29,0,0,0,1,.19,5.34,5.34,0,0,0,2.64-.7,2.11,2.11,0,0,0,1-1.84,2,2,0,0,0-.84-1.7,3.31,3.31,0,0,0-2.16-.69c-.22,0-1.52-.14-1.68.2a19.29,19.29,0,0,0,.05,4.54m0,7.5c.26.34,1.7.31,2.07.31a4.88,4.88,0,0,0,3-.77,2.56,2.56,0,0,0,1-2.19,2.87,2.87,0,0,0-1.11-2.41,3.7,3.7,0,0,0-1.3-.64,21.55,21.55,0,0,0-2.74-.22c-.27,0-.73-.08-.94.14a28.65,28.65,0,0,0,0,5.78"/><path class="a" d="M43.64,15.74c.21.38,2.24.42,2.77.42a9.19,9.19,0,0,0,2.8-.26c.86-.32,1.4-1.46,1.88-.94.18.2-.15.88-.24,1.13s-.66,1.63-1.17,1.71-8.48,0-8.65,0-.62,0-.62-.3c0-.52.61-.37.69-.78,0-.23.15-1.52.15-2V5.22q0-.76,0-1.26a3.92,3.92,0,0,0-.09-.79c-.18-.56-.63-.16-.7-.62s.74-.4,1-.4h6.51c.23,0,.43,0,.53,0s.42-.22.51-.08a1.87,1.87,0,0,1,0,.51c0,.15,0,1.85,0,1.85s0,.26-.12.28-.28-.22-.46-.35a2.12,2.12,0,0,0-.6-.29,4,4,0,0,0-.75-.15,9.7,9.7,0,0,0-1,0q-.85,0-1.39,0c-.36,0-.94,0-1.06.12a22.91,22.91,0,0,0,0,4.4,27.58,27.58,0,0,0,3.17,0,.74.74,0,0,0,.41-.06c.13-.1.08-.34.29-.34s.16.55.15.76,0,1.43,0,1.55,0,.36-.18.36-.19-.31-.45-.4a4.25,4.25,0,0,0-1.27-.18,9.79,9.79,0,0,0-2.11,0,27.55,27.55,0,0,0,0,5.61"/><path class="a" d="M73.57,4.61c-.25,0-.23-.21-.34-.36a1,1,0,0,0-.41-.35,14.93,14.93,0,0,0-3.42,0c-.25.13,0,11,0,11a7.59,7.59,0,0,0,.06,1,2.49,2.49,0,0,0,.19.73c.23.49.74.23.77.72s-.66.38-1.1.38h-2.8c-.31,0-.36-.2-.36-.26,0-.54.49-.37.62-.72a3.44,3.44,0,0,0,.17-.85q0-.51,0-1.25c0-3.8.13-10.58,0-10.79a15,15,0,0,0-3.57,0,.84.84,0,0,0-.53.29c-.21.23-.29.5-.56.35s-.15-.41-.13-.55c.13-.66.29-1.16.36-1.42.11-.41.19-.77.44-.79.49,0,.3.24.63.26s.48,0,.71,0h8.21c.26,0,.75,0,.9,0,.56-.1.34-.29.81-.28.3,0,.15.49.12.61C74.24,3,74,3.8,74,4.05s-.14.57-.38.55"/><path class="a" d="M86.2,4.8c-.27,0-.25-.21-.49-.4a4.06,4.06,0,0,0-1.11-.63,5.32,5.32,0,0,0-2.08-.41,3.9,3.9,0,0,0-2.3.62,1.92,1.92,0,0,0-.87,1.64,2.07,2.07,0,0,0,.15.81,1.92,1.92,0,0,0,.55.7,6.3,6.3,0,0,0,1.09.72q.7.38,1.77.88l1.29.6q.54.26.95.49l.72.42a5.42,5.42,0,0,1,.58.42,3.2,3.2,0,0,1,1.3,2.62A4.22,4.22,0,0,1,87.38,15a4.73,4.73,0,0,1-1.11,1.53,7,7,0,0,1-5,1.78,12.32,12.32,0,0,1-2.13-.17,6.52,6.52,0,0,1-2-.6,3,3,0,0,1-.84-1.79c-.06-.39-.16-1.07.06-1.16s.29.28,1,.71a7.15,7.15,0,0,0,4.23,1.19A5.09,5.09,0,0,0,83,16.31a3.93,3.93,0,0,0,1.14-.52,2.6,2.6,0,0,0,.75-.78,1.81,1.81,0,0,0,.27-1,2.16,2.16,0,0,0-.22-.94,2.38,2.38,0,0,0-.58-.78A4.82,4.82,0,0,0,83.9,12a5.75,5.75,0,0,0-.57-.34l-.84-.42-1.23-.58L80,10.07l-.89-.47a7,7,0,0,1-.67-.42,4.35,4.35,0,0,1-.54-.46,3.73,3.73,0,0,1-1.25-2.78,3.68,3.68,0,0,1,.42-1.77,3.91,3.91,0,0,1,1.21-1.35A5.85,5.85,0,0,1,80.21,2a9.56,9.56,0,0,1,2.47-.3,12.73,12.73,0,0,1,1.82.13,4.91,4.91,0,0,1,1.87.45c.07.08,0,.27.05.53,0,.49,0,1.16,0,1.37s.07.67-.23.65"/></svg>