<svg id="Capa_1" data-name="Capa 1" xmlns="http://www.w3.org/2000/svg" viewBox="0 0 133.49 106.49"><defs><style>.cls-1{fill:#b3b3b3;}</style></defs><title>Mesa de trabajo 23</title><path class="cls-1" d="M21.05,76.83V63.91A34.82,34.82,0,0,0,30,71.58a18.49,18.49,0,0,0,9.07,2.35q5.11,0,8.07-2.37a7.84,7.84,0,0,0,3-6.44,9.15,9.15,0,0,0-2-5.86q-2-2.52-9.57-7.28Q26.86,44.47,23.9,40.34a16.35,16.35,0,0,1-3-9.82A16.92,16.92,0,0,1,26.6,17.38q5.67-5.13,14.62-5.13a27.11,27.11,0,0,1,7.84,1.16A33.23,33.23,0,0,1,56.84,17V28.12a37.34,37.34,0,0,0-8.37-5.26,19.47,19.47,0,0,0-7.68-1.64,12,12,0,0,0-7.56,2.28,7.1,7.1,0,0,0-2.93,5.86q0,5.1,12.21,12.65L44,42.9Q53.87,49,56.92,53.72a20.86,20.86,0,0,1,3,11.6,16.71,16.71,0,0,1-5.7,13q-5.7,5.13-14.59,5.13a30.09,30.09,0,0,1-10-1.58A27.89,27.89,0,0,1,21.05,76.83Z"/><path class="cls-1" d="M83,82.42V55.2H64.85V47.47h43.8V55.2H91.4V82.42Z"/><path class="cls-1" d="M88.6,20.55S91.85,14,87.25,13.1c0,0-3.41-.52-2.26.45S89.95,15.59,88.6,20.55Z"/><path class="cls-1" d="M88,22c.75.67,1.28,1,1.45,3.89.74-3.93,3.54-5.05,5.71-4.14-3.27-3.39-6.24-1.6-6.43-2.16a4.92,4.92,0,0,0-2.59-2.82C76,13.33,71.23,22.68,70.23,25.87,67.38,40,78.34,44.86,82.6,43.45a8.62,8.62,0,0,1,3.65-.81c2.61-.24,4.52,1.64,7.4,1.44,4.16-.29,13.28-8.83,5.07-18,5.49,15.11-14.39,17.17-19.14,11C72.27,26.91,81.41,16.77,88,22Z"/><path class="cls-1" d="M21,92.21v-1a2.73,2.73,0,0,0,.7.62,1.39,1.39,0,0,0,.71.19,1,1,0,0,0,.63-.19.64.64,0,0,0,.23-.52.75.75,0,0,0-.16-.47,3.34,3.34,0,0,0-.74-.59,4.74,4.74,0,0,1-1.14-.93,1.34,1.34,0,0,1-.23-.79,1.38,1.38,0,0,1,.44-1.05A1.6,1.6,0,0,1,22.55,87a2.08,2.08,0,0,1,.61.09,2.58,2.58,0,0,1,.61.28v.89a2.93,2.93,0,0,0-.65-.42,1.47,1.47,0,0,0-.6-.13.9.9,0,0,0-.59.18.57.57,0,0,0-.23.47q0,.41.95,1l.11.07a3.34,3.34,0,0,1,1,.87,1.71,1.71,0,0,1,.24.93,1.36,1.36,0,0,1-.45,1,1.6,1.6,0,0,1-1.14.41,2.33,2.33,0,0,1-.78-.12A2.19,2.19,0,0,1,21,92.21Z"/><path class="cls-1" d="M25.05,92.64l2.32-5.51h.56l2.35,5.51H29.5L28.81,91H26.53l-.68,1.63Zm1.77-2.33h1.67l-.85-2Z"/><path class="cls-1" d="M31.66,92.64V87.13h.76v4.8H35v.71Z"/><path class="cls-1" d="M37.73,92.68l-2.36-5.55h.8l1.67,3.93,1.7-3.93h.79l-2.41,5.55Z"/><path class="cls-1" d="M40.63,92.64,43,87.13h.56l2.35,5.51h-.79L44.38,91H42.1l-.68,1.63Zm1.77-2.33h1.67l-.85-2Z"/><path class="cls-1" d="M46.15,93.77h.12a1.05,1.05,0,0,0,.78-.22,1.3,1.3,0,0,0,.21-.86V87.13H48v5.37a4,4,0,0,1-.11,1.14,1.24,1.24,0,0,1-.39.56,1.22,1.22,0,0,1-.44.22,2.24,2.24,0,0,1-.6.08h-.13Z"/><path class="cls-1" d="M50.13,92.64V87.13h3.22v.7H50.89V89.5h2.4v.72h-2.4v1.72h2.54v.71Z"/><path class="cls-1" d="M59.7,92.64V87.84h-2v-.72h4.71v.72h-2v4.79Z"/><path class="cls-1" d="M64,92.64V87.13h3.22v.7H64.76V89.5h2.4v.72h-2.4v1.72h2.54v.71Z"/><path class="cls-1" d="M69.21,92.64V87.13h.67l3.52,4.28V87.13h.77v5.51h-.68L70,88.36v4.28Z"/><path class="cls-1" d="M77.7,92.64V87.84h-2v-.72h4.71v.72h-2v4.79Z"/><path class="cls-1" d="M80.68,92.64,83,87.13h.56l2.35,5.51h-.79L84.43,91H82.15l-.68,1.63Zm1.77-2.33h1.67l-.85-2Z"/><path class="cls-1" d="M91.68,91.34v.88a4.53,4.53,0,0,1-1,.39,3.67,3.67,0,0,1-1,.13,3,3,0,0,1-.88-.12,3,3,0,0,1-.79-.37,2.79,2.79,0,0,1-.93-1,2.83,2.83,0,0,1-.33-1.36,2.83,2.83,0,0,1,1.8-2.61A3.23,3.23,0,0,1,89.81,87a3.82,3.82,0,0,1,.9.11,4.78,4.78,0,0,1,.93.33v.85a5,5,0,0,0-1-.42,3,3,0,0,0-.87-.14,2.12,2.12,0,0,0-1.55.6,2.15,2.15,0,0,0,0,3,2.05,2.05,0,0,0,1.51.6,3,3,0,0,0,.95-.16A4.18,4.18,0,0,0,91.68,91.34Z"/><path class="cls-1" d="M93.53,92.64V87.13h.76v5.51Z"/><path class="cls-1" d="M96.12,89.87a2.74,2.74,0,0,1,.22-1.07,2.78,2.78,0,0,1,.62-.92,2.88,2.88,0,0,1,.93-.62A2.84,2.84,0,0,1,99,87a2.89,2.89,0,0,1,1.11.22,2.9,2.9,0,0,1,1.55,1.55,2.89,2.89,0,0,1,.21,1.11,2.8,2.8,0,0,1-.83,2,2.83,2.83,0,0,1-2,.83,2.83,2.83,0,0,1-1.09-.22,2.8,2.8,0,0,1-.92-.61,2.84,2.84,0,0,1-.63-.93A2.91,2.91,0,0,1,96.12,89.87Zm.82,0a2.11,2.11,0,0,0,.59,1.48,2,2,0,0,0,.66.46A2,2,0,0,0,99,92a2,2,0,0,0,.79-.16,2,2,0,0,0,.66-.46,2.09,2.09,0,0,0,.44-.68,2.13,2.13,0,0,0,.15-.8,2.08,2.08,0,0,0-.15-.8,2.18,2.18,0,0,0-.45-.69,2,2,0,0,0-.66-.46,2,2,0,0,0-.79-.16,1.93,1.93,0,0,0-.77.16,2.17,2.17,0,0,0-.67.46,2,2,0,0,0-.44.67A2.14,2.14,0,0,0,96.93,89.89Z"/><path class="cls-1" d="M103.64,92.64V87.13h.67l3.52,4.28V87.13h.77v5.51h-.68l-3.52-4.28v4.28Z"/><path class="cls-1" d="M99.05,86.54l.91-1.24h.66l-1.05,1.24Z"/><path class="cls-1" d="M109.66,86.28a.74.74,0,0,1,.36.09.67.67,0,0,1,.27.27.73.73,0,0,1,0,.73.68.68,0,0,1-.27.27.73.73,0,0,1-.72,0,.68.68,0,0,1-.27-.27.73.73,0,0,1,0-.73.67.67,0,0,1,.27-.27A.74.74,0,0,1,109.66,86.28Zm0,.14a.59.59,0,0,0-.29.08.54.54,0,0,0-.22.22.59.59,0,0,0,0,.59.55.55,0,0,0,.22.22.58.58,0,0,0,.58,0,.55.55,0,0,0,.22-.22.59.59,0,0,0,0-.59.54.54,0,0,0-.22-.22A.59.59,0,0,0,109.66,86.42Zm-.33,1v-.77h.4l.12,0a.2.2,0,0,1,.07.07.22.22,0,0,1,0,.11.2.2,0,0,1-.05.14.25.25,0,0,1-.15.07l.05,0,.05.06.06.09.09.16h-.19l-.07-.13a.52.52,0,0,0-.11-.16.17.17,0,0,0-.11,0h0v.32Zm.16-.44h.23l.05,0a.1.1,0,0,0,0-.06.1.1,0,0,0,0-.06l-.05,0h-.23Z"/><path class="cls-1" d="M110,45.93a1.06,1.06,0,0,1,.51.13,1,1,0,0,1,.38.38,1,1,0,0,1,0,1,1,1,0,0,1-.38.38,1,1,0,0,1-1,0,1,1,0,0,1-.38-.38,1,1,0,0,1,0-1,1,1,0,0,1,.38-.38A1.05,1.05,0,0,1,110,45.93Zm0,.2a.84.84,0,0,0-.41.11.77.77,0,0,0-.31.31.83.83,0,0,0,0,.83.79.79,0,0,0,.31.31.83.83,0,0,0,.83,0,.79.79,0,0,0,.31-.31.83.83,0,0,0,0-.83.77.77,0,0,0-.31-.31A.85.85,0,0,0,110,46.13Zm-.47,1.39v-1.1h.57a.44.44,0,0,1,.17,0,.28.28,0,0,1,.1.1.32.32,0,0,1,0,.16.29.29,0,0,1-.08.2.35.35,0,0,1-.22.1l.08,0,.07.08.08.13.13.22h-.27l-.09-.18a.75.75,0,0,0-.15-.23.25.25,0,0,0-.15,0h-.06v.45Zm.22-.62H110a.14.14,0,0,0,.07-.05.14.14,0,0,0,0-.08.14.14,0,0,0,0-.08.14.14,0,0,0-.07-.05l-.24,0h-.09Z"/></svg>