<?xml version="1.0" encoding="utf-8"?>
<!-- Generator: Adobe Illustrator 21.1.0, SVG Export Plug-In . SVG Version: 6.00 Build 0)  -->
<svg version="1.1" id="Layer_1" xmlns="http://www.w3.org/2000/svg" xmlns:xlink="http://www.w3.org/1999/xlink" x="0px" y="0px"
	 viewBox="0 0 94.4 36.5" style="enable-background:new 0 0 94.4 36.5;" xml:space="preserve">
<style type="text/css">
	.st0{fill:#B3B3B3;}
	.st1{fill:none;stroke:#8A8A8D;stroke-width:0.29;stroke-miterlimit:10;}
</style>
<title>1</title>
<path class="st0" d="M28.1,18.3c0,5.4-4.4,9.8-9.8,9.8s-9.8-4.4-9.8-9.8s4.4-9.8,9.8-9.8l0,0C23.7,8.5,28.1,12.9,28.1,18.3"/>
<path class="st0" d="M44.2,15.5c-0.1-0.3-0.4-0.5-0.7-0.7c-0.3-0.2-0.6-0.3-1-0.3c-0.2,0-0.3,0-0.5,0.1c-0.2,0-0.3,0.1-0.5,0.2
	c-0.1,0.1-0.2,0.2-0.3,0.3c-0.1,0.1-0.1,0.3-0.1,0.5c0,0.3,0.1,0.6,0.4,0.7c0.4,0.2,0.8,0.4,1.2,0.4c0.6,0.1,1.2,0.3,1.8,0.7
	c0.4,0.3,0.6,0.8,0.5,1.3c0,0.3-0.1,0.7-0.2,1c-0.1,0.2-0.3,0.5-0.6,0.6c-0.2,0.2-0.5,0.3-0.8,0.4c-0.3,0.1-0.6,0.1-0.9,0.1
	c-0.5,0-1-0.1-1.5-0.3c-0.5-0.2-0.9-0.6-1.2-1l0.8-0.6c0.2,0.3,0.4,0.6,0.7,0.7c0.3,0.2,0.7,0.3,1.1,0.3c0.2,0,0.4,0,0.6-0.1
	c0.2,0,0.3-0.1,0.5-0.2c0.1-0.1,0.3-0.2,0.3-0.4c0.1-0.2,0.1-0.4,0.1-0.5c0-0.3-0.2-0.6-0.5-0.8c-0.5-0.2-1-0.4-1.5-0.5
	c-0.2,0-0.4-0.1-0.6-0.2c-0.2-0.1-0.4-0.2-0.6-0.3c-0.2-0.1-0.3-0.3-0.5-0.5c-0.1-0.2-0.2-0.5-0.2-0.8c0-0.3,0.1-0.6,0.2-0.9
	c0.1-0.2,0.3-0.5,0.5-0.6c0.2-0.2,0.5-0.3,0.8-0.3c0.3-0.1,0.6-0.1,0.9-0.1c0.5,0,0.9,0.1,1.3,0.3c0.4,0.2,0.8,0.5,1,0.9L44.2,15.5z
	"/>
<path class="st0" d="M53.6,17.3c0,0.5-0.1,1-0.3,1.4c-0.2,0.4-0.4,0.8-0.7,1.1c-0.3,0.3-0.7,0.6-1.2,0.7c-0.9,0.3-1.9,0.3-2.9,0
	c-0.4-0.2-0.8-0.4-1.2-0.7c-0.3-0.3-0.6-0.7-0.7-1.1c-0.2-0.4-0.3-0.9-0.3-1.4c0-0.5,0.1-1,0.3-1.4c0.2-0.4,0.4-0.8,0.7-1.1
	c0.3-0.3,0.7-0.6,1.2-0.8c0.9-0.3,1.9-0.3,2.9,0c0.4,0.2,0.8,0.4,1.2,0.7c0.3,0.3,0.6,0.7,0.7,1.1C53.5,16.3,53.6,16.8,53.6,17.3
	 M52.6,17.3c0-0.3-0.1-0.7-0.2-1c-0.1-0.3-0.3-0.6-0.5-0.9c-0.2-0.3-0.5-0.4-0.8-0.6c-0.7-0.3-1.4-0.3-2.1,0
	c-0.3,0.1-0.6,0.3-0.8,0.6c-0.2,0.2-0.4,0.5-0.5,0.9c-0.1,0.3-0.2,0.7-0.2,1c0,0.4,0.1,0.7,0.2,1.1c0.1,0.3,0.3,0.6,0.5,0.9
	c0.2,0.2,0.5,0.4,0.8,0.6c0.3,0.2,0.7,0.2,1.1,0.2c0.4,0,0.7-0.1,1.1-0.2c0.3-0.1,0.6-0.3,0.8-0.6c0.2-0.2,0.4-0.5,0.5-0.9
	C52.6,18,52.6,17.6,52.6,17.3"/>
<path class="st0" d="M60.5,20.6c0-0.2,0-0.4,0-0.6c0-0.2,0-0.4,0-0.5l0,0c-0.2,0.4-0.5,0.7-0.9,0.9c-0.4,0.2-0.9,0.4-1.3,0.4
	c-0.7,0.1-1.4-0.2-1.9-0.7c-0.4-0.6-0.7-1.3-0.6-2V14h1v3.7c0,0.3,0,0.7,0.1,1c0.1,0.3,0.2,0.5,0.3,0.7c0.1,0.2,0.3,0.4,0.5,0.5
	c0.3,0.1,0.6,0.2,0.9,0.2c0.3,0,0.5-0.1,0.7-0.1c0.3-0.1,0.5-0.3,0.7-0.5c0.2-0.2,0.4-0.5,0.5-0.8c0.1-0.4,0.2-0.8,0.2-1.1V14h1v5.2
	c0,0.2,0,0.5,0,0.7c0,0.3,0,0.5,0,0.8L60.5,20.6z"/>
<rect x="64" y="9.9" class="st0" width="1" height="10.8"/>
<path class="st0" d="M72.2,15.6c-0.2-0.2-0.4-0.4-0.6-0.5c-0.3-0.2-0.6-0.2-0.9-0.2c-0.6,0-1.2,0.3-1.6,0.7
	c-0.2,0.2-0.3,0.5-0.4,0.8c-0.2,0.6-0.2,1.2,0,1.8c0.1,0.3,0.2,0.6,0.4,0.8c0.4,0.5,1,0.8,1.6,0.7c0.3,0,0.6-0.1,0.9-0.2
	c0.3-0.1,0.5-0.3,0.7-0.5l0.9,0.8c-0.3,0.3-0.7,0.6-1.1,0.8c-0.5,0.2-1,0.3-1.5,0.3c-0.5,0-1-0.1-1.4-0.3c-0.4-0.2-0.9-0.4-1.2-0.7
	c-0.3-0.3-0.6-0.7-0.8-1.1c-0.2-0.5-0.3-1-0.2-1.5c0-0.5,0.1-1,0.3-1.5c0.3-0.9,1-1.6,1.9-1.9c0.9-0.4,1.9-0.4,2.9,0
	c0.4,0.2,0.8,0.5,1.1,0.8L72.2,15.6z"/>
<path class="st0" d="M81.3,17.2c0,0.5-0.1,1-0.3,1.4c-0.2,0.4-0.4,0.8-0.8,1.1c-0.3,0.3-0.7,0.6-1.2,0.7c-0.9,0.4-2,0.4-2.9,0
	c-1.4-0.5-2.2-1.9-2.2-3.3c0-0.5,0.1-1,0.3-1.4c0.2-0.4,0.4-0.8,0.8-1.1c0.3-0.3,0.7-0.6,1.2-0.7c0.9-0.4,2-0.4,2.9,0
	c0.4,0.2,0.8,0.4,1.2,0.7c0.3,0.3,0.6,0.7,0.8,1.1C81.2,16.3,81.3,16.7,81.3,17.2 M79.9,17.2c0-0.3,0-0.6-0.1-0.9
	c-0.1-0.3-0.2-0.5-0.4-0.8c-0.7-0.7-1.7-0.9-2.7-0.5c-0.3,0.1-0.5,0.3-0.7,0.5c-0.2,0.2-0.3,0.5-0.4,0.8c-0.2,0.6-0.2,1.2,0,1.8
	c0.1,0.3,0.3,0.6,0.5,0.9c0.7,0.7,1.7,0.9,2.7,0.5c0.3-0.1,0.5-0.3,0.7-0.5c0.2-0.2,0.3-0.5,0.4-0.8C79.9,17.9,79.9,17.6,79.9,17.2"
	/>
<path class="st0" d="M83.2,14.7c0-0.3,0-0.5,0-0.7h1.2c0,0.2,0,0.4,0,0.6c0,0.2,0,0.4,0,0.5l0,0c0.2-0.4,0.5-0.8,0.8-1
	c0.4-0.2,0.8-0.4,1.2-0.4c0.2,0,0.3,0,0.5,0.1l0,1.2c-0.2,0-0.4-0.1-0.6-0.1c-0.3,0-0.6,0.1-0.9,0.2c-0.2,0.1-0.4,0.3-0.6,0.5
	c-0.2,0.2-0.3,0.4-0.3,0.7c-0.1,0.3-0.1,0.5-0.1,0.8v3.5h-1.4v-5.3C83.2,15.1,83.2,14.9,83.2,14.7"/>
<path class="st0" d="M94.4,17.2v0.2c0,0.1,0,0.2,0,0.2H89c0,0.3,0.1,0.6,0.2,0.8c0.1,0.2,0.3,0.5,0.5,0.7c0.2,0.2,0.4,0.3,0.7,0.4
	c0.3,0.1,0.5,0.1,0.8,0.1c0.4,0,0.8-0.1,1.2-0.3c0.3-0.2,0.6-0.4,0.8-0.7l0.9,0.7c-0.3,0.4-0.8,0.8-1.3,1.1
	c-0.5,0.2-1.1,0.3-1.6,0.3c-0.5,0-1-0.1-1.4-0.3c-0.4-0.2-0.8-0.4-1.2-0.7c-0.3-0.3-0.6-0.7-0.7-1.1c-0.4-0.9-0.4-2,0-2.9
	c0.3-0.9,1-1.5,1.9-1.9c0.4-0.2,0.9-0.3,1.4-0.3c0.5,0,0.9,0.1,1.3,0.3c0.4,0.2,0.7,0.4,1,0.7c0.3,0.3,0.5,0.7,0.7,1.1
	C94.3,16.2,94.4,16.7,94.4,17.2 M93,16.7c0-0.3-0.1-0.5-0.1-0.7c-0.1-0.2-0.2-0.4-0.4-0.6c-0.2-0.2-0.4-0.3-0.6-0.4
	c-0.3-0.1-0.5-0.2-0.8-0.1c-0.3,0-0.5,0-0.8,0.1c-0.2,0.1-0.5,0.2-0.7,0.4c-0.2,0.2-0.3,0.4-0.5,0.6C89,16.1,89,16.4,89,16.7H93z"/>
<path class="st0" d="M69.3,24.6h-0.6v-0.4h0.6v-0.6c0-0.3,0.1-0.6,0.2-0.8c0.2-0.2,0.4-0.3,0.7-0.3h0.2h0.2L70.5,23c0,0-0.1,0-0.1,0
	c0,0-0.1,0-0.1,0c-0.1,0-0.2,0-0.2,0c-0.1,0-0.1,0.1-0.1,0.1c0,0.1-0.1,0.1-0.1,0.2c0,0.1,0,0.1,0,0.3v0.6h0.6v0.4h-0.6v2.2h-0.5
	L69.3,24.6z"/>
<path class="st0" d="M72.5,23.3c0-0.1,0-0.2,0.1-0.3c0.1-0.1,0.4-0.1,0.5,0s0.1,0.4,0,0.5l0,0c-0.1,0.1-0.4,0.2-0.5,0c0,0,0,0,0,0
	C72.5,23.5,72.5,23.4,72.5,23.3 M72.6,24.3h0.5v2.6h-0.5V24.3z"/>
<path class="st0" d="M76.9,24.6h-0.7V26c0,0.1,0,0.1,0,0.2c0,0.1,0.1,0.1,0.1,0.1c0.1,0,0.1,0.1,0.2,0.1c0.1,0,0.1,0,0.2,0l0.2-0.1
	v0.5l-0.2,0.1h-0.2c-0.1,0-0.3,0-0.4-0.1c-0.1-0.1-0.2-0.1-0.2-0.2c-0.1-0.1-0.1-0.2-0.1-0.3c0-0.1,0-0.2,0-0.3v-1.4h-0.6v-0.5h0.6
	v-0.7h0.5v0.7h0.7L76.9,24.6L76.9,24.6z"/>
<path class="st0" d="M79.1,24.2h0.5v0.4l0,0c0.1-0.1,0.2-0.3,0.3-0.3c0.2-0.1,0.4-0.1,0.5-0.1c0.1,0,0.2,0,0.4,0.1
	c0.1,0,0.2,0.1,0.3,0.2c0.1,0.1,0.2,0.2,0.2,0.3c0.1,0.1,0.1,0.3,0.1,0.5v1.7H81v-1.5c0-0.1-0.1-0.2-0.1-0.3c0-0.1-0.1-0.1-0.1-0.2
	c-0.1-0.1-0.1-0.1-0.2-0.1c-0.1,0-0.2,0-0.2,0c-0.1,0-0.2,0-0.3,0.1c-0.1,0-0.2,0.1-0.2,0.1c-0.1,0.1-0.1,0.2-0.1,0.3
	c0,0.1-0.1,0.3-0.1,0.4v1.4h-0.5L79.1,24.2L79.1,24.2z"/>
<path class="st0" d="M84.2,25.7c0,0.1,0,0.2,0.1,0.3c0.1,0.1,0.1,0.2,0.2,0.3c0.1,0.1,0.2,0.1,0.3,0.1c0.1,0,0.2,0.1,0.3,0.1
	c0.1,0,0.3,0,0.4-0.1c0.1-0.1,0.2-0.2,0.3-0.3l0.4,0.3c-0.3,0.4-0.7,0.6-1.2,0.5c-0.2,0-0.4,0-0.5-0.1c-0.2-0.1-0.3-0.2-0.4-0.3
	c-0.1-0.1-0.2-0.3-0.3-0.4c-0.1-0.4-0.1-0.8,0-1.1c0.1-0.2,0.2-0.3,0.3-0.4c0.1-0.1,0.3-0.2,0.4-0.3c0.2-0.1,0.4-0.1,0.5-0.1
	c0.2,0,0.4,0,0.6,0.1c0.1,0.1,0.3,0.2,0.4,0.3c0.1,0.1,0.2,0.3,0.2,0.4c0,0.2,0.1,0.3,0.1,0.5v0.2L84.2,25.7L84.2,25.7z M85.7,25.3
	c0-0.1,0-0.2-0.1-0.3c0-0.1-0.1-0.2-0.1-0.3c-0.1-0.1-0.1-0.1-0.2-0.1c-0.1,0-0.2-0.1-0.3-0.1c-0.1,0-0.2,0-0.3,0.1
	c-0.1,0-0.2,0.1-0.3,0.2c-0.1,0.1-0.1,0.2-0.2,0.3c0,0.1-0.1,0.2-0.1,0.3L85.7,25.3z"/>
<path class="st0" d="M89.9,24.9c-0.1-0.1-0.1-0.1-0.2-0.2c-0.2-0.1-0.4-0.1-0.6,0c-0.1,0-0.1,0.1-0.1,0.2c0,0.1,0,0.1,0.1,0.2
	c0.1,0,0.1,0.1,0.2,0.1c0.1,0,0.1,0.1,0.2,0.1h0.2l0.3,0.1c0.1,0,0.2,0.1,0.3,0.1c0.1,0.1,0.1,0.1,0.1,0.2c0,0.1,0.1,0.2,0.1,0.3
	c0,0.1,0,0.3-0.1,0.4c-0.1,0.1-0.1,0.2-0.3,0.3c-0.1,0.1-0.2,0.1-0.3,0.1c-0.1,0-0.2,0-0.4,0c-0.2,0-0.4,0-0.6-0.1
	c-0.2-0.1-0.3-0.2-0.4-0.4l0.4-0.3c0.1,0.1,0.2,0.1,0.3,0.2c0.1,0.1,0.2,0.1,0.4,0.1c0.1,0,0.1,0,0.2,0l0.2-0.1c0,0,0.1-0.1,0.1-0.1
	c0-0.1,0.1-0.1,0-0.1c0-0.1,0-0.1-0.1-0.2c-0.1,0-0.1-0.1-0.2-0.1c-0.1,0-0.1-0.1-0.2-0.1c-0.1,0-0.1,0-0.2,0l-0.3-0.1
	c-0.1,0-0.2-0.1-0.3-0.1c-0.1,0-0.1-0.1-0.2-0.2c0-0.1-0.1-0.2-0.1-0.3c0-0.1,0-0.3,0.1-0.4c0.1-0.1,0.1-0.2,0.2-0.3
	c0.1-0.1,0.2-0.1,0.3-0.1c0.1,0,0.2-0.1,0.4-0.1c0.2,0,0.4,0,0.5,0.1c0.2,0.1,0.3,0.2,0.4,0.3L89.9,24.9z"/>
<path class="st0" d="M93.9,24.9c-0.1-0.1-0.1-0.1-0.2-0.2c-0.2-0.1-0.4-0.1-0.6,0c-0.1,0-0.1,0.1-0.1,0.2c0,0.1,0,0.1,0.1,0.2
	c0.1,0,0.1,0.1,0.2,0.1c0.1,0,0.1,0.1,0.2,0.1h0.2l0.3,0.1c0.1,0,0.2,0.1,0.3,0.1c0.1,0.1,0.1,0.1,0.1,0.2c0,0.1,0.1,0.2,0.1,0.3
	c0,0.1,0,0.3-0.1,0.4c-0.1,0.1-0.1,0.2-0.3,0.3c-0.1,0.1-0.2,0.1-0.3,0.1c-0.1,0-0.2,0-0.4,0c-0.2,0-0.4,0-0.6-0.1
	c-0.2-0.1-0.3-0.2-0.4-0.4l0.4-0.3c0.1,0.1,0.2,0.1,0.3,0.2c0.1,0.1,0.2,0.1,0.4,0.1c0.1,0,0.1,0,0.2,0l0.2-0.1c0,0,0.1-0.1,0.1-0.1
	c0-0.1,0.1-0.1,0-0.1c0-0.1,0-0.1-0.1-0.2c-0.1,0-0.1-0.1-0.2-0.1c-0.1,0-0.1-0.1-0.2-0.1c-0.1,0-0.1,0-0.2,0l-0.3-0.1
	c-0.1,0-0.2-0.1-0.3-0.1c-0.1,0-0.1-0.1-0.2-0.2c0-0.1-0.1-0.2-0.1-0.3c0-0.1,0-0.3,0.1-0.4c0.1-0.1,0.1-0.2,0.2-0.3
	c0.1-0.1,0.2-0.1,0.3-0.2c0.1,0,0.2-0.1,0.4-0.1c0.2,0,0.4,0,0.5,0.1c0.2,0.1,0.3,0.2,0.4,0.3L93.9,24.9z"/>
<circle class="st1" cx="18.2" cy="18.2" r="18.1"/>
<circle class="st1" cx="18.5" cy="16.4" r="14.6"/>
<circle class="st1" cx="20.4" cy="18.4" r="14.6"/>
<circle class="st1" cx="16.5" cy="18.4" r="14.6"/>
<circle class="st1" cx="18.5" cy="20.1" r="14.6"/>
</svg>
