<svg xmlns="http://www.w3.org/2000/svg" xmlns:xlink="http://www.w3.org/1999/xlink" width="179" height="79" viewBox="0 0 179 79">
  <defs>
    <clipPath id="clip-Mesa_de_trabajo_13">
      <rect width="179" height="79"/>
    </clipPath>
  </defs>
  <g id="Mesa_de_trabajo_13" data-name="Mesa de trabajo – 13" clip-path="url(#clip-Mesa_de_trabajo_13)">
    <rect width="179" height="79" fill="#fff"/>
    <g id="Grupo_204" data-name="Grupo 204" transform="translate(-825 -263)">
      <g id="Grupo_203" data-name="Grupo 203" transform="translate(899 267)">
        <path id="Trazado_2597" data-name="Trazado 2597" d="M406.04,195.35h4.072v10.808a.235.235,0,0,0,.235.235h3.574a.235.235,0,0,0,.235-.235V195.35h4.072a.235.235,0,0,0,.235-.235v-2.984a.235.235,0,0,0-.235-.235H406.04a.235.235,0,0,0-.235.235v2.984a.235.235,0,0,0,.235.235" transform="translate(-386.886 -181.919)" fill="#b3b3b3"/>
        <path id="Trazado_2598" data-name="Trazado 2598" d="M354.854,257.423l1.031-2.833a.165.165,0,0,1,.31,0l1.031,2.833Zm-.922-8.576-5.145,14.133a.165.165,0,0,0,.155.221h3.693a.165.165,0,0,0,.155-.108l.806-2.215h4.887l.807,2.215a.165.165,0,0,0,.155.108h3.694a.165.165,0,0,0,.155-.221l-5.145-14.133a.165.165,0,0,0-.155-.108h-3.906a.165.165,0,0,0-.155.108" transform="translate(-348.777 -219.905)" fill="#b3b3b3"/>
        <path id="Trazado_2599" data-name="Trazado 2599" d="M412.285,259.287a3.484,3.484,0,1,1,2.661-5.732.33.33,0,0,0,.459.048l2.567-2.041a.334.334,0,0,0,.046-.474,7.432,7.432,0,1,0,.046,9.373.333.333,0,0,0-.05-.471l-2.565-2.039a.33.33,0,0,0-.462.052,3.477,3.477,0,0,1-2.7,1.285" transform="translate(-386.244 -219.66)" fill="#b3b3b3"/>
        <path id="Trazado_2600" data-name="Trazado 2600" d="M361.327,310.127a5.144,5.144,0,0,0,1.432-.987c1.531-1.5,1.946-3.849,1.982-5.936a.311.311,0,0,0-.312-.315h-3.624a.31.31,0,0,0-.311.3,5.723,5.723,0,0,1-1.358,3.986,3.848,3.848,0,0,1-2.041,1.006v-5.006a.312.312,0,0,0-.312-.311h-3.421a.312.312,0,0,0-.312.311V317.04a.312.312,0,0,0,.312.312h3.421a.312.312,0,0,0,.312-.312v-4.969a3.851,3.851,0,0,1,2.041,1.006,5.723,5.723,0,0,1,1.358,3.986.31.31,0,0,0,.311.3h3.624a.311.311,0,0,0,.312-.314c-.036-2.087-.451-4.434-1.982-5.936a5.138,5.138,0,0,0-1.432-.987" transform="translate(-351.634 -256.075)" fill="#b3b3b3"/>
        <path id="Trazado_2601" data-name="Trazado 2601" d="M353.716,204.933a5.121,5.121,0,0,0,.6.363,8.234,8.234,0,0,0,6.428.348,4.86,4.86,0,0,0,.962-.446,4.392,4.392,0,0,0,2.13-3.711,4.241,4.241,0,0,0-2.18-3.682c-1.231-.7-2.844-.473-4.06-1.625a1.115,1.115,0,0,1-.033-1.579,2.075,2.075,0,0,1,1.482-.512,5.752,5.752,0,0,1,2.569.631.244.244,0,0,0,.345-.182l.43-2.744a.236.236,0,0,0-.12-.243,8.221,8.221,0,0,0-6.557-.415,4.872,4.872,0,0,0-.962.446,4.392,4.392,0,0,0-2.13,3.711c0,.01,0,.02,0,.029.017,2.56,2.188,3.585,4.116,4.292a5.325,5.325,0,0,1,2.123.985,1.128,1.128,0,0,1,.033,1.579c-.907.982-2.519.514-3.557.1a9.078,9.078,0,0,1-1.728-.929l-.362-.266a.168.168,0,0,0-.261.088l-.873,2.868a.232.232,0,0,0,.078.248,7.237,7.237,0,0,0,1.113.735,9.522,9.522,0,0,0,4.29,1.111" transform="translate(-350.995 -181.079)" fill="#b3b3b3"/>
        <path id="Trazado_2602" data-name="Trazado 2602" d="M382.72,164.933v1.8a.625.625,0,0,1-.625.625H352.721a.625.625,0,0,1-.625-.625v-1.8a.651.651,0,0,1,.433-.616c2.533-.9,15.807-5.129,29.763,0a.658.658,0,0,1,.429.617" transform="translate(-350.995 -161.822)" fill="#b3b3b3"/>
        <path id="Trazado_2603" data-name="Trazado 2603" d="M352.1,362.494v-1.8a.625.625,0,0,1,.625-.625h29.373a.625.625,0,0,1,.625.625v1.8a.652.652,0,0,1-.433.616c-2.533.9-15.807,5.129-29.763,0a.658.658,0,0,1-.429-.617" transform="translate(-350.995 -294.301)" fill="#b3b3b3"/>
        <path id="Trazado_2604" data-name="Trazado 2604" d="M395.5,316.97c-.446.108-.627.238-.63.44a.245.245,0,0,0,.3.221c.264-.027.47-.277.595-.732-.092.026-.178.05-.266.071m.792-3.115a.441.441,0,0,0-.523-.4c-.466.04-.859.64-1.126,1.516.762.019,1.7-.5,1.649-1.116m-2.512.772a.847.847,0,0,0,.654.332c.288-.97.76-1.638,1.319-1.686a.625.625,0,0,1,.745.565c.028.736-.824,1.235-1.7,1.31a1.837,1.837,0,0,1-.217,0,2.857,2.857,0,0,0-.132.882c.03.354.229.482.559.467a1.287,1.287,0,0,0,.9-.688,5.361,5.361,0,0,0,.566-1.24l.039-.122a.092.092,0,0,1,.093-.074c.083-.007.128.055.108.114l-.29.891c-.061.207-.132.424-.2.672l-.161.546a1.876,1.876,0,0,0,1.06-1.185.108.108,0,0,1,.088-.065.163.163,0,0,1,.045,0,.1.1,0,0,1,.071.078.109.109,0,0,1-.007.04A2.065,2.065,0,0,1,396,316.827c-.184.618-.462.954-.815.988a.428.428,0,0,1-.521-.382c-.024-.275.2-.5.78-.642.121-.028.252-.061.382-.1l.2-.681a1.417,1.417,0,0,1-1,.679.648.648,0,0,1-.78-.633,3.009,3.009,0,0,1,.13-.913,1.453,1.453,0,0,1-.32-.074,1.014,1.014,0,0,1-.265-.14.787.787,0,0,1-.167-.171c-.022-.031-.05-.072-.022-.108a.191.191,0,0,1,.1-.058.072.072,0,0,1,.078.04" transform="translate(-378.725 -263.028)" fill="#b3b3b3"/>
        <path id="Trazado_2605" data-name="Trazado 2605" d="M394.626,314.894h0a2.014,2.014,0,0,0,1.361-.546.71.71,0,0,0,.223-.542.412.412,0,0,0-.495-.376c-.423.036-.811.556-1.092,1.464m.006.052h-.076l.01-.033c.289-.951.7-1.5,1.148-1.535a.467.467,0,0,1,.551.424.759.759,0,0,1-.237.582,2.037,2.037,0,0,1-1.4.563m.822,2c-.431.1-.607.225-.61.416a.209.209,0,0,0,.073.147.259.259,0,0,0,.2.048c.245-.025.439-.256.56-.668l-.016,0c-.07.02-.138.038-.206.054m-.379.664a.3.3,0,0,1-.191-.062.26.26,0,0,1-.092-.185c0-.222.191-.357.65-.468.067-.016.134-.034.2-.054l.105-.029-.012.044c-.127.463-.34.723-.617.751a.368.368,0,0,1-.046,0m.973-1.8-.253.846-.013,0c-.112.036-.234.069-.384.1-.535.135-.784.336-.76.615a.379.379,0,0,0,.132.267.477.477,0,0,0,.361.092c.344-.034.61-.36.793-.97l0-.013.012,0a2.034,2.034,0,0,0,1.307-1.337.1.1,0,0,0,0-.029.07.07,0,0,0-.053-.055.1.1,0,0,0-.034,0,.082.082,0,0,0-.067.049,1.883,1.883,0,0,1-1.075,1.2l-.05.02.176-.6c.04-.136.079-.262.116-.383.031-.1.06-.2.088-.289l.29-.892a.057.057,0,0,0-.009-.054.078.078,0,0,0-.073-.026.066.066,0,0,0-.07.055l-.039.123a5.354,5.354,0,0,1-.569,1.247,1.3,1.3,0,0,1-.925.7.487.487,0,0,1-.587-.491,2.84,2.84,0,0,1,.134-.891l.006-.019h.02a1.838,1.838,0,0,0,.214-.005c.832-.071,1.7-.544,1.673-1.283a.6.6,0,0,0-.716-.54c-.522.044-.995.652-1.3,1.667l-.006.021-.022,0a.868.868,0,0,1-.673-.343v0a.045.045,0,0,0-.049-.026.164.164,0,0,0-.085.048c-.014.018,0,.041.022.077a.767.767,0,0,0,.048.061.73.73,0,0,0,.113.1,1,1,0,0,0,.258.136,2.181,2.181,0,0,0,.3.076h0a.022.022,0,0,0-.016.016l.05.014,0,.011a3.065,3.065,0,0,0-.126.893.625.625,0,0,0,.753.609,1.389,1.389,0,0,0,.985-.668Zm-.986,1.982a.5.5,0,0,1-.326-.107.428.428,0,0,1-.15-.3c-.027-.309.235-.528.8-.67.143-.033.26-.064.367-.1l.158-.528a1.361,1.361,0,0,1-.936.573.677.677,0,0,1-.808-.656,3.043,3.043,0,0,1,.121-.889,2.3,2.3,0,0,1-.295-.076,1.048,1.048,0,0,1-.271-.144.768.768,0,0,1-.12-.111.7.7,0,0,1-.052-.065c-.022-.03-.062-.087-.021-.139a.212.212,0,0,1,.115-.067.1.1,0,0,1,.105.051.807.807,0,0,0,.613.317c.308-1.024.794-1.637,1.335-1.684a.654.654,0,0,1,.773.59c.03.772-.865,1.265-1.72,1.338a1.839,1.839,0,0,1-.2.006,2.76,2.76,0,0,0-.126.853c.027.317.194.457.531.443a1.252,1.252,0,0,0,.884-.676,5.3,5.3,0,0,0,.564-1.234l.039-.121a.118.118,0,0,1,.115-.092.135.135,0,0,1,.118.045.11.11,0,0,1,.017.1l-.29.891c-.028.093-.057.189-.088.289-.037.12-.076.247-.116.383l-.146.494a1.852,1.852,0,0,0,1-1.149.134.134,0,0,1,.111-.082.223.223,0,0,1,.05,0,.123.123,0,0,1,.094.1.136.136,0,0,1-.008.049,2.08,2.08,0,0,1-1.326,1.365c-.189.624-.469.959-.834.994a.7.7,0,0,1-.074,0" transform="translate(-378.672 -262.976)" fill="#b3b3b3"/>
        <path id="Trazado_2606" data-name="Trazado 2606" d="M404.438,315.6c-.064.005-.09.043-.086.091a.263.263,0,0,0,.135.191.65.65,0,0,0,.038-.188c-.006-.074-.048-.1-.087-.094m1.686,1.11a.118.118,0,0,1-.007.04c-.263.677-.486.964-.819.993h0a.331.331,0,0,1-.38-.337.931.931,0,0,1,.025-.288c.027-.143.194-.742.23-.842a3.8,3.8,0,0,1-.55-.129c-.015.054-.044.118-.372.916a.1.1,0,0,1-.084.06.177.177,0,0,1-.05,0,.1.1,0,0,1-.066-.078.114.114,0,0,1,.007-.04l.328-.793.048-.136a.439.439,0,0,1-.282-.345.284.284,0,0,1,.275-.309.268.268,0,0,1,.309.264.876.876,0,0,1-.055.286,4.112,4.112,0,0,0,.459.115c.07.012.135.024.191.037a.1.1,0,0,1,.07.121c-.051.149-.234.794-.254.905a.945.945,0,0,0-.024.244c.009.109.055.18.163.171.24-.02.406-.281.638-.867a.106.106,0,0,1,.088-.065.149.149,0,0,1,.045,0,.1.1,0,0,1,.071.077" transform="translate(-385.711 -264.462)" fill="#b3b3b3"/>
        <path id="Trazado_2607" data-name="Trazado 2607" d="M404.392,315.573h0c-.044,0-.066.025-.062.063a.228.228,0,0,0,.094.152.52.52,0,0,0,.027-.144.092.092,0,0,0-.023-.059.045.045,0,0,0-.031-.011m.057.3-.029-.017a.289.289,0,0,1-.148-.211.107.107,0,0,1,.11-.119.106.106,0,0,1,.076.025.136.136,0,0,1,.04.093.652.652,0,0,1-.039.2Zm.1.192.026.009a3.76,3.76,0,0,0,.546.128l.03.006-.01.029c-.034.1-.2.691-.229.838a.906.906,0,0,0-.025.281.363.363,0,0,0,.1.239.306.306,0,0,0,.249.074c.32-.027.536-.292.8-.977a.092.092,0,0,0,0-.029h0a.07.07,0,0,0-.053-.055.211.211,0,0,0-.034,0,.081.081,0,0,0-.067.049c-.219.555-.389.86-.659.883-.079.007-.176-.022-.191-.2a.988.988,0,0,1,.024-.251c.021-.114.2-.758.255-.908a.073.073,0,0,0-.007-.056.069.069,0,0,0-.044-.031c-.048-.011-.106-.023-.189-.036l-.054-.012a3.551,3.551,0,0,1-.409-.1l-.023-.008.028-.109a.535.535,0,0,0,.032-.191.267.267,0,0,0-.085-.185.259.259,0,0,0-.2-.054.287.287,0,0,0-.185.085.245.245,0,0,0-.066.2.41.41,0,0,0,.267.324l.02.01-.055.158-.328.794a.091.091,0,0,0,0,.028.073.073,0,0,0,.05.056.137.137,0,0,0,.038,0,.076.076,0,0,0,.062-.045l.212-.515c.128-.311.148-.359.159-.4Zm.653,1.657a.35.35,0,0,1-.248-.089.415.415,0,0,1-.118-.273.958.958,0,0,1,.026-.3c.026-.137.172-.664.221-.816a3.948,3.948,0,0,1-.5-.116c-.014.041-.046.119-.153.377l-.212.516a.127.127,0,0,1-.106.076.2.2,0,0,1-.057,0,.126.126,0,0,1-.087-.1.136.136,0,0,1,.008-.049l.329-.8.039-.114a.445.445,0,0,1-.275-.356.3.3,0,0,1,.08-.237.343.343,0,0,1,.219-.1.313.313,0,0,1,.235.067.319.319,0,0,1,.1.221.572.572,0,0,1-.033.209l-.016.062a3.83,3.83,0,0,0,.38.1l.053.011c.083.014.142.025.191.037a.118.118,0,0,1,.077.056.125.125,0,0,1,.012.1c-.05.147-.233.793-.253.9a.936.936,0,0,0-.024.238c.012.139.083.15.134.145.214-.018.375-.241.616-.851a.133.133,0,0,1,.11-.081.19.19,0,0,1,.051.005.122.122,0,0,1,.093.1.132.132,0,0,1-.007.047c-.277.712-.5.986-.843,1.014l-.046,0" transform="translate(-385.658 -264.41)" fill="#b3b3b3"/>
        <path id="Trazado_2608" data-name="Trazado 2608" d="M410.652,316.894a.405.405,0,0,0-.011.1,1.783,1.783,0,0,0,.179-.794.265.265,0,0,0-.313-.255.682.682,0,0,0-.474.414,2.042,2.042,0,0,0-.3,1.094c.014.157.082.261.239.248.181-.015.373-.207.517-.426a.671.671,0,0,1-.045-.414.1.1,0,0,1,.1-.079.093.093,0,0,1,.108.109m.355.625a.627.627,0,0,1-.383-.086.975.975,0,0,1-.633.454.387.387,0,0,1-.464-.4,2.119,2.119,0,0,1,.318-1.2.873.873,0,0,1,.652-.518.453.453,0,0,1,.53.426,2.2,2.2,0,0,1-.294,1.076.317.317,0,0,0,.258.07c.206-.017.364-.2.5-.575a.1.1,0,0,1,.089-.065.094.094,0,0,1,.109.118c-.178.459-.392.68-.686.7" transform="translate(-389.37 -264.694)" fill="#b3b3b3"/>
        <path id="Trazado_2609" data-name="Trazado 2609" d="M410.49,315.92l-.033,0c-.161.014-.322.156-.453.4a1.937,1.937,0,0,0-.294,1.079c.014.162.084.235.21.224a.8.8,0,0,0,.489-.4.708.708,0,0,1-.04-.418.126.126,0,0,1,.12-.1.132.132,0,0,1,.111.043.106.106,0,0,1,.023.041,1.616,1.616,0,0,0,.118-.638.249.249,0,0,0-.09-.183.263.263,0,0,0-.162-.049m-.594,1.758c-.1,0-.219-.051-.238-.273a1.991,1.991,0,0,1,.3-1.109c.1-.184.265-.408.494-.427a.325.325,0,0,1,.232.059.3.3,0,0,1,.11.22,1.81,1.81,0,0,1-.182.807l-.061.135.011-.148c0-.008,0-.017,0-.025a.3.3,0,0,1,.011-.082.058.058,0,0,0-.013-.052.079.079,0,0,0-.068-.025.074.074,0,0,0-.073.056.641.641,0,0,0,.042.4l.008.014-.009.013a.857.857,0,0,1-.536.438H409.9m.594-1.942h-.044a.85.85,0,0,0-.631.5,2.035,2.035,0,0,0-.315,1.186.454.454,0,0,0,.113.291.39.39,0,0,0,.323.089.936.936,0,0,0,.614-.443l.014-.02.021.013a.591.591,0,0,0,.367.082c.284-.024.488-.236.663-.688a.053.053,0,0,0-.008-.052.082.082,0,0,0-.074-.03.076.076,0,0,0-.066.047c-.146.392-.309.574-.527.593a.347.347,0,0,1-.278-.078l-.015-.014.01-.018a2.174,2.174,0,0,0,.291-1.061.418.418,0,0,0-.459-.4m-.613,2.127a.41.41,0,0,1-.3-.107.5.5,0,0,1-.128-.323,2.085,2.085,0,0,1,.321-1.216.9.9,0,0,1,.673-.53.48.48,0,0,1,.559.45,2.221,2.221,0,0,1-.287,1.072.3.3,0,0,0,.223.05c.193-.016.346-.194.482-.558a.126.126,0,0,1,.11-.082.136.136,0,0,1,.121.051.1.1,0,0,1,.015.1c-.183.473-.4.7-.708.722a.666.666,0,0,1-.378-.078.974.974,0,0,1-.639.446l-.064,0" transform="translate(-389.317 -264.642)" fill="#b3b3b3"/>
        <path id="Trazado_2610" data-name="Trazado 2610" d="M418.009,315.987a.915.915,0,0,1-.706.706.511.511,0,0,1-.353-.089c-.167.247-.329.428-.56.448a.324.324,0,0,1-.38-.28.7.7,0,0,1-.513.356.332.332,0,0,1-.384-.336,6.516,6.516,0,0,1,.448-1.7.1.1,0,0,1,.088-.065c.084-.007.128.055.109.114a6.65,6.65,0,0,0-.439,1.633c.011.131.06.18.163.171.235-.02.422-.26.637-.872.072-.2.288-.918.33-1.057a.1.1,0,0,1,.088-.065c.079-.006.133.055.113.114a7.626,7.626,0,0,0-.439,1.634c.012.14.07.179.163.171.157-.013.237-.121.434-.419a.636.636,0,0,1-.04-.414.1.1,0,0,1,.205.031.458.458,0,0,0-.016.107c.126-.262.452-.962.58-1.259a.121.121,0,0,1,.094-.061.1.1,0,0,1,.106.083.117.117,0,0,1-.006.044c-.182.411-.532,1.175-.681,1.456a.319.319,0,0,0,.238.072c.255-.022.394-.241.524-.577a.108.108,0,0,1,.089-.065.1.1,0,0,1,.116.082.094.094,0,0,1-.007.036" transform="translate(-393.106 -264.087)" fill="#b3b3b3"/>
        <path id="Trazado_2611" data-name="Trazado 2611" d="M415.61,315h-.01a.075.075,0,0,0-.066.047,6.648,6.648,0,0,0-.447,1.69.3.3,0,0,0,.356.313.667.667,0,0,0,.494-.344l.033-.05.014.058a.3.3,0,0,0,.352.26c.216-.018.373-.188.54-.436l.016-.023.022.017a.492.492,0,0,0,.336.084.893.893,0,0,0,.683-.688l0-.008a.046.046,0,0,0-.018-.056.088.088,0,0,0-.066-.021.082.082,0,0,0-.067.049c-.13.338-.273.569-.545.592a.339.339,0,0,1-.259-.08l-.014-.014.009-.017c.148-.28.493-1.033.68-1.455a.094.094,0,0,0,0-.031.07.07,0,0,0-.078-.06.1.1,0,0,0-.073.047c-.132.307-.459,1.01-.579,1.258l-.059.123.011-.146a.439.439,0,0,1,.016-.1.054.054,0,0,0-.013-.048.081.081,0,0,0-.073-.027.072.072,0,0,0-.069.058.616.616,0,0,0,.038.4l.007.014-.008.013c-.2.3-.282.416-.453.431H416.3c-.1,0-.156-.063-.168-.2a7.431,7.431,0,0,1,.44-1.644.052.052,0,0,0-.01-.05.085.085,0,0,0-.077-.029.075.075,0,0,0-.066.047c-.077.255-.264.87-.33,1.058-.214.61-.405.867-.66.889a.167.167,0,0,1-.127-.031.225.225,0,0,1-.064-.163,6.494,6.494,0,0,1,.44-1.643.057.057,0,0,0-.008-.054.078.078,0,0,0-.063-.027m-.206,2.1a.357.357,0,0,1-.369-.363,6.6,6.6,0,0,1,.449-1.71.128.128,0,0,1,.111-.083.131.131,0,0,1,.119.046.11.11,0,0,1,.017.1,6.81,6.81,0,0,0-.438,1.623.184.184,0,0,0,.045.127.116.116,0,0,0,.089.019c.228-.019.411-.275.615-.855.066-.187.252-.8.33-1.056a.127.127,0,0,1,.111-.083.14.14,0,0,1,.122.049.1.1,0,0,1,.018.1,7.706,7.706,0,0,0-.438,1.624c.011.131.058.154.134.147.144-.012.218-.112.406-.4a.678.678,0,0,1-.035-.418.124.124,0,0,1,.115-.1.139.139,0,0,1,.116.045.112.112,0,0,1,.025.049c.147-.31.4-.858.514-1.121a.149.149,0,0,1,.115-.077.126.126,0,0,1,.134.107.151.151,0,0,1-.007.054c-.184.416-.52,1.149-.673,1.443a.3.3,0,0,0,.2.052c.246-.021.378-.239.5-.56a.133.133,0,0,1,.11-.081.144.144,0,0,1,.1.033.108.108,0,0,1,.04.074.1.1,0,0,1-.006.037l0,.008a.943.943,0,0,1-.728.725.553.553,0,0,1-.349-.078c-.171.249-.333.418-.564.438a.339.339,0,0,1-.392-.246.7.7,0,0,1-.5.322.391.391,0,0,1-.044,0" transform="translate(-393.054 -264.035)" fill="#b3b3b3"/>
        <path id="Trazado_2612" data-name="Trazado 2612" d="M423.455,313.284a.162.162,0,0,1,.159-.163.15.15,0,1,1,.025.3.162.162,0,0,1-.184-.134m.685,1.432a.125.125,0,0,1-.006.04c-.2.491-.413.958-.825.994a.334.334,0,0,1-.384-.337,7.326,7.326,0,0,1,.439-1.687.1.1,0,0,1,.088-.069c.064-.005.131.032.108.109a6.471,6.471,0,0,0-.429,1.629c.011.126.06.179.163.171.3-.026.492-.495.643-.868a.116.116,0,0,1,.093-.065.132.132,0,0,1,.04.006.091.091,0,0,1,.071.077" transform="translate(-398.327 -262.929)" fill="#b3b3b3"/>
        <path id="Trazado_2613" data-name="Trazado 2613" d="M423.578,313.092h-.014a.16.16,0,0,0-.1.046.113.113,0,0,0-.034.089.135.135,0,0,0,.156.11.132.132,0,0,0,.13-.134.116.116,0,0,0-.047-.083.15.15,0,0,0-.09-.029m-.008.3a.186.186,0,0,1-.194-.159.165.165,0,0,1,.049-.13.211.211,0,0,1,.133-.061.2.2,0,0,1,.14.038.165.165,0,0,1,.068.12.183.183,0,0,1-.178.191h-.019m-.159.239h-.01a.073.073,0,0,0-.065.05l-.008.024a7.145,7.145,0,0,0-.431,1.654.329.329,0,0,0,.1.239.324.324,0,0,0,.252.073c.4-.033.605-.481.8-.977a.1.1,0,0,0,0-.029h0a.065.065,0,0,0-.051-.054l-.009,0a.052.052,0,0,0-.023,0,.088.088,0,0,0-.072.05l0,.008c-.153.378-.344.849-.661.876-.116.007-.179-.053-.191-.195a4.536,4.536,0,0,1,.331-1.31l.1-.328a.053.053,0,0,0-.006-.051.085.085,0,0,0-.065-.025m-.2,2.094a.366.366,0,0,1-.248-.088.38.38,0,0,1-.122-.276,7.137,7.137,0,0,1,.433-1.673l.008-.023a.124.124,0,0,1,.11-.087.143.143,0,0,1,.119.044.1.1,0,0,1,.016.1l-.1.329a4.734,4.734,0,0,0-.328,1.29c.011.13.062.154.135.147.285-.024.469-.478.617-.843l0-.009a.142.142,0,0,1,.115-.082.106.106,0,0,1,.038,0l.009,0a.117.117,0,0,1,.092.1.131.131,0,0,1-.007.048c-.2.516-.423.978-.848,1.014l-.043,0" transform="translate(-398.274 -262.875)" fill="#b3b3b3"/>
        <path id="Trazado_2614" data-name="Trazado 2614" d="M427.586,315.365a.117.117,0,0,1-.007.04c-.277.687-.486.965-.819.993a.332.332,0,0,1-.384-.336c-.035-.41.3-.949.272-1.329-.011-.126-.083-.221-.274-.205-.3.025-.622.646-.747,1.031l-.27.894a.11.11,0,0,1-.127.072.089.089,0,0,1-.074-.112c.2-.65.443-1.467.595-1.95a.1.1,0,0,1,.093-.07.094.094,0,0,1,.109.114l-.032.091a.692.692,0,0,1,.438-.253c.353-.03.476.14.5.372.033.388-.3.993-.272,1.329.011.126.06.179.163.171.231-.02.387-.266.638-.868a.107.107,0,0,1,.088-.065.164.164,0,0,1,.045,0,.1.1,0,0,1,.071.077" transform="translate(-399.815 -263.744)" fill="#b3b3b3"/>
        <path id="Trazado_2615" data-name="Trazado 2615" d="M425.8,314.365h-.008a.075.075,0,0,0-.07.05c-.078.249-.18.587-.288.944-.1.337-.209.692-.307,1.007a.059.059,0,0,0,.006.046.075.075,0,0,0,.049.033.084.084,0,0,0,.1-.054l.27-.894c.108-.33.438-1.021.77-1.049.181-.013.289.066.3.229a1.773,1.773,0,0,1-.134.65,1.867,1.867,0,0,0-.138.679.3.3,0,0,0,.356.313c.313-.027.514-.273.8-.977a.09.09,0,0,0,.005-.029.07.07,0,0,0-.053-.055.122.122,0,0,0-.034,0,.081.081,0,0,0-.067.049c-.236.568-.4.861-.659.883-.117.008-.179-.054-.191-.195a1.882,1.882,0,0,1,.131-.629,2.079,2.079,0,0,0,.142-.7c-.022-.258-.175-.374-.468-.347a.657.657,0,0,0-.421.244l-.086.094.074-.211a.054.054,0,0,0-.01-.05.079.079,0,0,0-.063-.029m-.6,2.134-.025,0a.128.128,0,0,1-.085-.057.113.113,0,0,1-.011-.088c.1-.316.205-.671.307-1.007.108-.357.21-.695.288-.943a.126.126,0,0,1,.116-.088.134.134,0,0,1,.117.048.107.107,0,0,1,.022.085.638.638,0,0,1,.375-.182c.324-.027.5.105.525.4a2.11,2.11,0,0,1-.144.721,1.865,1.865,0,0,0-.128.609c.011.13.061.155.134.147.205-.018.355-.225.616-.852a.133.133,0,0,1,.11-.081.206.206,0,0,1,.052.005.122.122,0,0,1,.092.1.141.141,0,0,1-.007.049c-.294.729-.506.984-.843,1.013a.359.359,0,0,1-.413-.36,1.913,1.913,0,0,1,.141-.7,1.745,1.745,0,0,0,.131-.629c-.012-.135-.092-.194-.246-.181-.277.024-.6.618-.725,1.013l-.269.893a.132.132,0,0,1-.131.093" transform="translate(-399.762 -263.692)" fill="#b3b3b3"/>
        <path id="Trazado_2616" data-name="Trazado 2616" d="M432.158,314.547l.087-.258c-.02-.231-.163-.342-.339-.327-.455.047-.778,1.025-.75,1.458.005.18.027.314.208.3.392-.034.636-.709.795-1.171m-.5,1.7c-.092.025-.178.05-.266.071-.445.108-.627.238-.629.441a.245.245,0,0,0,.3.221c.264-.027.47-.278.595-.732m1.565-1.466a.119.119,0,0,1-.006.04,2.065,2.065,0,0,1-1.323,1.353c-.184.618-.462.954-.815.988a.428.428,0,0,1-.521-.382c-.024-.275.2-.5.78-.643.121-.028.252-.061.382-.1l.115-.388a.7.7,0,0,1-.448.249c-.324.028-.421-.188-.445-.468-.025-.578.357-1.6.941-1.654a.482.482,0,0,1,.472.2l.063-.185a.1.1,0,0,1,.088-.069c.068-.006.136.037.113.118-.064.177-.169.5-.295.887l-.2.672-.161.55a1.875,1.875,0,0,0,1.06-1.185.107.107,0,0,1,.088-.065.147.147,0,0,1,.045,0,.1.1,0,0,1,.071.078" transform="translate(-403.428 -263.333)" fill="#b3b3b3"/>
        <path id="Trazado_2617" data-name="Trazado 2617" d="M431.883,313.934h-.029c-.427.044-.753,1-.727,1.43,0,.122.015.205.061.246a.152.152,0,0,0,.119.028c.388-.033.638-.762.772-1.153l.085-.253c-.018-.187-.124-.3-.281-.3m-.6,1.759a.185.185,0,0,1-.128-.042.4.4,0,0,1-.078-.283c-.029-.459.312-1.436.774-1.485a.338.338,0,0,1,.368.351v.005l-.088.263c-.191.558-.428,1.155-.817,1.189h-.03m.287.544-.022.006c-.068.019-.134.037-.2.053-.431.1-.607.225-.609.416a.208.208,0,0,0,.073.146.265.265,0,0,0,.2.048c.245-.025.439-.256.56-.668m-.6.723a.3.3,0,0,1-.191-.062.259.259,0,0,1-.092-.185c0-.222.191-.357.65-.468.065-.016.131-.034.2-.052l.11-.031-.012.044c-.127.463-.34.723-.617.751l-.046,0m.871-1.462-.151.51-.013,0c-.112.036-.238.07-.384.1-.535.135-.784.336-.76.615a.378.378,0,0,0,.132.267.48.48,0,0,0,.361.091c.344-.034.61-.36.793-.97l0-.013.013,0a2.033,2.033,0,0,0,1.307-1.338.1.1,0,0,0,0-.028.071.071,0,0,0-.054-.055.093.093,0,0,0-.034,0,.081.081,0,0,0-.067.049,1.884,1.884,0,0,1-1.075,1.2l-.05.02.175-.6.236-.769c.11-.338.205-.63.264-.792a.061.061,0,0,0-.009-.057.089.089,0,0,0-.078-.026.073.073,0,0,0-.065.05l-.081.236-.029-.043a.456.456,0,0,0-.448-.19c-.578.049-.94,1.085-.917,1.627a.622.622,0,0,0,.1.334.333.333,0,0,0,.312.108.666.666,0,0,0,.431-.24Zm-.884,1.646a.5.5,0,0,1-.325-.107.429.429,0,0,1-.151-.3c-.026-.309.236-.528.8-.67.139-.032.259-.064.367-.1l.082-.277a.666.666,0,0,1-.392.184.382.382,0,0,1-.357-.128.666.666,0,0,1-.116-.363,2.333,2.333,0,0,1,.245-1.039c.193-.392.449-.621.72-.644a.52.52,0,0,1,.465.172l.047-.139a.124.124,0,0,1,.11-.087.141.141,0,0,1,.122.045.114.114,0,0,1,.019.106c-.059.163-.154.454-.264.792l-.031.1-.2.672-.145.5a1.85,1.85,0,0,0,1-1.149.134.134,0,0,1,.11-.082.169.169,0,0,1,.053.006.122.122,0,0,1,.091.1.134.134,0,0,1-.007.048,2.082,2.082,0,0,1-1.327,1.366c-.189.624-.469.958-.833.994a.724.724,0,0,1-.074,0" transform="translate(-403.375 -263.28)" fill="#b3b3b3"/>
        <path id="Trazado_2618" data-name="Trazado 2618" d="M401.925,327.125a1.9,1.9,0,0,0-.3-.027c-.039,0-.068.011-.066.041s.145.023.219.016a.846.846,0,0,0,.151-.03m-.843,1.353a1.156,1.156,0,0,1,.089.141.354.354,0,0,0,.138.1.947.947,0,0,0,.465.058.814.814,0,0,0,.8-.9.828.828,0,0,0-.381-.641,1.582,1.582,0,0,1-.425.111c-.221.019-.4,0-.416-.189-.012-.14.08-.223.237-.236a1.3,1.3,0,0,1,.611.1.838.838,0,0,0,.44-.745c-.022-.434-.449-.687-.949-.645a1.318,1.318,0,0,0-1.284,1.578.1.1,0,0,1-.1.1.1.1,0,0,1-.111-.083,1.516,1.516,0,0,1,1.484-1.78.969.969,0,0,1,1.167.82,1.02,1.02,0,0,1-.46.862l.1.084a1.02,1.02,0,0,1-.691,1.747,1.139,1.139,0,0,1-.61-.093.564.564,0,0,1-.254-.249.157.157,0,0,1-.013-.094.1.1,0,0,1,.171-.043m.154-1.435c-.21.845-.426,1.725-1.245,1.795a.639.639,0,0,1-.766-.524.743.743,0,0,1,.645-.78.406.406,0,0,1,.144.005.1.1,0,0,1,.081.081.1.1,0,0,1-.125.1.231.231,0,0,0-.079,0,.549.549,0,0,0-.46.567c.023.271.265.39.54.367.7-.059.893-.946,1.065-1.647a3.374,3.374,0,0,1,.43-1.174.744.744,0,0,1,.505-.362.1.1,0,0,1,.11.07c.006.066.029.081-.01.094-.38.043-.57.5-.671.814-.063.195-.114.394-.164.593" transform="translate(-382.488 -271.16)" fill="#b3b3b3"/>
        <path id="Trazado_2619" data-name="Trazado 2619" d="M401.532,327.079a.715.715,0,0,0,.174,0,1.242,1.242,0,0,0-.135-.006.136.136,0,0,0-.039.007m.061.057c-.075,0-.112-.013-.115-.047-.005-.061.063-.067.089-.069a1.847,1.847,0,0,1,.313.028l.1.025-.1.025a.871.871,0,0,1-.155.031c-.053,0-.1.007-.132.007m.152-1.591a1.179,1.179,0,0,1,.222.021.451.451,0,0,1,.047-.008s0-.008,0-.012a.327.327,0,0,1-.009-.053.079.079,0,0,0-.082-.046.487.487,0,0,0-.253.1l.077,0m.01-.133c-.042,0-.084,0-.127.006a1.5,1.5,0,0,0-1.46,1.752.071.071,0,0,0,.083.059.1.1,0,0,0,.055-.023.056.056,0,0,0,.021-.05,1.332,1.332,0,0,1,1.248-1.6.645.645,0,0,1,.238-.142h-.058m-1.868,2.091c-.021,0-.043,0-.066,0a.678.678,0,0,0-.455.25.7.7,0,0,0-.167.5c.028.329.332.534.738.5.8-.068,1.013-.932,1.221-1.769v-.006c.047-.19.1-.393.164-.594a1.216,1.216,0,0,1,.532-.787,1.2,1.2,0,0,0-.216,0l-.042,0a1.236,1.236,0,0,0-.163.191,3.078,3.078,0,0,0-.4,1.073l-.038.156c-.169.688-.379,1.544-1.073,1.6-.318.027-.546-.13-.568-.391a.563.563,0,0,1,.128-.39.522.522,0,0,1,.356-.205.261.261,0,0,1,.088,0,.086.086,0,0,0,.069-.021.067.067,0,0,0,.023-.054c0-.035-.04-.052-.062-.058a.267.267,0,0,0-.068-.008m1.067.918a.074.074,0,0,0-.023,0,.066.066,0,0,0-.046.051.129.129,0,0,0,.012.078.545.545,0,0,0,.242.236,1.107,1.107,0,0,0,.6.09,1.1,1.1,0,0,0,.737-.348.95.95,0,0,0,.234-.72.985.985,0,0,0-.295-.635l-.12-.105.027-.019a.986.986,0,0,0,.449-.838.775.775,0,0,0-.27-.554,1.022,1.022,0,0,0-.465-.22.119.119,0,0,1,.022.042.374.374,0,0,0,.009.051.066.066,0,0,1,0,.054.855.855,0,0,1,.329.173.639.639,0,0,1,.223.459.866.866,0,0,1-.453.769l-.012.007-.013-.006a1.278,1.278,0,0,0-.6-.1.252.252,0,0,0-.177.075.175.175,0,0,0-.036.133.158.158,0,0,0,.114.149.689.689,0,0,0,.274.015,1.541,1.541,0,0,0,.417-.108l.012-.006.012.007a.85.85,0,0,1,.393.661.841.841,0,0,1-.821.932.961.961,0,0,1-.478-.06.389.389,0,0,1-.148-.1.439.439,0,0,1-.039-.066.276.276,0,0,0-.047-.072.086.086,0,0,0-.059-.024m.642.517a1.046,1.046,0,0,1-.48-.1.589.589,0,0,1-.266-.262.179.179,0,0,1-.015-.111.118.118,0,0,1,.082-.09.136.136,0,0,1,.133.033.315.315,0,0,1,.057.086.4.4,0,0,0,.035.058.34.34,0,0,0,.128.089.908.908,0,0,0,.451.056.791.791,0,0,0,.774-.875.8.8,0,0,0-.356-.613,1.655,1.655,0,0,1-.422.108.733.733,0,0,1-.3-.019.21.21,0,0,1-.149-.194.226.226,0,0,1,.049-.171.3.3,0,0,1,.212-.093,1.348,1.348,0,0,1,.612.1.81.81,0,0,0,.416-.714.588.588,0,0,0-.206-.423.835.835,0,0,0-.386-.181c-.25.061-.444.319-.6.787-.065.2-.116.4-.163.591l-.026-.006.024.012c-.212.855-.431,1.738-1.267,1.809a.665.665,0,0,1-.794-.548.758.758,0,0,1,.178-.54.731.731,0,0,1,.491-.269.434.434,0,0,1,.153.006.124.124,0,0,1,.1.1.118.118,0,0,1-.039.1.135.135,0,0,1-.116.034.209.209,0,0,0-.071,0,.471.471,0,0,0-.321.186.509.509,0,0,0-.117.353c.024.283.291.362.512.343.657-.056.861-.892,1.026-1.563l.038-.156a3.11,3.11,0,0,1,.412-1.09,1.352,1.352,0,0,1,.121-.15,1.281,1.281,0,0,0-1.134,1.536.109.109,0,0,1-.039.093.152.152,0,0,1-.086.035.127.127,0,0,1-.139-.107,1.544,1.544,0,0,1,1.508-1.808,1.23,1.23,0,0,1,.907.254.827.827,0,0,1,.288.59,1.031,1.031,0,0,1-.445.865l.072.063a1.034,1.034,0,0,1,.311.669,1,1,0,0,1-.246.758,1.148,1.148,0,0,1-.771.366c-.05,0-.1.006-.144.006" transform="translate(-382.435 -271.109)" fill="#b3b3b3"/>
        <path id="Trazado_2620" data-name="Trazado 2620" d="M413.219,329.243a.116.116,0,0,1-.007.04c-.263.677-.486.965-.814.993a.326.326,0,0,1-.38-.28.8.8,0,0,1-.562.36h0a.415.415,0,0,1-.51-.414,5.635,5.635,0,0,1,.456-1.613.1.1,0,0,1,.088-.065c.083-.007.128.055.108.114-.415,1.276-.461,1.372-.447,1.546a.242.242,0,0,0,.293.248c.2-.017.389-.183.526-.493a15.112,15.112,0,0,0,.49-1.44.1.1,0,0,1,.088-.065c.079-.007.133.055.114.113-.087.262-.16.506-.218.687a3.861,3.861,0,0,0-.221.946c.011.127.06.18.163.171.235-.02.405-.285.638-.868a.1.1,0,0,1,.088-.065.173.173,0,0,1,.045,0,.1.1,0,0,1,.066.078" transform="translate(-390.318 -272.989)" fill="#b3b3b3"/>
        <path id="Trazado_2621" data-name="Trazado 2621" d="M411.446,328.238h-.011a.075.075,0,0,0-.066.047l-.064.19a4.775,4.775,0,0,0-.391,1.413.389.389,0,0,0,.481.39.773.773,0,0,0,.547-.349l.033-.05.014.058a.3.3,0,0,0,.352.26c.311-.027.526-.291.792-.976a.1.1,0,0,0,.005-.029.073.073,0,0,0-.05-.056.111.111,0,0,0-.033,0,.076.076,0,0,0-.066.047c-.217.544-.394.863-.66.885a.16.16,0,0,1-.137-.042.244.244,0,0,1-.054-.152,3.834,3.834,0,0,1,.222-.957c.024-.075.051-.16.08-.254.041-.132.087-.279.138-.433a.053.053,0,0,0-.009-.05.085.085,0,0,0-.077-.03.075.075,0,0,0-.066.047l-.085.27a11.56,11.56,0,0,1-.406,1.173c-.136.309-.33.49-.548.508a.269.269,0,0,1-.321-.272c-.013-.15.019-.248.268-1.006.05-.154.11-.336.18-.551a.057.057,0,0,0-.009-.054.077.077,0,0,0-.062-.026m-.115,2.095a.427.427,0,0,1-.468-.441,4.723,4.723,0,0,1,.393-1.434l.063-.189a.127.127,0,0,1,.111-.083.133.133,0,0,1,.118.045.108.108,0,0,1,.017.1c-.07.215-.129.4-.18.551-.245.749-.277.846-.265.985a.214.214,0,0,0,.265.224c.2-.017.376-.186.5-.478a11.436,11.436,0,0,0,.4-1.167l.085-.27a.127.127,0,0,1,.111-.083.142.142,0,0,1,.122.049.1.1,0,0,1,.018.1c-.051.154-.1.3-.138.433-.029.093-.056.179-.08.254a3.956,3.956,0,0,0-.22.937.2.2,0,0,0,.04.12.108.108,0,0,0,.095.026c.209-.018.376-.248.616-.851a.127.127,0,0,1,.11-.081.19.19,0,0,1,.05.005l.006,0a.122.122,0,0,1,.082.1h0a.141.141,0,0,1-.008.049c-.276.71-.5.983-.838,1.011a.347.347,0,0,1-.391-.247.8.8,0,0,1-.55.327c-.026,0-.051,0-.075,0" transform="translate(-390.265 -272.936)" fill="#b3b3b3"/>
        <path id="Trazado_2622" data-name="Trazado 2622" d="M417.385,327.215c-.064.005-.09.043-.086.091a.265.265,0,0,0,.135.191.661.661,0,0,0,.038-.188c-.006-.074-.048-.1-.087-.094m1.685,1.11a.125.125,0,0,1-.006.04c-.264.677-.486.965-.82.993h0a.331.331,0,0,1-.379-.337.931.931,0,0,1,.025-.288c.028-.143.194-.742.23-.842a3.813,3.813,0,0,1-.55-.129c-.015.054-.044.118-.372.916a.1.1,0,0,1-.084.06.167.167,0,0,1-.05,0,.1.1,0,0,1-.066-.078.114.114,0,0,1,.006-.04l.328-.793.048-.136a.439.439,0,0,1-.281-.345.284.284,0,0,1,.275-.309.267.267,0,0,1,.309.264.878.878,0,0,1-.055.286,4.108,4.108,0,0,0,.459.115c.07.012.135.024.191.036a.1.1,0,0,1,.07.121c-.051.149-.234.794-.254.905a.944.944,0,0,0-.024.244c.009.109.055.18.163.171.24-.021.406-.281.638-.868a.107.107,0,0,1,.088-.065.158.158,0,0,1,.045.005.1.1,0,0,1,.071.077" transform="translate(-394.363 -272.225)" fill="#b3b3b3"/>
        <path id="Trazado_2623" data-name="Trazado 2623" d="M417.339,327.188h-.005a.074.074,0,0,0-.052.021.055.055,0,0,0-.011.042.227.227,0,0,0,.094.151.518.518,0,0,0,.027-.145.085.085,0,0,0-.024-.06.045.045,0,0,0-.029-.01m.057.3-.029-.017a.287.287,0,0,1-.148-.211.107.107,0,0,1,.023-.08.124.124,0,0,1,.087-.04.1.1,0,0,1,.073.022.136.136,0,0,1,.042.1.655.655,0,0,1-.039.2Zm.1.193.026.009a3.78,3.78,0,0,0,.546.128l.03.006-.01.028c-.034.1-.2.691-.229.838a.906.906,0,0,0-.025.281.362.362,0,0,0,.1.239.312.312,0,0,0,.249.074c.32-.027.536-.292.8-.977a.091.091,0,0,0,0-.029.07.07,0,0,0-.053-.055.106.106,0,0,0-.034,0,.081.081,0,0,0-.067.05c-.219.554-.389.86-.659.883a.157.157,0,0,1-.14-.05.25.25,0,0,1-.05-.145.967.967,0,0,1,.024-.252c.02-.114.2-.757.254-.908a.071.071,0,0,0-.007-.056.068.068,0,0,0-.043-.032c-.051-.012-.113-.024-.189-.036l-.058-.012a3.555,3.555,0,0,1-.405-.1l-.023-.008.028-.107a.532.532,0,0,0,.032-.193.266.266,0,0,0-.085-.185.259.259,0,0,0-.2-.055.285.285,0,0,0-.2.1.247.247,0,0,0-.056.185.41.41,0,0,0,.267.324l.021.01-.055.158-.328.794a.1.1,0,0,0,0,.028.074.074,0,0,0,.05.056.13.13,0,0,0,.038,0,.075.075,0,0,0,.062-.044l.212-.517c.128-.31.147-.358.158-.4Zm.653,1.657a.35.35,0,0,1-.248-.09.414.414,0,0,1-.118-.273.946.946,0,0,1,.026-.3c.026-.137.172-.664.221-.817a4.059,4.059,0,0,1-.5-.115c-.015.041-.046.119-.152.375l-.213.517a.128.128,0,0,1-.106.076.167.167,0,0,1-.057,0,.124.124,0,0,1-.087-.1.14.14,0,0,1,.007-.048l.329-.8.04-.113a.451.451,0,0,1-.276-.356.3.3,0,0,1,.068-.223.339.339,0,0,1,.232-.114.31.31,0,0,1,.234.067.318.318,0,0,1,.1.221.57.57,0,0,1-.034.21l-.016.061a3.732,3.732,0,0,0,.377.094l.057.012c.076.012.139.024.191.036a.119.119,0,0,1,.077.056.126.126,0,0,1,.012.1c-.05.146-.233.792-.253.9a.911.911,0,0,0-.023.239.2.2,0,0,0,.038.113.105.105,0,0,0,.1.032c.213-.018.375-.241.615-.851a.133.133,0,0,1,.11-.081.19.19,0,0,1,.048,0l.007,0a.121.121,0,0,1,.088.1.145.145,0,0,1-.007.049c-.276.71-.5.984-.843,1.013l-.046,0" transform="translate(-394.31 -272.172)" fill="#b3b3b3"/>
        <path id="Trazado_2624" data-name="Trazado 2624" d="M422.921,328.05l.087-.258c-.02-.231-.163-.342-.339-.327-.455.047-.777,1.025-.75,1.458.006.18.027.314.208.3.392-.034.636-.71.795-1.171m-.5,1.7c-.092.025-.179.05-.266.071-.445.108-.627.238-.63.441a.245.245,0,0,0,.3.221c.264-.027.47-.277.595-.732m1.565-1.466a.114.114,0,0,1-.007.04,2.065,2.065,0,0,1-1.323,1.352c-.184.618-.462.954-.815.989a.428.428,0,0,1-.522-.382c-.024-.275.2-.5.78-.643.121-.028.252-.061.382-.1l.115-.388a.7.7,0,0,1-.448.249c-.324.028-.421-.188-.445-.468-.024-.578.358-1.6.941-1.654a.482.482,0,0,1,.472.2l.063-.186a.1.1,0,0,1,.088-.069c.068-.006.136.037.113.118-.064.176-.17.5-.295.887l-.2.673-.161.55a1.879,1.879,0,0,0,1.06-1.185.107.107,0,0,1,.088-.065.174.174,0,0,1,.045,0,.1.1,0,0,1,.071.078" transform="translate(-397.256 -272.357)" fill="#b3b3b3"/>
        <path id="Trazado_2625" data-name="Trazado 2625" d="M422.648,327.437h-.03c-.427.044-.753,1-.727,1.43,0,.122.015.206.061.246a.15.15,0,0,0,.118.028c.388-.033.638-.762.772-1.153l.085-.253a.353.353,0,0,0-.1-.234.259.259,0,0,0-.179-.066m-.6,1.759a.184.184,0,0,1-.128-.042.4.4,0,0,1-.079-.283c-.029-.459.311-1.436.774-1.485a.319.319,0,0,1,.249.078.4.4,0,0,1,.119.273v.006l-.088.263c-.191.558-.428,1.156-.817,1.189h-.03m.288.544h-.005c-.075.021-.145.04-.217.057-.43.1-.607.225-.609.416a.21.21,0,0,0,.073.146.259.259,0,0,0,.2.048c.246-.025.438-.255.56-.668m-.6.723a.3.3,0,0,1-.191-.062.26.26,0,0,1-.092-.185c0-.222.191-.357.649-.468.071-.017.141-.036.215-.057l.094-.026-.012.044c-.127.463-.34.723-.617.751l-.046,0M422.6,329l-.151.51-.013,0c-.145.047-.289.081-.384.1-.535.135-.784.336-.76.615a.379.379,0,0,0,.132.267.478.478,0,0,0,.361.091c.344-.034.61-.36.793-.97l0-.013.012,0a2.033,2.033,0,0,0,1.307-1.337.091.091,0,0,0,0-.029.071.071,0,0,0-.053-.055.115.115,0,0,0-.034,0,.081.081,0,0,0-.067.049,1.884,1.884,0,0,1-1.074,1.2l-.049.02.175-.6.233-.758c.112-.343.208-.639.267-.8a.06.06,0,0,0-.009-.057.088.088,0,0,0-.078-.026.072.072,0,0,0-.065.05l-.081.237-.03-.043a.454.454,0,0,0-.448-.19c-.578.049-.94,1.085-.918,1.627a.623.623,0,0,0,.1.334.33.33,0,0,0,.312.109.667.667,0,0,0,.431-.241Zm-.884,1.647a.5.5,0,0,1-.326-.107.429.429,0,0,1-.151-.3c-.026-.309.235-.528.8-.67.092-.021.229-.054.367-.1l.082-.276a.671.671,0,0,1-.392.185.385.385,0,0,1-.357-.129.665.665,0,0,1-.116-.363,2.342,2.342,0,0,1,.245-1.039c.193-.392.449-.62.72-.644a.517.517,0,0,1,.465.173l.047-.139a.125.125,0,0,1,.11-.087.149.149,0,0,1,.123.045.113.113,0,0,1,.018.106c-.059.165-.156.461-.267.8l-.028.085-.2.672-.145.5a1.854,1.854,0,0,0,1-1.15.134.134,0,0,1,.111-.082.19.19,0,0,1,.05.005.122.122,0,0,1,.094.1.143.143,0,0,1-.008.05,2.081,2.081,0,0,1-1.326,1.365c-.189.624-.469.958-.834.994a.707.707,0,0,1-.074,0" transform="translate(-397.203 -272.304)" fill="#b3b3b3"/>
        <path id="Trazado_2626" data-name="Trazado 2626" d="M429.827,327.156c-.01-.118-.115-.13-.223-.121-.339.029-.584.507-.713.857.4-.148.963-.412.935-.735m.578.747a.1.1,0,0,1-.007.036c-.265.656-.614.976-1.109,1.018a.574.574,0,0,1-.693-.544c-.018-.561.415-1.512.994-1.562.245-.021.427.078.445.287.039.463-.668.8-1.2.968a1.142,1.142,0,0,0-.03.293c.011.249.182.389.476.373.4-.026.7-.306.922-.892a.118.118,0,0,1,.133-.06.1.1,0,0,1,.071.082" transform="translate(-402.116 -272.103)" fill="#b3b3b3"/>
        <path id="Trazado_2627" data-name="Trazado 2627" d="M429.6,327.007l-.049,0c-.332.028-.567.522-.67.786.42-.162.888-.407.864-.688a.091.091,0,0,0-.058-.086.233.233,0,0,0-.087-.014m-.807.877.02-.053c.115-.312.363-.842.735-.873a.345.345,0,0,1,.16.015.143.143,0,0,1,.091.13c.022.262-.3.518-.952.762Zm.8-1.061-.061,0c-.551.047-.988.976-.97,1.535a.538.538,0,0,0,.176.387.646.646,0,0,0,.489.132c.482-.041.827-.359,1.087-1l0-.007a.049.049,0,0,0,0-.017.076.076,0,0,0-.054-.059.091.091,0,0,0-.1.046c-.229.592-.529.881-.944.907a.515.515,0,0,1-.38-.107.4.4,0,0,1-.124-.29,1.183,1.183,0,0,1,.03-.3l0-.015.015,0c.6-.183,1.219-.526,1.184-.941a.26.26,0,0,0-.125-.21.437.437,0,0,0-.231-.056m-.446,2.112a.66.66,0,0,1-.443-.148.589.589,0,0,1-.194-.424c-.019-.592.429-1.539,1.017-1.589a.539.539,0,0,1,.323.061.314.314,0,0,1,.149.25c.047.552-.892.893-1.206.991a1.112,1.112,0,0,0-.026.272.348.348,0,0,0,.107.254.457.457,0,0,0,.342.094c.392-.025.678-.3.9-.875a.143.143,0,0,1,.164-.076.128.128,0,0,1,.091.1.09.09,0,0,1,0,.036l0,.009c-.269.666-.629.995-1.132,1.037-.029,0-.057,0-.085,0" transform="translate(-402.063 -272.051)" fill="#b3b3b3"/>
        <path id="Trazado_2628" data-name="Trazado 2628" d="M433.623,325.833c-.064.005-.09.043-.086.091a.264.264,0,0,0,.135.191.66.66,0,0,0,.038-.188c-.006-.074-.048-.1-.087-.094m1.685,1.11a.121.121,0,0,1-.006.04c-.264.678-.486.965-.82.993h0a.331.331,0,0,1-.379-.337.923.923,0,0,1,.025-.288c.028-.143.194-.742.23-.842a3.84,3.84,0,0,1-.55-.129c-.015.054-.044.118-.372.915a.1.1,0,0,1-.084.06.152.152,0,0,1-.049,0,.1.1,0,0,1-.066-.078.115.115,0,0,1,.006-.04l.328-.793.048-.136a.439.439,0,0,1-.281-.346.284.284,0,0,1,.275-.309.268.268,0,0,1,.309.264.877.877,0,0,1-.055.286,4.122,4.122,0,0,0,.459.115c.07.012.135.024.191.037a.1.1,0,0,1,.069.121c-.051.149-.234.794-.254.905a.947.947,0,0,0-.024.244c.009.109.055.18.163.171.24-.021.406-.281.638-.868a.106.106,0,0,1,.088-.065.157.157,0,0,1,.045,0,.1.1,0,0,1,.071.078" transform="translate(-405.214 -271.3)" fill="#b3b3b3"/>
        <path id="Trazado_2629" data-name="Trazado 2629" d="M433.578,325.806h-.005c-.044,0-.065.025-.062.063a.226.226,0,0,0,.094.151.526.526,0,0,0,.027-.144.085.085,0,0,0-.024-.06.045.045,0,0,0-.03-.011m.056.3-.029-.017a.291.291,0,0,1-.148-.211.107.107,0,0,1,.11-.119.1.1,0,0,1,.073.022.133.133,0,0,1,.042.1.663.663,0,0,1-.039.2Zm.1.193.026.009a3.777,3.777,0,0,0,.546.128l.029.006-.01.028c-.034.1-.2.691-.229.838a.9.9,0,0,0-.025.281.362.362,0,0,0,.1.239.308.308,0,0,0,.249.074c.32-.027.536-.292.8-.977a.094.094,0,0,0,0-.029h0a.07.07,0,0,0-.053-.055.116.116,0,0,0-.034,0,.081.081,0,0,0-.067.05c-.219.554-.389.86-.659.883a.156.156,0,0,1-.14-.05.249.249,0,0,1-.051-.145.992.992,0,0,1,.024-.252c.021-.115.2-.758.255-.908a.072.072,0,0,0-.007-.056.068.068,0,0,0-.043-.032c-.05-.011-.112-.024-.189-.036l-.054-.012a3.493,3.493,0,0,1-.409-.1l-.023-.008.028-.107a.542.542,0,0,0,.032-.193.242.242,0,0,0-.281-.24.288.288,0,0,0-.185.084.248.248,0,0,0-.066.2.409.409,0,0,0,.267.324l.02.01-.055.158-.328.794a.1.1,0,0,0,0,.028.074.074,0,0,0,.05.056.14.14,0,0,0,.037,0,.075.075,0,0,0,.063-.044l.209-.508c.131-.318.151-.367.162-.4Zm.653,1.657a.349.349,0,0,1-.248-.09.414.414,0,0,1-.118-.273.956.956,0,0,1,.026-.3c.026-.137.172-.664.221-.817a4.071,4.071,0,0,1-.5-.115c-.014.042-.047.121-.155.384l-.209.508a.127.127,0,0,1-.106.076.183.183,0,0,1-.057,0,.124.124,0,0,1-.087-.1.14.14,0,0,1,.008-.049l.328-.8.04-.113a.445.445,0,0,1-.275-.356.3.3,0,0,1,.08-.237.342.342,0,0,1,.219-.1.3.3,0,0,1,.337.288.571.571,0,0,1-.034.211l-.016.061a3.821,3.821,0,0,0,.38.095l.053.011c.077.013.14.025.191.037a.119.119,0,0,1,.077.056.126.126,0,0,1,.012.1c-.05.146-.233.792-.253.9a.929.929,0,0,0-.024.239.2.2,0,0,0,.038.113.107.107,0,0,0,.1.032c.214-.018.375-.241.615-.851a.133.133,0,0,1,.11-.081.19.19,0,0,1,.049,0l.007,0a.121.121,0,0,1,.088.1.14.14,0,0,1-.007.047c-.277.713-.5.986-.843,1.015l-.046,0" transform="translate(-405.162 -271.248)" fill="#b3b3b3"/>
        <path id="Trazado_2630" data-name="Trazado 2630" d="M439.838,325.205c0-.061-.058-.043-.1,0a.255.255,0,0,0-.057.2.469.469,0,0,0,.036.138.623.623,0,0,0,.124-.34m-.385,2.209a.7.7,0,0,1-.795-.574.644.644,0,0,1,.612-.708.47.47,0,0,1,.508.4.1.1,0,0,1-.206.018.273.273,0,0,0-.282-.235.468.468,0,0,0-.426.507.5.5,0,0,0,.574.408.626.626,0,0,0,.641-.653c-.021-.191-.105-.312-.4-.7-.032.034-.263.31-.29.348a.109.109,0,0,1-.076.041.111.111,0,0,1-.075-.016.092.092,0,0,1-.041-.071.1.1,0,0,1,.02-.059c.054-.066.3-.358.353-.415a.667.667,0,0,1-.1-.282.394.394,0,0,1,.322-.45.23.23,0,0,1,.255.207.822.822,0,0,1-.23.543c.291.376.436.53.466.836a.814.814,0,0,1-.832.849" transform="translate(-408.841 -270.853)" fill="#b3b3b3"/>
        <path id="Trazado_2631" data-name="Trazado 2631" d="M439.754,325.139a.1.1,0,0,0-.053.036.23.23,0,0,0-.05.178.375.375,0,0,0,.017.081.55.55,0,0,0,.092-.28c0-.012,0-.015,0-.015h0m-.1.409-.018-.045a.48.48,0,0,1-.038-.145.279.279,0,0,1,.064-.219c.039-.041.08-.059.11-.048a.061.061,0,0,1,.039.06.651.651,0,0,1-.128.357Zm-.481.563a.047.047,0,0,0,0,.019.066.066,0,0,0,.028.051.085.085,0,0,0,.06.012.083.083,0,0,0,.057-.031c.005-.008.019-.025.037-.047a.455.455,0,0,0-.133-.009l-.046.005m.12.127a.3.3,0,0,1,.251.256.069.069,0,0,0,.083.061.083.083,0,0,0,.057-.027.061.061,0,0,0,.014-.045.439.439,0,0,0-.293-.353c-.025.03-.043.053-.049.062a.135.135,0,0,1-.064.046m-.036.05h-.018a.442.442,0,0,0-.4.48.47.47,0,0,0,.545.383.6.6,0,0,0,.617-.625c-.02-.182-.107-.307-.375-.656-.039.045-.12.14-.182.216a.491.491,0,0,1,.31.39.114.114,0,0,1-.026.084.135.135,0,0,1-.093.046.122.122,0,0,1-.139-.107.248.248,0,0,0-.236-.212m-.139-.168a.612.612,0,0,0-.487.666.568.568,0,0,0,.245.412.774.774,0,0,0,.521.137.953.953,0,0,0,.655-.313.673.673,0,0,0,.153-.507,1.3,1.3,0,0,0-.375-.712l-.1-.127.014-.016a.791.791,0,0,0,.225-.524.205.205,0,0,0-.227-.183.369.369,0,0,0-.3.422.644.644,0,0,0,.095.271l.01.017-.013.014c-.047.049-.239.277-.322.377h0a.515.515,0,0,1,.174.016c.08-.1.2-.236.218-.258l.021-.022.019.024c.29.378.383.507.405.709a.651.651,0,0,1-.665.681.522.522,0,0,1-.6-.432.494.494,0,0,1,.417-.531.1.1,0,0,1-.034-.016.114.114,0,0,1-.051-.09.063.063,0,0,1,0-.014m.207,1.27a.82.82,0,0,1-.48-.15.62.62,0,0,1-.267-.452.669.669,0,0,1,.56-.726l0,0c.05-.062.268-.321.342-.4a.67.67,0,0,1-.091-.276.42.42,0,0,1,.346-.478.258.258,0,0,1,.283.229.824.824,0,0,1-.223.548l.073.094a1.333,1.333,0,0,1,.386.738.723.723,0,0,1-.164.546,1.006,1.006,0,0,1-.691.332c-.026,0-.051,0-.077,0" transform="translate(-408.788 -270.801)" fill="#b3b3b3"/>
      </g>
    </g>
  </g>
</svg>
