<svg id="Capa_1" data-name="Capa 1" xmlns="http://www.w3.org/2000/svg" viewBox="0 0 300 72.75"><defs><style>.cls-1{fill:#b3b3b3;}</style></defs><title>Mesa de trabajo 8</title><path class="cls-1" d="M279.53,32.35a6,6,0,0,1,11.9,0,6,6,0,0,1-11.9,0m1,0a5,5,0,0,0,9.9,0,5,5,0,0,0-9.9,0m7.69,3h-1.35l-.89-2.1c-.1-.2-.1-.23-.41-.23H284.5v2.33h-1.15v-6c.91-.06,1.56-.09,2.21-.09,1.3,0,2.48.39,2.48,1.89a1.68,1.68,0,0,1-1,1.59c.48.86,1.16,2.55,1.19,2.62m-3.71-5V32h1.15c.72,0,1.22-.2,1.22-.78,0-.75-.44-.94-1.29-.94-.38,0-.72,0-1.09,0"/><rect class="cls-1" x="211.44" y="16.57" width="7.25" height="37.24"/><path class="cls-1" d="M194.85,32.5c-3.11,0-5.13,1.19-5.13,4.45V42.7c0,3.58,1.14,5.86,5,5.86,4.87,0,5.55-4.35,5.55-8.34s-.57-7.72-5.44-7.72M196.4,54c-3.06,0-4.72-.72-6.43-3.16h-.1V64h-7.3V27.37h6.17l.47,3.06h.1c1.87-2.69,4.15-3.63,7.36-3.63,7.93,0,11,6.22,11,13.32,0,7.41-3.06,13.83-11.29,13.83"/><path class="cls-1" d="M264.67,54.42C261.25,63.07,259.59,65,253.27,65a33,33,0,0,1-3.94-.26V58.72a24.88,24.88,0,0,0,2.9.15c2.8,0,3.47-.72,4.41-3.06l1.19-3L247.62,27.37h7.92l6,18h.1l5.85-18h7.82Z"/><path class="cls-1" d="M246,47.26V46.14h0V37.27c0-7.46-2.85-10.47-10.47-10.47a26.26,26.26,0,0,0-12.49,3.11l2.28,5a19.89,19.89,0,0,1,9.54-2.69c2.64,0,3.83.78,3.83,3.21v1.24c-6.47,0-16.27.83-16.27,9.44,0,5,3.47,7.93,8.39,7.93a13.74,13.74,0,0,0,8.65-3.07,2.24,2.24,0,0,0,.07.38c.79,2.5,5.1,2.68,8.35,2.5l.26-5.54c-1.36,0-2.15-.22-2.15-1M238.86,47A10.11,10.11,0,0,1,233,49.08a3.21,3.21,0,0,1-3.42-3.52c0-4.71,5.91-4.77,9.33-4.77Z"/><path class="cls-1" d="M107.3,32.55c-4.56,0-6,2.75-6,7.83s1.45,8,6,8,5.91-2.8,5.91-8c0-5.08-1.4-7.83-6-7.83m0,21.4c-9,0-13.37-5.49-13.37-13.57,0-7.56,3.89-13.58,13.37-13.58,8.76,0,13.31,5.18,13.31,13.58,0,8-4.25,13.57-13.31,13.57"/><polygon class="cls-1" points="70.82 18.82 70.82 25.3 80.56 25.3 80.56 53.81 88.23 53.81 88.23 25.3 97.97 25.3 97.97 18.82 70.82 18.82"/><path class="cls-1" d="M137.69,47.8c-3.73.09-4.09-.39-4.11-2.61,0-.11,0-.24,0-.36V33.22h6V27.37h-6V20.48h-7.2v6.89h-4.3v5.85h4.25V45.61c0,6.27,1.71,8.24,8.76,8.24a44.56,44.56,0,0,0,4.51-.36V47.67c-.54.05-1,.1-1.89.13"/><rect class="cls-1" x="171.21" y="16.57" width="7.25" height="37.24"/><path class="cls-1" d="M166.13,47.26V46.14h0V37.27c0-7.46-2.85-10.47-10.47-10.47a26.26,26.26,0,0,0-12.49,3.11l2.28,5A19.89,19.89,0,0,1,155,32.19c2.64,0,3.83.78,3.83,3.21v1.24c-6.47,0-16.27.83-16.27,9.44,0,5,3.47,7.93,8.39,7.93a13.73,13.73,0,0,0,8.65-3.07,2.24,2.24,0,0,0,.07.38c.79,2.5,5.1,2.68,8.35,2.5l.26-5.54c-1.36,0-2.15-.22-2.15-1M159,47a10.11,10.11,0,0,1-5.91,2.07,3.21,3.21,0,0,1-3.42-3.52c0-4.71,5.91-4.77,9.33-4.77Z"/><path class="cls-1" d="M27.41,17.63a1.12,1.12,0,0,0,0-2.12L14.29,7.93c-1-.58-1.84-.11-1.84,1.06V24.14c0,1.17.83,1.64,1.84,1.06Z"/><path class="cls-1" d="M27.41,37a1.12,1.12,0,0,0,0-2.12L14.29,27.32c-1-.58-1.84-.11-1.84,1.06V43.53c0,1.17.83,1.64,1.84,1.06Z"/><path class="cls-1" d="M27.41,56.41a1.12,1.12,0,0,0,0-2.12L14.29,46.71c-1-.58-1.84-.11-1.84,1.06V62.92c0,1.17.83,1.64,1.84,1.06Z"/><path class="cls-1" d="M29.25,33.84c0,1.17.83,1.64,1.84,1.06L44.2,27.32a1.12,1.12,0,0,0,0-2.12L31.08,17.63c-1-.58-1.84-.11-1.84,1.06Z"/><path class="cls-1" d="M29.25,53.22c0,1.17.83,1.64,1.84,1.06L44.2,46.71a1.12,1.12,0,0,0,0-2.12L31.08,37c-1-.58-1.84-.11-1.84,1.06Z"/><path class="cls-1" d="M46,43.53c0,1.17.83,1.64,1.84,1.06L61,37a1.12,1.12,0,0,0,0-2.12L47.87,27.32c-1-.58-1.84-.11-1.84,1.06Z"/></svg>