<svg id="Capa_1" data-name="Capa 1" xmlns="http://www.w3.org/2000/svg" viewBox="0 0 300 121.75"><defs><style>.cls-1{fill:#b3b3b3;}</style></defs><title>Mesa de trabajo 1 copia 2</title><path class="cls-1" d="M61.5,46.4A60.58,60.58,0,0,0,38.8,57.3,65.19,65.19,0,0,1,62.2,46.5a51.65,51.65,0,0,1,9.2-1.2A44.12,44.12,0,0,0,61.5,46.4Z"/><path class="cls-1" d="M95.2,59.3a12.09,12.09,0,0,0-.5-1.8,20.28,20.28,0,0,0-3.8-6.9c-4.9-3.5-11.5-5.5-19.5-5.3,8.7.2,15.3,3.6,19.3,8.6a19.09,19.09,0,0,1,3.8,8,13.15,13.15,0,0,1-.3,6.8A15.35,15.35,0,0,0,95.2,59.3Z"/><path class="cls-1" d="M98.9,78.9h1.3a1.35,1.35,0,0,0,1.4-1.3,1.28,1.28,0,0,0-1.4-1.3H98.5v6.4H97.4V75.2h2.7a2.31,2.31,0,0,1,2.4,2.4,2.26,2.26,0,0,1-1.9,2.3l2.4,2.8h-1.4l-2.7-3.3Z"/><path class="cls-1" d="M104.4,81.6h3.5v1.1h-4.6V75.2h4.6v1.1h-3.5v2.1h3.4v1.1h-3.4Z"/><path class="cls-1" d="M112.6,77.1c-.1-.7-.9-1-1.5-1a1.82,1.82,0,0,0-1.4.6,1.45,1.45,0,0,0-.2.7c.1.8.9.9,1.7.9,1,.1,2.3.4,2.6,1.6,0,.2.1.3.1.5a2.59,2.59,0,0,1-2.8,2.3c-1.2,0-2.6-.7-2.7-2v-.2h1.1v.2h0a1.54,1.54,0,0,0,1.6,1.1c.8,0,1.7-.4,1.7-1.2v-.3c-.1-.6-.9-.7-1.6-.7-1.2-.1-2.5-.4-2.7-1.9h0a2.3,2.3,0,0,1,.4-1.4,2.76,2.76,0,0,1,2.3-1,2.25,2.25,0,0,1,2.5,2Z"/><path class="cls-1" d="M120.6,77.9a2.33,2.33,0,0,0-2.4-1.6,2.7,2.7,0,1,0,2.4,3.9h-2.8V79.1h4a12.29,12.29,0,0,1-.2,1.3h0a3.9,3.9,0,0,1-3.4,2.4,3.8,3.8,0,0,1,0-7.6,3.47,3.47,0,0,1,3.6,2.7Z"/><path class="cls-1" d="M122.7,80.4V75.2h1.1v5.2c0,.8.9,1.2,1.7,1.2s1.7-.4,1.7-1.2V75.2h1.1v5.2c0,1.5-1.5,2.3-2.8,2.3S122.7,82,122.7,80.4Z"/><path class="cls-1" d="M133.3,80.5h-2.7c-.3.7-.7,1.6-.9,2.2h-1.2l3-7.6h.8l3,7.6h-1.2Zm-2.3-1h1.9l-.9-2.6Z"/><path class="cls-1" d="M137.1,78.9h1.3a1.35,1.35,0,0,0,1.4-1.3,1.28,1.28,0,0,0-1.4-1.3h-1.7v6.4h-1.1V75.2h2.7a2.31,2.31,0,0,1,2.4,2.4,2.26,2.26,0,0,1-1.9,2.3l2.4,2.8h-1.4l-2.7-3.3Z"/><path class="cls-1" d="M144.2,75.2a3.62,3.62,0,0,1,3.7,3.7,3.51,3.51,0,0,1-3.7,3.7h-2.7V75.1h2.7Zm0,6.4a2.7,2.7,0,0,0,0-5.4h-1.6v5.3h1.6Z"/><path class="cls-1" d="M152.5,80.5h-2.7c-.3.7-.7,1.6-.9,2.2h-1.2l3-7.6h.8l3,7.6h-1.2Zm-2.3-1h1.9l-.9-2.6Z"/><path class="cls-1" d="M160.7,82.7V76.3h-2.3V75.2H164v1.1h-2.3v6.4Z"/><path class="cls-1" d="M164.8,80.4V75.2h1.1v5.2c0,.8.9,1.2,1.7,1.2s1.7-.4,1.7-1.2V75.2h1.1v5.2c0,1.5-1.5,2.3-2.8,2.3S164.8,82,164.8,80.4Z"/><path class="cls-1" d="M176.3,82.7h-1.1V75.2h.9l2.5,3.6,2.5-3.6h.9v7.5h-1.1V77.4l-2,2.9h-.6l-2-2.9v5.3Z"/><path class="cls-1" d="M183,80.4V75.2h1.1v5.2c0,.8.9,1.2,1.7,1.2s1.7-.4,1.7-1.2V75.2h1.1v5.2c0,1.5-1.5,2.3-2.8,2.3S183,82,183,80.4Z"/><path class="cls-1" d="M189.5,82.7V75.2h.8l3.6,5.3V75.2H195v7.5h-.9l-3.6-5.2v5.2Z"/><path class="cls-1" d="M198.7,75.2a3.62,3.62,0,0,1,3.7,3.7,3.51,3.51,0,0,1-3.7,3.7H196V75.1h2.7Zm0,6.4a2.7,2.7,0,0,0,0-5.4h-1.6v5.3h1.6Z"/><path class="cls-1" d="M204.1,76.2a3.82,3.82,0,1,1,2.7,6.5,3.86,3.86,0,0,1-2.7-1.1,3.69,3.69,0,0,1-1.1-2.7A3.86,3.86,0,0,1,204.1,76.2Zm4.6.8a2.7,2.7,0,0,0-4.6,1.9,2.56,2.56,0,0,0,.8,1.9,2.69,2.69,0,1,0,3.8-3.8Z"/><path class="cls-1" d="M246.1,85.6c-3.9,0-5.9-1.6-5.9-4.9V76.8c0-3.3,2-4.9,5.9-4.9h10.8v2.9H246.1a1.8,1.8,0,0,0-2,2v3.9a1.8,1.8,0,0,0,2,2H253V80.3h-4.4V77.4h8.3v8.3H246.1Z"/><path class="cls-1" d="M270.5,77.3c1,0,1.5-.3,1.5-1v-.5c0-.7-.5-1-1.5-1H258.3V71.9h12.2q5.4,0,5.4,3.9v.5q0,3.9-5.4,3.9h-8.3v5.4h-3.9V77.3Z"/><path class="cls-1" d="M282.6,80.2q-5.4,0-5.4-3.9v-.5q0-3.9,5.4-3.9h12.2v2.9H282.6c-1,0-1.5.3-1.5,1v.5c0,.7.5,1,1.5,1h6.9q5.4,0,5.4,3.9v.5q0,3.9-5.4,3.9H277.3V82.7h12.2c1,0,1.5-.3,1.5-1v-.5c0-.7-.5-1-1.5-1Z"/><path class="cls-1" d="M53.1,26.1H52A27.56,27.56,0,1,1,23.3,53.6a28.45,28.45,0,0,1,1.4-8.8,29.91,29.91,0,0,0-2.4,12A30.8,30.8,0,1,0,53.1,26.1Z"/><polygon class="cls-1" points="57.7 22.1 54.8 8.8 51.8 22.1 54.8 20.4 57.7 22.1"/><polygon class="cls-1" points="5.4 57.5 18.8 60.4 17 57.5 18.8 54.5 5.4 57.5"/><polygon class="cls-1" points="51.8 93.4 54.8 106.8 57.7 93.4 54.8 95.2 51.8 93.4"/><polygon class="cls-1" points="96.8 50.4 107.4 50.4 107.4 67.2 113.5 67.2 113.5 50.4 124.1 50.4 124.1 45.9 96.8 45.9 96.8 50.4"/><path class="cls-1" d="M176.2,45.9a8.38,8.38,0,0,0-6.1,2.3L154.8,66.5c-.6-4.3-1.7-7.4-3.4-9.5a5.29,5.29,0,0,0,1.9-4.5v-.8c0-4.1-2.8-6.1-8.4-6.1h-19v4.6h19c1.5,0,2.3.5,2.3,1.5v.8c0,1-.8,1.5-2.3,1.5h-19V66.9H132V58.5h13c1.5,0,2.8,2.8,3.8,8.4h5.6l-.2.2h7.6l3.9-4.6h10.5v4.6h6.1V52C182.3,47.9,180.3,45.9,176.2,45.9Zm0,12.1h-6.6l4.7-6.1q1.2-1.5,1.5-1.5c.2,0,.4.3.4.8V58Z"/><path class="cls-1" d="M193.1,50.4h15.2V45.8H193.1c-6.1,0-9.1,2.5-9.1,7.6v6.1c0,5.1,3,7.6,9.1,7.6h15.2V62.5H193.1a2.65,2.65,0,0,1-3-3V53.4C190,51.5,191,50.4,193.1,50.4Z"/><polygon class="cls-1" points="239.3 45.9 231.7 45.9 216.5 57.4 216.5 45.9 210.4 45.9 210.4 67.2 216.5 67.2 216.5 63.1 223.5 57.8 231.7 67.2 238.5 67.2 228 54.4 239.3 45.9"/><path class="cls-1" d="M248.2,50.4h15.2V45.8H248.2c-6.1,0-9.1,2.5-9.1,7.6v6.1c0,5.1,3,7.6,9.1,7.6h15.2V62.5H248.2a2.65,2.65,0,0,1-3-3v-.8h18.2V54.1H245.2v-.8A2.66,2.66,0,0,1,248.2,50.4Z"/><path class="cls-1" d="M291,57.2a5.29,5.29,0,0,0,1.9-4.5V52c0-4.1-2.8-6.1-8.4-6.1h-19v4.6h19c1.5,0,2.3.5,2.3,1.5v.8c0,1-.8,1.5-2.3,1.5h-19V67.2h6.1V58.8h12.9c1.5,0,2.8,2.8,3.8,8.4h6.1C293.9,62.6,292.7,59.3,291,57.2Z"/><path class="cls-1" d="M38.8,57.3A59.86,59.86,0,0,1,61.5,46.4a45.39,45.39,0,0,1,9.9-1.1c8-.3,14.7,1.8,19.5,5.3-6.1-7.5-17.8-11.7-33.2-8.2C37,47.1,17.4,64,20.2,76.4a16.17,16.17,0,0,0,7.1,9.7,14.57,14.57,0,0,1-2.7-5.6C23,73.2,29.2,64.3,38.8,57.3Z"/><path class="cls-1" d="M33.9,86.1a15,15,0,0,1-6.7-8.9C25.8,71,30.8,63.5,38.7,57.3c-9.6,7-15.8,15.9-14.1,23.2a15.3,15.3,0,0,0,2.7,5.6,34.06,34.06,0,0,0,12.1,4.8,56.61,56.61,0,0,0,23.4-.7c.5-.1.9-.2,1.3-.3C52.1,92.3,40.8,90.7,33.9,86.1Z"/></svg>