<svg id="Capa_1" data-name="Capa 1" xmlns="http://www.w3.org/2000/svg" viewBox="0 0 352.48 125.99"><defs><style>.cls-1{fill:#b3b3b3;}</style></defs><title>Mesa de trabajo 18</title><path class="cls-1" d="M84.6,53A60.58,60.58,0,0,0,61.9,63.9,65.19,65.19,0,0,1,85.3,53.1a51.65,51.65,0,0,1,9.2-1.2A44.12,44.12,0,0,0,84.6,53Z"/><path class="cls-1" d="M118.29,65.9a12.09,12.09,0,0,0-.5-1.8,20.28,20.28,0,0,0-3.8-6.9c-4.9-3.5-11.5-5.5-19.5-5.3,8.7.2,15.3,3.6,19.3,8.6a19.08,19.08,0,0,1,3.8,8,13.15,13.15,0,0,1-.3,6.8A15.35,15.35,0,0,0,118.29,65.9Z"/><path class="cls-1" d="M122,85.5h1.3a1.35,1.35,0,0,0,1.4-1.3,1.28,1.28,0,0,0-1.4-1.3h-1.7v6.4h-1.1V81.8h2.7a2.31,2.31,0,0,1,2.4,2.4,2.26,2.26,0,0,1-1.9,2.3l2.4,2.8h-1.4L122,86Z"/><path class="cls-1" d="M127.49,88.2H131v1.1h-4.6V81.8H131v1.1h-3.5V85h3.4v1.1h-3.4Z"/><path class="cls-1" d="M135.69,83.7c-.1-.7-.9-1-1.5-1a1.82,1.82,0,0,0-1.4.6,1.45,1.45,0,0,0-.2.7c.1.8.9.9,1.7.9,1,.1,2.3.4,2.6,1.6,0,.2.1.3.1.5a2.59,2.59,0,0,1-2.8,2.3c-1.2,0-2.6-.7-2.7-2v-.2h1.1v.2h0a1.54,1.54,0,0,0,1.6,1.1c.8,0,1.7-.4,1.7-1.2v-.3c-.1-.6-.9-.7-1.6-.7-1.2-.1-2.5-.4-2.7-1.9h0a2.3,2.3,0,0,1,.4-1.4,2.76,2.76,0,0,1,2.3-1,2.25,2.25,0,0,1,2.5,2Z"/><path class="cls-1" d="M143.69,84.5a2.33,2.33,0,0,0-2.4-1.6,2.7,2.7,0,1,0,2.4,3.9h-2.8V85.7h4a12.29,12.29,0,0,1-.2,1.3h0a3.9,3.9,0,0,1-3.4,2.4,3.8,3.8,0,0,1,0-7.6,3.47,3.47,0,0,1,3.6,2.7Z"/><path class="cls-1" d="M145.79,87V81.8h1.1V87c0,.8.9,1.2,1.7,1.2s1.7-.4,1.7-1.2V81.8h1.1V87c0,1.5-1.5,2.3-2.8,2.3S145.79,88.6,145.79,87Z"/><path class="cls-1" d="M156.39,87.1h-2.7c-.3.7-.7,1.6-.9,2.2h-1.2l3-7.6h.8l3,7.6h-1.2Zm-2.3-1H156l-.9-2.6Z"/><path class="cls-1" d="M160.19,85.5h1.3a1.35,1.35,0,0,0,1.4-1.3,1.28,1.28,0,0,0-1.4-1.3h-1.7v6.4h-1.1V81.8h2.7a2.31,2.31,0,0,1,2.4,2.4,2.26,2.26,0,0,1-1.9,2.3l2.4,2.8h-1.4l-2.7-3.3Z"/><path class="cls-1" d="M167.29,81.8a3.62,3.62,0,0,1,3.7,3.7,3.51,3.51,0,0,1-3.7,3.7h-2.7V81.7h2.7Zm0,6.4a2.7,2.7,0,0,0,0-5.4h-1.6v5.3h1.6Z"/><path class="cls-1" d="M175.59,87.1h-2.7c-.3.7-.7,1.6-.9,2.2h-1.2l3-7.6h.8l3,7.6h-1.2Zm-2.3-1h1.9l-.9-2.6Z"/><path class="cls-1" d="M183.79,89.3V82.9h-2.3V81.8h5.6v1.1h-2.3v6.4Z"/><path class="cls-1" d="M187.89,87V81.8H189V87c0,.8.9,1.2,1.7,1.2s1.7-.4,1.7-1.2V81.8h1.1V87c0,1.5-1.5,2.3-2.8,2.3S187.89,88.6,187.89,87Z"/><path class="cls-1" d="M199.39,89.3h-1.1V81.8h.9l2.5,3.6,2.5-3.6h.9v7.5H204V84l-2,2.9h-.6l-2-2.9v5.3Z"/><path class="cls-1" d="M206.09,87V81.8h1.1V87c0,.8.9,1.2,1.7,1.2s1.7-.4,1.7-1.2V81.8h1.1V87c0,1.5-1.5,2.3-2.8,2.3S206.09,88.6,206.09,87Z"/><path class="cls-1" d="M212.59,89.3V81.8h.8l3.6,5.3V81.8h1.1v7.5h-.9l-3.6-5.2v5.2Z"/><path class="cls-1" d="M221.79,81.8a3.62,3.62,0,0,1,3.7,3.7,3.51,3.51,0,0,1-3.7,3.7h-2.7V81.7h2.7Zm0,6.4a2.7,2.7,0,0,0,0-5.4h-1.6v5.3h1.6Z"/><path class="cls-1" d="M227.19,82.8a3.82,3.82,0,1,1,2.7,6.5,3.86,3.86,0,0,1-2.7-1.1,3.69,3.69,0,0,1-1.1-2.7A3.86,3.86,0,0,1,227.19,82.8Zm4.6.8a2.7,2.7,0,0,0-4.6,1.9,2.56,2.56,0,0,0,.8,1.9,2.69,2.69,0,1,0,3.8-3.8Z"/><path class="cls-1" d="M269.19,92.2c-3.9,0-5.9-1.6-5.9-4.9V83.4c0-3.3,2-4.9,5.9-4.9H280v2.9h-10.8a1.8,1.8,0,0,0-2,2v3.9a1.8,1.8,0,0,0,2,2h6.9V86.9h-4.4V84H280v8.3h-10.8Z"/><path class="cls-1" d="M293.59,83.9c1,0,1.5-.3,1.5-1v-.5c0-.7-.5-1-1.5-1h-12.2V78.5h12.2q5.4,0,5.4,3.9v.5q0,3.9-5.4,3.9h-8.3v5.4h-3.9V83.9Z"/><path class="cls-1" d="M305.68,86.8q-5.4,0-5.4-3.9v-.5q0-3.9,5.4-3.9h12.2v2.9h-12.2c-1,0-1.5.3-1.5,1v.5c0,.7.5,1,1.5,1h6.9q5.4,0,5.4,3.9v.5q0,3.9-5.4,3.9h-12.2V89.3h12.2c1,0,1.5-.3,1.5-1v-.5c0-.7-.5-1-1.5-1Z"/><path class="cls-1" d="M76.2,32.7H75.1A27.56,27.56,0,1,1,46.4,60.2a28.45,28.45,0,0,1,1.4-8.8,29.9,29.9,0,0,0-2.4,12A30.8,30.8,0,1,0,76.2,32.7Z"/><polygon class="cls-1" points="80.8 28.7 77.9 15.4 74.9 28.7 77.9 27 80.8 28.7"/><polygon class="cls-1" points="28.5 64.1 41.9 67 40.1 64.1 41.9 61.1 28.5 64.1"/><polygon class="cls-1" points="74.9 100 77.9 113.4 80.8 100 77.9 101.8 74.9 100"/><polygon class="cls-1" points="119.89 57 130.49 57 130.49 73.8 136.59 73.8 136.59 57 147.19 57 147.19 52.5 119.89 52.5 119.89 57"/><path class="cls-1" d="M199.29,52.5a8.38,8.38,0,0,0-6.1,2.3l-15.3,18.3c-.6-4.3-1.7-7.4-3.4-9.5a5.29,5.29,0,0,0,1.9-4.5v-.8c0-4.1-2.8-6.1-8.4-6.1H149v4.6h19c1.5,0,2.3.5,2.3,1.5v.8c0,1-.8,1.5-2.3,1.5H149V73.5h6.1V65.1h13c1.5,0,2.8,2.8,3.8,8.4h5.6l-.2.2h7.6l3.9-4.6h10.5v4.6h6.1V58.6C205.39,54.5,203.39,52.5,199.29,52.5Zm0,12.1h-6.6l4.7-6.1q1.2-1.5,1.5-1.5c.2,0,.4.3.4.8v6.8Z"/><path class="cls-1" d="M216.19,57h15.2V52.4h-15.2c-6.1,0-9.1,2.5-9.1,7.6v6.1c0,5.1,3,7.6,9.1,7.6h15.2V69.1h-15.2a2.65,2.65,0,0,1-3-3V60C213.09,58.1,214.09,57,216.19,57Z"/><polygon class="cls-1" points="262.39 52.5 254.79 52.5 239.59 64 239.59 52.5 233.49 52.5 233.49 73.8 239.59 73.8 239.59 69.7 246.59 64.4 254.79 73.8 261.59 73.8 251.09 61 262.39 52.5"/><path class="cls-1" d="M271.29,57h15.2V52.4h-15.2c-6.1,0-9.1,2.5-9.1,7.6v6.1c0,5.1,3,7.6,9.1,7.6h15.2V69.1h-15.2a2.65,2.65,0,0,1-3-3v-.8h18.2V60.7h-18.2v-.8A2.66,2.66,0,0,1,271.29,57Z"/><path class="cls-1" d="M314.08,63.8a5.29,5.29,0,0,0,1.9-4.5v-.7c0-4.1-2.8-6.1-8.4-6.1h-19v4.6h19c1.5,0,2.3.5,2.3,1.5v.8c0,1-.8,1.5-2.3,1.5h-19V73.8h6.1V65.4h12.9c1.5,0,2.8,2.8,3.8,8.4h6.1C317,69.2,315.78,65.9,314.08,63.8Z"/><path class="cls-1" d="M61.9,63.9A59.86,59.86,0,0,1,84.6,53a45.39,45.39,0,0,1,9.9-1.1c8-.3,14.7,1.8,19.5,5.3-6.1-7.5-17.8-11.7-33.2-8.2C60.1,53.7,40.5,70.6,43.3,83a16.17,16.17,0,0,0,7.1,9.7,14.57,14.57,0,0,1-2.7-5.6C46.1,79.8,52.3,70.9,61.9,63.9Z"/><path class="cls-1" d="M57,92.7a15,15,0,0,1-6.7-8.9c-1.4-6.2,3.6-13.7,11.5-19.9-9.6,7-15.8,15.9-14.1,23.2a15.3,15.3,0,0,0,2.7,5.6,34.06,34.06,0,0,0,12.1,4.8,56.61,56.61,0,0,0,23.4-.7c.5-.1.9-.2,1.3-.3C75.2,98.9,63.9,97.3,57,92.7Z"/></svg>