<svg xmlns="http://www.w3.org/2000/svg" viewBox="0 0 104.68 23.84"><defs><style>.cls-1{fill:#b3b3b3;}</style></defs><title>walkingdead</title><g id="Layer_2" data-name="Layer 2"><g id="Capa_1" data-name="Capa 1"><polygon class="cls-1" points="14.35 0 16.47 0 16.47 0.59 15.9 0.59 15.9 5.55 14.93 5.55 14.93 0.55 14.35 0.55 14.35 0"/><polygon class="cls-1" points="16.9 0 16.9 5.55 17.81 5.55 17.81 2.88 18.36 2.9 18.36 5.55 19.12 5.55 19.12 0 18.36 0 18.36 2.27 17.81 2.27 17.81 0 16.9 0"/><polygon class="cls-1" points="19.7 0 21.45 0 21.45 0.59 20.46 0.59 20.46 2.29 21.45 2.29 21.45 2.88 20.46 2.88 20.46 4.98 21.45 4.98 21.45 5.55 19.7 5.55 19.7 0"/><polygon class="cls-1" points="0 6.11 1.56 23.63 6.17 23.63 7 17.68 7.79 23.63 12.66 23.63 14.35 6.11 10.46 6.11 9.89 11.57 8.97 6.11 5.5 6.11 4.96 11.38 4.36 6.11 0 6.11"/><path class="cls-1" d="M20.81,6.11H15.15L13.28,23.63H17l.22-2.26h1.53l0,2.26H23ZM17.52,17.33,18,12.4l.53,4.93Z"/><polygon class="cls-1" points="23.56 6.11 23.56 23.63 30.59 23.63 30.59 20.07 27.98 20.07 27.98 6.11 23.56 6.11"/><polygon class="cls-1" points="30.97 23.63 35.01 23.63 35.01 18.51 36.06 23.63 40.8 23.63 38.92 14.69 40.58 6.11 36.13 6.11 35.04 11.13 35.04 6.11 30.97 6.11 30.97 23.63"/><rect class="cls-1" x="40.93" y="6.11" width="4.1" height="17.52"/><polygon class="cls-1" points="45.66 6.11 49.67 6.11 51.07 11.32 51.07 6.11 54.51 6.11 54.51 23.63 50.53 23.63 49.1 17.55 49.1 23.63 45.66 23.63 45.66 6.11"/><path class="cls-1" d="M60.13,13H64.3V8.55s-.54-2.45-4.48-2.45-4.74,1.4-4.74,2.13V21s.19,3.34,4.61,2.83c4,0,4.58-2,4.61-2.61s0-7.5,0-7.5l-4.6,0V17.2h.44l0,2.39s0,.54-.41.54-.45-.25-.45-.45,0-9.54,0-9.54.08-.54.48-.56a.4.4,0,0,1,.44.46Z"/><path class="cls-1" d="M72.73,6.11H67.38V23.63h5.79c3.53,0,3.69-4,3.69-4V9.92C76.86,6.81,72.73,6.11,72.73,6.11Zm-1,14V9.73s1,.06,1,.89v8.65S72.76,20.1,71.71,20.1Z"/><polygon class="cls-1" points="84.72 19.91 81.82 19.91 81.82 16.06 84.53 16.06 84.53 12.81 81.85 12.81 81.85 9.73 84.72 9.73 84.72 6.11 77.5 6.11 77.5 23.63 84.72 23.63 84.72 19.91"/><polygon class="cls-1" points="89.39 17.38 90.36 17.38 89.83 12.45 89.39 17.38"/><path class="cls-1" d="M92.68,6.15H87L85.15,23.68h3.69l.22-2.26h1.53l0,2.26h4.29ZM89.39,17.38l.44-4.93.53,4.93Z"/><path class="cls-1" d="M100.48,10.62c0-.83-1-.89-1-.89V20.1c1,0,1-.83,1-.83Z"/><path class="cls-1" d="M100.54,6.11H95.2V23.63H101c3.53,0,3.69-4,3.69-4V9.92C104.68,6.81,100.54,6.11,100.54,6.11Zm-1,14V9.73s1,.06,1,.89v8.65S100.57,20.1,99.52,20.1Z"/></g></g></svg>