<svg xmlns="http://www.w3.org/2000/svg" width="165.677" height="51.07" viewBox="0 0 165.677 51.07">
  <g id="Grupo_85" data-name="Grupo 85" transform="translate(953 51)">
    <g id="Grupo_1" data-name="Grupo 1" transform="translate(-953 -51)">
      <path id="Trazado_5" data-name="Trazado 5" d="M391.116,68.219a.1.1,0,0,1-.094-.094.093.093,0,0,1,.094-.093h57.237v34.745a83.507,83.507,0,0,0-57.237-34.558" transform="translate(-282.676 -68.032)" fill="#b3b3b3"/>
      <path id="Trazado_6" data-name="Trazado 6" d="M312.029,92.3V104.67h3.419V94.608c1.152-.987,1.974-.659,4.244,1.217l1.381-3.091a6.839,6.839,0,0,0-2.861-.625,3.531,3.531,0,0,0-2.7,1.184l-.166.2-.032-.033.032-1.151Z" transform="translate(-274.359 -70.567)" fill="#b3b3b3"/>
      <rect id="Rectángulo_1" data-name="Rectángulo 1" width="3.421" height="18.909" transform="translate(48.094 15.195)" fill="#b3b3b3"/>
      <rect id="Rectángulo_2" data-name="Rectángulo 2" width="3.42" height="12.366" transform="translate(89.476 21.739)" fill="#b3b3b3"/>
      <path id="Trazado_7" data-name="Trazado 7" d="M372.107,86.081a1.809,1.809,0,1,0,1.808,1.809,1.783,1.783,0,0,0-1.808-1.809" transform="translate(-280.494 -69.932)" fill="#b3b3b3"/>
      <rect id="Rectángulo_3" data-name="Rectángulo 3" width="3.42" height="12.366" transform="translate(106.836 21.739)" fill="#b3b3b3"/>
      <path id="Trazado_8" data-name="Trazado 8" d="M391.033,86.081a1.809,1.809,0,1,0,1.808,1.809,1.783,1.783,0,0,0-1.808-1.809" transform="translate(-282.487 -69.932)" fill="#b3b3b3"/>
      <path id="Trazado_9" data-name="Trazado 9" d="M376.668,95.7c-.328,4.7,6.578,3.584,6.38,6.446-.1,1.15-1.085,1.545-2.137,1.512a5.245,5.245,0,0,1-3.684-2.2l-1.019,2.269a10.14,10.14,0,0,0,4.209,1.283c2.96.2,5.46-1.086,5.623-3.946.3-4.44-6.84-3.881-6.708-6.149.065-.987,1.183-1.48,2.333-1.415a5.362,5.362,0,0,1,3.124,1.678l.922-2.039a11.545,11.545,0,0,0-3.584-.921c-3.19-.2-5.328,1.48-5.46,3.487" transform="translate(-281.116 -70.576)" fill="#b3b3b3"/>
      <path id="Trazado_10" data-name="Trazado 10" d="M358.63,104.194h1.448l7.235-16.607h-1.875l-5.031,11.675L355.44,87.588H351.3Z" transform="translate(-278.493 -70.091)" fill="#b3b3b3"/>
      <path id="Trazado_11" data-name="Trazado 11" d="M425.557,104.67V97.864a5.358,5.358,0,0,0-5.589-5.755,6.9,6.9,0,0,0-3.98,1.414l-.067-.033V92.306h-3.156V104.67h3.419V94.707a4.427,4.427,0,0,1,2.861-1.251c1.809,0,3.059,1.744,3.059,3.65v7.563Z" transform="translate(-284.965 -70.567)" fill="#b3b3b3"/>
      <path id="Trazado_12" data-name="Trazado 12" d="M283.87,89.174h-1.941l-3.88,10.03-4.143-11.542h-3.979l6.149,16.508h1.874l3.979-10.194,3.946,10.194h1.875L293.9,87.7h-1.874L287.717,99.2Z" transform="translate(-269.927 -70.099)" fill="#b3b3b3"/>
      <path id="Trazado_13" data-name="Trazado 13" d="M301.826,92.182c-4.145,0-6.709,2.861-6.709,6.315s2.564,6.314,6.709,6.314,6.708-2.861,6.708-6.314-2.565-6.315-6.708-6.315m0,11.444c-2.137,0-3.092-2.269-3.092-5.129s.955-5.131,3.092-5.131,3.09,2.27,3.09,5.131-.954,5.129-3.09,5.129" transform="translate(-272.579 -70.575)" fill="#b3b3b3"/>
      <path id="Trazado_14" data-name="Trazado 14" d="M402.3,92.182c-4.144,0-6.709,2.861-6.709,6.315s2.564,6.314,6.709,6.314,6.709-2.861,6.709-6.314-2.565-6.315-6.709-6.315m0,11.444c-2.137,0-3.091-2.269-3.091-5.129s.954-5.131,3.091-5.131,3.091,2.27,3.091,5.131-.954,5.129-3.091,5.129" transform="translate(-283.157 -70.575)" fill="#b3b3b3"/>
      <path id="Trazado_15" data-name="Trazado 15" d="M339.852,85.014v7.532a6.625,6.625,0,0,0-3.88-1.184,6.23,6.23,0,0,0-6.346,6.577,6.34,6.34,0,0,0,6.314,6.248,6.476,6.476,0,0,0,4.11-1.481l.065.033v1.184h3.157V85.014Zm0,16.476a4.328,4.328,0,0,1-2.96,1.315c-1.512,0-3.486-1.282-3.486-5,0-4.012,3.124-6.905,6.445-3.782Z" transform="translate(-276.212 -69.82)" fill="#b3b3b3"/>
      <path id="Trazado_16" data-name="Trazado 16" d="M443.77,88.576c.387-5.719.263-9.059,1.242-9.966.905-.839,2.539-1.067,5.313-1.27-6.09-.7-5.944-.523-6.555-6.444-.611,5.921-.463,5.741-6.555,6.444,2.775.2,4.407.43,5.313,1.27.979.907.854,4.247,1.242,9.966" transform="translate(-287.539 -68.334)" fill="#fff"/>
    </g>
    <text id="Por_los_niños" data-name="Por los niños" transform="translate(-952.841 -1.93)" fill="#b3b3b3" font-size="9" font-family="Lato-Bold, Lato" font-weight="700"><tspan x="0" y="0">Por los niños</tspan></text>
  </g>
</svg>
