<svg xmlns="http://www.w3.org/2000/svg" xmlns:xlink="http://www.w3.org/1999/xlink" width="179" height="79" viewBox="0 0 179 79">
  <defs>
    <clipPath id="clip-Mesa_de_trabajo_9">
      <rect width="179" height="79"/>
    </clipPath>
  </defs>
  <g id="Mesa_de_trabajo_9" data-name="Mesa de trabajo – 9" clip-path="url(#clip-Mesa_de_trabajo_9)">
    <rect width="179" height="79" fill="#fff"/>
    <g id="Grupo_197" data-name="Grupo 197" transform="translate(-33 -463)">
      <path id="Trazado_2537" data-name="Trazado 2537" d="M70.92,479a15.685,15.685,0,0,0-14.949,10H62.2a10.674,10.674,0,0,1,17.437,0h6.23A15.682,15.682,0,0,0,70.92,479" transform="translate(-1.675)" fill="#b3b3b3"/>
      <g id="Grupo_196" data-name="Grupo 196" transform="translate(92.551 491.224)">
        <path id="Trazado_2538" data-name="Trazado 2538" d="M123.05,536.628l2.066-4.659a6.426,6.426,0,0,0,2.907,1.016,1.659,1.659,0,0,0,1.54-.77l-7.424-18.6h6.97l3.782,11.416,3.572-11.416h6.829l-6.934,18.491c-1.645,4.412-3.432,6.163-7.214,6.163A12.247,12.247,0,0,1,123.05,536.628Z" transform="translate(-122.139 -505.828)" fill="#b3b3b3"/>
        <path id="Trazado_2539" data-name="Trazado 2539" d="M158.938,513.619h6.653v18.946h-6.653Z" transform="translate(-137.663 -505.828)" fill="#b3b3b3"/>
        <path id="Trazado_2540" data-name="Trazado 2540" d="M173.619,526.016v-12.4h6.654V523.88c0,2.066,1.085,3.187,2.7,3.187,1.576,0,2.766-1.12,2.766-3.187V513.619h6.654v18.946h-6.654v-2.591a6.972,6.972,0,0,1-5.673,3.011C176.036,532.985,173.619,530.323,173.619,526.016Z" transform="translate(-143.856 -505.828)" fill="#b3b3b3"/>
        <path id="Trazado_2541" data-name="Trazado 2541" d="M209.484,513.313h6.653v2.521a6.954,6.954,0,0,1,5.743-2.941c4.518,0,8.4,3.746,8.4,9.8v.071c0,6.163-3.887,9.91-8.369,9.91a7.114,7.114,0,0,1-5.779-2.731v7.914h-6.653Zm14.253,9.491v-.07a3.889,3.889,0,1,0-7.74,0v.07a3.892,3.892,0,1,0,7.74,0Z" transform="translate(-158.986 -505.522)" fill="#b3b3b3"/>
        <path id="Trazado_2542" data-name="Trazado 2542" d="M247.475,513.313h6.654v2.521a6.954,6.954,0,0,1,5.743-2.941c4.518,0,8.4,3.746,8.4,9.8v.071c0,6.163-3.887,9.91-8.37,9.91a7.114,7.114,0,0,1-5.778-2.731v7.914h-6.654Zm14.253,9.491v-.07a3.889,3.889,0,1,0-7.739,0v.07a3.892,3.892,0,1,0,7.739,0Z" transform="translate(-175.012 -505.522)" fill="#b3b3b3"/>
        <path id="Trazado_2543" data-name="Trazado 2543" d="M285.491,513.619h6.653v18.946h-6.653Z" transform="translate(-191.049 -505.828)" fill="#b3b3b3"/>
        <path id="Trazado_2544" data-name="Trazado 2544" d="M165.526,503.657a3.513,3.513,0,1,1-3.513-3.513A3.514,3.514,0,0,1,165.526,503.657Z" transform="translate(-137.478 -500.144)" fill="#b3b3b3"/>
        <path id="Trazado_2545" data-name="Trazado 2545" d="M291.917,503.657a3.513,3.513,0,1,1-3.513-3.513A3.513,3.513,0,0,1,291.917,503.657Z" transform="translate(-190.796 -500.144)" fill="#b3b3b3"/>
      </g>
      <path id="Trazado_2546" data-name="Trazado 2546" d="M52,500v34.689H86.689V500Zm25.977,26.017h-9.21v-8.672H60.672v-8.672h17.3Z" transform="translate(0 -8.859)" fill="#b3b3b3"/>
    </g>
  </g>
</svg>
