<svg xmlns="http://www.w3.org/2000/svg" viewBox="0 0 22.6 20.31"><defs><style>.cls-1{fill:#c4c4c4;}</style></defs><title>accetingLogo</title><g id="Layer_2" data-name="Layer 2"><g id="Capa_1" data-name="Capa 1"><path class="cls-1" d="M12.67,6.43H10.15L6.48,0H8.82l2.6,4.44L13.92,0H16.3ZM13.92,0H16.3"/><path class="cls-1" d="M8.76,7.11,7.5,9.29l-7.41,0,1.17-2,5.14,0L3.82,2.8,5,.75ZM3.82,2.8,5,.75"/><path class="cls-1" d="M7.39,10.83,8.65,13l-3.74,6.4-1.17-2,2.55-4.47-5.1,0L0,10.9ZM1.19,13,0,10.9"/><path class="cls-1" d="M9.93,13.88h2.52l3.67,6.43H13.78l-2.6-4.44L8.67,20.31H6.29ZM8.67,20.31H6.29"/><path class="cls-1" d="M13.84,13.21,15.1,11l7.41,0-1.17,2-5.14,0,2.59,4.4-1.19,2.06Zm4.94,4.3-1.19,2.06"/><path class="cls-1" d="M15.21,9.48,13.95,7.3,17.69.91l1.17,2L16.31,7.4l5.1,0L22.6,9.41Zm6.2-2.13L22.6,9.41"/></g></g></svg>