<svg id="Componente_1_1" data-name="Componente 1 – 1" xmlns="http://www.w3.org/2000/svg" width="300" height="55" viewBox="0 0 300 55">
  <rect id="Rectángulo_60" data-name="Rectángulo 60" width="300" height="55" fill="#db2422"/>
  <g id="_2071331" data-name="2071331" transform="translate(-75 693.306)">
    <path id="Trazado_2632" data-name="Trazado 2632" d="M335.632-684.642a18.525,18.525,0,0,0-8.917,3.051,18.292,18.292,0,0,0-6.256,7.2,18.075,18.075,0,0,0-1.565,4.908,20.1,20.1,0,0,0-.126,5.046,21.046,21.046,0,0,0,2.076,6.812l.3.591-.705,2.1c-.39,1.158-1.1,3.268-1.571,4.691s-.872,2.632-.872,2.689.075.126.166.161c.149.057.166.08.138.258s-.029.195.1.155c.235-.075,5.367-1.709,7.535-2.408,1.135-.361,2.11-.659,2.167-.659a2.489,2.489,0,0,1,.545.224,18.572,18.572,0,0,0,6.715,1.9,22.45,22.45,0,0,0,3.779-.092,17.972,17.972,0,0,0,12.993-8.418,21.458,21.458,0,0,0,2.3-5.459,19.037,19.037,0,0,0,.55-5.631,18.152,18.152,0,0,0-5.052-11.566,18.236,18.236,0,0,0-10.866-5.459A30.93,30.93,0,0,0,335.632-684.642Zm2.242,3.922a14.617,14.617,0,0,1,5.5,1.485,14.964,14.964,0,0,1,5.906,5.2,13.192,13.192,0,0,1,2.127,5.614,19.26,19.26,0,0,1,0,3.9,14.714,14.714,0,0,1-13.6,12.713,14.706,14.706,0,0,1-6.95-1.227,15.191,15.191,0,0,1-1.944-1.049.654.654,0,0,0-.281-.138c-.052,0-1.273.373-2.706.831s-2.615.831-2.621.82.356-1.13.809-2.483.826-2.534.826-2.626a1.3,1.3,0,0,0-.252-.516,14.792,14.792,0,0,1-2.013-12.2,11.8,11.8,0,0,1,.889-2.236,15.05,15.05,0,0,1,5.046-5.631A14.9,14.9,0,0,1,337.874-680.72Z" fill="#fff"/>
    <path id="Trazado_2633" data-name="Trazado 2633" d="M488.905-524.44a2.456,2.456,0,0,0-.43.195,7.95,7.95,0,0,0-1.4,1.5,5.806,5.806,0,0,0-.528,4.771,12.937,12.937,0,0,0,1.714,3.607,21.752,21.752,0,0,0,2.924,3.744,14.455,14.455,0,0,0,5.315,3.641,14.887,14.887,0,0,0,3.481,1.13,6.171,6.171,0,0,0,2.076-.333,5.006,5.006,0,0,0,2.139-1.5,6.512,6.512,0,0,0,.791-2.62l.034-.545-.178-.206a10.27,10.27,0,0,0-1.686-1.009c-2.477-1.33-2.792-1.456-3.182-1.25a5.526,5.526,0,0,0-.808.82c-1.021,1.187-1.233,1.393-1.4,1.393a11.13,11.13,0,0,1-2.311-1.176,11.051,11.051,0,0,1-1.915-1.611,13.513,13.513,0,0,1-2.036-2.787l-.1-.206.413-.453a3.866,3.866,0,0,0,.986-1.537,1.814,1.814,0,0,0-.115-1.663c-.292-.763-.528-1.393-.935-2.489-.333-.9-.579-1.267-.923-1.376A6.74,6.74,0,0,0,488.905-524.44Z" transform="translate(-158.617 -150.981)" fill="#fff"/>
  </g>
  <text id="_Contáctanos_en_Whatsapp_" data-name="¡Contáctanos en Whatsapp!" transform="translate(15 20)" fill="#fff" font-size="16" font-family="Helvetica-Bold, Helvetica" font-weight="700"><tspan x="0" y="12">¡Contáctanos en Whatsapp!</tspan></text>
</svg>
