<svg id="Capa_1" data-name="Capa 1" xmlns="http://www.w3.org/2000/svg" width="146.75" height="42" viewBox="0 0 146.75 42"><defs><style>.cls-1{fill:#e63c2f;}.cls-2{fill:#4b4f54;}</style></defs><title>CHWEBSITE</title><path class="cls-1" d="M15.64,16.84H12.36a2.77,2.77,0,0,0-.84-1.8,3.08,3.08,0,0,0-2.29-.78,3.27,3.27,0,0,0-2.84,1.39,7.1,7.1,0,0,0-1,4.11,6.5,6.5,0,0,0,1,3.94,3.35,3.35,0,0,0,2.84,1.38,3,3,0,0,0,2.41-.91,2.8,2.8,0,0,0,.76-1.79h3.26a5.9,5.9,0,0,1-.46,1.92,6.42,6.42,0,0,1-1.12,1.74,5,5,0,0,1-1.95,1.3,7.55,7.55,0,0,1-2.81.49,7.75,7.75,0,0,1-3-.54,5.88,5.88,0,0,1-2.09-1.38A7.24,7.24,0,0,1,3,24a9.38,9.38,0,0,1-.7-2.15,11.4,11.4,0,0,1-.19-2.09,10.58,10.58,0,0,1,.4-2.91,9.22,9.22,0,0,1,1.21-2.61,5.78,5.78,0,0,1,2.29-2,7.55,7.55,0,0,1,3.42-.74,7.5,7.5,0,0,1,3,.54,4.89,4.89,0,0,1,2,1.39,6.13,6.13,0,0,1,1,1.72A4.94,4.94,0,0,1,15.64,16.84Z"/><path class="cls-1" d="M27.35,26.11A5.82,5.82,0,0,1,23,27.75a5.82,5.82,0,0,1-4.32-1.64,6.42,6.42,0,0,1-1.63-4.72,6.42,6.42,0,0,1,1.63-4.72A5.83,5.83,0,0,1,23,15a5.83,5.83,0,0,1,4.32,1.64A6.42,6.42,0,0,1,29,21.39,6.42,6.42,0,0,1,27.35,26.11ZM25.09,18.5a2.73,2.73,0,0,0-4.12,0,4.5,4.5,0,0,0-.77,2.89A4.5,4.5,0,0,0,21,24.27a2.73,2.73,0,0,0,4.12,0,4.5,4.5,0,0,0,.77-2.89A4.5,4.5,0,0,0,25.09,18.5Z"/><path class="cls-1" d="M41.28,27.59H38.22v-7.7a2.32,2.32,0,0,0-.57-1.68,2.09,2.09,0,0,0-1.58-.59,2.58,2.58,0,0,0-1.94.76,3,3,0,0,0-.74,2.21v7H30.34V15.18h3V16.5A4.33,4.33,0,0,1,36.88,15a4.54,4.54,0,0,1,3.24,1.09,3.91,3.91,0,0,1,1.15,3Z"/><path class="cls-1" d="M51,23.11h3.12a5,5,0,0,1-1.61,3.37,5.6,5.6,0,0,1-3.89,1.27,5.85,5.85,0,0,1-4.31-1.63,6.25,6.25,0,0,1-1.64-4.64,6.56,6.56,0,0,1,1.63-4.8A5.74,5.74,0,0,1,48.55,15a5.79,5.79,0,0,1,3.83,1.22,5.06,5.06,0,0,1,1.72,3.51H51a2.51,2.51,0,0,0-.74-1.61,2.29,2.29,0,0,0-1.64-.59,2.5,2.5,0,0,0-2,.94,4.55,4.55,0,0,0-.76,2.89,4.65,4.65,0,0,0,.74,2.89,2.41,2.41,0,0,0,2,.94,2.5,2.5,0,0,0,1.68-.55A2.28,2.28,0,0,0,51,23.11Z"/><path class="cls-1" d="M63.9,23.45l3.1.07a4.63,4.63,0,0,1-1.71,3.08,5.91,5.91,0,0,1-3.81,1.15,6,6,0,0,1-4.36-1.62,6.23,6.23,0,0,1-1.66-4.68,6.41,6.41,0,0,1,1.69-4.74A5.87,5.87,0,0,1,61.48,15a5.2,5.2,0,0,1,4.21,1.78,7,7,0,0,1,1.49,4.63v.66H58.62a3.75,3.75,0,0,0,.65,2.2,2.44,2.44,0,0,0,2.16.93A2.77,2.77,0,0,0,63,24.75,2.05,2.05,0,0,0,63.9,23.45Zm-5.16-3.55h5.21a2.45,2.45,0,0,0-.77-1.79,2.6,2.6,0,0,0-1.72-.57,2.77,2.77,0,0,0-1.86.63A2.5,2.5,0,0,0,58.74,19.89Z"/><path class="cls-1" d="M71.6,31.39H68.54V15.18H71.6v1.34a3.81,3.81,0,0,1,1.46-1.09A4.66,4.66,0,0,1,75,15a5,5,0,0,1,4,1.65,7,7,0,0,1,1.43,4.71,6.77,6.77,0,0,1-1.51,4.69,5.14,5.14,0,0,1-4,1.68A5,5,0,0,1,73,27.38a3.12,3.12,0,0,1-1.37-1Zm2.85-13.83a2.81,2.81,0,0,0-2.15.82,4.43,4.43,0,0,0-.77,3,4.43,4.43,0,0,0,.77,3,2.81,2.81,0,0,0,2.15.82,2.56,2.56,0,0,0,2.07-.94,4.46,4.46,0,0,0,.78-2.89,4.46,4.46,0,0,0-.78-2.89A2.56,2.56,0,0,0,74.45,17.56Z"/><path class="cls-1" d="M88.53,25v2.58l-.31,0-.35.06a12.62,12.62,0,0,1-1.63.07A3.8,3.8,0,0,1,83.71,27,2.87,2.87,0,0,1,83,24.81V17.74H81.08V15.18H83V11.74H86v3.44H88.8v2.56H86v6.18a1.18,1.18,0,0,0,.24.88,1.68,1.68,0,0,0,1,.2q.61,0,.86,0A2.39,2.39,0,0,0,88.53,25Z"/><path class="cls-1" d="M103.09,27.59H100V21h-6.7v6.57H90.16V11.74h3.12v6.45H100V11.74h3.1Z"/><path class="cls-1" d="M108.23,20.21l4.28-.66v-.43a1.49,1.49,0,0,0-.48-1.2,2.8,2.8,0,0,0-1.77-.41q-2.35,0-2.35,1.7H105Q105,15,110.36,15q5.21,0,5.21,4v6.84a9,9,0,0,0,.07,1.22l.09.52H112.6V26.35a5.2,5.2,0,0,1-3.85,1.4,4.57,4.57,0,0,1-3.09-1,3.56,3.56,0,0,1-1.21-2.85Q104.45,20.84,108.23,20.21Zm4.28,2.33v-.66l-1.2.18-1,.16-1,.16a2.88,2.88,0,0,0-1.31.48,1.25,1.25,0,0,0-.48,1,1.4,1.4,0,0,0,.06.4,2.38,2.38,0,0,0,.22.48,1.1,1.1,0,0,0,.57.45,2.59,2.59,0,0,0,1,.17,3.18,3.18,0,0,0,2.35-.84A2.69,2.69,0,0,0,112.51,22.54Z"/><path class="cls-1" d="M127.94,27.59h-3V26.41a4.8,4.8,0,0,1-3.55,1.34,4,4,0,0,1-3.1-1.21,4.3,4.3,0,0,1-1.11-3V15.18h3.06v7.74q0,2.33,2.13,2.33a2.29,2.29,0,0,0,1.88-.77,3,3,0,0,0,.63-2V15.18h3.06Z"/><path class="cls-1" d="M139.8,18.83h-3q0-1.45-2.17-1.45a3.31,3.31,0,0,0-1.4.28,1,1,0,0,0-.61,1,1,1,0,0,0,.86,1q.27.09,2.15.37a9.26,9.26,0,0,1,2.78.76,3.07,3.07,0,0,1,1.74,2.9q0,4.1-5.55,4.1a8.59,8.59,0,0,1-2.33-.28,4.71,4.71,0,0,1-1.55-.7,3.2,3.2,0,0,1-.88-1,3.88,3.88,0,0,1-.43-1.08,5,5,0,0,1-.1-1h3q0,1.68,2.45,1.68,2.29,0,2.29-1.38a.92.92,0,0,0-.18-.58,1.26,1.26,0,0,0-.62-.38,5.29,5.29,0,0,0-.78-.2l-1-.15a12.74,12.74,0,0,1-2.17-.41,3.31,3.31,0,0,1-2.72-3.4A3.2,3.2,0,0,1,131,16a6.38,6.38,0,0,1,3.69-1,7.64,7.64,0,0,1,2.31.32,4.44,4.44,0,0,1,1.51.75,3.33,3.33,0,0,1,.81,1,4,4,0,0,1,.38,1A3.68,3.68,0,0,1,139.8,18.83Z"/><path class="cls-1" d="M94.95,1.74h3.3l4.82,8.45H100L96.6,4.36l-3.3,5.83H90.18ZM93.3,10.18H90.18"/><path class="cls-1" d="M144.65,27.7H141.3V24.35h3.35Z"/><path class="cls-2" d="M25.69,34.31h1.64v5.95H25.69v-.57h1v-4.8h-1Z"/><path class="cls-2" d="M36.11,36h-.78a1,1,0,0,0-1.07-.88,1.17,1.17,0,0,0-.61.15,1.05,1.05,0,0,0-.4.41,2.16,2.16,0,0,0-.21.56,2.91,2.91,0,0,0-.07.63,2.23,2.23,0,0,0,.33,1.25,1.1,1.1,0,0,0,1,.5,1,1,0,0,0,.73-.25,1,1,0,0,0,.31-.63h.78a1.51,1.51,0,0,1,0,.31,1.86,1.86,0,0,1-.17.4,1.53,1.53,0,0,1-.31.4,1.58,1.58,0,0,1-.52.3,2.16,2.16,0,0,1-.76.13,2.24,2.24,0,0,1-.87-.16,1.65,1.65,0,0,1-.61-.41,2.19,2.19,0,0,1-.37-.58,2.66,2.66,0,0,1-.2-.64,3.78,3.78,0,0,1,0-.62,3.66,3.66,0,0,1,.06-.67,2.62,2.62,0,0,1,.21-.65,2.1,2.1,0,0,1,.38-.56,1.65,1.65,0,0,1,.6-.38,2.26,2.26,0,0,1,.84-.15,2.08,2.08,0,0,1,.77.13,1.59,1.59,0,0,1,.52.31,1.63,1.63,0,0,1,.31.41,1.75,1.75,0,0,1,.16.39A2.2,2.2,0,0,1,36.11,36Z"/><path class="cls-2" d="M38.25,34.58h2a1.54,1.54,0,0,1,1.08.36,1.19,1.19,0,0,1-.4,2,.85.85,0,0,1,.5.3,1,1,0,0,1,.2.59,4.64,4.64,0,0,0,.15,1.39H41A5.6,5.6,0,0,1,40.92,38a.73.73,0,0,0-.18-.55.8.8,0,0,0-.57-.18H39v1.94h-.73ZM39,36.69h1.08a1.05,1.05,0,0,0,.7-.2.69.69,0,0,0,.24-.56.67.67,0,0,0-.23-.55,1,1,0,0,0-.65-.19H39Z"/><path class="cls-2" d="M47.16,39.24H44V34.58h3.11v.65H44.75v1.33H47v.65H44.75v1.38h2.42Z"/><path class="cls-2" d="M51.85,38.1H50.07l-.33,1.14H49l1.49-4.66h1L53,39.24h-.79Zm-.17-.63L51,35.15l-.71,2.32Z"/><path class="cls-2" d="M57.71,35.23h-1.4v4h-.73v-4h-1.4v-.65h3.53Z"/><path class="cls-2" d="M60.48,34.58v4.66h-.73V34.58Z"/><path class="cls-2" d="M64.51,38.67l1.18-4.09h.75L65,39.24H64l-1.43-4.66h.79Z"/><path class="cls-2" d="M71.64,39.24H68.49V34.58H71.6v.65H69.22v1.33H71.5v.65H69.22v1.38h2.42Z"/><path class="cls-2" d="M80.42,36h-.78a1,1,0,0,0-1.07-.88,1.17,1.17,0,0,0-.61.15,1.05,1.05,0,0,0-.4.41,2.16,2.16,0,0,0-.21.56,2.91,2.91,0,0,0-.07.63,2.23,2.23,0,0,0,.33,1.25,1.1,1.1,0,0,0,1,.5,1,1,0,0,0,.73-.25,1,1,0,0,0,.31-.63h.78a1.51,1.51,0,0,1,0,.31,1.86,1.86,0,0,1-.17.4,1.53,1.53,0,0,1-.31.4,1.58,1.58,0,0,1-.52.3,2.16,2.16,0,0,1-.76.13,2.24,2.24,0,0,1-.87-.16,1.65,1.65,0,0,1-.61-.41,2.19,2.19,0,0,1-.37-.58,2.66,2.66,0,0,1-.2-.64,3.78,3.78,0,0,1,0-.62,3.66,3.66,0,0,1,.06-.67,2.62,2.62,0,0,1,.21-.65,2.1,2.1,0,0,1,.38-.56,1.65,1.65,0,0,1,.6-.38,2.26,2.26,0,0,1,.84-.15,2.08,2.08,0,0,1,.77.13,1.59,1.59,0,0,1,.52.31,1.63,1.63,0,0,1,.31.41,1.75,1.75,0,0,1,.16.39A2.2,2.2,0,0,1,80.42,36Z"/><path class="cls-2" d="M85.53,39.24h-3V34.58h.73v4h2.23Z"/><path class="cls-2" d="M88.25,34.58v3a1.16,1.16,0,0,0,.29.85,1.26,1.26,0,0,0,1.62,0,1.15,1.15,0,0,0,.29-.84v-3h.71v2.94a1.71,1.71,0,0,1-.5,1.35,1.92,1.92,0,0,1-1.32.45A1.87,1.87,0,0,1,88,38.86a1.76,1.76,0,0,1-.5-1.37V34.58Z"/><path class="cls-2" d="M96.73,35.92H96a1,1,0,0,0-.24-.58,1,1,0,0,0-.74-.22,1.19,1.19,0,0,0-.73.18.61.61,0,0,0-.24.52.52.52,0,0,0,.25.47,1.73,1.73,0,0,0,.52.18l.67.14a3.75,3.75,0,0,1,.63.18,1.09,1.09,0,0,1,.5.38,1.12,1.12,0,0,1,.19.67,1.32,1.32,0,0,1-.47,1.07,2.09,2.09,0,0,1-1.38.39,2,2,0,0,1-1.24-.37,1.31,1.31,0,0,1-.51-1.1H94q0,.83,1.05.83a1.44,1.44,0,0,0,.72-.17.6.6,0,0,0,.31-.57.53.53,0,0,0-.34-.53,5.19,5.19,0,0,0-.84-.21,4.27,4.27,0,0,1-.92-.26,1.1,1.1,0,0,1-.67-1.1,1.15,1.15,0,0,1,.26-.76,1.43,1.43,0,0,1,.63-.45,2.38,2.38,0,0,1,.81-.13,2,2,0,0,1,1.25.35A1.31,1.31,0,0,1,96.73,35.92Z"/><path class="cls-2" d="M102.07,35.23h-1.4v4h-.73v-4h-1.4v-.65h3.53Z"/><path class="cls-2" d="M107.26,39.24h-3.15V34.58h3.11v.65h-2.38v1.33h2.28v.65h-2.28v1.38h2.42Z"/><path class="cls-2" d="M109.46,34.58h2a1.54,1.54,0,0,1,1.08.36,1.19,1.19,0,0,1-.4,2,.85.85,0,0,1,.5.3,1,1,0,0,1,.2.59,4.64,4.64,0,0,0,.15,1.39h-.78a5.6,5.6,0,0,1-.09-1.22.73.73,0,0,0-.18-.55.8.8,0,0,0-.57-.18h-1.18v1.94h-.73Zm.73,2.11h1.08a1.05,1.05,0,0,0,.7-.2.69.69,0,0,0,.24-.56.67.67,0,0,0-.23-.55,1,1,0,0,0-.65-.19h-1.13Z"/><path class="cls-2" d="M117.93,34.31h1.64v.57h-1v4.8h1v.57h-1.64Z"/></svg>