<svg id="Layer_1" data-name="Layer 1" xmlns="http://www.w3.org/2000/svg" width="396" height="302" viewBox="0 0 396 302"><defs><style>.cls-1{fill:#fff;}</style></defs><title>SalvajeTentacion-logo</title><path class="cls-1" d="M94.62,220.61V189.4q11.29,12.86,21.56,18.53a44.63,44.63,0,0,0,21.91,5.66q12.35,0,19.48-5.73t7.13-15.56a22.09,22.09,0,0,0-4.84-14.14q-4.84-6.09-23.1-17.57-28.11-18.14-35.27-28.11t-7.17-23.72Q94.31,89.45,108,77t35.29-12.39a65.46,65.46,0,0,1,18.92,2.8A80.23,80.23,0,0,1,181,76.09V103q-10.94-8.73-20.22-12.7a47,47,0,0,0-18.55-4q-11.18,0-18.26,5.51A17.15,17.15,0,0,0,116.93,106q0,12.32,29.49,30.55l3.59,2.13q23.84,14.81,31.21,26.12t7.36,28q0,19-13.76,31.34t-35.24,12.38a72.65,72.65,0,0,1-24.2-3.8A67.34,67.34,0,0,1,94.62,220.61Z"/><path class="cls-1" d="M244.2,234.1V168.37H200.38V149.71H306.14v18.66H264.48V234.1Z"/><path class="cls-1" d="M257.72,84.71s7.83-15.76-3.27-18c0,0-8.23-1.26-5.47,1.08S261,72.73,257.72,84.71Z"/><path class="cls-1" d="M256.22,88.17c1.82,1.63,3.1,2.4,3.49,9.39,1.8-9.49,8.55-12.2,13.79-10-7.9-8.2-15.06-3.87-15.52-5.22a11.88,11.88,0,0,0-6.25-6.8c-24.34-8.27-36,14.29-38.36,22-6.88,34.15,19.58,45.84,29.85,42.45,4.22-1.4,2.32-1.38,8.8-2,6.31-.57,10.92,4,17.87,3.47,10-.71,32.05-21.33,12.23-43.36,13.26,36.48-34.74,41.45-46.2,26.6C218.28,100,240.35,75.58,256.22,88.17Z"/><path class="cls-1" d="M94.44,257.74v-2.51a6.59,6.59,0,0,0,1.68,1.49,3.35,3.35,0,0,0,1.7.45,2.29,2.29,0,0,0,1.52-.46,1.54,1.54,0,0,0,.55-1.25,1.8,1.8,0,0,0-.38-1.14,8.06,8.06,0,0,0-1.79-1.41A11.45,11.45,0,0,1,95,250.66a3.24,3.24,0,0,1-.56-1.9,3.33,3.33,0,0,1,1.07-2.55,3.87,3.87,0,0,1,2.75-1,5,5,0,0,1,1.47.23,6.24,6.24,0,0,1,1.47.69v2.16a7.07,7.07,0,0,0-1.57-1,3.55,3.55,0,0,0-1.44-.32,2.17,2.17,0,0,0-1.41.45,1.39,1.39,0,0,0-.55,1.14q0,1,2.29,2.45l.28.17a8.08,8.08,0,0,1,2.43,2.09,4.12,4.12,0,0,1,.58,2.25,3.29,3.29,0,0,1-1.08,2.52,3.87,3.87,0,0,1-2.74,1,5.62,5.62,0,0,1-1.89-.3A5.29,5.29,0,0,1,94.44,257.74Z"/><path class="cls-1" d="M104.28,258.77l5.61-13.31h1.35l5.67,13.31H115l-1.67-3.93h-5.51l-1.64,3.93Zm4.28-5.63h4l-2-4.79Z"/><path class="cls-1" d="M120.23,258.77V245.46h1.83v11.6h6.16v1.71Z"/><path class="cls-1" d="M134.89,258.86l-5.69-13.4h1.93l4,9.49,4.11-9.49h1.9l-5.81,13.4Z"/><path class="cls-1" d="M141.89,258.77l5.61-13.31h1.35l5.67,13.31h-1.91l-1.66-3.93h-5.51l-1.65,3.93Zm4.27-5.63h4l-2-4.79Z"/><path class="cls-1" d="M155.23,261.5h.29a2.54,2.54,0,0,0,1.87-.53,3.14,3.14,0,0,0,.5-2.07V245.46h1.82v13a9.66,9.66,0,0,1-.27,2.76,3,3,0,0,1-1,1.35,3,3,0,0,1-1.07.54,5.41,5.41,0,0,1-1.44.18h-.32Z"/><path class="cls-1" d="M164.83,258.77V245.46h7.78v1.68h-6v4h5.79v1.73h-5.79v4.14h6.14v1.71Z"/><path class="cls-1" d="M187.94,258.77V247.19h-4.76v-1.73h11.38v1.73h-4.77v11.58Z"/><path class="cls-1" d="M198.34,258.77V245.46h7.78v1.68h-6v4h5.78v1.73h-5.78v4.14h6.14v1.71Z"/><path class="cls-1" d="M210.91,258.77V245.46h1.61L221,255.79V245.46h1.85v13.31h-1.65l-8.5-10.34v10.34Z"/><path class="cls-1" d="M231.4,258.77V247.19h-4.76v-1.73H238v1.73h-4.77v11.58Z"/><path class="cls-1" d="M238.59,258.77l5.61-13.31h1.35l5.68,13.31h-1.91l-1.67-3.93h-5.51l-1.64,3.93Zm4.27-5.63h4l-2-4.79Z"/><path class="cls-1" d="M265.16,255.62v2.14a10.94,10.94,0,0,1-2.32.93,8.87,8.87,0,0,1-2.33.32,7.36,7.36,0,0,1-2.12-.3,7.14,7.14,0,0,1-1.9-.89,6.74,6.74,0,0,1-2.24-2.48,6.83,6.83,0,0,1-.8-3.28,6.83,6.83,0,0,1,4.34-6.31,7.81,7.81,0,0,1,2.85-.5,9.21,9.21,0,0,1,2.16.26,11.55,11.55,0,0,1,2.24.8v2.06a12.07,12.07,0,0,0-2.3-1,7.12,7.12,0,0,0-2.1-.33,5.13,5.13,0,0,0-3.74,1.45,5.2,5.2,0,0,0,0,7.24,5,5,0,0,0,3.66,1.45,7.23,7.23,0,0,0,2.28-.38A10.09,10.09,0,0,0,265.16,255.62Z"/><path class="cls-1" d="M269.63,258.77V245.46h1.84v13.31Z"/><path class="cls-1" d="M275.87,252.07a6.61,6.61,0,0,1,.53-2.58,6.72,6.72,0,0,1,1.5-2.22,6.94,6.94,0,0,1,2.24-1.49,6.86,6.86,0,0,1,2.63-.52,7,7,0,0,1,2.67.52,7,7,0,0,1,3.74,3.73,7,7,0,0,1,.51,2.68,6.77,6.77,0,0,1-2,4.81,6.84,6.84,0,0,1-4.92,2,6.84,6.84,0,0,1-2.64-.52A6.76,6.76,0,0,1,277.9,257a6.85,6.85,0,0,1-1.51-2.25A7,7,0,0,1,275.87,252.07Zm2,.06a5.09,5.09,0,0,0,1.43,3.57,4.7,4.7,0,0,0,1.59,1.1,4.9,4.9,0,0,0,1.91.38,4.84,4.84,0,0,0,1.91-.38,4.7,4.7,0,0,0,1.6-1.1,5,5,0,0,0,1.07-1.64,5.13,5.13,0,0,0,.37-1.94,5,5,0,0,0-.37-1.93,5.26,5.26,0,0,0-1.09-1.66,4.71,4.71,0,0,0-1.59-1.12,4.78,4.78,0,0,0-1.9-.39,4.66,4.66,0,0,0-1.87.39,5.23,5.23,0,0,0-1.63,1.11,4.83,4.83,0,0,0-1.06,1.63A5.16,5.16,0,0,0,277.84,252.13Z"/><path class="cls-1" d="M294,258.77V245.46h1.61l8.51,10.33V245.46H306v13.31h-1.65l-8.49-10.34v10.34Z"/><path class="cls-1" d="M283,244.05l2.2-3h1.6l-2.54,3Z"/><path class="cls-1" d="M308.58,243.41a1.79,1.79,0,0,1,.87.23,1.63,1.63,0,0,1,.65.65,1.75,1.75,0,0,1,0,1.76,1.65,1.65,0,0,1-.65.65,1.76,1.76,0,0,1-1.75,0,1.65,1.65,0,0,1-.65-.65,1.76,1.76,0,0,1,0-1.76,1.63,1.63,0,0,1,.65-.65A1.79,1.79,0,0,1,308.58,243.41Zm0,.34a1.43,1.43,0,0,0-.69.18,1.31,1.31,0,0,0-.52.52,1.42,1.42,0,0,0,0,1.42,1.33,1.33,0,0,0,.52.52,1.4,1.4,0,0,0,1.4,0,1.34,1.34,0,0,0,.52-.52,1.41,1.41,0,0,0,0-1.42,1.31,1.31,0,0,0-.53-.52A1.43,1.43,0,0,0,308.58,243.75Zm-.8,2.35v-1.87h1a.75.75,0,0,1,.29.07.47.47,0,0,1,.17.18.53.53,0,0,1,.07.27.49.49,0,0,1-.13.35.6.6,0,0,1-.37.18l.13.07.13.14.14.23.22.38h-.47l-.16-.3a1.26,1.26,0,0,0-.26-.38.42.42,0,0,0-.26-.08h-.1v.77Zm.38-1.06h.15a1.88,1.88,0,0,0,.41,0,.24.24,0,0,0,.17-.23.23.23,0,0,0,0-.14.25.25,0,0,0-.13-.09,1.83,1.83,0,0,0-.41,0h-.15Z"/><path class="cls-1" d="M309.29,146a2.55,2.55,0,0,1,1.23.32,2.31,2.31,0,0,1,.93.92,2.49,2.49,0,0,1,0,2.5,2.34,2.34,0,0,1-.92.92,2.5,2.5,0,0,1-2.49,0,2.34,2.34,0,0,1-.92-.92,2.5,2.5,0,0,1,0-2.5,2.32,2.32,0,0,1,.93-.92A2.55,2.55,0,0,1,309.29,146Zm0,.49a2,2,0,0,0-1,.26,1.87,1.87,0,0,0-.74.74,2,2,0,0,0,0,2,1.9,1.9,0,0,0,.74.74,2,2,0,0,0,2,0,1.92,1.92,0,0,0,.74-.74,2,2,0,0,0,0-2,1.87,1.87,0,0,0-.75-.74A2,2,0,0,0,309.3,146.46Zm-1.13,3.35v-2.65h1.39a1.07,1.07,0,0,1,.42.11.68.68,0,0,1,.25.25.77.77,0,0,1,.1.38.69.69,0,0,1-.19.49.85.85,0,0,1-.53.25.65.65,0,0,1,.19.1,1.39,1.39,0,0,1,.18.2l.2.32.31.53h-.66l-.22-.43a1.81,1.81,0,0,0-.37-.55.6.6,0,0,0-.37-.11h-.14v1.09Zm.54-1.51h.22a2.7,2.7,0,0,0,.58,0,.33.33,0,0,0,.18-.13.34.34,0,0,0,.07-.2.33.33,0,0,0-.06-.2.35.35,0,0,0-.18-.12,2.65,2.65,0,0,0-.58,0h-.22Z"/></svg>