<svg id="Layer_1" data-name="Layer 1" xmlns="http://www.w3.org/2000/svg" width="210.5" height="181.5" viewBox="0 0 210.5 181.5"><defs><style>.cls-1{fill:#939598;}.cls-2{fill:#98002e;}</style></defs><title>logo-st</title><path class="cls-1" d="M19.62,135.49V110.85q8.92,10.16,17,14.63A35.25,35.25,0,0,0,53.94,130q9.75,0,15.38-4.53A14.94,14.94,0,0,0,75,113.14,17.44,17.44,0,0,0,71.14,102Q67.32,97.16,52.89,88.1,30.69,73.77,25,65.9a31.19,31.19,0,0,1-5.66-18.73q0-15.26,10.82-25.05t27.87-9.79A51.7,51.7,0,0,1,73,14.54a63.36,63.36,0,0,1,14.85,6.82V42.6a71.21,71.21,0,0,0-16-10,37.13,37.13,0,0,0-14.65-3.13q-8.83,0-14.42,4.35A13.55,13.55,0,0,0,37.24,45q0,9.73,23.29,24.13l2.83,1.68Q82.19,82.48,88,91.41t5.81,22.13A31.86,31.86,0,0,1,83,138.29q-10.87,9.78-27.83,9.78a57.37,57.37,0,0,1-19.11-3A53.18,53.18,0,0,1,19.62,135.49Z"/><path class="cls-1" d="M137.75,146.15V94.24H103.14V79.5h83.52V94.24h-32.9v51.91Z"/><path class="cls-2" d="M148.43,28.17s6.19-12.44-2.58-14.22c0,0-6.5-1-4.32.85S151,18.7,148.43,28.17Z"/><path class="cls-2" d="M147.24,30.9c1.43,1.28,2.45,1.89,2.76,7.42,1.42-7.5,6.75-9.63,10.89-7.89C154.66,24,149,27.37,148.63,26.3a9.38,9.38,0,0,0-4.94-5.37c-19.22-6.53-28.4,11.28-30.29,17.38C108,65.28,128.86,74.51,137,71.83c3.33-1.1,1.83-1.09,7-1.55S152.55,73.41,158,73c7.93-.56,25.32-16.85,9.66-34.24,10.47,28.81-27.43,32.74-36.49,21C117.28,40.28,134.71,21,147.24,30.9Z"/><path class="cls-2" d="M19.47,164.82v-2A5.21,5.21,0,0,0,20.8,164a2.65,2.65,0,0,0,1.34.36,1.81,1.81,0,0,0,1.2-.36,1.22,1.22,0,0,0,.44-1,1.42,1.42,0,0,0-.3-.9A6.36,6.36,0,0,0,22.07,161a9,9,0,0,1-2.17-1.78,2.56,2.56,0,0,1-.44-1.5,2.63,2.63,0,0,1,.84-2,3.06,3.06,0,0,1,2.17-.79,4,4,0,0,1,1.16.18,4.93,4.93,0,0,1,1.16.54v1.7a5.58,5.58,0,0,0-1.24-.81,2.8,2.8,0,0,0-1.14-.25,1.71,1.71,0,0,0-1.12.35,1.1,1.1,0,0,0-.44.9q0,.78,1.81,1.94l.22.14a6.38,6.38,0,0,1,1.92,1.65,3.26,3.26,0,0,1,.46,1.77,2.59,2.59,0,0,1-.85,2,3.06,3.06,0,0,1-2.17.78,4.43,4.43,0,0,1-1.49-.24A4.18,4.18,0,0,1,19.47,164.82Z"/><path class="cls-2" d="M27.24,165.63l4.43-10.51h1.07l4.48,10.51H35.71l-1.31-3.1H30l-1.3,3.1Zm3.38-4.45H33.8l-1.62-3.79Z"/><path class="cls-2" d="M39.84,165.63V155.12h1.44v9.16h4.87v1.35Z"/><path class="cls-2" d="M51.42,165.71l-4.49-10.58h1.53l3.18,7.49,3.25-7.49h1.5l-4.59,10.58Z"/><path class="cls-2" d="M56.95,165.63l4.43-10.51h1.06l4.48,10.51H65.41l-1.31-3.1H59.75l-1.3,3.1Zm3.37-4.45H63.5l-1.61-3.79Z"/><path class="cls-2" d="M67.48,167.78h.23a2,2,0,0,0,1.48-.42,2.48,2.48,0,0,0,.39-1.63V155.12H71v10.23a7.63,7.63,0,0,1-.22,2.18A2.36,2.36,0,0,1,70,168.6a2.33,2.33,0,0,1-.84.43,4.27,4.27,0,0,1-1.14.14h-.25Z"/><path class="cls-2" d="M75.07,165.63V155.12h6.14v1.33h-4.7v3.2h4.57V161H76.51v3.27h4.85v1.35Z"/><path class="cls-2" d="M93.31,165.63v-9.14H89.55v-1.37h9v1.37H94.77v9.14Z"/><path class="cls-2" d="M101.53,165.63V155.12h6.14v1.33H103v3.2h4.57V161H103v3.27h4.85v1.35Z"/><path class="cls-2" d="M111.46,165.63V155.12h1.27l6.72,8.16v-8.16h1.46v10.51h-1.3l-6.71-8.17v8.17Z"/><path class="cls-2" d="M127.64,165.63v-9.14h-3.76v-1.37h9v1.37H129.1v9.14Z"/><path class="cls-2" d="M133.32,165.63l4.43-10.51h1.06l4.48,10.51h-1.51l-1.32-3.1h-4.35l-1.3,3.1Zm3.37-4.45h3.18l-1.61-3.79Z"/><path class="cls-2" d="M154.3,163.15v1.69a8.64,8.64,0,0,1-1.83.74,7,7,0,0,1-1.84.25,5.82,5.82,0,0,1-1.67-.24,5.64,5.64,0,0,1-1.5-.7,5.33,5.33,0,0,1-1.77-2,5.4,5.4,0,0,1-.64-2.59,5.39,5.39,0,0,1,3.43-5,6.17,6.17,0,0,1,2.25-.4,7.28,7.28,0,0,1,1.71.2,9.12,9.12,0,0,1,1.77.63v1.63a9.53,9.53,0,0,0-1.82-.8,5.62,5.62,0,0,0-1.66-.26,4.05,4.05,0,0,0-3,1.15,4.11,4.11,0,0,0,0,5.72,3.92,3.92,0,0,0,2.89,1.14,5.71,5.71,0,0,0,1.8-.3A8,8,0,0,0,154.3,163.15Z"/><path class="cls-2" d="M157.83,165.63V155.12h1.46v10.51Z"/><path class="cls-2" d="M162.76,160.34a5.22,5.22,0,0,1,.42-2,5.3,5.3,0,0,1,1.18-1.75,5.48,5.48,0,0,1,1.77-1.18,5.42,5.42,0,0,1,2.08-.41,5.52,5.52,0,0,1,2.11.41,5.53,5.53,0,0,1,3,2.95,5.51,5.51,0,0,1,.4,2.12,5.34,5.34,0,0,1-1.59,3.8,5.4,5.4,0,0,1-3.88,1.58,5.4,5.4,0,0,1-2.09-.41,5.34,5.34,0,0,1-1.76-1.17,5.41,5.41,0,0,1-1.2-1.78A5.54,5.54,0,0,1,162.76,160.34Zm1.56,0a4,4,0,0,0,1.13,2.82,3.71,3.71,0,0,0,1.25.87,3.87,3.87,0,0,0,1.51.3,3.82,3.82,0,0,0,1.51-.3,3.71,3.71,0,0,0,1.26-.87,4,4,0,0,0,.85-1.29,4.05,4.05,0,0,0,.29-1.53,4,4,0,0,0-.29-1.52,4.15,4.15,0,0,0-.86-1.31,3.72,3.72,0,0,0-1.26-.88,3.78,3.78,0,0,0-1.5-.31,3.68,3.68,0,0,0-1.48.31,4.13,4.13,0,0,0-1.29.88,3.81,3.81,0,0,0-.84,1.29A4.07,4.07,0,0,0,164.32,160.39Z"/><path class="cls-2" d="M177.1,165.63V155.12h1.27l6.72,8.16v-8.16h1.46v10.51h-1.3l-6.71-8.17v8.17Z"/><path class="cls-2" d="M168.35,154l1.74-2.36h1.26l-2,2.36Z"/><path class="cls-2" d="M188.59,153.5a1.41,1.41,0,0,1,.69.18,1.28,1.28,0,0,1,.51.51,1.39,1.39,0,0,1,0,1.39,1.3,1.3,0,0,1-.51.51,1.39,1.39,0,0,1-1.38,0,1.3,1.3,0,0,1-.51-.51,1.39,1.39,0,0,1,0-1.39,1.29,1.29,0,0,1,.52-.51A1.41,1.41,0,0,1,188.59,153.5Zm0,.27a1.13,1.13,0,0,0-.55.14,1,1,0,0,0-.41.41,1.12,1.12,0,0,0,0,1.12,1.05,1.05,0,0,0,.41.41,1.11,1.11,0,0,0,1.11,0,1.05,1.05,0,0,0,.41-.41,1.12,1.12,0,0,0,0-1.12,1,1,0,0,0-.42-.41A1.13,1.13,0,0,0,188.59,153.77Zm-.63,1.86v-1.47h.77a.59.59,0,0,1,.23.06.37.37,0,0,1,.14.14.42.42,0,0,1,.05.21.38.38,0,0,1-.1.27.47.47,0,0,1-.29.14l.1.06.1.11.11.18.17.3h-.37l-.12-.24a1,1,0,0,0-.21-.3.33.33,0,0,0-.21-.06h-.08v.61Zm.3-.84h.12a1.48,1.48,0,0,0,.32,0,.19.19,0,0,0,.13-.18.18.18,0,0,0,0-.11.19.19,0,0,0-.1-.07,1.44,1.44,0,0,0-.32,0h-.12Z"/><path class="cls-1" d="M189.16,76.55a2,2,0,0,1,1,.25,1.83,1.83,0,0,1,.73.73,2,2,0,0,1,0,2,1.85,1.85,0,0,1-.73.73,2,2,0,0,1-2,0,1.85,1.85,0,0,1-.73-.73,2,2,0,0,1,0-2,1.83,1.83,0,0,1,.73-.73A2,2,0,0,1,189.16,76.55Zm0,.39a1.61,1.61,0,0,0-.78.2,1.47,1.47,0,0,0-.59.58,1.59,1.59,0,0,0,0,1.59,1.5,1.5,0,0,0,.59.59,1.58,1.58,0,0,0,1.58,0,1.51,1.51,0,0,0,.59-.59,1.59,1.59,0,0,0,0-1.59,1.47,1.47,0,0,0-.59-.58A1.61,1.61,0,0,0,189.16,76.94Zm-.89,2.64V77.48h1.1a.85.85,0,0,1,.33.08.54.54,0,0,1,.2.2.61.61,0,0,1,.08.3.55.55,0,0,1-.15.39.67.67,0,0,1-.42.2.51.51,0,0,1,.15.08,1.1,1.1,0,0,1,.14.16l.15.26.25.42h-.52l-.18-.34a1.43,1.43,0,0,0-.29-.43.47.47,0,0,0-.29-.09h-.11v.86Zm.43-1.19h.17a2.14,2.14,0,0,0,.46,0,.26.26,0,0,0,.14-.1.27.27,0,0,0,.05-.16.26.26,0,0,0-.05-.16.28.28,0,0,0-.14-.1,2.09,2.09,0,0,0-.46,0h-.17Z"/></svg>