<svg xmlns="http://www.w3.org/2000/svg" width="245" height="220" viewBox="0 0 245 220"><defs><style>.a{fill:#fff;}</style></defs><title>1</title><path class="a" d="M177.88,219.14c1,0,2,.1,3.09.1,11.18,0,20.51-4,27.83-12l.19-.19a109.94,109.94,0,0,1,8.71-9c2.14-2,4.33-4.14,6.38-6.33,9.75-10.18,9.71-23.07-.1-32.88l-27.12-27.12c-4.66-4.85-10.23-7.42-16.13-7.42s-11.47,2.52-16.27,7.33l-16,16c-1.43-.81-2.9-1.52-4.33-2.24-1.81-.9-3.47-1.76-4.95-2.66-14.7-9.32-28-21.5-40.77-37.16C92,97.54,87.72,90.78,84.72,83.83c4.19-3.81,8.09-7.75,11.85-11.61,1.38-1.38,2.76-2.81,4.19-4.23,10.18-10.18,10.18-22.79,0-32.92L87.29,21.6c-1.57-1.57-3.09-3.14-4.61-4.66-3-3-6.09-6.23-9.18-9.09C68.83,3.19,63.31.77,57.46.77S46,3.19,41.19,7.85L24.3,24.7A35.21,35.21,0,0,0,13.83,47.1C13,58,15,69.47,20.11,83.36,28.06,104.81,40,124.75,57.7,146.06a232,232,0,0,0,77,60.33C146,211.77,161.08,218,177.88,219.14ZM66.69,138.59C49.85,118.33,38.57,99.49,31.1,79.31c-4.61-12.42-6.33-22.08-5.61-31.26a23.3,23.3,0,0,1,7.09-15.13L49.37,16.13c2.57-2.47,5.38-3.76,8.14-3.76s5.38,1.28,7.95,3.81c3,2.81,5.9,5.76,8.94,8.85,1.52,1.57,3.09,3.19,4.71,4.76L92.57,43.25c5.52,5.52,5.52,10.94,0,16.46-1.43,1.43-2.85,2.85-4.23,4.28-4.19,4.23-8.09,8.23-12.42,12.08l-.24.24a9.08,9.08,0,0,0-2.33,10.32c0,.14.1.24.14.38,3.47,8.37,8.37,16.32,15.89,25.83,13.56,16.7,27.83,29.69,43.63,39.73a67.3,67.3,0,0,0,6,3.28c1.81.9,3.47,1.76,4.95,2.66l.52.29A9.94,9.94,0,0,0,149,160a9.55,9.55,0,0,0,6.9-3.19l16.89-16.89c2.57-2.57,5.33-3.9,8-3.9,3.33,0,6,2.09,7.8,3.9l27.21,27.21c6.66,6.66,3.62,12.66-.14,16.6-1.9,2-3.9,3.95-6,6a123.74,123.74,0,0,0-9.47,9.8c-5.14,5.52-11.23,8.09-19.17,8.09-.76,0-1.57,0-2.33-.1-14.8-1-28.5-6.71-38.82-11.61A218.61,218.61,0,0,1,66.69,138.59Z"/></svg>