<svg xmlns="http://www.w3.org/2000/svg" width="245" height="220" viewBox="0 0 245 220"><defs><style>.a{fill:#fff;}</style></defs><title>1</title><path class="a" d="M213.65,18.22H31.4A29.52,29.52,0,0,0,1.9,47.72V172.28A29.52,29.52,0,0,0,31.4,201.78H213.6a29.52,29.52,0,0,0,29.49-29.49V47.77A29.49,29.49,0,0,0,213.65,18.22Zm16,154.06a16,16,0,0,1-16,16H31.4a16,16,0,0,1-16-16V47.77a16,16,0,0,1,16-16H213.6a16,16,0,0,1,16,16V172.28Z"/><path class="a" d="M154,108.45l59-52.9a6.75,6.75,0,1,0-9-10l-81.34,73-15.87-14.17s-.1-.1-.1-.15a10,10,0,0,0-1.1-.95L41,45.47a6.75,6.75,0,0,0-9,10.08L91.68,108.9,32.25,164.55a6.76,6.76,0,0,0-.3,9.53,6.89,6.89,0,0,0,4.94,2.15,6.75,6.75,0,0,0,4.59-1.8L101.81,118l16.37,14.62a6.72,6.72,0,0,0,9,0L144,117.49l60,57a6.75,6.75,0,0,0,9.53-.25,6.76,6.76,0,0,0-.25-9.53Z"/></svg>