<svg xmlns="http://www.w3.org/2000/svg" width="240" height="220" viewBox="0 0 240 220"><defs><style>.a{fill:#fff;}</style></defs><title>1</title><path class="a" d="M227.1,172.26V47.74a16,16,0,0,0-16-16H28.87a16,16,0,0,0-16,16V172.26a16,16,0,0,0,16,16H211.13a16,16,0,0,0,16-16ZM211,174.19a6.75,6.75,0,0,1-9.53.25l-60-57-16.82,15.07a6.72,6.72,0,0,1-9,0L99.28,117.95,38.94,174.39a6.75,6.75,0,0,1-4.59,1.8A6.89,6.89,0,0,1,29.41,174a6.76,6.76,0,0,1,.3-9.53l59.44-55.64L29.46,55.52a6.75,6.75,0,1,1,9-10.08L103,103.22a10,10,0,0,1,1.1.95s0,.1.1.15l15.87,14.17,81.34-73a6.75,6.75,0,0,1,9,10l-59,52.9,59.24,56.24A6.76,6.76,0,0,1,211,174.19Z"/></svg>