<svg xmlns="http://www.w3.org/2000/svg" width="245" height="220" viewBox="0 0 245 220"><defs><style>.a{fill:#fff;stroke:#fff;stroke-miterlimit:10;stroke-width:6px;}</style></defs><title>1</title><path class="a" d="M65.75,139.07C48.64,118.48,37.18,99.34,29.59,78.85c-4.69-12.62-6.43-22.43-5.7-31.76a23.68,23.68,0,0,1,7.2-15.37L48.15,14.66c2.61-2.51,5.46-3.82,8.27-3.82s5.46,1.31,8.07,3.87c3,2.85,6,5.85,9.09,9,1.55,1.6,3.14,3.24,4.79,4.83L92,42.21c5.61,5.61,5.61,11.12,0,16.72-1.45,1.45-2.9,2.9-4.3,4.35-4.25,4.3-8.22,8.36-12.62,12.28l-.24.24a9.22,9.22,0,0,0-2.37,10.49c0,.15.1.24.15.39,3.53,8.51,8.51,16.58,16.14,26.25,13.78,17,28.28,30.16,44.32,40.36a68.38,68.38,0,0,0,6.09,3.34c1.84.92,3.53,1.79,5,2.71l.53.29a10.1,10.1,0,0,0,4.59,1.16,9.7,9.7,0,0,0,7-3.24l17.16-17.16c2.61-2.61,5.41-4,8.17-4,3.38,0,6.14,2.13,7.93,4L217.28,168c6.77,6.77,3.67,12.86-.15,16.87-1.93,2.08-4,4-6.09,6.09a125.72,125.72,0,0,0-9.62,10c-5.22,5.61-11.41,8.22-19.48,8.22-.77,0-1.6,0-2.37-.1-15-1-29-6.82-39.44-11.79A222.1,222.1,0,0,1,65.75,139.07Z"/></svg>