<svg xmlns="http://www.w3.org/2000/svg" width="70.574" height="21.79" viewBox="0 0 70.574 21.79">
    <defs>
        <style>
            .cls-1{fill:none}.cls-2{clip-path:url(#clip-path)}.cls-3{clip-path:url(#clip-path-2)}.cls-4{clip-path:url(#clip-path-3)}.cls-5{fill:#fff}
        </style>
        <clipPath id="clip-path">
            <path id="Rectangle_347" d="M0 0h70.574v21.79H0z" class="cls-1" data-name="Rectangle 347"/>
        </clipPath>
        <clipPath id="clip-path-2">
            <path id="Rectangle_346" d="M0 0h90.808v45.808H0z" class="cls-1" data-name="Rectangle 346"/>
        </clipPath>
        <clipPath id="clip-path-3">
            <path id="Rectangle_345" d="M0 0h210.87v131.794H0z" class="cls-1" data-name="Rectangle 345"/>
        </clipPath>
    </defs>
    <g id="Group_2700" data-name="Group 2700">
        <g id="Group_2699" class="cls-2" data-name="Group 2699">
            <g id="Group_2434" data-name="Group 2434" transform="translate(-11.296 -8.06)">
                <g id="Group_2433" data-name="Group 2433">
                    <g id="Group_2698" data-name="Group 2698">
                        <g id="Group_2697" class="cls-3" data-name="Group 2697">
                            <g id="Mask_Group_38" data-name="Mask Group 38" transform="translate(-58.635 -46.367)">
                                <g id="Group_37" data-name="Group 37">
                                    <g id="Group_35" data-name="Group 35">
                                        <g id="Group_2696" data-name="Group 2696">
                                            <g id="Group_2695" class="cls-4" data-name="Group 2695">
                                                <g id="Group_34" data-name="Group 34" transform="translate(70.746 56.459)">
                                                    <path id="Path_2275" d="M1220.859 1039.321h-1.58a1.332 1.332 0 0 0-.4-.866 1.472 1.472 0 0 0-1.1-.381 1.572 1.572 0 0 0-1.366.67 3.42 3.42 0 0 0-.473 1.977 3.125 3.125 0 0 0 .5 1.895 1.612 1.612 0 0 0 1.366.664 1.432 1.432 0 0 0 1.16-.435 1.347 1.347 0 0 0 .365-.861h1.568a2.812 2.812 0 0 1-.223.925 3.068 3.068 0 0 1-.54.84 2.438 2.438 0 0 1-.937.626 3.626 3.626 0 0 1-1.351.234 3.744 3.744 0 0 1-1.437-.261 2.829 2.829 0 0 1-1.007-.664 3.526 3.526 0 0 1-.62-.943 4.47 4.47 0 0 1-.338-1.034 5.555 5.555 0 0 1-.094-1.008 5.067 5.067 0 0 1 .191-1.4 4.5 4.5 0 0 1 .582-1.257 2.776 2.776 0 0 1 1.1-.943 4 4 0 0 1 3.066-.094 2.362 2.362 0 0 1 .942.67 3.022 3.022 0 0 1 .479.828 2.41 2.41 0 0 1 .152.811" class="cls-5" data-name="Path 2275" transform="translate(-1214.347 -1032.058)"/>
                                                    <path id="Path_2276" d="M1223.068 1042.97a3.135 3.135 0 0 1-4.162 0 3.679 3.679 0 0 1 0-4.541 3.135 3.135 0 0 1 4.162 0 3.685 3.685 0 0 1 0 4.541m-1.09-3.66a1.311 1.311 0 0 0-1.851-.131 1.408 1.408 0 0 0-.132.131 2.788 2.788 0 0 0 0 2.778 1.311 1.311 0 0 0 1.851.132 1.329 1.329 0 0 0 .132-.132 2.786 2.786 0 0 0 0-2.778" class="cls-5" data-name="Path 2276" transform="translate(-1210.919 -1031.247)"/>
                                                    <path id="Path_2277" d="M1226.728 1043.686h-1.471v-3.7a1.119 1.119 0 0 0-.273-.805 1.008 1.008 0 0 0-.763-.284 1.242 1.242 0 0 0-.931.364 1.471 1.471 0 0 0-.355 1.063v3.366h-1.471v-5.969h1.448v.632a2.085 2.085 0 0 1 1.7-.708 2.187 2.187 0 0 1 1.557.523 1.881 1.881 0 0 1 .555 1.437z" class="cls-5" data-name="Path 2277" transform="translate(-1207.885 -1031.249)"/>
                                                    <path id="Path_2278" d="M1228.577 1041.527h1.5a2.407 2.407 0 0 1-.773 1.624 2.693 2.693 0 0 1-1.874.611 2.819 2.819 0 0 1-2.074-.784 3.015 3.015 0 0 1-.79-2.233 3.149 3.149 0 0 1 .784-2.309 3.113 3.113 0 0 1 3.9-.208 2.435 2.435 0 0 1 .828 1.689h-1.5a1.211 1.211 0 0 0-.355-.773 1.1 1.1 0 0 0-.79-.282 1.194 1.194 0 0 0-.985.452 2.185 2.185 0 0 0-.365 1.389 2.236 2.236 0 0 0 .355 1.389 1.157 1.157 0 0 0 .964.452 1.208 1.208 0 0 0 .805-.267 1.1 1.1 0 0 0 .37-.746" class="cls-5" data-name="Path 2278" transform="translate(-1205.071 -1031.246)"/>
                                                    <path id="Path_2279" d="M1231.864 1041.7l1.492.033a2.225 2.225 0 0 1-.822 1.481 3.261 3.261 0 0 1-3.935-.223 3 3 0 0 1-.8-2.25 3.088 3.088 0 0 1 .811-2.29 2.825 2.825 0 0 1 2.086-.811 2.5 2.5 0 0 1 2.026.855 3.344 3.344 0 0 1 .719 2.227v.317h-4.118a1.8 1.8 0 0 0 .311 1.057 1.179 1.179 0 0 0 1.04.447 1.343 1.343 0 0 0 .779-.223.981.981 0 0 0 .408-.626m-2.481-1.717h2.505a1.175 1.175 0 0 0-.37-.861 1.255 1.255 0 0 0-.828-.273 1.336 1.336 0 0 0-.893.305 1.2 1.2 0 0 0-.414.828" class="cls-5" data-name="Path 2279" transform="translate(-1202.137 -1031.253)"/>
                                                    <path id="Path_2280" d="M1232.566 1045.513h-1.471v-7.8h1.471v.643a1.825 1.825 0 0 1 .7-.523 2.248 2.248 0 0 1 .919-.191 2.424 2.424 0 0 1 1.939.8 3.365 3.365 0 0 1 .685 2.265 3.25 3.25 0 0 1-.723 2.256 2.48 2.48 0 0 1-1.933.805 2.363 2.363 0 0 1-.931-.179 1.51 1.51 0 0 1-.658-.5zm1.372-6.653a1.349 1.349 0 0 0-1.034.393 3.016 3.016 0 0 0 0 2.9 1.357 1.357 0 0 0 1.034.391 1.229 1.229 0 0 0 1-.452 2.752 2.752 0 0 0 0-2.778 1.23 1.23 0 0 0-1-.452" class="cls-5" data-name="Path 2280" transform="translate(-1199.138 -1031.246)"/>
                                                    <path id="Path_2281" d="M1237.841 1043.167v1.243a.942.942 0 0 0-.147.017l-.168.027a5.972 5.972 0 0 1-.784.032 1.826 1.826 0 0 1-1.219-.321 1.382 1.382 0 0 1-.359-1.072v-3.4h-.9v-1.223h.9v-1.656h1.471v1.656h1.336v1.231h-1.336v2.967a.586.586 0 0 0 .113.425.81.81 0 0 0 .485.1 3.818 3.818 0 0 0 .414-.011 1.135 1.135 0 0 0 .193-.011" class="cls-5" data-name="Path 2281" transform="translate(-1196.265 -1031.995)"/>
                                                    <path id="Path_2282" d="M1242.768 1044.439h-1.492v-3.158h-3.223v3.158h-1.5v-7.632h1.5v3.1h3.223v-3.1h1.492z" class="cls-5" data-name="Path 2282" transform="translate(-1194.185 -1032.002)"/>
                                                    <path id="Path_2283" d="M1241.968 1040.128l2.059-.315v-.206a.72.72 0 0 0-.229-.573 1.345 1.345 0 0 0-.849-.191q-1.133 0-1.133.817h-1.416q0-2.016 2.593-2.015 2.5 0 2.505 1.908v3.29a4.073 4.073 0 0 0 .032.588l.044.25h-1.5v-.6a2.5 2.5 0 0 1-1.851.676 2.2 2.2 0 0 1-1.487-.5 1.716 1.716 0 0 1-.582-1.372q0-1.448 1.818-1.753m2.059 1.122v-.315l-.573.088-.464.077-.464.076a1.4 1.4 0 0 0-.632.229.6.6 0 0 0-.229.491.706.706 0 0 0 .025.191 1.234 1.234 0 0 0 .1.229.538.538 0 0 0 .273.217 1.252 1.252 0 0 0 .479.082 1.523 1.523 0 0 0 1.132-.4 1.3 1.3 0 0 0 .351-.954" class="cls-5" data-name="Path 2283" transform="translate(-1190.916 -1031.241)"/>
                                                    <path id="Path_2284" d="M1248.536 1043.649h-1.436v-.573a2.3 2.3 0 0 1-1.717.643 1.922 1.922 0 0 1-1.492-.582 2.069 2.069 0 0 1-.534-1.454v-4.007h1.471v3.725q0 1.122 1.023 1.122a1.1 1.1 0 0 0 .9-.37 1.449 1.449 0 0 0 .305-.954v-3.519h1.469z" class="cls-5" data-name="Path 2284" transform="translate(-1188.005 -1031.212)"/>
                                                    <path id="Path_2285" d="M1251.469 1039.465h-1.448q0-.7-1.046-.7a1.606 1.606 0 0 0-.675.135.472.472 0 0 0-.294.464.483.483 0 0 0 .414.479c.086.029.431.09 1.034.179a4.46 4.46 0 0 1 1.336.364 1.478 1.478 0 0 1 .839 1.4q0 1.972-2.671 1.971a4.214 4.214 0 0 1-1.122-.136 2.275 2.275 0 0 1-.746-.338 1.572 1.572 0 0 1-.425-.485 1.867 1.867 0 0 1-.206-.517 2.4 2.4 0 0 1-.05-.5h1.448q0 .8 1.175.805 1.1 0 1.1-.664a.452.452 0 0 0-.088-.276.613.613 0 0 0-.3-.191 2.581 2.581 0 0 0-.382-.1 22.016 22.016 0 0 0-.49-.071 6.1 6.1 0 0 1-1.046-.191 1.593 1.593 0 0 1-1.307-1.633 1.544 1.544 0 0 1 .708-1.336 3.072 3.072 0 0 1 1.774-.485 3.719 3.719 0 0 1 1.113.152 2.154 2.154 0 0 1 .725.359 1.567 1.567 0 0 1 .391.49 1.871 1.871 0 0 1 .191.468 1.743 1.743 0 0 1 .038.359" class="cls-5" data-name="Path 2285" transform="translate(-1185.231 -1031.242)"/>
                                                    <path id="Path_2286" d="M1238.845 1034.289h1.589l2.32 4.062h-1.475l-1.639-2.8-1.588 2.8h-1.5zm-.792 4.062h-1.5" class="cls-5" data-name="Path 2286" transform="translate(-1194.183 -1034.289)"/>
                                                    <path id="Rectangle_6" d="M0 0h1.612v1.612H0z" class="cls-5" data-name="Rectangle 6" transform="translate(66.958 10.88)"/>
                                                </g>
                                            </g>
                                        </g>
                                    </g>
                                </g>
                            </g>
                        </g>
                    </g>
                </g>
            </g>
        </g>
    </g>
</svg>
